<svg version="1.1" xmlns="http://www.w3.org/2000/svg" xmlns:xlink="http://www.w3.org/1999/xlink" stroke-linecap="round" stroke-linejoin="round" stroke-width="0" fill-rule="evenodd" clip-rule="evenodd" id="cpzXMDXZZcrIxKf0hTAL_bottom" viewBox="4350 -102870 209010 100995" width="209.01mm" height="100.995mm" class="w-100 h-100"><defs><style>.cpzXMDXZZcrIxKf0hTAL_fr4 {color: #666666;}
.cpzXMDXZZcrIxKf0hTAL_cu {color: #cccccc;}
.cpzXMDXZZcrIxKf0hTAL_cf {color: #cc9933;}
.cpzXMDXZZcrIxKf0hTAL_sm {color: #004200; opacity: 0.75;}
.cpzXMDXZZcrIxKf0hTAL_ss {color: #ffffff;}
.cpzXMDXZZcrIxKf0hTAL_sp {color: #999999;}
.cpzXMDXZZcrIxKf0hTAL_out {color: #000000;}</style><circle cx="0" cy="0" r="1250" id="DFzDxyLG3kzC_Qb93818_pad-10"/><circle cx="0" cy="0" r="400" id="DFzDxyLG3kzC_Qb93818_pad-11"/><circle cx="0" cy="0" r="875" id="t9DwMgjPd3wslRFG0gl-_pad-10"/><circle cx="0" cy="0" r="2000" id="t9DwMgjPd3wslRFG0gl-_pad-11"/><circle cx="0" cy="0" r="1250" id="t9DwMgjPd3wslRFG0gl-_pad-12"/><circle cx="0" cy="0" r="7.85" id="BewHCxuLNn6bQbuUj2N__pad-1"/><circle cx="0" cy="0" r="29.55" id="BewHCxuLNn6bQbuUj2N__pad-2"/><circle cx="0" cy="0" r="34.45" id="VlQG9yipQ5YRYoYcOixr_pad-1"/><circle cx="0" cy="0" r="78.75" id="VlQG9yipQ5YRYoYcOixr_pad-2"/><g id="cpzXMDXZZcrIxKf0hTAL_bottom_copper"><use xlink:href="#DFzDxyLG3kzC_Qb93818_pad-10" x="139065" y="-60325"/><use xlink:href="#DFzDxyLG3kzC_Qb93818_pad-10" x="145415" y="-57785"/><use xlink:href="#DFzDxyLG3kzC_Qb93818_pad-10" x="158115" y="-56515"/><use xlink:href="#DFzDxyLG3kzC_Qb93818_pad-10" x="164465" y="-53975"/><use xlink:href="#DFzDxyLG3kzC_Qb93818_pad-10" x="118110" y="-66040"/><use xlink:href="#DFzDxyLG3kzC_Qb93818_pad-10" x="124460" y="-63500"/><use xlink:href="#DFzDxyLG3kzC_Qb93818_pad-10" x="177165" y="-62230"/><use xlink:href="#DFzDxyLG3kzC_Qb93818_pad-10" x="183515" y="-59690"/><use xlink:href="#DFzDxyLG3kzC_Qb93818_pad-10" x="198120" y="-88900"/><use xlink:href="#DFzDxyLG3kzC_Qb93818_pad-10" x="204470" y="-86360"/><use xlink:href="#DFzDxyLG3kzC_Qb93818_pad-10" x="139065" y="-79375"/><use xlink:href="#DFzDxyLG3kzC_Qb93818_pad-10" x="145415" y="-76835"/><use xlink:href="#DFzDxyLG3kzC_Qb93818_pad-10" x="177165" y="-81280"/><use xlink:href="#DFzDxyLG3kzC_Qb93818_pad-10" x="183515" y="-78740"/><use xlink:href="#DFzDxyLG3kzC_Qb93818_pad-10" x="158115" y="-75565"/><use xlink:href="#DFzDxyLG3kzC_Qb93818_pad-10" x="164465" y="-73025"/><use xlink:href="#DFzDxyLG3kzC_Qb93818_pad-11" x="171450" y="-55750.5"/><use xlink:href="#DFzDxyLG3kzC_Qb93818_pad-11" x="171450" y="-57350"/><use xlink:href="#DFzDxyLG3kzC_Qb93818_pad-11" x="189725" y="-57675"/><use xlink:href="#DFzDxyLG3kzC_Qb93818_pad-11" x="170275" y="-60375"/><use xlink:href="#DFzDxyLG3kzC_Qb93818_pad-11" x="172275" y="-60375"/><use xlink:href="#DFzDxyLG3kzC_Qb93818_pad-11" x="191224.5" y="-57675"/><path d="M 171450 -57350 171450 -55800 171450 -55750.5 M 172275 -60375 170275 -60375 M 191224.5 -57675 189725 -57675" fill="none" stroke-width="250"/></g><g id="cpzXMDXZZcrIxKf0hTAL_bottom_soldermask"><use xlink:href="#t9DwMgjPd3wslRFG0gl-_pad-10" x="137795" y="-62865"/><use xlink:href="#t9DwMgjPd3wslRFG0gl-_pad-11" x="142875" y="-62865"/><use xlink:href="#t9DwMgjPd3wslRFG0gl-_pad-10" x="147955" y="-62865"/><use xlink:href="#t9DwMgjPd3wslRFG0gl-_pad-12" x="139065" y="-60325"/><use xlink:href="#t9DwMgjPd3wslRFG0gl-_pad-12" x="145415" y="-57785"/><use xlink:href="#t9DwMgjPd3wslRFG0gl-_pad-10" x="156845" y="-59055"/><use xlink:href="#t9DwMgjPd3wslRFG0gl-_pad-11" x="161925" y="-59055"/><use xlink:href="#t9DwMgjPd3wslRFG0gl-_pad-10" x="167005" y="-59055"/><use xlink:href="#t9DwMgjPd3wslRFG0gl-_pad-12" x="158115" y="-56515"/><use xlink:href="#t9DwMgjPd3wslRFG0gl-_pad-12" x="164465" y="-53975"/><use xlink:href="#t9DwMgjPd3wslRFG0gl-_pad-10" x="116840" y="-68580"/><use xlink:href="#t9DwMgjPd3wslRFG0gl-_pad-11" x="121920" y="-68580"/><use xlink:href="#t9DwMgjPd3wslRFG0gl-_pad-10" x="127000" y="-68580"/><use xlink:href="#t9DwMgjPd3wslRFG0gl-_pad-12" x="118110" y="-66040"/><use xlink:href="#t9DwMgjPd3wslRFG0gl-_pad-12" x="124460" y="-63500"/><use xlink:href="#t9DwMgjPd3wslRFG0gl-_pad-10" x="175895" y="-64770"/><use xlink:href="#t9DwMgjPd3wslRFG0gl-_pad-11" x="180975" y="-64770"/><use xlink:href="#t9DwMgjPd3wslRFG0gl-_pad-10" x="186055" y="-64770"/><use xlink:href="#t9DwMgjPd3wslRFG0gl-_pad-12" x="177165" y="-62230"/><use xlink:href="#t9DwMgjPd3wslRFG0gl-_pad-12" x="183515" y="-59690"/><use xlink:href="#t9DwMgjPd3wslRFG0gl-_pad-10" x="196850" y="-91440"/><use xlink:href="#t9DwMgjPd3wslRFG0gl-_pad-11" x="201930" y="-91440"/><use xlink:href="#t9DwMgjPd3wslRFG0gl-_pad-10" x="207010" y="-91440"/><use xlink:href="#t9DwMgjPd3wslRFG0gl-_pad-12" x="198120" y="-88900"/><use xlink:href="#t9DwMgjPd3wslRFG0gl-_pad-12" x="204470" y="-86360"/><use xlink:href="#t9DwMgjPd3wslRFG0gl-_pad-10" x="137795" y="-81915"/><use xlink:href="#t9DwMgjPd3wslRFG0gl-_pad-11" x="142875" y="-81915"/><use xlink:href="#t9DwMgjPd3wslRFG0gl-_pad-10" x="147955" y="-81915"/><use xlink:href="#t9DwMgjPd3wslRFG0gl-_pad-12" x="139065" y="-79375"/><use xlink:href="#t9DwMgjPd3wslRFG0gl-_pad-12" x="145415" y="-76835"/><use xlink:href="#t9DwMgjPd3wslRFG0gl-_pad-10" x="175895" y="-83820"/><use xlink:href="#t9DwMgjPd3wslRFG0gl-_pad-11" x="180975" y="-83820"/><use xlink:href="#t9DwMgjPd3wslRFG0gl-_pad-10" x="186055" y="-83820"/><use xlink:href="#t9DwMgjPd3wslRFG0gl-_pad-12" x="177165" y="-81280"/><use xlink:href="#t9DwMgjPd3wslRFG0gl-_pad-12" x="183515" y="-78740"/><use xlink:href="#t9DwMgjPd3wslRFG0gl-_pad-10" x="156845" y="-78105"/><use xlink:href="#t9DwMgjPd3wslRFG0gl-_pad-11" x="161925" y="-78105"/><use xlink:href="#t9DwMgjPd3wslRFG0gl-_pad-10" x="167005" y="-78105"/><use xlink:href="#t9DwMgjPd3wslRFG0gl-_pad-12" x="158115" y="-75565"/><use xlink:href="#t9DwMgjPd3wslRFG0gl-_pad-12" x="164465" y="-73025"/></g><g id="cpzXMDXZZcrIxKf0hTAL_bottom_drill1" transform="scale(25.4,25.4)"><use xlink:href="#BewHCxuLNn6bQbuUj2N__pad-1" x="6703.7" y="-2377"/><use xlink:href="#BewHCxuLNn6bQbuUj2N__pad-1" x="6750" y="-2194.9"/><use xlink:href="#BewHCxuLNn6bQbuUj2N__pad-1" x="6750" y="-2257.9"/><use xlink:href="#BewHCxuLNn6bQbuUj2N__pad-1" x="6782.5" y="-2377"/><use xlink:href="#BewHCxuLNn6bQbuUj2N__pad-1" x="7469.5" y="-2270.7"/><use xlink:href="#BewHCxuLNn6bQbuUj2N__pad-1" x="7528.5" y="-2270.7"/><use xlink:href="#BewHCxuLNn6bQbuUj2N__pad-2" x="4650" y="-2600"/><use xlink:href="#BewHCxuLNn6bQbuUj2N__pad-2" x="4900" y="-2500"/><use xlink:href="#BewHCxuLNn6bQbuUj2N__pad-2" x="5475" y="-2375"/><use xlink:href="#BewHCxuLNn6bQbuUj2N__pad-2" x="5475" y="-3125"/><use xlink:href="#BewHCxuLNn6bQbuUj2N__pad-2" x="5725" y="-2275"/><use xlink:href="#BewHCxuLNn6bQbuUj2N__pad-2" x="5725" y="-3025"/><use xlink:href="#BewHCxuLNn6bQbuUj2N__pad-2" x="6225" y="-2225"/><use xlink:href="#BewHCxuLNn6bQbuUj2N__pad-2" x="6225" y="-2975"/><use xlink:href="#BewHCxuLNn6bQbuUj2N__pad-2" x="6475" y="-2125"/><use xlink:href="#BewHCxuLNn6bQbuUj2N__pad-2" x="6475" y="-2875"/><use xlink:href="#BewHCxuLNn6bQbuUj2N__pad-2" x="6975" y="-2450"/><use xlink:href="#BewHCxuLNn6bQbuUj2N__pad-2" x="6975" y="-3200"/><use xlink:href="#BewHCxuLNn6bQbuUj2N__pad-2" x="7225" y="-2350"/><use xlink:href="#BewHCxuLNn6bQbuUj2N__pad-2" x="7225" y="-3100"/><use xlink:href="#BewHCxuLNn6bQbuUj2N__pad-2" x="7800" y="-3500"/><use xlink:href="#BewHCxuLNn6bQbuUj2N__pad-2" x="8050" y="-3400"/></g><g id="cpzXMDXZZcrIxKf0hTAL_bottom_drill2"><path d="M 131445 -81915 131445 -89535 M 169545 -93345 169545 -91440 M 133350 -51435 135255 -51435 M 152400 -93345 A 1905 1905 0 0 1 154305 -91440 M 114300 -80010 129540 -80010 M 173355 -49530 173355 -51435 M 169545 -47625 171450 -47625 M 112395 -57150 A 1905 1905 0 0 1 110490 -59055 M 211455 -102870 A 1905 1905 0 0 1 213360 -100965 M 129540 -57150 114300 -57150 M 205740 -51435 A 1905 1905 0 0 1 207645 -49530 M 169545 -93345 A 1905 1905 0 0 1 171450 -95250 M 114300 -80010 112395 -80010 M 213360 -51435 A 1905 1905 0 0 1 211455 -49530 M 110490 -78105 A 1905 1905 0 0 1 112395 -80010 M 188595 -53340 A 1905 1905 0 0 1 190500 -51435 M 192405 -102870 211455 -102870 M 152400 -47625 154305 -47625 M 190500 -100965 190500 -99060 M 112395 -57150 114300 -57150 M 135255 -93345 133350 -93345 M 196215 -49530 A 1905 1905 0 0 1 198120 -51435 M 190500 -100965 A 1905 1905 0 0 1 192405 -102870 M 175260 -53340 188595 -53340 M 133350 -51435 A 1905 1905 0 0 1 131445 -53340 M 173355 -49530 A 1905 1905 0 0 1 171450 -47625 M 152400 -93345 150495 -93345 M 173355 -95250 171450 -95250 M 213360 -99060 213360 -100965 M 110490 -60960 110490 -59055 M 110490 -60960 110490 -76200 M 173355 -51435 A 1905 1905 0 0 1 175260 -53340 M 156210 -89535 A 1905 1905 0 0 1 154305 -91440 M 169545 -91440 A 1905 1905 0 0 1 167640 -89535 M 129540 -57150 A 1905 1905 0 0 1 131445 -55245 M 173355 -95250 188595 -95250 M 131445 -55245 131445 -53340 M 110490 -78105 110490 -76200 M 192405 -49530 A 1905 1905 0 0 1 190500 -51435 M 148590 -51435 135255 -51435 M 211455 -49530 207645 -49530 M 190500 -97155 190500 -99060 M 152400 -47625 A 1905 1905 0 0 1 150495 -49530 M 131445 -91440 131445 -89535 M 131445 -91440 A 1905 1905 0 0 1 133350 -93345 M 205740 -51435 198120 -51435 M 190500 -97155 A 1905 1905 0 0 1 188595 -95250 M 213360 -51435 213360 -99060 M 131445 -81915 A 1905 1905 0 0 1 129540 -80010 M 135255 -93345 150495 -93345 M 192405 -49530 196215 -49530 M 156210 -89535 167640 -89535 M 169545 -47625 154305 -47625 M 148590 -51435 A 1905 1905 0 0 1 150495 -49530" fill="none" stroke-width="100"/><path d="M 115965 -67705 117715 -69455 M 117715 -67705 115965 -69455 M 126125 -67705 127875 -69455 M 127875 -67705 126125 -69455 M 136920 -61990 138670 -63740 M 138670 -61990 136920 -63740 M 136920 -81040 138670 -82790 M 138670 -81040 136920 -82790 M 147080 -61990 148830 -63740 M 148830 -61990 147080 -63740 M 147080 -81040 148830 -82790 M 148830 -81040 147080 -82790 M 155970 -58180 157720 -59930 M 157720 -58180 155970 -59930 M 155970 -77230 157720 -78980 M 157720 -77230 155970 -78980 M 166130 -58180 167880 -59930 M 167880 -58180 166130 -59930 M 166130 -77230 167880 -78980 M 167880 -77230 166130 -78980 M 175020 -63895 176770 -65645 M 176770 -63895 175020 -65645 M 175020 -82945 176770 -84695 M 176770 -82945 175020 -84695 M 185180 -63895 186930 -65645 M 186930 -63895 185180 -65645 M 185180 -82945 186930 -84695 M 186930 -82945 185180 -84695 M 195975 -90565 197725 -92315 M 197725 -90565 195975 -92315 M 206135 -90565 207885 -92315 M 207885 -90565 206135 -92315" fill="none" stroke-width="175"/><path d="M 123920 -68580 A 2000 2000 0 0 1 119920 -68580 2000 2000 0 0 1 123920 -68580 M 144875 -62865 A 2000 2000 0 0 1 140875 -62865 2000 2000 0 0 1 144875 -62865 M 144875 -81915 A 2000 2000 0 0 1 140875 -81915 2000 2000 0 0 1 144875 -81915 M 163925 -59055 A 2000 2000 0 0 1 159925 -59055 2000 2000 0 0 1 163925 -59055 M 163925 -78105 A 2000 2000 0 0 1 159925 -78105 2000 2000 0 0 1 163925 -78105 M 182975 -64770 A 2000 2000 0 0 1 178975 -64770 2000 2000 0 0 1 182975 -64770 M 182975 -83820 A 2000 2000 0 0 1 178975 -83820 2000 2000 0 0 1 182975 -83820 M 203930 -91440 A 2000 2000 0 0 1 199930 -91440 2000 2000 0 0 1 203930 -91440" fill="none" stroke-width="400"/><path d="M 112916.19 -106045.24 112916.19 -104045.24 113392.38 -104045.24 113678.09 -104140.48 113868.57 -104330.95 113963.81 -104521.43 114059.05 -104902.38 114059.05 -105188.1 113963.81 -105569.05 113868.57 -105759.52 113678.09 -105950 113392.38 -106045.24 112916.19 -106045.24 M 114916.19 -106045.24 114916.19 -104711.9 M 114916.19 -105092.86 115011.43 -104902.38 115106.67 -104807.14 115297.14 -104711.9 115487.62 -104711.9 M 116154.28 -106045.24 116154.28 -104711.9 M 116154.28 -104045.24 116059.05 -104140.48 116154.28 -104235.71 116249.52 -104140.48 116154.28 -104045.24 116154.28 -104235.71 M 117392.38 -106045.24 117201.9 -105950 117106.67 -105759.52 117106.67 -104045.24 M 118440 -106045.24 118249.52 -105950 118154.28 -105759.52 118154.28 -104045.24 M 120725.71 -106045.24 120725.71 -104045.24 121392.38 -105473.81 122059.05 -104045.24 122059.05 -106045.24 M 123868.57 -106045.24 123868.57 -104997.62 123773.33 -104807.14 123582.86 -104711.9 123201.9 -104711.9 123011.43 -104807.14 M 123868.57 -105950 123678.09 -106045.24 123201.9 -106045.24 123011.43 -105950 122916.19 -105759.52 122916.19 -105569.05 123011.43 -105378.57 123201.9 -105283.33 123678.09 -105283.33 123868.57 -105188.1 M 124820.95 -104711.9 124820.95 -106711.9 M 124820.95 -104807.14 125011.43 -104711.9 125392.38 -104711.9 125582.86 -104807.14 125678.09 -104902.38 125773.33 -105092.86 125773.33 -105664.29 125678.09 -105854.76 125582.86 -105950 125392.38 -106045.24 125011.43 -106045.24 124820.95 -105950 M 126630.48 -105854.76 126725.71 -105950 126630.48 -106045.24 126535.24 -105950 126630.48 -105854.76 126630.48 -106045.24 M 126630.48 -104807.14 126725.71 -104902.38 126630.48 -104997.62 126535.24 -104902.38 126630.48 -104807.14 126630.48 -104997.62" fill="none" stroke-width="200"/><path d="M 108690 -108445 110440 -110195 M 110440 -108445 108690 -110195" fill="none" stroke-width="175"/><path d="M 113963.81 -110245.24 112820.95 -110245.24 M 113392.38 -110245.24 113392.38 -108245.24 113201.9 -108530.95 113011.43 -108721.43 112820.95 -108816.67 M 114820.95 -110054.76 114916.19 -110150 114820.95 -110245.24 114725.71 -110150 114820.95 -110054.76 114820.95 -110245.24 M 115582.86 -108245.24 116916.19 -108245.24 116059.05 -110245.24 M 118630.48 -108245.24 117678.09 -108245.24 117582.86 -109197.62 117678.09 -109102.38 117868.57 -109007.14 118344.76 -109007.14 118535.24 -109102.38 118630.48 -109197.62 118725.71 -109388.1 118725.71 -109864.29 118630.48 -110054.76 118535.24 -110150 118344.76 -110245.24 117868.57 -110245.24 117678.09 -110150 117582.86 -110054.76 M 119963.81 -108245.24 120154.29 -108245.24 120344.76 -108340.48 120440 -108435.71 120535.24 -108626.19 120630.48 -109007.14 120630.48 -109483.33 120535.24 -109864.29 120440 -110054.76 120344.76 -110150 120154.29 -110245.24 119963.81 -110245.24 119773.33 -110150 119678.09 -110054.76 119582.86 -109864.29 119487.62 -109483.33 119487.62 -109007.14 119582.86 -108626.19 119678.09 -108435.71 119773.33 -108340.48 119963.81 -108245.24 M 121487.62 -110245.24 121487.62 -108911.9 M 121487.62 -109102.38 121582.86 -109007.14 121773.33 -108911.9 122059.05 -108911.9 122249.52 -109007.14 122344.76 -109197.62 122344.76 -110245.24 M 122344.76 -109197.62 122440 -109007.14 122630.48 -108911.9 122916.19 -108911.9 123106.67 -109007.14 123201.9 -109197.62 123201.9 -110245.24 M 124154.29 -110245.24 124154.29 -108911.9 M 124154.29 -109102.38 124249.52 -109007.14 124440 -108911.9 124725.71 -108911.9 124916.19 -109007.14 125011.43 -109197.62 125011.43 -110245.24 M 125011.43 -109197.62 125106.67 -109007.14 125297.14 -108911.9 125582.86 -108911.9 125773.33 -109007.14 125868.57 -109197.62 125868.57 -110245.24 M 129773.33 -108150 128059.05 -110721.43 M 132344.76 -108245.24 132535.24 -108245.24 132725.72 -108340.48 132820.95 -108435.71 132916.19 -108626.19 133011.43 -109007.14 133011.43 -109483.33 132916.19 -109864.29 132820.95 -110054.76 132725.72 -110150 132535.24 -110245.24 132344.76 -110245.24 132154.29 -110150 132059.05 -110054.76 131963.81 -109864.29 131868.57 -109483.33 131868.57 -109007.14 131963.81 -108626.19 132059.05 -108435.71 132154.29 -108340.48 132344.76 -108245.24 M 133868.57 -110054.76 133963.81 -110150 133868.57 -110245.24 133773.33 -110150 133868.57 -110054.76 133868.57 -110245.24 M 135201.91 -108245.24 135392.38 -108245.24 135582.86 -108340.48 135678.1 -108435.71 135773.33 -108626.19 135868.57 -109007.14 135868.57 -109483.33 135773.33 -109864.29 135678.1 -110054.76 135582.86 -110150 135392.38 -110245.24 135201.91 -110245.24 135011.43 -110150 134916.19 -110054.76 134820.95 -109864.29 134725.72 -109483.33 134725.72 -109007.14 134820.95 -108626.19 134916.19 -108435.71 135011.43 -108340.48 135201.91 -108245.24 M 137582.86 -108245.24 137201.91 -108245.24 137011.43 -108340.48 136916.19 -108435.71 136725.72 -108721.43 136630.48 -109102.38 136630.48 -109864.29 136725.72 -110054.76 136820.95 -110150 137011.43 -110245.24 137392.38 -110245.24 137582.86 -110150 137678.1 -110054.76 137773.33 -109864.29 137773.33 -109388.1 137678.1 -109197.62 137582.86 -109102.38 137392.38 -109007.14 137011.43 -109007.14 136820.95 -109102.38 136725.72 -109197.62 136630.48 -109388.1 M 138916.19 -109102.38 138725.72 -109007.14 138630.48 -108911.9 138535.24 -108721.43 138535.24 -108626.19 138630.48 -108435.71 138725.72 -108340.48 138916.19 -108245.24 139297.14 -108245.24 139487.62 -108340.48 139582.86 -108435.71 139678.1 -108626.19 139678.1 -108721.43 139582.86 -108911.9 139487.62 -109007.14 139297.14 -109102.38 138916.19 -109102.38 138725.72 -109197.62 138630.48 -109292.86 138535.24 -109483.33 138535.24 -109864.29 138630.48 -110054.76 138725.72 -110150 138916.19 -110245.24 139297.14 -110245.24 139487.62 -110150 139582.86 -110054.76 139678.1 -109864.29 139678.1 -109483.33 139582.86 -109292.86 139487.62 -109197.62 139297.14 -109102.38 M 140630.48 -110245.24 141011.43 -110245.24 141201.91 -110150 141297.14 -110054.76 141487.62 -109769.05 141582.86 -109388.1 141582.86 -108626.19 141487.62 -108435.71 141392.38 -108340.48 141201.91 -108245.24 140820.95 -108245.24 140630.48 -108340.48 140535.24 -108435.71 140440 -108626.19 140440 -109102.38 140535.24 -109292.86 140630.48 -109388.1 140820.95 -109483.33 141201.91 -109483.33 141392.38 -109388.1 141487.62 -109292.86 141582.86 -109102.38 M 142344.76 -108245.24 142344.76 -108626.19 M 143106.67 -108245.24 143106.67 -108626.19 M 146059.05 -111007.14 145963.81 -110911.9 145773.34 -110626.19 145678.1 -110435.71 145582.86 -110150 145487.62 -109673.81 145487.62 -109292.86 145582.86 -108816.67 145678.1 -108530.95 145773.34 -108340.48 145963.81 -108054.76 146059.05 -107959.52 M 147868.57 -110245.24 146725.72 -110245.24 M 147297.14 -110245.24 147297.14 -108245.24 147106.67 -108530.95 146916.19 -108721.43 146725.72 -108816.67 M 149582.86 -108245.24 149201.91 -108245.24 149011.43 -108340.48 148916.19 -108435.71 148725.72 -108721.43 148630.48 -109102.38 148630.48 -109864.29 148725.72 -110054.76 148820.95 -110150 149011.43 -110245.24 149392.38 -110245.24 149582.86 -110150 149678.1 -110054.76 149773.34 -109864.29 149773.34 -109388.1 149678.1 -109197.62 149582.86 -109102.38 149392.38 -109007.14 149011.43 -109007.14 148820.95 -109102.38 148725.72 -109197.62 148630.48 -109388.1 M 152154.29 -110245.24 152154.29 -108245.24 M 153011.43 -110245.24 153011.43 -109197.62 152916.19 -109007.14 152725.72 -108911.9 152440 -108911.9 152249.53 -109007.14 152154.29 -109102.38 M 154249.53 -110245.24 154059.05 -110150 153963.81 -110054.76 153868.57 -109864.29 153868.57 -109292.86 153963.81 -109102.38 154059.05 -109007.14 154249.53 -108911.9 154535.24 -108911.9 154725.72 -109007.14 154820.96 -109102.38 154916.19 -109292.86 154916.19 -109864.29 154820.96 -110054.76 154725.72 -110150 154535.24 -110245.24 154249.53 -110245.24 M 156059.05 -110245.24 155868.57 -110150 155773.34 -109959.52 155773.34 -108245.24 M 157582.86 -110150 157392.38 -110245.24 157011.43 -110245.24 156820.96 -110150 156725.72 -109959.52 156725.72 -109197.62 156820.96 -109007.14 157011.43 -108911.9 157392.38 -108911.9 157582.86 -109007.14 157678.1 -109197.62 157678.1 -109388.1 156725.72 -109578.57 M 158440 -110150 158630.48 -110245.24 159011.43 -110245.24 159201.91 -110150 159297.15 -109959.52 159297.15 -109864.29 159201.91 -109673.81 159011.43 -109578.57 158725.72 -109578.57 158535.24 -109483.33 158440 -109292.86 158440 -109197.62 158535.24 -109007.14 158725.72 -108911.9 159011.43 -108911.9 159201.91 -109007.14 M 159963.81 -111007.14 160059.05 -110911.9 160249.53 -110626.19 160344.77 -110435.71 160440 -110150 160535.24 -109673.81 160535.24 -109292.86 160440 -108816.67 160344.77 -108530.95 160249.53 -108340.48 160059.05 -108054.76 159963.81 -107959.52 M 163582.86 -111007.14 163487.62 -110911.9 163297.15 -110626.19 163201.91 -110435.71 163106.67 -110150 163011.43 -109673.81 163011.43 -109292.86 163106.67 -108816.67 163201.91 -108530.95 163297.15 -108340.48 163487.62 -108054.76 163582.86 -107959.52 M 164344.77 -108911.9 164344.77 -110245.24 M 164344.77 -109102.38 164440 -109007.14 164630.48 -108911.9 164916.19 -108911.9 165106.67 -109007.14 165201.91 -109197.62 165201.91 -110245.24 M 166440 -110245.24 166249.53 -110150 166154.29 -110054.76 166059.05 -109864.29 166059.05 -109292.86 166154.29 -109102.38 166249.53 -109007.14 166440 -108911.9 166725.72 -108911.9 166916.19 -109007.14 167011.43 -109102.38 167106.67 -109292.86 167106.67 -109864.29 167011.43 -110054.76 166916.19 -110150 166725.72 -110245.24 166440 -110245.24 M 167678.1 -108911.9 168440 -108911.9 M 167963.81 -108245.24 167963.81 -109959.52 168059.05 -110150 168249.53 -110245.24 168440 -110245.24 M 170630.48 -108911.9 170630.48 -110911.9 M 170630.48 -109007.14 170820.96 -108911.9 171201.91 -108911.9 171392.39 -109007.14 171487.62 -109102.38 171582.86 -109292.86 171582.86 -109864.29 171487.62 -110054.76 171392.39 -110150 171201.91 -110245.24 170820.96 -110245.24 170630.48 -110150 M 172725.72 -110245.24 172535.24 -110150 172440.01 -109959.52 172440.01 -108245.24 M 174344.77 -110245.24 174344.77 -109197.62 174249.53 -109007.14 174059.05 -108911.9 173678.1 -108911.9 173487.62 -109007.14 M 174344.77 -110150 174154.29 -110245.24 173678.1 -110245.24 173487.62 -110150 173392.39 -109959.52 173392.39 -109769.05 173487.62 -109578.57 173678.1 -109483.33 174154.29 -109483.33 174344.77 -109388.1 M 175011.43 -108911.9 175773.34 -108911.9 M 175297.15 -108245.24 175297.15 -109959.52 175392.39 -110150 175582.86 -110245.24 175773.34 -110245.24 M 177201.91 -110150 177011.43 -110245.24 176630.48 -110245.24 176440.01 -110150 176344.77 -109959.52 176344.77 -109197.62 176440.01 -109007.14 176630.48 -108911.9 177011.43 -108911.9 177201.91 -109007.14 177297.15 -109197.62 177297.15 -109388.1 176344.77 -109578.57 M 179011.43 -110245.24 179011.43 -108245.24 M 179011.43 -110150 178820.96 -110245.24 178440.01 -110245.24 178249.53 -110150 178154.29 -110054.76 178059.05 -109864.29 178059.05 -109292.86 178154.29 -109102.38 178249.53 -109007.14 178440.01 -108911.9 178820.96 -108911.9 179011.43 -109007.14 M 179773.34 -111007.14 179868.58 -110911.9 180059.05 -110626.19 180154.29 -110435.71 180249.53 -110150 180344.77 -109673.81 180344.77 -109292.86 180249.53 -108816.67 180154.29 -108530.95 180059.05 -108340.48 179868.58 -108054.76 179773.34 -107959.52 M 110440 -112270 A 1000 1000 0 0 1 108440 -112270 1000 1000 0 0 1 110440 -112270 M 113773.33 -111861.9 113773.33 -113195.24 M 113297.14 -111100 112820.95 -112528.57 114059.05 -112528.57 M 114820.95 -113004.76 114916.19 -113100 114820.95 -113195.24 114725.71 -113100 114820.95 -113004.76 114820.95 -113195.24 M 116154.28 -111195.24 116344.76 -111195.24 116535.24 -111290.48 116630.48 -111385.71 116725.71 -111576.19 116820.95 -111957.14 116820.95 -112433.33 116725.71 -112814.28 116630.48 -113004.76 116535.24 -113100 116344.76 -113195.24 116154.28 -113195.24 115963.81 -113100 115868.57 -113004.76 115773.33 -112814.28 115678.09 -112433.33 115678.09 -111957.14 115773.33 -111576.19 115868.57 -111385.71 115963.81 -111290.48 116154.28 -111195.24 M 118059.05 -111195.24 118249.52 -111195.24 118440 -111290.48 118535.24 -111385.71 118630.48 -111576.19 118725.71 -111957.14 118725.71 -112433.33 118630.48 -112814.28 118535.24 -113004.76 118440 -113100 118249.52 -113195.24 118059.05 -113195.24 117868.57 -113100 117773.33 -113004.76 117678.09 -112814.28 117582.86 -112433.33 117582.86 -111957.14 117678.09 -111576.19 117773.33 -111385.71 117868.57 -111290.48 118059.05 -111195.24 M 119963.81 -111195.24 120154.29 -111195.24 120344.76 -111290.48 120440 -111385.71 120535.24 -111576.19 120630.48 -111957.14 120630.48 -112433.33 120535.24 -112814.28 120440 -113004.76 120344.76 -113100 120154.29 -113195.24 119963.81 -113195.24 119773.33 -113100 119678.09 -113004.76 119582.86 -112814.28 119487.62 -112433.33 119487.62 -111957.14 119582.86 -111576.19 119678.09 -111385.71 119773.33 -111290.48 119963.81 -111195.24 M 121487.62 -113195.24 121487.62 -111861.9 M 121487.62 -112052.38 121582.86 -111957.14 121773.33 -111861.9 122059.05 -111861.9 122249.52 -111957.14 122344.76 -112147.62 122344.76 -113195.24 M 122344.76 -112147.62 122440 -111957.14 122630.48 -111861.9 122916.19 -111861.9 123106.67 -111957.14 123201.9 -112147.62 123201.9 -113195.24 M 124154.29 -113195.24 124154.29 -111861.9 M 124154.29 -112052.38 124249.52 -111957.14 124440 -111861.9 124725.71 -111861.9 124916.19 -111957.14 125011.43 -112147.62 125011.43 -113195.24 M 125011.43 -112147.62 125106.67 -111957.14 125297.14 -111861.9 125582.86 -111861.9 125773.33 -111957.14 125868.57 -112147.62 125868.57 -113195.24 M 129773.33 -111100 128059.05 -113671.43 M 132344.76 -111195.24 132535.24 -111195.24 132725.72 -111290.48 132820.95 -111385.71 132916.19 -111576.19 133011.43 -111957.14 133011.43 -112433.33 132916.19 -112814.28 132820.95 -113004.76 132725.72 -113100 132535.24 -113195.24 132344.76 -113195.24 132154.29 -113100 132059.05 -113004.76 131963.81 -112814.28 131868.57 -112433.33 131868.57 -111957.14 131963.81 -111576.19 132059.05 -111385.71 132154.29 -111290.48 132344.76 -111195.24 M 133868.57 -113004.76 133963.81 -113100 133868.57 -113195.24 133773.33 -113100 133868.57 -113004.76 133868.57 -113195.24 M 135868.57 -113195.24 134725.72 -113195.24 M 135297.14 -113195.24 135297.14 -111195.24 135106.67 -111480.95 134916.19 -111671.43 134725.72 -111766.67 M 137678.1 -111195.24 136725.72 -111195.24 136630.48 -112147.62 136725.72 -112052.38 136916.19 -111957.14 137392.38 -111957.14 137582.86 -112052.38 137678.1 -112147.62 137773.33 -112338.09 137773.33 -112814.28 137678.1 -113004.76 137582.86 -113100 137392.38 -113195.24 136916.19 -113195.24 136725.72 -113100 136630.48 -113004.76 M 138440 -111195.24 139773.33 -111195.24 138916.19 -113195.24 M 141487.62 -111195.24 140535.24 -111195.24 140440 -112147.62 140535.24 -112052.38 140725.72 -111957.14 141201.91 -111957.14 141392.38 -112052.38 141487.62 -112147.62 141582.86 -112338.09 141582.86 -112814.28 141487.62 -113004.76 141392.38 -113100 141201.91 -113195.24 140725.72 -113195.24 140535.24 -113100 140440 -113004.76 M 142344.76 -111195.24 142344.76 -111576.19 M 143106.67 -111195.24 143106.67 -111576.19 M 146059.05 -113957.14 145963.81 -113861.9 145773.34 -113576.19 145678.1 -113385.71 145582.86 -113100 145487.62 -112623.81 145487.62 -112242.86 145582.86 -111766.67 145678.1 -111480.95 145773.34 -111290.48 145963.81 -111004.76 146059.05 -110909.52 M 147106.67 -112052.38 146916.19 -111957.14 146820.95 -111861.9 146725.72 -111671.43 146725.72 -111576.19 146820.95 -111385.71 146916.19 -111290.48 147106.67 -111195.24 147487.62 -111195.24 147678.1 -111290.48 147773.34 -111385.71 147868.57 -111576.19 147868.57 -111671.43 147773.34 -111861.9 147678.1 -111957.14 147487.62 -112052.38 147106.67 -112052.38 146916.19 -112147.62 146820.95 -112242.86 146725.72 -112433.33 146725.72 -112814.28 146820.95 -113004.76 146916.19 -113100 147106.67 -113195.24 147487.62 -113195.24 147678.1 -113100 147773.34 -113004.76 147868.57 -112814.28 147868.57 -112433.33 147773.34 -112242.86 147678.1 -112147.62 147487.62 -112052.38 M 150249.53 -113195.24 150249.53 -111195.24 M 151106.67 -113195.24 151106.67 -112147.62 151011.43 -111957.14 150820.96 -111861.9 150535.24 -111861.9 150344.76 -111957.14 150249.53 -112052.38 M 152344.76 -113195.24 152154.29 -113100 152059.05 -113004.76 151963.81 -112814.28 151963.81 -112242.86 152059.05 -112052.38 152154.29 -111957.14 152344.76 -111861.9 152630.48 -111861.9 152820.96 -111957.14 152916.19 -112052.38 153011.43 -112242.86 153011.43 -112814.28 152916.19 -113004.76 152820.96 -113100 152630.48 -113195.24 152344.76 -113195.24 M 154154.29 -113195.24 153963.81 -113100 153868.57 -112909.52 153868.57 -111195.24 M 155678.1 -113100 155487.62 -113195.24 155106.67 -113195.24 154916.19 -113100 154820.96 -112909.52 154820.96 -112147.62 154916.19 -111957.14 155106.67 -111861.9 155487.62 -111861.9 155678.1 -111957.14 155773.34 -112147.62 155773.34 -112338.09 154820.96 -112528.57 M 156535.24 -113100 156725.72 -113195.24 157106.67 -113195.24 157297.15 -113100 157392.38 -112909.52 157392.38 -112814.28 157297.15 -112623.81 157106.67 -112528.57 156820.96 -112528.57 156630.48 -112433.33 156535.24 -112242.86 156535.24 -112147.62 156630.48 -111957.14 156820.96 -111861.9 157106.67 -111861.9 157297.15 -111957.14 M 158059.05 -113957.14 158154.29 -113861.9 158344.77 -113576.19 158440 -113385.71 158535.24 -113100 158630.48 -112623.81 158630.48 -112242.86 158535.24 -111766.67 158440 -111480.95 158344.77 -111290.48 158154.29 -111004.76 158059.05 -110909.52 M 161678.1 -113957.14 161582.86 -113861.9 161392.38 -113576.19 161297.15 -113385.71 161201.91 -113100 161106.67 -112623.81 161106.67 -112242.86 161201.91 -111766.67 161297.15 -111480.95 161392.38 -111290.48 161582.86 -111004.76 161678.1 -110909.52 M 162440 -111861.9 162440 -113195.24 M 162440 -112052.38 162535.24 -111957.14 162725.72 -111861.9 163011.43 -111861.9 163201.91 -111957.14 163297.15 -112147.62 163297.15 -113195.24 M 164535.24 -113195.24 164344.77 -113100 164249.53 -113004.76 164154.29 -112814.28 164154.29 -112242.86 164249.53 -112052.38 164344.77 -111957.14 164535.24 -111861.9 164820.96 -111861.9 165011.43 -111957.14 165106.67 -112052.38 165201.91 -112242.86 165201.91 -112814.28 165106.67 -113004.76 165011.43 -113100 164820.96 -113195.24 164535.24 -113195.24 M 165773.34 -111861.9 166535.24 -111861.9 M 166059.05 -111195.24 166059.05 -112909.52 166154.29 -113100 166344.77 -113195.24 166535.24 -113195.24 M 168725.72 -111861.9 168725.72 -113861.9 M 168725.72 -111957.14 168916.2 -111861.9 169297.15 -111861.9 169487.62 -111957.14 169582.86 -112052.38 169678.1 -112242.86 169678.1 -112814.28 169582.86 -113004.76 169487.62 -113100 169297.15 -113195.24 168916.2 -113195.24 168725.72 -113100 M 170820.96 -113195.24 170630.48 -113100 170535.24 -112909.52 170535.24 -111195.24 M 172440.01 -113195.24 172440.01 -112147.62 172344.77 -111957.14 172154.29 -111861.9 171773.34 -111861.9 171582.86 -111957.14 M 172440.01 -113100 172249.53 -113195.24 171773.34 -113195.24 171582.86 -113100 171487.62 -112909.52 171487.62 -112719.05 171582.86 -112528.57 171773.34 -112433.33 172249.53 -112433.33 172440.01 -112338.09 M 173106.67 -111861.9 173868.58 -111861.9 M 173392.39 -111195.24 173392.39 -112909.52 173487.62 -113100 173678.1 -113195.24 173868.58 -113195.24 M 175297.15 -113100 175106.67 -113195.24 174725.72 -113195.24 174535.24 -113100 174440.01 -112909.52 174440.01 -112147.62 174535.24 -111957.14 174725.72 -111861.9 175106.67 -111861.9 175297.15 -111957.14 175392.39 -112147.62 175392.39 -112338.09 174440.01 -112528.57 M 177106.67 -113195.24 177106.67 -111195.24 M 177106.67 -113100 176916.2 -113195.24 176535.24 -113195.24 176344.77 -113100 176249.53 -113004.76 176154.29 -112814.28 176154.29 -112242.86 176249.53 -112052.38 176344.77 -111957.14 176535.24 -111861.9 176916.2 -111861.9 177106.67 -111957.14 M 177868.58 -113957.14 177963.82 -113861.9 178154.29 -113576.19 178249.53 -113385.71 178344.77 -113100 178440.01 -112623.81 178440.01 -112242.86 178344.77 -111766.67 178249.53 -111480.95 178154.29 -111290.48 177963.82 -111004.76 177868.58 -110909.52" fill="none" stroke-width="200"/></g><g id="cpzXMDXZZcrIxKf0hTAL_bottom_drill3" transform="scale(25.4,25.4)"><use xlink:href="#VlQG9yipQ5YRYoYcOixr_pad-1" x="4600" y="-2700"/><use xlink:href="#VlQG9yipQ5YRYoYcOixr_pad-1" x="5000" y="-2700"/><use xlink:href="#VlQG9yipQ5YRYoYcOixr_pad-1" x="5425" y="-2475"/><use xlink:href="#VlQG9yipQ5YRYoYcOixr_pad-1" x="5425" y="-3225"/><use xlink:href="#VlQG9yipQ5YRYoYcOixr_pad-1" x="5825" y="-2475"/><use xlink:href="#VlQG9yipQ5YRYoYcOixr_pad-1" x="5825" y="-3225"/><use xlink:href="#VlQG9yipQ5YRYoYcOixr_pad-1" x="6175" y="-2325"/><use xlink:href="#VlQG9yipQ5YRYoYcOixr_pad-1" x="6175" y="-3075"/><use xlink:href="#VlQG9yipQ5YRYoYcOixr_pad-1" x="6575" y="-2325"/><use xlink:href="#VlQG9yipQ5YRYoYcOixr_pad-1" x="6575" y="-3075"/><use xlink:href="#VlQG9yipQ5YRYoYcOixr_pad-1" x="6925" y="-2550"/><use xlink:href="#VlQG9yipQ5YRYoYcOixr_pad-1" x="6925" y="-3300"/><use xlink:href="#VlQG9yipQ5YRYoYcOixr_pad-1" x="7325" y="-2550"/><use xlink:href="#VlQG9yipQ5YRYoYcOixr_pad-1" x="7325" y="-3300"/><use xlink:href="#VlQG9yipQ5YRYoYcOixr_pad-1" x="7750" y="-3600"/><use xlink:href="#VlQG9yipQ5YRYoYcOixr_pad-1" x="8150" y="-3600"/><use xlink:href="#VlQG9yipQ5YRYoYcOixr_pad-2" x="4800" y="-2700"/><use xlink:href="#VlQG9yipQ5YRYoYcOixr_pad-2" x="5625" y="-2475"/><use xlink:href="#VlQG9yipQ5YRYoYcOixr_pad-2" x="5625" y="-3225"/><use xlink:href="#VlQG9yipQ5YRYoYcOixr_pad-2" x="6375" y="-2325"/><use xlink:href="#VlQG9yipQ5YRYoYcOixr_pad-2" x="6375" y="-3075"/><use xlink:href="#VlQG9yipQ5YRYoYcOixr_pad-2" x="7125" y="-2550"/><use xlink:href="#VlQG9yipQ5YRYoYcOixr_pad-2" x="7125" y="-3300"/><use xlink:href="#VlQG9yipQ5YRYoYcOixr_pad-2" x="7950" y="-3600"/></g><clipPath id="cpzXMDXZZcrIxKf0hTAL_bottom_outline"><path d="M 131445 -81915 131445 -89535 131445 -91440 A 1905 1905 0 0 1 133350 -93345 L 135255 -93345 150495 -93345 152400 -93345 A 1905 1905 0 0 1 154305 -91440 1905 1905 0 0 0 156210 -89535 L 167640 -89535 A 1905 1905 0 0 0 169545 -91440 L 169545 -93345 A 1905 1905 0 0 1 171450 -95250 L 173355 -95250 188595 -95250 A 1905 1905 0 0 0 190500 -97155 L 190500 -99060 190500 -100965 A 1905 1905 0 0 1 192405 -102870 L 211455 -102870 A 1905 1905 0 0 1 213360 -100965 L 213360 -99060 213360 -51435 A 1905 1905 0 0 1 211455 -49530 L 207645 -49530 A 1905 1905 0 0 0 205740 -51435 L 198120 -51435 A 1905 1905 0 0 0 196215 -49530 L 192405 -49530 A 1905 1905 0 0 1 190500 -51435 1905 1905 0 0 0 188595 -53340 L 175260 -53340 A 1905 1905 0 0 0 173355 -51435 L 173355 -49530 A 1905 1905 0 0 1 171450 -47625 L 169545 -47625 154305 -47625 152400 -47625 A 1905 1905 0 0 1 150495 -49530 1905 1905 0 0 0 148590 -51435 L 135255 -51435 133350 -51435 A 1905 1905 0 0 1 131445 -53340 L 131445 -55245 A 1905 1905 0 0 0 129540 -57150 L 114300 -57150 112395 -57150 A 1905 1905 0 0 1 110490 -59055 L 110490 -60960 110490 -76200 110490 -78105 A 1905 1905 0 0 1 112395 -80010 L 114300 -80010 129540 -80010 A 1905 1905 0 0 0 131445 -81915" fill="none" stroke-width="100"/></clipPath><mask id="cpzXMDXZZcrIxKf0hTAL_bottom_mech-mask"><g fill="#000" stroke="#000"><rect x="110490" y="-102870" width="102870" height="55245" fill="#fff"/><use xlink:href="#cpzXMDXZZcrIxKf0hTAL_bottom_drill1"/><use xlink:href="#cpzXMDXZZcrIxKf0hTAL_bottom_drill2"/><use xlink:href="#cpzXMDXZZcrIxKf0hTAL_bottom_drill3"/></g></mask><mask id="cpzXMDXZZcrIxKf0hTAL_bottom_cf-mask"><g fill="#fff" stroke="#fff"><use xlink:href="#cpzXMDXZZcrIxKf0hTAL_bottom_soldermask"/></g></mask><mask id="cpzXMDXZZcrIxKf0hTAL_bottom_sm-mask"><g fill="#000" stroke="#000"><rect x="110490" y="-102870" width="102870" height="55245" fill="#fff"/><use xlink:href="#cpzXMDXZZcrIxKf0hTAL_bottom_soldermask"/></g></mask></defs><g transform="translate(0,-104745) scale(1,-1)"><g mask="url(#cpzXMDXZZcrIxKf0hTAL_bottom_mech-mask)" clip-path="url(#cpzXMDXZZcrIxKf0hTAL_bottom_outline)" transform="translate(217710,0) scale(-1,1)"><rect x="110490" y="-102870" width="102870" height="55245" fill="currentColor" class="cpzXMDXZZcrIxKf0hTAL_fr4"/><use xlink:href="#cpzXMDXZZcrIxKf0hTAL_bottom_copper" fill="currentColor" stroke="currentColor" class="cpzXMDXZZcrIxKf0hTAL_cu"/><use xlink:href="#cpzXMDXZZcrIxKf0hTAL_bottom_copper" fill="currentColor" stroke="currentColor" class="cpzXMDXZZcrIxKf0hTAL_cf" mask="url(#cpzXMDXZZcrIxKf0hTAL_bottom_cf-mask)"/><g mask="url(#cpzXMDXZZcrIxKf0hTAL_bottom_sm-mask)"><rect x="110490" y="-102870" width="102870" height="55245" fill="currentColor" class="cpzXMDXZZcrIxKf0hTAL_sm"/></g></g></g></svg>