<svg version="1.1" xmlns="http://www.w3.org/2000/svg" xmlns:xlink="http://www.w3.org/1999/xlink" stroke-linecap="round" stroke-linejoin="round" stroke-width="0" fill-rule="evenodd" width="102.87mm" height="55.245mm" viewBox="110490 -102870 102870 55245" id="VH18_iI0YwJ3nQ7QWeCe"><g transform="translate(0,-150495) scale(1,-1)" fill="currentColor" stroke="currentColor"><path d="M 131445 -81915 131445 -89535 131445 -91440 A 1905 1905 0 0 1 133350 -93345 L 135255 -93345 150495 -93345 152400 -93345 A 1905 1905 0 0 1 154305 -91440 1905 1905 0 0 0 156210 -89535 L 167640 -89535 A 1905 1905 0 0 0 169545 -91440 L 169545 -93345 A 1905 1905 0 0 1 171450 -95250 L 173355 -95250 188595 -95250 A 1905 1905 0 0 0 190500 -97155 L 190500 -99060 190500 -100965 A 1905 1905 0 0 1 192405 -102870 L 211455 -102870 A 1905 1905 0 0 1 213360 -100965 L 213360 -99060 213360 -51435 A 1905 1905 0 0 1 211455 -49530 L 207645 -49530 A 1905 1905 0 0 0 205740 -51435 L 198120 -51435 A 1905 1905 0 0 0 196215 -49530 L 192405 -49530 A 1905 1905 0 0 1 190500 -51435 1905 1905 0 0 0 188595 -53340 L 175260 -53340 A 1905 1905 0 0 0 173355 -51435 L 173355 -49530 A 1905 1905 0 0 1 171450 -47625 L 169545 -47625 154305 -47625 152400 -47625 A 1905 1905 0 0 1 150495 -49530 1905 1905 0 0 0 148590 -51435 L 135255 -51435 133350 -51435 A 1905 1905 0 0 1 131445 -53340 L 131445 -55245 A 1905 1905 0 0 0 129540 -57150 L 114300 -57150 112395 -57150 A 1905 1905 0 0 1 110490 -59055 L 110490 -60960 110490 -76200 110490 -78105 A 1905 1905 0 0 1 112395 -80010 L 114300 -80010 129540 -80010 A 1905 1905 0 0 0 131445 -81915" fill="none" stroke-width="100"/></g></svg>