<svg version="1.1" xmlns="http://www.w3.org/2000/svg" xmlns:xlink="http://www.w3.org/1999/xlink" stroke-linecap="round" stroke-linejoin="round" stroke-width="0" fill-rule="evenodd" width="104.545mm" height="66.17214mm" viewBox="108865 -113747.14 104545 66172.14" id="TSKKLZtfzQTLMcvK7uLq"><g transform="translate(0,-161322.14) scale(1,-1)" fill="currentColor" stroke="currentColor"><path d="M 131445 -81915 131445 -89535 M 169545 -93345 169545 -91440 M 133350 -51435 135255 -51435 M 152400 -93345 A 1905 1905 0 0 1 154305 -91440 M 114300 -80010 129540 -80010 M 173355 -49530 173355 -51435 M 169545 -47625 171450 -47625 M 112395 -57150 A 1905 1905 0 0 1 110490 -59055 M 211455 -102870 A 1905 1905 0 0 1 213360 -100965 M 129540 -57150 114300 -57150 M 205740 -51435 A 1905 1905 0 0 1 207645 -49530 M 169545 -93345 A 1905 1905 0 0 1 171450 -95250 M 114300 -80010 112395 -80010 M 213360 -51435 A 1905 1905 0 0 1 211455 -49530 M 110490 -78105 A 1905 1905 0 0 1 112395 -80010 M 188595 -53340 A 1905 1905 0 0 1 190500 -51435 M 192405 -102870 211455 -102870 M 152400 -47625 154305 -47625 M 190500 -100965 190500 -99060 M 112395 -57150 114300 -57150 M 135255 -93345 133350 -93345 M 196215 -49530 A 1905 1905 0 0 1 198120 -51435 M 190500 -100965 A 1905 1905 0 0 1 192405 -102870 M 175260 -53340 188595 -53340 M 133350 -51435 A 1905 1905 0 0 1 131445 -53340 M 173355 -49530 A 1905 1905 0 0 1 171450 -47625 M 152400 -93345 150495 -93345 M 173355 -95250 171450 -95250 M 213360 -99060 213360 -100965 M 110490 -60960 110490 -59055 M 110490 -60960 110490 -76200 M 173355 -51435 A 1905 1905 0 0 1 175260 -53340 M 156210 -89535 A 1905 1905 0 0 1 154305 -91440 M 169545 -91440 A 1905 1905 0 0 1 167640 -89535 M 129540 -57150 A 1905 1905 0 0 1 131445 -55245 M 173355 -95250 188595 -95250 M 131445 -55245 131445 -53340 M 110490 -78105 110490 -76200 M 192405 -49530 A 1905 1905 0 0 1 190500 -51435 M 148590 -51435 135255 -51435 M 211455 -49530 207645 -49530 M 190500 -97155 190500 -99060 M 152400 -47625 A 1905 1905 0 0 1 150495 -49530 M 131445 -91440 131445 -89535 M 131445 -91440 A 1905 1905 0 0 1 133350 -93345 M 205740 -51435 198120 -51435 M 190500 -97155 A 1905 1905 0 0 1 188595 -95250 M 213360 -51435 213360 -99060 M 131445 -81915 A 1905 1905 0 0 1 129540 -80010 M 135255 -93345 150495 -93345 M 192405 -49530 196215 -49530 M 156210 -89535 167640 -89535 M 169545 -47625 154305 -47625 M 148590 -51435 A 1905 1905 0 0 1 150495 -49530" fill="none" stroke-width="100"/><path d="M 170075 -60175 170475 -60575 M 170475 -60175 170075 -60575 M 171250 -55550.5 171650 -55950.5 M 171650 -55550.5 171250 -55950.5 M 171250 -57150 171650 -57550 M 171650 -57150 171250 -57550 M 172075 -60175 172475 -60575 M 172475 -60175 172075 -60575 M 189525 -57475 189925 -57875 M 189925 -57475 189525 -57875 M 191024.5 -57475 191424.5 -57875 M 191424.5 -57475 191024.5 -57875" fill="none" stroke-width="40"/><path d="M 118860 -66040 A 750 750 0 0 1 117360 -66040 750 750 0 0 1 118860 -66040 M 125210 -63500 A 750 750 0 0 1 123710 -63500 750 750 0 0 1 125210 -63500 M 139815 -60325 A 750 750 0 0 1 138315 -60325 750 750 0 0 1 139815 -60325 M 139815 -79375 A 750 750 0 0 1 138315 -79375 750 750 0 0 1 139815 -79375 M 146165 -57785 A 750 750 0 0 1 144665 -57785 750 750 0 0 1 146165 -57785 M 146165 -76835 A 750 750 0 0 1 144665 -76835 750 750 0 0 1 146165 -76835 M 158865 -56515 A 750 750 0 0 1 157365 -56515 750 750 0 0 1 158865 -56515 M 158865 -75565 A 750 750 0 0 1 157365 -75565 750 750 0 0 1 158865 -75565 M 165215 -53975 A 750 750 0 0 1 163715 -53975 750 750 0 0 1 165215 -53975 M 165215 -73025 A 750 750 0 0 1 163715 -73025 750 750 0 0 1 165215 -73025 M 177915 -62230 A 750 750 0 0 1 176415 -62230 750 750 0 0 1 177915 -62230 M 177915 -81280 A 750 750 0 0 1 176415 -81280 750 750 0 0 1 177915 -81280 M 184265 -59690 A 750 750 0 0 1 182765 -59690 750 750 0 0 1 184265 -59690 M 184265 -78740 A 750 750 0 0 1 182765 -78740 750 750 0 0 1 184265 -78740 M 198870 -88900 A 750 750 0 0 1 197370 -88900 750 750 0 0 1 198870 -88900 M 205220 -86360 A 750 750 0 0 1 203720 -86360 750 750 0 0 1 205220 -86360" fill="none" stroke-width="150"/><path d="M 112916.19 -106045.24 112916.19 -104045.24 113392.38 -104045.24 113678.09 -104140.48 113868.57 -104330.95 113963.81 -104521.43 114059.05 -104902.38 114059.05 -105188.1 113963.81 -105569.05 113868.57 -105759.52 113678.09 -105950 113392.38 -106045.24 112916.19 -106045.24 M 114916.19 -106045.24 114916.19 -104711.9 M 114916.19 -105092.86 115011.43 -104902.38 115106.67 -104807.14 115297.14 -104711.9 115487.62 -104711.9 M 116154.28 -106045.24 116154.28 -104711.9 M 116154.28 -104045.24 116059.05 -104140.48 116154.28 -104235.71 116249.52 -104140.48 116154.28 -104045.24 116154.28 -104235.71 M 117392.38 -106045.24 117201.9 -105950 117106.67 -105759.52 117106.67 -104045.24 M 118440 -106045.24 118249.52 -105950 118154.28 -105759.52 118154.28 -104045.24 M 120725.71 -106045.24 120725.71 -104045.24 121392.38 -105473.81 122059.05 -104045.24 122059.05 -106045.24 M 123868.57 -106045.24 123868.57 -104997.62 123773.33 -104807.14 123582.86 -104711.9 123201.9 -104711.9 123011.43 -104807.14 M 123868.57 -105950 123678.09 -106045.24 123201.9 -106045.24 123011.43 -105950 122916.19 -105759.52 122916.19 -105569.05 123011.43 -105378.57 123201.9 -105283.33 123678.09 -105283.33 123868.57 -105188.1 M 124820.95 -104711.9 124820.95 -106711.9 M 124820.95 -104807.14 125011.43 -104711.9 125392.38 -104711.9 125582.86 -104807.14 125678.09 -104902.38 125773.33 -105092.86 125773.33 -105664.29 125678.09 -105854.76 125582.86 -105950 125392.38 -106045.24 125011.43 -106045.24 124820.95 -105950 M 126630.48 -105854.76 126725.71 -105950 126630.48 -106045.24 126535.24 -105950 126630.48 -105854.76 126630.48 -106045.24 M 126630.48 -104807.14 126725.71 -104902.38 126630.48 -104997.62 126535.24 -104902.38 126630.48 -104807.14 126630.48 -104997.62" fill="none" stroke-width="200"/><path d="M 110040 -109120 110440 -109520 M 110440 -109120 110040 -109520" fill="none" stroke-width="40"/><path d="M 113297.14 -108245.24 113487.62 -108245.24 113678.09 -108340.48 113773.33 -108435.71 113868.57 -108626.19 113963.81 -109007.14 113963.81 -109483.33 113868.57 -109864.29 113773.33 -110054.76 113678.09 -110150 113487.62 -110245.24 113297.14 -110245.24 113106.67 -110150 113011.43 -110054.76 112916.19 -109864.29 112820.95 -109483.33 112820.95 -109007.14 112916.19 -108626.19 113011.43 -108435.71 113106.67 -108340.48 113297.14 -108245.24 M 114820.95 -110054.76 114916.19 -110150 114820.95 -110245.24 114725.71 -110150 114820.95 -110054.76 114820.95 -110245.24 M 116630.48 -108911.9 116630.48 -110245.24 M 116154.28 -108150 115678.09 -109578.57 116916.19 -109578.57 M 118059.05 -108245.24 118249.52 -108245.24 118440 -108340.48 118535.24 -108435.71 118630.48 -108626.19 118725.71 -109007.14 118725.71 -109483.33 118630.48 -109864.29 118535.24 -110054.76 118440 -110150 118249.52 -110245.24 118059.05 -110245.24 117868.57 -110150 117773.33 -110054.76 117678.09 -109864.29 117582.86 -109483.33 117582.86 -109007.14 117678.09 -108626.19 117773.33 -108435.71 117868.57 -108340.48 118059.05 -108245.24 M 119963.81 -108245.24 120154.29 -108245.24 120344.76 -108340.48 120440 -108435.71 120535.24 -108626.19 120630.48 -109007.14 120630.48 -109483.33 120535.24 -109864.29 120440 -110054.76 120344.76 -110150 120154.29 -110245.24 119963.81 -110245.24 119773.33 -110150 119678.09 -110054.76 119582.86 -109864.29 119487.62 -109483.33 119487.62 -109007.14 119582.86 -108626.19 119678.09 -108435.71 119773.33 -108340.48 119963.81 -108245.24 M 121487.62 -110245.24 121487.62 -108911.9 M 121487.62 -109102.38 121582.86 -109007.14 121773.33 -108911.9 122059.05 -108911.9 122249.52 -109007.14 122344.76 -109197.62 122344.76 -110245.24 M 122344.76 -109197.62 122440 -109007.14 122630.48 -108911.9 122916.19 -108911.9 123106.67 -109007.14 123201.9 -109197.62 123201.9 -110245.24 M 124154.29 -110245.24 124154.29 -108911.9 M 124154.29 -109102.38 124249.52 -109007.14 124440 -108911.9 124725.71 -108911.9 124916.19 -109007.14 125011.43 -109197.62 125011.43 -110245.24 M 125011.43 -109197.62 125106.67 -109007.14 125297.14 -108911.9 125582.86 -108911.9 125773.33 -109007.14 125868.57 -109197.62 125868.57 -110245.24 M 129773.33 -108150 128059.05 -110721.43 M 132344.76 -108245.24 132535.24 -108245.24 132725.72 -108340.48 132820.95 -108435.71 132916.19 -108626.19 133011.43 -109007.14 133011.43 -109483.33 132916.19 -109864.29 132820.95 -110054.76 132725.72 -110150 132535.24 -110245.24 132344.76 -110245.24 132154.29 -110150 132059.05 -110054.76 131963.81 -109864.29 131868.57 -109483.33 131868.57 -109007.14 131963.81 -108626.19 132059.05 -108435.71 132154.29 -108340.48 132344.76 -108245.24 M 133868.57 -110054.76 133963.81 -110150 133868.57 -110245.24 133773.33 -110150 133868.57 -110054.76 133868.57 -110245.24 M 135201.91 -108245.24 135392.38 -108245.24 135582.86 -108340.48 135678.1 -108435.71 135773.33 -108626.19 135868.57 -109007.14 135868.57 -109483.33 135773.33 -109864.29 135678.1 -110054.76 135582.86 -110150 135392.38 -110245.24 135201.91 -110245.24 135011.43 -110150 134916.19 -110054.76 134820.95 -109864.29 134725.72 -109483.33 134725.72 -109007.14 134820.95 -108626.19 134916.19 -108435.71 135011.43 -108340.48 135201.91 -108245.24 M 137773.33 -110245.24 136630.48 -110245.24 M 137201.91 -110245.24 137201.91 -108245.24 137011.43 -108530.95 136820.95 -108721.43 136630.48 -108816.67 M 139582.86 -108245.24 138630.48 -108245.24 138535.24 -109197.62 138630.48 -109102.38 138820.95 -109007.14 139297.14 -109007.14 139487.62 -109102.38 139582.86 -109197.62 139678.1 -109388.1 139678.1 -109864.29 139582.86 -110054.76 139487.62 -110150 139297.14 -110245.24 138820.95 -110245.24 138630.48 -110150 138535.24 -110054.76 M 140344.76 -108245.24 141678.1 -108245.24 140820.95 -110245.24 M 142344.76 -108245.24 142344.76 -108626.19 M 143106.67 -108245.24 143106.67 -108626.19 M 146059.05 -111007.14 145963.81 -110911.9 145773.34 -110626.19 145678.1 -110435.71 145582.86 -110150 145487.62 -109673.81 145487.62 -109292.86 145582.86 -108816.67 145678.1 -108530.95 145773.34 -108340.48 145963.81 -108054.76 146059.05 -107959.52 M 147678.1 -108245.24 147297.14 -108245.24 147106.67 -108340.48 147011.43 -108435.71 146820.95 -108721.43 146725.72 -109102.38 146725.72 -109864.29 146820.95 -110054.76 146916.19 -110150 147106.67 -110245.24 147487.62 -110245.24 147678.1 -110150 147773.34 -110054.76 147868.57 -109864.29 147868.57 -109388.1 147773.34 -109197.62 147678.1 -109102.38 147487.62 -109007.14 147106.67 -109007.14 146916.19 -109102.38 146820.95 -109197.62 146725.72 -109388.1 M 150249.53 -110245.24 150249.53 -108245.24 M 151106.67 -110245.24 151106.67 -109197.62 151011.43 -109007.14 150820.96 -108911.9 150535.24 -108911.9 150344.76 -109007.14 150249.53 -109102.38 M 152344.76 -110245.24 152154.29 -110150 152059.05 -110054.76 151963.81 -109864.29 151963.81 -109292.86 152059.05 -109102.38 152154.29 -109007.14 152344.76 -108911.9 152630.48 -108911.9 152820.96 -109007.14 152916.19 -109102.38 153011.43 -109292.86 153011.43 -109864.29 152916.19 -110054.76 152820.96 -110150 152630.48 -110245.24 152344.76 -110245.24 M 154154.29 -110245.24 153963.81 -110150 153868.57 -109959.52 153868.57 -108245.24 M 155678.1 -110150 155487.62 -110245.24 155106.67 -110245.24 154916.19 -110150 154820.96 -109959.52 154820.96 -109197.62 154916.19 -109007.14 155106.67 -108911.9 155487.62 -108911.9 155678.1 -109007.14 155773.34 -109197.62 155773.34 -109388.1 154820.96 -109578.57 M 156535.24 -110150 156725.72 -110245.24 157106.67 -110245.24 157297.15 -110150 157392.38 -109959.52 157392.38 -109864.29 157297.15 -109673.81 157106.67 -109578.57 156820.96 -109578.57 156630.48 -109483.33 156535.24 -109292.86 156535.24 -109197.62 156630.48 -109007.14 156820.96 -108911.9 157106.67 -108911.9 157297.15 -109007.14 M 158059.05 -111007.14 158154.29 -110911.9 158344.77 -110626.19 158440 -110435.71 158535.24 -110150 158630.48 -109673.81 158630.48 -109292.86 158535.24 -108816.67 158440 -108530.95 158344.77 -108340.48 158154.29 -108054.76 158059.05 -107959.52" fill="none" stroke-width="200"/><path d="M 110440 -111960 A 750 750 0 0 1 108940 -111960 750 750 0 0 1 110440 -111960" fill="none" stroke-width="150"/><path d="M 113963.81 -112885.24 112820.95 -112885.24 M 113392.38 -112885.24 113392.38 -110885.24 113201.9 -111170.95 113011.43 -111361.43 112820.95 -111456.67 M 114820.95 -112694.76 114916.19 -112790 114820.95 -112885.24 114725.71 -112790 114820.95 -112694.76 114820.95 -112885.24 M 116725.71 -110885.24 115773.33 -110885.24 115678.09 -111837.62 115773.33 -111742.38 115963.81 -111647.14 116440 -111647.14 116630.48 -111742.38 116725.71 -111837.62 116820.95 -112028.09 116820.95 -112504.28 116725.71 -112694.76 116630.48 -112790 116440 -112885.24 115963.81 -112885.24 115773.33 -112790 115678.09 -112694.76 M 118059.05 -110885.24 118249.52 -110885.24 118440 -110980.48 118535.24 -111075.71 118630.48 -111266.19 118725.71 -111647.14 118725.71 -112123.33 118630.48 -112504.28 118535.24 -112694.76 118440 -112790 118249.52 -112885.24 118059.05 -112885.24 117868.57 -112790 117773.33 -112694.76 117678.09 -112504.28 117582.86 -112123.33 117582.86 -111647.14 117678.09 -111266.19 117773.33 -111075.71 117868.57 -110980.48 118059.05 -110885.24 M 119963.81 -110885.24 120154.29 -110885.24 120344.76 -110980.48 120440 -111075.71 120535.24 -111266.19 120630.48 -111647.14 120630.48 -112123.33 120535.24 -112504.28 120440 -112694.76 120344.76 -112790 120154.29 -112885.24 119963.81 -112885.24 119773.33 -112790 119678.09 -112694.76 119582.86 -112504.28 119487.62 -112123.33 119487.62 -111647.14 119582.86 -111266.19 119678.09 -111075.71 119773.33 -110980.48 119963.81 -110885.24 M 121487.62 -112885.24 121487.62 -111551.9 M 121487.62 -111742.38 121582.86 -111647.14 121773.33 -111551.9 122059.05 -111551.9 122249.52 -111647.14 122344.76 -111837.62 122344.76 -112885.24 M 122344.76 -111837.62 122440 -111647.14 122630.48 -111551.9 122916.19 -111551.9 123106.67 -111647.14 123201.9 -111837.62 123201.9 -112885.24 M 124154.29 -112885.24 124154.29 -111551.9 M 124154.29 -111742.38 124249.52 -111647.14 124440 -111551.9 124725.71 -111551.9 124916.19 -111647.14 125011.43 -111837.62 125011.43 -112885.24 M 125011.43 -111837.62 125106.67 -111647.14 125297.14 -111551.9 125582.86 -111551.9 125773.33 -111647.14 125868.57 -111837.62 125868.57 -112885.24 M 129773.33 -110790 128059.05 -113361.43 M 132344.76 -110885.24 132535.24 -110885.24 132725.72 -110980.48 132820.95 -111075.71 132916.19 -111266.19 133011.43 -111647.14 133011.43 -112123.33 132916.19 -112504.28 132820.95 -112694.76 132725.72 -112790 132535.24 -112885.24 132344.76 -112885.24 132154.29 -112790 132059.05 -112694.76 131963.81 -112504.28 131868.57 -112123.33 131868.57 -111647.14 131963.81 -111266.19 132059.05 -111075.71 132154.29 -110980.48 132344.76 -110885.24 M 133868.57 -112694.76 133963.81 -112790 133868.57 -112885.24 133773.33 -112790 133868.57 -112694.76 133868.57 -112885.24 M 135201.91 -110885.24 135392.38 -110885.24 135582.86 -110980.48 135678.1 -111075.71 135773.33 -111266.19 135868.57 -111647.14 135868.57 -112123.33 135773.33 -112504.28 135678.1 -112694.76 135582.86 -112790 135392.38 -112885.24 135201.91 -112885.24 135011.43 -112790 134916.19 -112694.76 134820.95 -112504.28 134725.72 -112123.33 134725.72 -111647.14 134820.95 -111266.19 134916.19 -111075.71 135011.43 -110980.48 135201.91 -110885.24 M 137678.1 -110885.24 136725.72 -110885.24 136630.48 -111837.62 136725.72 -111742.38 136916.19 -111647.14 137392.38 -111647.14 137582.86 -111742.38 137678.1 -111837.62 137773.33 -112028.09 137773.33 -112504.28 137678.1 -112694.76 137582.86 -112790 137392.38 -112885.24 136916.19 -112885.24 136725.72 -112790 136630.48 -112694.76 M 138725.72 -112885.24 139106.67 -112885.24 139297.14 -112790 139392.38 -112694.76 139582.86 -112409.05 139678.1 -112028.09 139678.1 -111266.19 139582.86 -111075.71 139487.62 -110980.48 139297.14 -110885.24 138916.19 -110885.24 138725.72 -110980.48 138630.48 -111075.71 138535.24 -111266.19 138535.24 -111742.38 138630.48 -111932.86 138725.72 -112028.09 138916.19 -112123.33 139297.14 -112123.33 139487.62 -112028.09 139582.86 -111932.86 139678.1 -111742.38 M 141582.86 -112885.24 140440 -112885.24 M 141011.43 -112885.24 141011.43 -110885.24 140820.95 -111170.95 140630.48 -111361.43 140440 -111456.67 M 142344.76 -110885.24 142344.76 -111266.19 M 143106.67 -110885.24 143106.67 -111266.19 M 146059.05 -113647.14 145963.81 -113551.9 145773.34 -113266.19 145678.1 -113075.71 145582.86 -112790 145487.62 -112313.81 145487.62 -111932.86 145582.86 -111456.67 145678.1 -111170.95 145773.34 -110980.48 145963.81 -110694.76 146059.05 -110599.52 M 147868.57 -112885.24 146725.72 -112885.24 M 147297.14 -112885.24 147297.14 -110885.24 147106.67 -111170.95 146916.19 -111361.43 146725.72 -111456.67 M 149582.86 -110885.24 149201.91 -110885.24 149011.43 -110980.48 148916.19 -111075.71 148725.72 -111361.43 148630.48 -111742.38 148630.48 -112504.28 148725.72 -112694.76 148820.95 -112790 149011.43 -112885.24 149392.38 -112885.24 149582.86 -112790 149678.1 -112694.76 149773.34 -112504.28 149773.34 -112028.09 149678.1 -111837.62 149582.86 -111742.38 149392.38 -111647.14 149011.43 -111647.14 148820.95 -111742.38 148725.72 -111837.62 148630.48 -112028.09 M 152154.29 -112885.24 152154.29 -110885.24 M 153011.43 -112885.24 153011.43 -111837.62 152916.19 -111647.14 152725.72 -111551.9 152440 -111551.9 152249.53 -111647.14 152154.29 -111742.38 M 154249.53 -112885.24 154059.05 -112790 153963.81 -112694.76 153868.57 -112504.28 153868.57 -111932.86 153963.81 -111742.38 154059.05 -111647.14 154249.53 -111551.9 154535.24 -111551.9 154725.72 -111647.14 154820.96 -111742.38 154916.19 -111932.86 154916.19 -112504.28 154820.96 -112694.76 154725.72 -112790 154535.24 -112885.24 154249.53 -112885.24 M 156059.05 -112885.24 155868.57 -112790 155773.34 -112599.52 155773.34 -110885.24 M 157582.86 -112790 157392.38 -112885.24 157011.43 -112885.24 156820.96 -112790 156725.72 -112599.52 156725.72 -111837.62 156820.96 -111647.14 157011.43 -111551.9 157392.38 -111551.9 157582.86 -111647.14 157678.1 -111837.62 157678.1 -112028.09 156725.72 -112218.57 M 158440 -112790 158630.48 -112885.24 159011.43 -112885.24 159201.91 -112790 159297.15 -112599.52 159297.15 -112504.28 159201.91 -112313.81 159011.43 -112218.57 158725.72 -112218.57 158535.24 -112123.33 158440 -111932.86 158440 -111837.62 158535.24 -111647.14 158725.72 -111551.9 159011.43 -111551.9 159201.91 -111647.14 M 159963.81 -113647.14 160059.05 -113551.9 160249.53 -113266.19 160344.77 -113075.71 160440 -112790 160535.24 -112313.81 160535.24 -111932.86 160440 -111456.67 160344.77 -111170.95 160249.53 -110980.48 160059.05 -110694.76 159963.81 -110599.52" fill="none" stroke-width="200"/></g></svg>