<svg version="1.1" xmlns="http://www.w3.org/2000/svg" xmlns:xlink="http://www.w3.org/1999/xlink" stroke-linecap="round" stroke-linejoin="round" stroke-width="0" fill-rule="evenodd" width="96.1125mm" height="48.272381mm" viewBox="114760 -98600 96112.5 48272.381" id="cwaX0pNTSh1fxFKfkBMl"><g transform="translate(0,-148927.619) scale(1,-1)" fill="currentColor" stroke="currentColor"><path d="M 194016.27 -79019.33 193468.189 -79327.076 193445.471 -79365.226 193422.748 -79403.108 193400.019 -79440.72 193377.284 -79478.063 193354.544 -79515.138 193331.798 -79551.943 193309.046 -79588.479 193286.289 -79624.747 193263.526 -79660.745 193240.757 -79696.474 193217.982 -79731.934 193195.201 -79767.125 193172.415 -79802.047 193149.623 -79836.7 193126.826 -79871.084 193104.023 -79905.198 193081.465 -79938.809 193059.223 -79971.682 193037.296 -80003.816 193015.683 -80035.212 192994.385 -80065.869 192973.402 -80095.788 192952.734 -80124.968 192932.381 -80153.41 192912.342 -80181.114 192892.619 -80208.079 192873.21 -80234.305 192854.116 -80259.793 192835.337 -80284.543 192816.873 -80308.554 192798.724 -80331.827 192780.889 -80354.361 192754.709 -80386.999 192729.198 -80418.143 192704.356 -80447.792 192680.185 -80475.948 192656.683 -80502.61 192633.851 -80527.777 192611.689 -80551.451 192590.197 -80573.63 192569.374 -80594.315 192542.652 -80619.572 192536.158 -80625.471 192511.348 -80647.452 192488.21 -80666.503 192461.638 -80686.195 192433.199 -80703.781 192404.773 -80715.963 192384.483 -80719.26 192353.067 -80716.512 192324.766 -80708.269 192296.649 -80692.426 192277.505 -80675.296 192259.232 -80652.307 192244.916 -80624.035 192237.208 -80593.213 192235.739 -80571.249 192237.942 -80528.773 192241.857 -80499.36 192247.73 -80469.072 192255.562 -80437.908 192265.35 -80405.869 192277.097 -80372.953 192290.801 -80339.162 192306.463 -80304.495 192324.083 -80268.952 192343.661 -80232.533 192365.196 -80195.238 192388.689 -80157.067 192414.14 -80118.021 192441.549 -80078.099 192470.915 -80037.301 192486.332 -80016.573 192518.796 -79974.733 192553.537 -79932.561 192590.557 -79890.057 192629.856 -79847.221 192650.359 -79825.679 192671.432 -79804.053 192693.075 -79782.345 192715.287 -79760.553 192738.069 -79738.679 192761.42 -79716.721 192785.341 -79694.681 192809.832 -79672.557 192834.892 -79650.351 192860.522 -79628.061 192886.721 -79605.688 192913.49 -79583.233 192940.829 -79560.694 192968.737 -79538.073 192997.214 -79515.368 193026.262 -79492.581 193055.879 -79469.71 193086.065 -79446.756 193116.821 -79423.72 193148.147 -79400.6 193180.042 -79377.398 193212.506 -79354.112 193245.541 -79330.744 193279.145 -79307.292 193293.719 -79279.299 193308.133 -79251.467 193322.387 -79223.795 193336.481 -79196.284 193350.414 -79168.932 193364.187 -79141.741 193377.8 -79114.71 193391.252 -79087.84 193404.544 -79061.129 193417.676 -79034.579 193430.648 -79008.19 193456.11 -78955.891 193480.931 -78904.234 193505.111 -78853.218 193528.65 -78802.843 193551.548 -78753.109 193573.805 -78704.016 193595.42 -78655.564 193616.394 -78607.754 193636.728 -78560.584 193656.42 -78514.056 193666.025 -78491.032 193684.882 -78445.56 193703.165 -78400.918 193720.877 -78357.106 193738.016 -78314.124 193754.582 -78271.972 193770.577 -78230.65 193785.998 -78190.159 193800.847 -78150.497 193815.124 -78111.665 193828.828 -78073.663 193841.96 -78036.492 193854.52 -78000.15 193866.507 -77964.638 193877.921 -77929.957 193888.763 -77896.105 193899.033 -77863.084 193908.916 -77830.881 193918.416 -77799.485 193927.532 -77768.897 193936.265 -77739.115 193944.614 -77710.141 193956.418 -77668.193 193967.36 -77628.061 193977.439 -77589.745 193986.654 -77553.246 193995.007 -77518.562 194002.497 -77485.694 194009.123 -77454.643 194011.14 -77444.696 194018.697 -77406.926 194025.245 -77372.751 194030.787 -77342.171 194036.297 -77309.002 194040.83 -77276.613 194043.349 -77246.01 194043.381 -77243.196 194040.985 -77213.314 194030.337 -77183.089 194008.177 -77162.223 193979.429 -77155.354 193975.237 -77155.268 193944.096 -77159.252 193911.438 -77169.275 193879.427 -77182.722 193849.917 -77197.351 193817.832 -77215.094 193811.106 -77219.016 193783.892 -77235.937 193756.105 -77254.828 193727.746 -77275.688 193698.815 -77298.517 193669.311 -77323.315 193646.808 -77343.206 193623.982 -77364.205 193600.835 -77386.311 193577.365 -77409.525 193554.014 -77433.51 193530.946 -77458.203 193508.161 -77483.604 193485.66 -77509.714 193463.442 -77536.532 193441.507 -77564.059 193419.856 -77592.294 193398.488 -77621.238 193377.403 -77650.89 193356.602 -77681.25 193342.892 -77701.884 193322.589 -77733.143 193302.621 -77765.099 193282.987 -77797.749 193263.689 -77831.096 193244.725 -77865.138 193226.096 -77899.875 193207.802 -77935.308 193189.843 -77971.436 193172.219 -78008.26 193154.93 -78045.779 193143.59 -78071.179 193127.189 -78109.233 193111.51 -78146.733 193096.552 -78183.679 193082.315 -78220.072 193068.8 -78255.91 193056.006 -78291.195 193043.933 -78325.926 193032.581 -78360.103 193021.951 -78393.726 193012.042 -78426.795 193005.837 -78448.534 192997.194 -78480.358 192989.402 -78510.985 192982.46 -78540.413 192974.526 -78577.788 192968.103 -78613.034 192963.191 -78646.15 192959.791 -78677.136 192957.666 -78712.874 192957.477 -78726.238 192958.807 -78758.666 192960.948 -78788.959 192963.648 -78821.928 192965.537 -78843.475 192981.872 -78818.201 192997.96 -78793.603 193010.966 -78773.866 193029.27 -78747.619 193048.068 -78723.752 193069.069 -78699.654 193079.11 -78688.869 193099.901 -78668.169 193123.948 -78647.072 193148.69 -78628.293 193165.572 -78617.062 193191.117 -78600.011 193218.103 -78586.942 193229.319 -78582.623 193258.477 -78576.517 193266.688 -78585.554 193250.099 -78612.929 193229.362 -78640.14 193210.929 -78663.289 193188.81 -78690.446 193169.801 -78713.443 193148.719 -78738.695 193127.008 -78764.834 193105.837 -78790.498 193085.208 -78815.685 193065.119 -78840.395 193045.572 -78864.629 193026.565 -78888.386 193008.099 -78911.666 192984.32 -78941.966 192961.503 -78971.418 192945.02 -78992.951 192925.177 -79017.123 192903.014 -79040.728 192878.534 -79063.766 192851.735 -79086.237 192827.631 -79104.53 192812.397 -79115.317 192787.502 -79131.571 192759.613 -79147.439 192729.81 -79160.938 192699.356 -79169.754 192679.04 -79171.737 192647.368 -79167.216 192620.062 -79151.589 192602.584 -79127.979 192596.974 -79114.584 192588.64 -79081.749 192583.951 -79051.532 192580.602 -79016.525 192578.835 -78983.691 192577.998 -78947.531 192577.923 -78932.135 192578.33 -78894.319 192579.549 -78855.977 192581.581 -78817.108 192584.426 -78777.712 192588.084 -78737.79 192592.555 -78697.341 192597.839 -78656.366 192603.935 -78614.863 192610.845 -78572.835 192618.567 -78530.279 192627.102 -78487.197 192636.45 -78443.588 192646.611 -78399.453 192657.585 -78354.791 192669.371 -78309.602 192681.971 -78263.886 192695.254 -78218.257 192709.093 -78173.326 192723.487 -78129.093 192738.437 -78085.559 192753.941 -78042.723 192770.001 -78000.585 192786.617 -77959.146 192803.787 -77918.405 192821.513 -77878.362 192839.794 -77839.018 192858.63 -77800.373 192878.022 -77762.425 192897.968 -77725.176 192918.47 -77688.626 192939.528 -77652.774 192961.14 -77617.62 192979.158 -77589.762 192997.674 -77562.242 193016.688 -77535.059 193036.199 -77508.214 193056.209 -77481.707 193076.717 -77455.538 193097.723 -77429.706 193119.227 -77404.213 193141.229 -77379.057 193163.728 -77354.238 193186.726 -77329.758 193210.222 -77305.615 193234.216 -77281.81 193258.708 -77258.342 193283.698 -77235.213 193309.187 -77212.421 193334.969 -77190.018 193360.661 -77168.24 193386.26 -77147.085 193411.769 -77126.554 193437.185 -77106.648 193462.51 -77087.365 193487.743 -77068.706 193512.885 -77050.671 193537.935 -77033.26 193562.894 -77016.473 193587.761 -77000.31 193624.889 -76977.236 193661.812 -76955.565 193698.529 -76935.299 193710.722 -76928.855 193746.532 -76910.653 193780.875 -76894.242 193813.749 -76879.621 193845.155 -76866.791 193875.092 -76855.75 193903.561 -76846.5 193939.236 -76836.952 193972.3 -76830.586 194002.754 -76827.404 194017.002 -76827.006 194049.929 -76828.368 194080.933 -76832.455 194110.013 -76839.268 194143.658 -76851.614 194174.299 -76868.219 194201.933 -76889.081 194226.563 -76914.2 194248.094 -76943.077 194262.691 -76968.522 194274.953 -76996.051 194284.879 -77025.663 194292.47 -77057.359 194297.725 -77091.139 194300.644 -77127.003 194301.301 -77155.268 194300.459 -77188.522 194298.399 -77218.421 194295.101 -77249.608 194290.568 -77282.082 194284.797 -77315.845 194283.715 -77321.598 194276.786 -77356.047 194270.5 -77384.913 194263.749 -77413.921 194256.532 -77443.073 194248.851 -77472.368 194240.704 -77501.806 194239.019 -77507.711 194229.81 -77539.846 194221.051 -77569.625 194211.057 -77603.021 194199.825 -77640.035 194190.59 -77670.17 194180.66 -77702.34 194170.034 -77736.545 194158.712 -77772.785 194146.695 -77811.06 194134.73 -77848.972 194123.563 -77884.399 194113.194 -77917.339 194103.625 -77947.794 194094.853 -77975.763 194084.4 -78009.188 194075.367 -78038.194 194066.072 -78068.236 194060.233 -78087.299 194047.926 -78126.969 194034.911 -78166.846 194021.188 -78206.928 194006.756 -78247.217 193991.615 -78287.712 193975.766 -78328.412 193964.807 -78355.661 193953.533 -78383.001 193941.943 -78410.432 193930.039 -78437.955 193917.821 -78465.57 193905.287 -78493.276 193892.438 -78521.074 193879.089 -78549.39 193865.053 -78578.834 193850.329 -78609.405 193834.919 -78641.104 193818.822 -78673.931 193802.038 -78707.886 193784.567 -78742.968 193766.409 -78779.178 193747.564 -78816.515 193728.032 -78854.981 193707.814 -78894.574 193686.908 -78935.295 193665.315 -78977.143 193643.036 -79020.12 193620.07 -79064.224 193596.416 -79109.455 194016.27 -78889.637 194016.27 -79019.33"/><path d="M 195396.73 -78300.523 195428.375 -78293.425 195458.013 -78287.256 195480.994 -78283.67 195512.282 -78287.008 195543.319 -78292.08 195573.15 -78297.387 195590.17 -78300.523 195620.212 -78304.37 195644.392 -78308.583 195673.72 -78315.363 195683.96 -78318.841 195701.545 -78333.496 195683.164 -78359.635 195658.039 -78383.527 195633.567 -78404.801 195610.074 -78424.344 195590.17 -78440.474 195562.499 -78461.677 195534.804 -78480.957 195507.086 -78498.314 195479.345 -78513.747 195451.582 -78527.257 195423.795 -78538.843 195395.986 -78548.506 195368.154 -78556.245 195337.86 -78564.033 195306.633 -78570.248 195269.968 -78576.212 195236.721 -78580.803 195199.993 -78585.234 195170.162 -78588.452 195138.375 -78591.579 195116.095 -78593.614 195081.794 -78596.364 195046.758 -78598.844 195010.988 -78601.052 194974.484 -78602.991 194937.246 -78604.659 194899.273 -78606.056 194860.567 -78607.183 194821.126 -78608.04 194780.951 -78608.626 194740.042 -78608.941 194712.362 -78609.002 194677.156 -78608.787 194644.813 -78608.143 194615.332 -78607.07 194583.733 -78605.215 194552.077 -78602.27 194536.507 -78600.209 194505.595 -78592.495 194481.552 -78574.243 194477.889 -78559.909 194488.221 -78532.337 194505.394 -78505.341 194507.198 -78502.756 194525.661 -78478.503 194547.254 -78453.554 194569.076 -78430.794 194587.065 -78413.363 194614.929 -78389.662 194646.863 -78368.292 194682.866 -78349.253 194722.94 -78332.545 194751.918 -78322.702 194782.704 -78313.895 194815.299 -78306.124 194849.702 -78299.389 194885.915 -78293.691 194923.937 -78289.028 194963.768 -78285.402 195005.407 -78282.811 195048.856 -78281.257 195094.113 -78280.739 195123.505 -78281.435 195157.641 -78283.077 195191.261 -78285.086 195230.49 -78287.714 195263.594 -78290.09 195299.853 -78292.814 195339.268 -78295.886 195381.839 -78299.306 195396.73 -78300.523"/><path d="M 199146.682 -76808.261 199162.986 -76836.84 199175.963 -76865.849 199185.612 -76895.287 199191.934 -76925.154 199194.929 -76955.451 199195.195 -76967.69 199193.34 -76999.091 199187.776 -77032.296 199180.306 -77061.344 199170.259 -77091.644 199157.637 -77123.196 199142.438 -77156.001 199127.589 -77185.482 199109.053 -77220.802 199092.732 -77251.123 199074.338 -77284.729 199053.869 -77321.62 199039.071 -77348.038 199023.352 -77375.916 199006.711 -77405.254 198989.149 -77436.051 198970.664 -77468.309 198951.259 -77502.026 198930.931 -77537.202 198920.422 -77555.338 198899.153 -77592.029 198877.843 -77629.012 198856.494 -77666.286 198835.105 -77703.853 198813.675 -77741.711 198792.206 -77779.862 198770.696 -77818.304 198749.146 -77857.039 198727.557 -77896.065 198705.927 -77935.384 198684.257 -77974.994 198662.547 -78014.896 198640.797 -78055.09 198619.007 -78095.576 198597.177 -78136.354 198575.307 -78177.424 198605.948 -78177.54 198636.459 -78177.941 198668.161 -78178.8 198670.561 -78178.89 198702.366 -78179.727 198733.226 -78180.929 198751.894 -78181.821 198786.506 -78181.928 198816.609 -78182.25 198846.782 -78182.92 198876.916 -78184.294 198895.509 -78186.217 198918.124 -78205.857 198921.154 -78227.983 198909.789 -78256.683 198892.818 -78282.036 198888.914 -78287.334 198870.092 -78312.155 198851.949 -78335.459 198830.353 -78362.782 198809.72 -78388.621 198786.69 -78417.25 198776.807 -78429.483 198756.726 -78454.258 198736.782 -78479.125 198716.975 -78504.084 198697.306 -78529.134 198677.774 -78554.276 198658.38 -78579.509 198639.123 -78604.834 198620.003 -78630.251 198317.386 -78655.896 198302.555 -78684.49 198288.194 -78712.293 198274.305 -78739.307 198260.886 -78765.531 198235.461 -78815.608 198211.919 -78862.526 198190.261 -78906.283 198170.485 -78946.881 198152.594 -78984.319 198136.585 -79018.597 198122.46 -79049.715 198110.219 -79077.673 198095.387 -79113.686 198084.793 -79142.588 198076.554 -79174.96 198076.318 -79179.064 198079.435 -79208.448 198093.289 -79238.169 198118.224 -79257.083 198149.134 -79264.766 198164.979 -79265.526 198196.9 -79256.656 198226.822 -79243.621 198254.838 -79230.043 198287.633 -79213.207 198325.206 -79193.112 198352.909 -79177.905 198382.736 -79161.25 198414.687 -79143.146 198448.762 -79123.595 198484.961 -79102.594 198523.283 -79080.146 198507.163 -79191.521 198476.09 -79214.138 198446.343 -79235.828 198417.924 -79256.591 198390.831 -79276.426 198365.064 -79295.334 198340.624 -79313.314 198310.102 -79335.845 198281.937 -79356.728 198256.132 -79375.962 198244.113 -79384.961 198215.412 -79406.353 198187.928 -79426.563 198161.66 -79445.594 198136.608 -79463.443 198108.152 -79483.304 198081.448 -79501.465 198056.031 -79518.2 198027.42 -79535.576 197999.931 -79550.638 197969.89 -79565.018 197955.418 -79571.074 197927.117 -79581.012 197898.632 -79588.11 197866.367 -79592.702 197841.113 -79593.789 197811.405 -79590.773 197781.908 -79581.727 197752.621 -79566.651 197727.685 -79548.928 197707.023 -79530.774 197684.612 -79505.564 197666.838 -79476.644 197653.7 -79444.014 197646.294 -79413.99 197642.108 -79381.389 197641.078 -79353.454 197643.86 -79323.888 197651.004 -79292.255 197660.861 -79260.443 197671.99 -79230.106 197676.249 -79219.364 197689.618 -79186.924 197703.348 -79154.999 197717.439 -79123.589 197731.89 -79092.694 197746.702 -79062.314 197751.72 -79052.302 197767.301 -79021.677 197784.068 -78989.345 197799.152 -78960.528 197816.388 -78927.796 197835.775 -78891.148 197849.894 -78864.541 197864.969 -78836.193 197881 -78806.106 197897.988 -78774.278 197915.931 -78740.71 197934.83 -78705.401 197954.685 -78668.353 197924.246 -78669.329 197894.842 -78670.242 197852.679 -78671.493 197812.848 -78672.603 197775.348 -78673.571 197740.179 -78674.398 197707.342 -78675.082 197676.835 -78675.626 197639.787 -78676.129 197606.883 -78676.381 197591.985 -78676.413 197557.546 -78676.342 197520.724 -78676.129 197481.52 -78675.775 197439.932 -78675.279 197395.962 -78674.642 197365.325 -78674.138 197333.629 -78673.571 197300.873 -78672.941 197267.059 -78672.249 197232.186 -78671.493 197196.253 -78670.675 197159.262 -78669.793 197121.212 -78668.848 197101.789 -78668.353 197080.466 -78692.123 197057.711 -78717.182 197033.525 -78743.529 197013.146 -78765.534 196991.852 -78788.363 196969.641 -78812.016 196946.514 -78836.494 196940.589 -78842.742 196917.108 -78867.437 196893.924 -78891.697 196871.037 -78915.523 196848.449 -78938.913 196826.158 -78961.868 196804.164 -78984.388 196782.469 -79006.472 196761.071 -79028.122 196740.371 -79048.982 196715.527 -79073.962 196691.828 -79097.726 196669.274 -79120.273 196647.864 -79141.604 196623.684 -79165.595 196615.99 -79173.203 196593.957 -79195.038 196570.205 -79218.756 196548.557 -79240.579 196526.391 -79263.202 196516.339 -79273.586 196488.384 -79299.75 196461.671 -79324.751 196436.2 -79348.591 196411.971 -79371.268 196388.985 -79392.784 196367.241 -79413.137 196336.953 -79441.488 196309.461 -79467.224 196284.763 -79490.346 196262.861 -79510.853 196238.006 -79534.129 196218.119 -79552.756 196196.416 -79573.024 196174.355 -79592.612 196151.937 -79611.521 196124.563 -79633.314 196096.673 -79654.128 196073.039 -79670.725 196044.9 -79688.654 196017.637 -79702.874 195986.938 -79714.775 195957.431 -79721.627 195933.087 -79723.482 195901.351 -79719.452 195874.432 -79703.08 195861.681 -79674.114 195860.547 -79659.002 195864.179 -79629.67 195872.755 -79601.133 195886.376 -79568.876 195900.905 -79540.391 195918.662 -79509.525 195939.648 -79476.277 195957.506 -79449.779 195963.862 -79440.648 195983.465 -79413.336 196003.532 -79386.63 196024.063 -79360.528 196045.058 -79335.033 196066.516 -79310.142 196088.437 -79285.857 196110.823 -79262.177 196133.672 -79239.102 196156.985 -79216.633 196180.761 -79194.769 196196.87 -79180.53 196220.775 -79160.233 196243.856 -79141.933 196273.348 -79120.638 196301.375 -79102.892 196327.937 -79088.695 196359.077 -79075.941 196387.929 -79068.732 196409.361 -79066.957 196438.665 -79074.195 196465.576 -79088.019 196473.108 -79092.602 196864.385 -78660.293 196835.036 -78656.454 196802.493 -78653.183 196772.933 -78650.889 196741.155 -78648.99 196707.159 -78647.483 196670.945 -78646.371 196635.518 -78645.169 196603.883 -78643.394 196570.928 -78640.509 196539.382 -78636.101 196509.745 -78628.785 196484.74 -78611.372 196471.277 -78582.211 196468.712 -78556.245 196473.345 -78525.065 196483.724 -78496.437 196500.033 -78464.535 196516.156 -78438.459 196535.616 -78410.542 196558.411 -78380.782 196584.542 -78349.181 196603.817 -78327.091 196624.574 -78304.182 196646.813 -78280.454 196658.489 -78268.283 196684.111 -78242.935 196709.322 -78220.014 196734.12 -78199.521 196758.506 -78181.454 196788.409 -78162.285 196817.668 -78146.907 196846.283 -78135.323 196851.929 -78133.461 196884.347 -78124.964 196916.078 -78119.119 196952.96 -78114.121 196984.003 -78110.929 197017.944 -78108.214 197054.783 -78105.975 197094.52 -78104.212 197137.155 -78102.927 197167.188 -78102.334 197198.51 -78101.953 197162.148 -78107.197 197128.534 -78112.67 197097.668 -78118.371 197062.949 -78125.82 197032.524 -78133.627 197001.68 -78143.467 196984.553 -78150.314 196956.892 -78165.976 196934.095 -78187.756 196920.107 -78213.941 196915.676 -78233.845 196945.123 -78233.845 196976.827 -78233.845 197007.024 -78233.845 197026.318 -78233.845 197057.192 -78233.787 197088.722 -78233.638 197119.467 -78233.432 197153.156 -78233.157 197158.21 -78233.112 197191.759 -78232.436 197221.241 -78231.689 197253.171 -78230.627 197278.377 -78229.448 197299.473 -78208.832 197322.695 -78186.217 197564.874 -78186.217 198233.122 -78173.761 198254.718 -78137.061 198275.54 -78101.702 198295.59 -78067.681 198314.867 -78035 198333.372 -78003.659 198351.103 -77973.657 198368.062 -77944.995 198384.248 -77917.672 198399.661 -77891.689 198419.009 -77859.128 198423.632 -77851.36 198442.167 -77820.07 198461.138 -77788.117 198480.544 -77755.499 198500.385 -77722.217 198515.551 -77696.82 198530.962 -77671.049 198546.618 -77644.905 198562.518 -77618.387 198578.663 -77591.496 198584.099 -77582.449 198600.36 -77555.639 198616.17 -77529.615 198631.53 -77504.377 198651.308 -77471.948 198670.284 -77440.916 198688.459 -77411.28 198705.833 -77383.042 198722.405 -77356.2 198734.309 -77336.985 198750.268 -77311.294 198766.64 -77284.778 198783.424 -77257.438 198800.621 -77229.274 198818.229 -77200.285 198836.25 -77170.472 198854.682 -77139.835 198873.527 -77108.374 198845.586 -77125.871 198817.542 -77143.742 198789.395 -77161.987 198761.145 -77180.605 198732.792 -77199.596 198704.335 -77218.961 198675.776 -77238.7 198647.114 -77258.812 198618.349 -77279.297 198589.48 -77300.157 198570.177 -77314.27 198540.972 -77335.84 198511.058 -77358.234 198480.436 -77381.452 198449.106 -77405.495 198417.067 -77430.362 198384.319 -77456.053 198350.863 -77482.569 198316.699 -77509.909 198293.529 -77528.593 198270.045 -77547.644 198246.246 -77567.062 198222.131 -77586.845 198198.117 -77606.635 198174.435 -77626.252 198151.085 -77645.698 198128.067 -77664.972 198105.381 -77684.075 198071.975 -77712.407 198039.316 -77740.352 198007.403 -77767.911 197976.238 -77795.083 197945.82 -77821.869 197916.149 -77848.269 197887.224 -77874.282 197877.749 -77882.868 197849.475 -77908.817 197820.983 -77935.281 197792.271 -77962.26 197763.34 -77989.754 197734.191 -78017.764 197704.822 -78046.289 197675.235 -78075.329 197645.428 -78104.884 197615.403 -78134.955 197585.158 -78165.541 197564.874 -78186.217 197322.695 -78186.217 197341.296 -78168.103 197382.626 -78128.043 197423.464 -78088.653 197463.81 -78049.933 197503.664 -78011.883 197543.025 -77974.502 197581.894 -77937.791 197620.271 -77901.75 197658.155 -77866.379 197695.547 -77831.678 197732.447 -77797.646 197768.854 -77764.284 197804.77 -77731.591 197840.192 -77699.569 197875.123 -77668.216 197892.404 -77652.791 197927.051 -77622.116 197961.933 -77591.642 197997.049 -77561.369 198032.4 -77531.295 198067.986 -77501.422 198103.807 -77471.75 198139.863 -77442.277 198176.153 -77413.005 198212.677 -77383.934 198249.437 -77355.063 198286.431 -77326.392 198323.66 -77297.921 198361.124 -77269.651 198398.822 -77241.581 198436.755 -77213.712 198474.923 -77186.043 198513.362 -77158.525 198552.111 -77131.294 198591.169 -77104.349 198630.536 -77077.691 198670.212 -77051.318 198710.197 -77025.232 198750.492 -76999.432 198791.095 -76973.918 198832.008 -76948.69 198873.229 -76923.749 198914.76 -76899.094 198956.6 -76874.725 198998.749 -76850.642 199041.207 -76826.845 199083.975 -76803.335 199127.051 -76780.111 199146.682 -76808.261"/><path d="M 198795.125 -79031.786 198795.125 -78895.498 198815.538 -78870.842 198835.01 -78846.881 198853.542 -78823.615 198876.789 -78793.676 198898.365 -78764.974 198918.269 -78737.508 198936.501 -78711.279 198953.062 -78686.286 198964.385 -78668.353 198933.657 -78656.4 198907.416 -78643.257 198880.926 -78625.153 198868.398 -78613.398 198851.294 -78586.92 198841.906 -78556.237 198838.473 -78523.238 198838.356 -78515.212 198841.301 -78481.012 198848.514 -78448.795 198857.831 -78419.9 198870.153 -78389.146 198885.48 -78356.531 198899.905 -78329.099 198915.911 -78301.13 198932.786 -78273.641 198950.532 -78246.633 198969.148 -78220.106 198988.634 -78194.06 199008.99 -78168.494 199030.216 -78143.41 199052.313 -78118.806 199074.764 -78095.347 199096.689 -78074.064 199123.354 -78050.519 199149.196 -78030.372 199174.216 -78013.625 199203.153 -77998.014 199217.177 -77992.044 199245.753 -77981.053 199272.864 -77977.39 199301.415 -77984.823 199314.466 -78011.522 199314.63 -78016.224 199308.333 -78045.219 199296.432 -78073.859 199281.319 -78103.878 199265.262 -78132.751 199250.15 -78158.374 199302.044 -78150.477 199351.484 -78143.089 199398.467 -78136.211 199442.995 -78129.843 199485.066 -78123.984 199524.682 -78118.634 199561.843 -78113.794 199596.547 -78109.464 199628.796 -78105.643 199658.588 -78102.331 199698.673 -78098.319 199733.232 -78095.453 199770.716 -78093.415 199785.774 -78093.161 199816.546 -78094.491 199845.858 -78101.221 199870.484 -78121.863 199886.655 -78146.406 199899.375 -78174.742 199903.743 -78186.95 199912.594 -78216.122 199919.271 -78245.293 199923.774 -78274.465 199926.258 -78307.804 199926.458 -78320.307 199921.956 -78350.39 199910.049 -78379.241 199892.97 -78406.431 199888.356 -78412.63 199869.057 -78436.603 199848.329 -78460.611 199828.103 -78483.058 199805.195 -78507.723 199784.936 -78529.053 199762.96 -78551.802 199757.198 -78557.711 199737.036 -78580.154 199717.493 -78602.971 199698.568 -78626.161 199680.261 -78649.725 199662.573 -78673.663 199645.502 -78697.974 199629.05 -78722.658 199613.217 -78747.716 199598.001 -78773.148 199583.404 -78798.953 199574.016 -78816.364 199556.67 -78850.264 199541.638 -78881.989 199528.918 -78911.538 199516.271 -78945.416 199507.237 -78975.895 199501.166 -79007.984 199500.01 -79026.657 199504.209 -79060.025 199519.721 -79090.228 199546.664 -79111.035 199578.856 -79121.391 199612.097 -79124.747 199619.445 -79124.842 199653.837 -79120.801 199683.418 -79112.466 199716.245 -79099.583 199752.318 -79082.155 199778.169 -79068.01 199805.463 -79051.844 199834.2 -79033.657 199864.379 -79013.45 199896.001 -78991.222 199929.065 -78966.973 199963.572 -78940.704 199999.522 -78912.413 200036.914 -78882.103 200056.151 -78866.189 200056.151 -79006.14 200035.042 -79027.65 200014.397 -79048.581 199984.298 -79078.895 199955.243 -79107.907 199927.231 -79135.618 199900.263 -79162.028 199874.338 -79187.138 199849.456 -79210.947 199825.617 -79233.454 199802.821 -79254.661 199781.069 -79274.567 199774.05 -79280.914 199746.459 -79305.368 199719.371 -79328.541 199692.786 -79350.431 199666.706 -79371.039 199641.129 -79390.365 199616.056 -79408.408 199591.487 -79425.17 199567.421 -79440.648 199538.384 -79457.747 199510.348 -79471.947 199478.028 -79485.162 199447.15 -79494.204 199417.715 -79499.072 199398.893 -79500 199367.475 -79497.243 199338.066 -79488.974 199310.665 -79475.193 199285.275 -79455.898 199261.893 -79431.092 199254.546 -79421.598 199237.87 -79395.169 199224.02 -79365.341 199212.997 -79332.114 199206.214 -79303.085 199201.239 -79271.881 199198.074 -79238.502 199196.717 -79202.947 199196.66 -79193.719 199198.257 -79159.896 199202.028 -79130.412 199208.018 -79099.747 199216.225 -79067.901 199226.651 -79034.874 199239.295 -79000.667 199242.09 -78993.684 199254.099 -78965.176 199267.414 -78936.073 199282.035 -78906.375 199297.96 -78876.081 199315.191 -78845.192 199333.726 -78813.708 199353.567 -78781.628 199374.713 -78748.953 199391.387 -78724.236 199408.433 -78699.545 199425.853 -78674.88 199443.647 -78650.24 199461.814 -78625.627 199480.355 -78601.039 199499.269 -78576.477 199518.557 -78551.94 199538.218 -78527.43 199558.253 -78502.945 199571.817 -78486.636 199541.959 -78492.91 199510.268 -78499.275 199481.036 -78504.921 199450.402 -78510.636 199441.392 -78512.281 199409.555 -78518.122 199376.877 -78524.102 199343.358 -78530.223 199313.957 -78535.581 199288.984 -78540.125 199255.795 -78545.935 199226.113 -78551.185 199196.483 -78556.497 199165.886 -78562.107 199149.497 -78594.253 199132.203 -78626.026 199114.005 -78657.428 199094.903 -78688.457 199074.896 -78719.114 199053.984 -78749.399 199032.169 -78779.312 199009.448 -78808.853 198985.823 -78838.022 198961.294 -78866.819 198935.861 -78895.244 198909.522 -78923.296 198882.28 -78950.977 198854.133 -78978.285 198825.081 -79005.222 198795.125 -79031.786"/><path d="M 200763.967 -77764.898 200852.627 -77764.898 200872.917 -77729.221 200892.847 -77695.552 200912.416 -77663.893 200931.624 -77634.244 200950.472 -77606.603 200968.959 -77580.972 200987.085 -77557.35 201010.693 -77528.98 201033.659 -77504.181 201050.464 -77487.927 201073.018 -77468.865 201102.306 -77448.611 201132.81 -77432.328 201164.53 -77420.017 201197.467 -77411.677 201231.621 -77407.309 201252.697 -77406.594 201285.204 -77407.846 201316.941 -77412.655 201346.914 -77424.676 201364.545 -77448.719 201365.537 -77457.885 201353.069 -77488.419 201334.281 -77517.175 201315.665 -77542.653 201297.656 -77565.997 201276.877 -77591.974 201255.559 -77618.719 201235.569 -77644.364 201216.907 -77668.911 201195.448 -77698.048 201176.064 -77725.468 201158.754 -77751.171 201143.52 -77775.157 201173.238 -77778.898 201205.398 -77782.917 201235.634 -77786.66 201267.351 -77790.544 201299.408 -77794.064 201329.381 -77797.606 201353.813 -77800.802 201338.835 -77828.505 201323.393 -77856.295 201307.488 -77884.17 201291.119 -77912.131 201274.286 -77940.178 201256.99 -77968.311 201239.23 -77996.529 201221.006 -78024.834 201202.319 -78053.224 201183.168 -78081.7 201163.553 -78110.262 201143.474 -78138.91 201122.932 -78167.644 201101.926 -78196.464 201080.457 -78225.37 201058.524 -78254.361 201027.766 -78252.004 200996.854 -78249.657 200966.818 -78247.406 200961.803 -78247.034 200932.471 -78244.836 200902.727 -78242.637 200882.669 -78241.172 200852.884 -78238.984 200822.201 -78236.694 200791.65 -78234.388 200784.483 -78233.845 200763.916 -78266.901 200743.98 -78299.301 200724.675 -78331.043 200706.001 -78362.129 200687.958 -78392.558 200670.547 -78422.33 200653.766 -78451.446 200637.617 -78479.904 200622.099 -78507.705 200607.211 -78534.85 200597.637 -78552.581 200583.927 -78578.623 200566.587 -78612.723 200550.324 -78646.114 200535.137 -78678.795 200521.026 -78710.766 200507.992 -78742.027 200496.033 -78772.578 200485.151 -78802.42 200482.599 -78809.769 200473.154 -78838.701 200464.968 -78867.243 200456.506 -78902.373 200450.013 -78936.895 200445.487 -78970.808 200442.929 -79004.114 200442.299 -79030.321 200444.073 -79063.465 200451.283 -79098.681 200464.037 -79126.992 200486.663 -79151.85 200517.275 -79166.765 200548.884 -79171.599 200555.872 -79171.737 200586.973 -79168.8 200615.488 -79161.867 200646.364 -79150.854 200679.601 -79135.763 200707.892 -79120.754 200737.693 -79103.134 200761.036 -79088.206 200785.557 -79071.758 200811.585 -79053.739 200839.121 -79034.149 200868.163 -79012.987 200898.712 -78990.254 200930.768 -78965.949 200964.331 -78940.073 200987.544 -78921.95 201011.426 -78903.128 201035.979 -78883.607 201061.2 -78863.389 201087.092 -78842.472 201100.289 -78831.751 201100.289 -78970.969 201065.769 -79009.287 201031.816 -79046.389 200998.432 -79082.274 200965.616 -79116.943 200933.368 -79150.395 200901.688 -79182.631 200870.577 -79213.65 200840.033 -79243.453 200810.058 -79272.039 200780.651 -79299.409 200751.812 -79325.563 200723.541 -79350.5 200695.838 -79374.221 200668.703 -79396.725 200642.137 -79418.013 200616.139 -79438.084 200590.709 -79456.939 200565.847 -79474.577 200541.553 -79490.999 200494.67 -79520.194 200450.059 -79544.523 200407.721 -79563.986 200367.656 -79578.583 200329.863 -79588.315 200294.343 -79593.181 200277.435 -79593.789 200244.05 -79591.187 200213.138 -79583.382 200184.699 -79570.373 200158.733 -79552.161 200135.24 -79528.745 200127.958 -79519.783 200108.784 -79490.537 200095.836 -79463.883 200085.643 -79435.153 200078.205 -79404.348 200073.522 -79371.469 200071.593 -79336.514 200071.538 -79329.274 200072.646 -79298.843 200075.969 -79266.351 200081.507 -79231.798 200087.815 -79201.43 200095.661 -79169.631 200103.046 -79143.161 200111.896 -79114.344 200122.325 -79082.115 200134.335 -79046.475 200144.38 -79017.506 200155.313 -78986.617 200167.134 -78953.81 200179.845 -78919.083 200193.444 -78882.437 200207.932 -78843.873 200218.084 -78817.096 200195.228 -78837.096 200173.098 -78856.612 200163.129 -78865.457 200141.391 -78885.272 200119.656 -78904.946 200115.502 -78908.688 200093.337 -78929.021 200070.894 -78949.081 200069.34 -78950.453 200046.51 -78970.696 200023.358 -78991.583 200020.247 -78994.417 200020.247 -78854.466 200047.622 -78830.87 200075.706 -78805.144 200104.5 -78777.289 200134.003 -78747.304 200164.217 -78715.19 200195.14 -78680.946 200226.774 -78644.573 200259.117 -78606.071 200292.17 -78565.439 200325.932 -78522.677 200360.405 -78477.786 200395.587 -78430.765 200413.445 -78406.457 200431.48 -78381.615 200449.692 -78356.242 200468.082 -78330.336 200486.649 -78303.897 200505.394 -78276.927 200524.316 -78249.424 200543.415 -78221.388 200513.557 -78219.556 200485.53 -78218.457 200454.401 -78217.314 200424.107 -78216.993 200421.782 -78216.992 200392.347 -78217.255 200358.291 -78218.325 200327.275 -78220.218 200294.07 -78223.575 200260.866 -78228.99 200240.799 -78233.845 200212.248 -78241.322 200193.904 -78247.034 200165.111 -78253.622 200164.595 -78253.628 200156.535 -78241.905 200160.567 -78210.253 200170.442 -78178.156 200183.196 -78147.906 200196.363 -78121.414 200212.162 -78092.883 200230.595 -78062.315 200240.799 -78046.266 200257.709 -78016.671 200274.367 -77989.067 200290.773 -77963.456 200310.927 -77934.244 200330.687 -77908.144 200350.053 -77885.157 200369.026 -77865.282 200392.785 -77844.64 200418.451 -77826.676 200446.023 -77811.392 200475.501 -77798.787 200506.885 -77788.861 200517.77 -77786.147 200546.965 -77780.026 200579.594 -77774.942 200615.658 -77770.895 200646.982 -77768.405 200680.504 -77766.579 200716.225 -77765.417 200754.144 -77764.919 200763.967 -77764.898"/><path d="M 202062.088 -77814.737 202091.168 -77822.522 202118.441 -77833.689 202124.644 -77836.706 202137.1 -77875.54 202131.055 -77905.033 202129.111 -77936.818 202129.04 -77945.15 202131.902 -77975.933 202137.312 -78005.23 202144.181 -78035.42 202151.48 -78064.161 202158.349 -78089.497 202167.397 -78121.647 202175.766 -78152.151 202183.454 -78181.009 202191.783 -78213.467 202199.134 -78243.555 202204.511 -78266.817 202211.078 -78299.145 202215.423 -78328.305 202218.582 -78358.805 202220.557 -78390.644 202221.347 -78423.823 202221.364 -78429.483 202220.391 -78463.028 202217.471 -78496.253 202212.605 -78529.157 202205.793 -78561.741 202197.035 -78594.004 202186.33 -78625.946 202173.679 -78657.568 202159.082 -78688.869 202142.824 -78719.678 202124.827 -78750.189 202105.089 -78780.403 202083.611 -78810.319 202060.392 -78839.937 202035.434 -78869.258 202015.573 -78891.053 201994.733 -78912.68 201980.296 -78927.006 201957.715 -78948.346 201933.937 -78969.776 201908.96 -78991.296 201882.786 -79012.907 201855.414 -79034.607 201826.844 -79056.398 201797.076 -79078.279 201766.11 -79100.25 201733.947 -79122.312 201700.586 -79144.463 201677.679 -79159.281 201708.584 -79164.134 201740.297 -79168.222 201771.377 -79170.959 201794.916 -79171.737 201826.978 -79170.269 201859.968 -79165.864 201893.886 -79158.522 201922.858 -79150.161 201952.475 -79139.76 201976.632 -79129.972 202007.405 -79115.993 202038.356 -79100.62 202069.486 -79083.85 202100.796 -79065.686 202125.972 -79050.15 202151.262 -79033.721 202176.667 -79016.399 202202.828 -78997.966 202230.019 -78978.205 202258.241 -78957.116 202287.493 -78934.699 202317.775 -78910.954 202341.163 -78892.274 202365.13 -78872.847 202389.677 -78852.672 202414.804 -78831.751 202414.804 -78970.969 202382.135 -79002.995 202349.889 -79034.041 202318.067 -79064.109 202286.668 -79093.198 202255.693 -79121.308 202225.142 -79148.439 202195.014 -79174.591 202165.31 -79199.764 202136.03 -79223.958 202107.173 -79247.174 202078.739 -79269.41 202050.73 -79290.668 202023.144 -79310.947 201995.981 -79330.247 201969.242 -79348.568 201942.927 -79365.91 201917.141 -79382.148 201891.808 -79397.337 201854.655 -79418.158 201818.52 -79436.621 201783.403 -79452.728 201749.303 -79466.477 201716.221 -79477.87 201684.156 -79486.905 201653.109 -79493.583 201623.079 -79497.904 201584.623 -79500 201548.604 -79498.518 201513.087 -79494.075 201478.073 -79486.669 201443.561 -79476.3 201409.551 -79462.97 201376.044 -79446.676 201343.039 -79427.421 201310.536 -79405.203 201278.536 -79380.022 201247.038 -79351.88 201226.318 -79331.472 201203.112 -79306.88 201182.217 -79282.562 201163.636 -79258.52 201143.661 -79228.853 201127.3 -79199.615 201114.552 -79170.807 201105.418 -79142.428 201098.663 -79112.496 201093.053 -79079.488 201088.588 -79043.402 201085.841 -79012.319 201083.826 -78979.266 201082.543 -78944.244 201081.994 -78907.252 201081.971 -78897.697 201081.971 -78847.871 201096.586 -78832.484 201267.351 -78832.484 201297.073 -78839.376 201330.747 -78848.829 201360.557 -78859.211 201391.228 -78872.898 201419.979 -78890.56 201435.879 -78904.291 201457.542 -78928.164 201478.957 -78954.988 201498.81 -78981.829 201516.007 -79006.238 201534.371 -79033.257 201553.902 -79062.887 201564.106 -79078.681 201598.075 -79063.728 201630.006 -79047.448 201659.899 -79029.84 201687.754 -79010.903 201713.571 -78990.639 201737.351 -78969.046 201759.092 -78946.125 201778.796 -78921.877 201796.484 -78895.83 201811.814 -78867.517 201824.786 -78836.937 201835.399 -78804.091 201843.654 -78768.977 201849.55 -78731.596 201852.424 -78702.073 201853.972 -78671.275 201854.267 -78650.034 201853.82 -78620.661 201853.534 -78613.398 201851.002 -78583.454 201850.603 -78580.425 201813.234 -78280.739 201786.772 -78309.992 201766.29 -78332.077 201743.535 -78356.228 201718.508 -78382.446 201691.208 -78410.731 201661.636 -78441.082 201629.791 -78473.499 201595.673 -78507.983 201559.283 -78544.534 201520.62 -78583.151 201479.684 -78623.834 201458.364 -78644.951 201436.476 -78666.584 201414.02 -78688.734 201390.996 -78711.401 201367.403 -78734.584 201343.242 -78758.284 201318.513 -78782.501 201293.216 -78807.234 201267.351 -78832.484 201096.586 -78832.484 201114.849 -78813.256 201147.081 -78779.295 201178.665 -78745.988 201209.603 -78713.335 201239.894 -78681.336 201269.538 -78649.991 201298.535 -78619.301 201326.885 -78589.264 201354.589 -78559.881 201381.645 -78531.152 201408.055 -78503.077 201433.818 -78475.656 201458.934 -78448.89 201483.403 -78422.777 201507.225 -78397.318 201530.401 -78372.513 201552.929 -78348.363 201574.811 -78324.866 201596.046 -78302.023 201616.634 -78279.835 201636.575 -78258.3 201674.516 -78217.193 201709.871 -78178.702 201742.637 -78142.827 201772.817 -78109.568 201800.408 -78078.925 201813.234 -78064.584 201819.411 -78033.973 201826.583 -78005.336 201839.21 -77966.085 201854.078 -77931.276 201871.187 -77900.912 201890.537 -77874.991 201912.128 -77853.513 201944.402 -77831.789 201980.661 -77817.965 202010.47 -77812.78 202031.587 -77811.793 202062.088 -77814.737"/><path d="M 203436.643 -78000.917 203468.662 -78005.554 203497.848 -78013.282 203528.318 -78026.205 203554.93 -78043.335 203577.199 -78064.352 203593.999 -78089.577 203605.329 -78119.009 203611.19 -78152.649 203612.083 -78173.761 203610.571 -78205.623 203606.038 -78237.462 203598.481 -78269.279 203587.903 -78301.072 203574.301 -78332.843 203557.677 -78364.591 203538.031 -78396.316 203515.362 -78428.018 203496.326 -78451.766 203475.486 -78475.476 203452.843 -78499.147 203428.397 -78522.78 203402.147 -78546.374 203374.095 -78569.929 203344.239 -78593.446 203312.58 -78616.924 203279.118 -78640.364 203243.852 -78663.764 203219.34 -78679.344 203194.158 -78694.88 203168.255 -78710.347 203141.631 -78725.746 203114.285 -78741.076 203086.218 -78756.337 203057.43 -78771.53 203027.92 -78786.654 202997.69 -78801.709 202966.738 -78816.696 202935.064 -78831.614 202902.67 -78846.463 202869.554 -78861.243 202835.717 -78875.955 202801.158 -78890.598 202765.878 -78905.173 202729.877 -78919.678 202729.877 -78969.504 202731.326 -79004.888 202735.673 -79037.768 202742.918 -79068.143 202753.061 -79096.014 202769.058 -79126.153 202789.228 -79152.686 202813.048 -79175.097 202839.443 -79192.872 202868.415 -79206.009 202899.962 -79214.51 202934.085 -79218.374 202946.032 -79218.632 202977.81 -79217.487 203009.946 -79214.052 203042.439 -79208.328 203075.29 -79200.314 203108.499 -79190.01 203142.066 -79177.416 203155.593 -79171.737 203182.681 -79159.349 203209.723 -79146 203236.719 -79131.689 203263.67 -79116.416 203290.575 -79100.182 203317.434 -79082.985 203344.247 -79064.827 203371.015 -79045.708 203398.504 -79025.272 203427.481 -79003.164 203457.946 -78979.384 203481.772 -78960.453 203506.435 -78940.581 203531.935 -78919.769 203558.273 -78898.017 203585.447 -78875.325 203613.459 -78851.692 203632.599 -78835.415 203632.599 -78969.504 203603.587 -79003.894 203574.805 -79037.27 203546.251 -79069.633 203517.927 -79100.983 203489.831 -79131.32 203461.965 -79160.643 203434.327 -79188.953 203406.919 -79216.25 203379.739 -79242.534 203352.788 -79267.805 203326.067 -79292.062 203299.574 -79315.306 203273.31 -79337.537 203247.275 -79358.755 203221.47 -79378.959 203195.893 -79398.15 203170.405 -79416.162 203144.865 -79433.012 203119.274 -79448.7 203093.631 -79463.226 203055.071 -79482.835 203016.394 -79499.831 202977.602 -79514.211 202938.694 -79525.977 202899.669 -79535.128 202860.529 -79541.665 202821.273 -79545.587 202781.901 -79546.894 202748.093 -79545.664 202715.638 -79541.974 202684.535 -79535.824 202654.784 -79527.213 202626.386 -79516.143 202599.34 -79502.613 202573.647 -79486.622 202549.306 -79468.172 202526.317 -79447.261 202504.681 -79423.89 202491.008 -79406.943 202471.89 -79379.65 202454.652 -79350.529 202439.295 -79319.578 202425.818 -79286.798 202414.222 -79252.19 202404.506 -79215.752 202396.671 -79177.486 202390.716 -79137.39 202386.641 -79095.466 202384.447 -79051.713 202384.03 -79021.528 202384.918 -78981.765 202387.584 -78942.711 202392.028 -78904.365 202398.249 -78866.727 202406.247 -78829.798 202416.023 -78793.578 202417.192 -78789.986 202750.394 -78789.986 202784.682 -78776.638 202818.031 -78762.697 202850.439 -78748.164 202881.907 -78733.039 202912.435 -78717.321 202942.022 -78701.011 202970.67 -78684.108 202998.377 -78666.612 203025.143 -78648.525 203050.97 -78629.844 203067.665 -78617.062 203091.789 -78597.636 203114.703 -78578.379 203143.371 -78552.962 203169.887 -78527.843 203194.25 -78503.022 203216.461 -78478.499 203236.519 -78454.273 203254.425 -78430.345 203262.571 -78418.492 203280.725 -78389.995 203295.801 -78364.038 203309.832 -78336.243 203320.601 -78308.439 203325.586 -78280.006 203318.451 -78250.118 203292.487 -78234.566 203282.355 -78233.845 203251.209 -78239.299 203221.705 -78250.118 203191.156 -78264.319 203161.454 -78280.006 203135.297 -78294.901 203109.033 -78311.19 203082.661 -78328.875 203056.182 -78347.956 203029.596 -78368.431 203002.902 -78390.302 202992.194 -78399.441 202966.044 -78422.983 202940.717 -78447.813 202916.213 -78473.931 202892.532 -78501.336 202874.179 -78524.188 202856.353 -78547.865 202839.054 -78572.365 202822.762 -78597.564 202807.959 -78623.336 202794.644 -78649.679 202782.817 -78676.596 202772.479 -78704.085 202763.629 -78732.146 202756.267 -78760.779 202750.394 -78789.986 202417.192 -78789.986 202427.577 -78758.065 202440.908 -78723.261 202456.016 -78689.166 202472.901 -78655.779 202485.146 -78633.914 202505.226 -78601.049 202527.547 -78567.849 202552.109 -78534.313 202578.912 -78500.443 202598.026 -78477.677 202618.136 -78454.762 202639.242 -78431.698 202661.344 -78408.486 202684.442 -78385.124 202708.537 -78361.614 202733.627 -78337.955 202759.713 -78314.147 202786.796 -78290.19 202814.874 -78266.085 202844.124 -78241.797 202873.349 -78218.669 202902.548 -78196.7 202931.721 -78175.89 202960.869 -78156.24 202989.99 -78137.748 203019.086 -78120.416 203048.156 -78104.243 203077.201 -78089.229 203106.219 -78075.375 203125.551 -78066.782 203154.25 -78054.735 203182.369 -78043.873 203218.959 -78031.234 203254.52 -78020.701 203289.049 -78012.274 203322.549 -78005.955 203355.018 -78001.741 203386.457 -77999.635 203401.789 -77999.371 203436.643 -78000.917"/><path d="M 204575.621 -78940.195 204208.524 -79259.665 204176.501 -79288.768 204145.829 -79315.993 204116.509 -79341.341 204088.539 -79364.811 204061.921 -79386.404 204036.653 -79406.119 204012.736 -79423.956 203979.394 -79447.192 203949.092 -79466.202 203921.829 -79480.989 203890.207 -79494.132 203858.279 -79500 203827.771 -79493.379 203801.914 -79477.748 203775.664 -79452.922 203754.381 -79426.44 203732.845 -79394.074 203716.529 -79365.938 203700.07 -79334.492 203689.019 -79311.688 203673.175 -79276.792 203658.888 -79242.72 203646.161 -79209.473 203634.992 -79177.049 203625.381 -79145.45 203617.329 -79114.676 203610.835 -79084.726 203605.9 -79055.6 203601.744 -79018.047 203600.359 -78981.96 203601.235 -78945.532 203603.865 -78910.891 203608.248 -78878.04 203614.384 -78846.978 203622.273 -78817.705 203634.054 -78784.938 203636.263 -78779.727 203648.982 -78752.425 203664.241 -78722.726 203682.04 -78690.63 203698.109 -78663.227 203715.803 -78634.29 203735.123 -78603.819 203756.069 -78571.813 203761.559 -78563.572 203784.962 -78530.533 203808.185 -78498.46 203831.227 -78467.352 203854.089 -78437.211 203876.771 -78408.036 203899.272 -78379.826 203921.593 -78352.583 203943.734 -78326.306 203965.694 -78300.994 203987.474 -78276.649 204001.894 -78260.956 204023.363 -78238.096 204044.355 -78216.228 204071.604 -78188.613 204098.005 -78162.761 204123.559 -78138.673 204148.265 -78116.348 204172.125 -78095.785 204195.137 -78076.986 204206.325 -78068.248 204232.726 -78048.406 204260.959 -78029.034 204289.144 -78012.555 204317.86 -78001.053 204330.157 -77999.371 204361.191 -78004.008 204388.29 -78015.915 204414.932 -78035.149 204437.868 -78057.99 204458.424 -78083.525 204473.932 -78109.481 204485.472 -78139.66 204490.418 -78170.389 204490.624 -78178.157 204485.114 -78207.609 204472.772 -78237.972 204458.888 -78264.711 204441.036 -78294.85 204434.204 -78305.652 204414.945 -78334.063 204397.193 -78358.466 204377.358 -78384.358 204355.439 -78411.738 204331.437 -78440.606 204312.067 -78463.234 204291.526 -78486.7 204269.812 -78511.002 204254.685 -78527.669 204230.898 -78553.274 204205.424 -78579.807 204178.262 -78607.267 204149.413 -78635.655 204118.877 -78664.969 204086.653 -78695.212 204064.233 -78715.888 204041.064 -78736.977 204017.144 -78758.478 203992.475 -78780.391 203967.055 -78802.717 203940.886 -78825.454 203913.967 -78848.604 203874.399 -78963.642 203863.38 -78990.951 203858.295 -79019.963 203858.279 -79021.528 203863.718 -79051.281 203884.6 -79072.438 203913.967 -79077.948 203946.725 -79070.935 203979.225 -79057.34 204010.687 -79041.311 204037.469 -79026.285 204066.981 -79008.682 204099.224 -78988.503 204134.197 -78965.749 204159.03 -78949.148 204185.076 -78931.402 204211.87 -78912.689 204238.943 -78893.186 204266.298 -78872.893 204293.932 -78851.81 204321.847 -78829.936 204350.043 -78807.273 204378.519 -78783.82 204407.276 -78759.577 204436.313 -78734.544 204465.631 -78708.721 204495.229 -78682.108 204525.108 -78654.706 204555.267 -78626.513 204585.707 -78597.53 204616.427 -78567.757 204647.428 -78537.194 204671.093 -78513.197 204693.727 -78489.933 204715.331 -78467.402 204735.905 -78445.603 204760.173 -78419.385 204782.831 -78394.312 204803.879 -78370.384 204807.896 -78365.736 204827.724 -78342.63 204846.908 -78320.026 204869.078 -78293.562 204890.322 -78267.819 204910.638 -78242.798 204923.667 -78226.517 204942.283 -78203.196 204962.438 -78178.853 204983.413 -78154.81 205004.381 -78132.579 205008.663 -78128.332 205031.474 -78109.299 205058.001 -78095.595 205070.212 -78093.161 205100.051 -78094.62 205127.749 -78109.119 205148.272 -78134.02 205150.08 -78137.124 205162.903 -78165.06 205171.117 -78194.462 205176.527 -78228.492 205178.931 -78261.345 205179.389 -78285.136 205176.275 -78315.452 205168.441 -78344.834 205155.839 -78376.881 205141.241 -78406.471 205129.563 -78427.285 205112.093 -78456.533 205095.051 -78484.131 205075.285 -78515.461 205058.672 -78541.407 205040.526 -78569.454 205020.848 -78599.599 204999.636 -78631.844 204976.892 -78666.189 204952.616 -78702.633 204944.183 -78715.247 204927.153 -78740.767 204910.134 -78766.401 204893.127 -78792.149 204876.131 -78818.012 204859.146 -78843.99 204842.173 -78870.082 204825.212 -78896.288 204808.262 -78922.609 204791.323 -78949.045 204774.396 -78975.595 204757.48 -79002.259 204740.576 -79029.038 204723.683 -79055.932 204706.802 -79082.94 204689.932 -79110.062 204673.073 -79137.299 204656.201 -79164.811 204639.288 -79192.757 204622.335 -79221.139 204605.342 -79249.956 204588.309 -79279.208 204571.236 -79308.895 204554.122 -79339.017 204536.969 -79369.574 204519.776 -79400.566 204502.542 -79431.993 204485.269 -79463.855 204467.955 -79496.153 204450.602 -79528.885 204433.208 -79562.052 204415.774 -79595.655 204398.3 -79629.692 204418.771 -79608.672 204441.062 -79586.107 204465.777 -79561.162 204489.568 -79537.188 204516.931 -79509.642 204524.33 -79502.198 204547.114 -79479.57 204570.131 -79456.748 204593.379 -79433.734 204616.859 -79410.526 204640.572 -79387.126 204664.515 -79363.532 204688.691 -79339.744 204713.099 -79315.764 204737.738 -79291.59 204762.609 -79267.224 204779.319 -79250.872 204804.042 -79226.737 204827.928 -79203.516 204850.977 -79181.21 204873.189 -79159.819 204894.563 -79139.342 204921.76 -79113.462 204947.468 -79089.207 204971.688 -79066.578 204994.42 -79045.575 204999.87 -79040.579 205022.161 -79020.211 205045.803 -78999.042 205070.796 -78977.072 205097.14 -78954.3 205124.835 -78930.727 205153.881 -78906.352 205176.552 -78887.545 205199.983 -78868.287 205216.025 -78855.198 205216.025 -78992.951 205181.516 -79030.106 205147.412 -79067.014 205113.715 -79103.676 205080.425 -79140.092 205047.541 -79176.262 205015.063 -79212.186 204982.992 -79247.864 204951.327 -79283.295 204920.069 -79318.48 204889.217 -79353.419 204858.771 -79388.112 204828.732 -79422.559 204799.1 -79456.76 204769.874 -79490.714 204741.054 -79524.423 204712.641 -79557.885 204684.831 -79590.898 204657.824 -79623.075 204631.617 -79654.416 204606.212 -79684.922 204581.608 -79714.592 204557.806 -79743.426 204534.805 -79771.424 204512.606 -79798.586 204491.208 -79824.913 204470.611 -79850.404 204450.816 -79875.059 204431.823 -79898.879 204413.63 -79921.862 204387.845 -79954.771 204363.862 -79985.799 204341.814 -80014.708 204321.556 -80041.26 204303.088 -80065.455 204281.249 -80094.048 204262.593 -80118.452 204243.749 -80143.063 204225.722 -80166.52 204220.98 -80172.644 204200.484 -80199.237 204180.76 -80225.16 204161.809 -80250.414 204143.631 -80274.997 204126.226 -80298.911 204120.596 -80306.734 204102.028 -80332.9 204082.439 -80359.37 204062.482 -80384.769 204046.591 -80403.454 204025.708 -80424.44 203999.387 -80437.858 203998.23 -80437.892 203969.548 -80427.762 203947.626 -80404.404 203931.538 -80376.86 203920.561 -80352.163 203909.107 -80320.985 203900.022 -80291.197 203892.418 -80258.204 203888.041 -80227.104 203886.856 -80201.953 203888.653 -80169.373 203894.043 -80139.228 203904.247 -80108.588 203909.57 -80097.173 203929.603 -80053.584 203952.515 -80006.166 203978.307 -79954.918 203992.282 -79927.858 204006.977 -79899.84 204022.393 -79870.865 204038.528 -79840.933 204055.383 -79810.043 204072.957 -79778.196 204091.252 -79745.391 204110.266 -79711.629 204130.001 -79676.91 204150.455 -79641.233 204171.629 -79604.599 204193.523 -79567.007 204216.136 -79528.458 204239.47 -79488.951 204263.523 -79448.487 204288.297 -79407.066 204313.79 -79364.687 204340.003 -79321.351 204366.935 -79277.058 204394.588 -79231.807 204422.96 -79185.598 204452.053 -79138.432 204481.865 -79090.309 204512.397 -79041.228 204543.649 -78991.19 204575.621 -78940.195"/><path d="M 207834.064 -77172.121 207823.599 -77202.013 207809.46 -77228.357 207792.204 -77257.344 207786.437 -77266.643 207770.655 -77291.963 207752.62 -77320.753 207736.569 -77346.284 207719.075 -77374.036 207700.138 -77404.009 207679.759 -77436.204 207663.528 -77461.807 207646.486 -77488.66 207628.827 -77516.845 207610.473 -77546.448 207591.424 -77577.467 207571.679 -77609.903 207551.238 -77643.756 207530.102 -77679.026 207508.271 -77715.712 207493.33 -77740.957 207478.08 -77766.832 207462.521 -77793.336 207446.653 -77820.47 207430.476 -77848.233 207422.271 -77862.351 207405.75 -77890.933 207389.161 -77919.893 207372.503 -77949.231 207355.776 -77978.947 207338.98 -78009.04 207322.116 -78039.511 207305.183 -78070.36 207288.182 -78101.587 207271.111 -78133.192 207253.972 -78165.174 207236.765 -78197.534 207219.488 -78230.273 207202.143 -78263.388 207184.73 -78296.882 207167.247 -78330.754 207149.696 -78365.003 207129.987 -78404.221 207110.976 -78442.375 207092.663 -78479.463 207075.049 -78515.487 207058.133 -78550.446 207041.916 -78584.341 207026.397 -78617.17 207011.577 -78648.935 206997.454 -78679.635 206984.031 -78709.271 206971.305 -78737.842 206959.278 -78765.348 206942.547 -78804.61 206927.387 -78841.477 206918.154 -78864.724 206905.452 -78898.22 206893.999 -78930.841 206883.796 -78962.586 206874.843 -78993.455 206867.138 -79023.448 206860.683 -79052.566 206854.02 -79090.026 206849.578 -79125.93 206847.357 -79160.277 206847.079 -79176.866 206849.744 -79208.562 206857.741 -79239.077 206871.068 -79268.411 206889.726 -79296.564 206913.715 -79323.537 206936.745 -79344.265 206956.256 -79359.316 206980.947 -79339.465 207005.56 -79318.933 207030.097 -79297.717 207054.556 -79275.819 207078.938 -79253.238 207103.242 -79229.975 207127.469 -79206.029 207151.619 -79181.4 207175.692 -79156.089 207199.687 -79130.095 207215.642 -79112.386 207239.652 -79085.175 207263.598 -79057.397 207287.48 -79029.053 207311.297 -79000.141 207335.05 -78970.663 207358.738 -78940.619 207382.362 -78910.007 207405.922 -78878.829 207429.417 -78847.084 207452.848 -78814.772 207468.433 -78792.916 207492.136 -78758.988 207516.535 -78723.425 207533.188 -78698.807 207550.149 -78673.462 207567.42 -78647.39 207585 -78620.591 207602.889 -78593.065 207621.087 -78564.812 207639.594 -78535.832 207658.41 -78506.125 207677.535 -78475.691 207696.97 -78444.53 207716.713 -78412.642 207736.766 -78380.027 207757.128 -78346.685 207777.501 -78313.059 207797.588 -78279.778 207817.389 -78246.839 207836.904 -78214.244 207856.132 -78181.993 207875.074 -78150.085 207893.73 -78118.52 207912.1 -78087.299 207930.183 -78056.421 207947.981 -78025.887 207965.492 -77995.696 207982.717 -77965.849 207999.655 -77936.345 208016.308 -77907.185 208032.674 -77878.368 208048.754 -77849.895 208038.7 -77821.273 208035.565 -77813.258 208028.302 -77784.145 208028.237 -77781.751 208029.186 -77751.601 208032.03 -77722.059 208036.77 -77693.126 208044.962 -77659.209 208055.884 -77626.167 208067.072 -77599.302 208079.902 -77572.848 208093.662 -77546.608 208108.352 -77520.583 208123.973 -77494.773 208140.524 -77469.178 208158.005 -77443.797 208165.258 -77433.705 208185.025 -77406.696 208202.925 -77382.797 208222.68 -77356.859 208244.29 -77328.884 208267.755 -77298.871 208286.57 -77275.023 208306.429 -77250.03 208327.331 -77223.89 208341.845 -77205.826 208362.511 -77184.961 208388.548 -77170.935 208418.049 -77166.259 208450.426 -77172.213 208475.794 -77193.143 208488.513 -77224.398 208491.982 -77255.653 208492.055 -77261.514 208490.158 -77293.717 208485.911 -77323.318 208479.236 -77356.331 208470.134 -77392.756 208461.715 -77422.313 208451.931 -77453.79 208440.781 -77487.186 208428.266 -77522.5 208414.385 -77559.734 208399.309 -77598.422 208382.932 -77638.371 208371.292 -77665.705 208359.073 -77693.6 208346.276 -77722.057 208332.901 -77751.074 208318.948 -77780.652 208304.416 -77810.791 208289.306 -77841.491 208273.619 -77872.753 208257.353 -77904.575 208240.508 -77936.958 208223.086 -77969.902 208205.086 -78003.407 208186.507 -78037.473 208167.444 -78072.075 208147.81 -78107.186 208127.602 -78142.806 208106.823 -78178.936 208085.47 -78215.575 208063.546 -78252.724 208041.049 -78290.382 208017.979 -78328.55 207994.337 -78367.227 207970.123 -78406.414 207945.336 -78446.11 207919.977 -78486.315 207894.045 -78527.03 207867.541 -78568.255 207840.464 -78609.989 207812.815 -78652.233 207784.651 -78694.757 207756.029 -78737.515 207726.949 -78780.509 207697.411 -78823.737 207667.414 -78867.2 207636.96 -78910.897 207606.048 -78954.829 207574.678 -78998.996 207542.851 -79043.398 207510.565 -79088.034 207477.821 -79132.905 207444.619 -79178.011 207410.959 -79223.352 207376.842 -79268.927 207342.266 -79314.737 207307.233 -79360.781 207272.056 -79406.033 207238.15 -79448.365 207205.515 -79487.778 207174.151 -79524.271 207144.057 -79557.845 207115.235 -79588.499 207087.683 -79616.234 207061.402 -79641.05 207036.392 -79662.946 207012.653 -79681.922 206979.427 -79704.913 206949.06 -79721.335 206913.019 -79733.013 206896.905 -79734.473 206865.253 -79730.756 206836.729 -79721.654 206806.916 -79707.091 206781.088 -79690.784 206754.365 -79670.684 206737.903 -79656.803 206716.127 -79636.688 206695.129 -79614.809 206674.911 -79591.167 206655.471 -79565.762 206636.809 -79538.594 206618.926 -79509.662 206601.821 -79478.968 206585.495 -79446.51 206570.554 -79412.702 206557.605 -79378.321 206546.649 -79343.367 206537.684 -79307.841 206530.712 -79271.743 206525.732 -79235.072 206522.744 -79197.829 206521.748 -79160.013 206522.678 -79130.386 206525.468 -79098.29 206530.12 -79063.725 206535.18 -79034.295 206541.431 -79003.286 206548.873 -78970.697 206557.505 -78936.528 206559.849 -78927.739 206570.05 -78891.32 206578.588 -78862.848 206587.885 -78833.385 206597.942 -78802.931 206608.759 -78771.484 206620.336 -78739.046 206632.673 -78705.616 206645.77 -78671.194 206659.626 -78635.781 206674.243 -78599.375 206679.284 -78587.02 206694.727 -78549.702 206710.557 -78512.488 206726.773 -78475.376 206743.375 -78438.367 206760.364 -78401.462 206777.739 -78364.66 206795.5 -78327.96 206813.648 -78291.364 206832.183 -78254.87 206851.103 -78218.48 206863.932 -78194.277 206883.765 -78156.296 206903.147 -78119.565 206922.079 -78084.082 206940.559 -78049.85 206958.589 -78016.866 206976.168 -77985.132 206993.296 -77954.647 207009.974 -77925.412 207026.2 -77897.426 207041.976 -77870.689 207052.243 -77853.558 207067.68 -77828.015 207083.49 -77801.944 207099.674 -77775.345 207116.231 -77748.217 207133.162 -77720.562 207150.466 -77692.378 207168.144 -77663.667 207186.195 -77634.427 207204.62 -77604.659 207223.418 -77574.363 207236.158 -77553.872 207254.621 -77524.156 207271.269 -77497.106 207290.64 -77465.187 207306.783 -77438.007 207322.422 -77410.698 207336.95 -77382.408 207339.473 -77374.354 207325.007 -77348.047 207298.44 -77342.847 207267.333 -77344.804 207233.731 -77350.678 207197.632 -77360.467 207168.921 -77370.378 207138.805 -77382.491 207107.286 -77396.807 207074.362 -77413.326 207040.035 -77432.047 207004.304 -77452.971 206979.703 -77468.143 206954.409 -77484.22 206928.171 -77501.311 206900.989 -77519.414 206872.862 -77538.531 206843.79 -77558.661 206813.774 -77579.804 206782.814 -77601.961 206750.908 -77625.13 206718.059 -77649.313 206684.264 -77674.509 206649.526 -77700.719 206613.842 -77727.941 206577.215 -77756.177 206539.642 -77785.426 206501.125 -77815.688 206461.664 -77846.964 206432.664 -77870.251 206406.48 -77891.386 206383.113 -77910.368 206357.865 -77931.069 206333.376 -77951.471 206310.581 -77971.14 206308.524 -77972.993 206287.649 -77994.639 206276.284 -78020.621 206294.639 -78043.762 206315.118 -78046.266 206344.731 -78041.778 206375.002 -78035.184 206404.076 -78028.314 206426.493 -78022.819 206455.276 -78016.064 206487.218 -78009.469 206516.327 -78004.523 206546.706 -78000.837 206576.702 -77999.371 206608.327 -78000.608 206640.315 -78006.103 206666.487 -78022.59 206669.759 -78034.542 206659.005 -78062.946 206634.001 -78081.059 206631.657 -78082.17 206601.999 -78094.26 206572.581 -78104.152 206542.539 -78112.944 206526.144 -78117.341 206494.658 -78125.38 206463.987 -78133.331 206429.915 -78142.261 206398.924 -78150.451 206365.572 -78159.32 206344.427 -78164.968 206313.241 -78173.681 206281.596 -78183.332 206249.493 -78193.922 206216.933 -78205.451 206183.914 -78217.919 206150.437 -78231.326 206116.503 -78245.671 206082.11 -78260.956 206049.161 -78275.553 206019.92 -78288.204 205988.586 -78301.281 205958.636 -78312.959 205929.359 -78322.264 205922.376 -78323.237 205892.043 -78316.958 205874.016 -78294.661 205867.848 -78264.801 205865.244 -78233.603 205864.499 -78203.492 205864.49 -78199.406 205864.868 -78163.113 205866.001 -78127.874 205867.89 -78093.687 205870.535 -78060.554 205873.935 -78028.475 205878.091 -77997.448 205883.003 -77967.475 205888.67 -77938.555 205898.588 -77897.15 205910.205 -77858.115 205923.523 -77821.45 205938.541 -77787.155 205955.26 -77755.23 205961.21 -77745.115 205980.691 -77714.905 206002.864 -77684.45 206027.729 -77653.75 206055.286 -77622.806 206085.534 -77591.617 206107.196 -77570.689 206130.053 -77549.651 206154.107 -77528.505 206179.358 -77507.25 206205.805 -77485.887 206233.448 -77464.414 206262.288 -77442.833 206292.324 -77421.143 206307.791 -77410.258 206343.231 -77385.7 206378.476 -77361.669 206413.527 -77338.164 206448.383 -77315.186 206483.045 -77292.735 206517.511 -77270.81 206551.784 -77249.412 206585.861 -77228.541 206619.744 -77208.196 206653.433 -77188.378 206686.926 -77169.087 206720.225 -77150.322 206753.33 -77132.084 206786.24 -77114.373 206818.955 -77097.188 206851.475 -77080.53 206883.621 -77064.41 206915.211 -77048.839 206946.246 -77033.818 206976.726 -77019.347 207006.651 -77005.425 207036.02 -76992.053 207064.834 -76979.23 207093.093 -76966.957 207120.796 -76955.233 207147.944 -76944.059 207187.625 -76928.328 207226.057 -76913.834 207263.24 -76900.576 207299.173 -76888.555 207333.736 -76877.555 207366.535 -76867.638 207397.569 -76858.802 207426.839 -76851.048 207463.121 -76842.393 207496.265 -76835.661 207526.273 -76830.853 207559.371 -76827.547 207576.877 -76827.006 207609.248 -76830.921 207641.517 -76842.668 207668.329 -76858.439 207695.069 -76879.648 207716.41 -76900.531 207737.705 -76924.894 207748.335 -76938.381 207768.428 -76966.236 207785.842 -76994.48 207800.576 -77023.114 207812.632 -77052.137 207822.009 -77081.549 207828.706 -77111.35 207832.725 -77141.541 207834.064 -77172.121"/><path d="M 208549.207 -77530.425 208549.207 -77361.898 208572.388 -77341.397 208595.676 -77321.111 208619.071 -77301.04 208642.573 -77281.183 208666.183 -77261.541 208689.9 -77242.114 208699.417 -77234.403 208723.871 -77214.918 208749.148 -77194.933 208775.248 -77174.446 208802.171 -77153.459 208829.916 -77131.971 208858.485 -77109.982 208870.143 -77101.046 208893.681 -77083.014 208917.404 -77065.188 208941.309 -77047.569 208965.397 -77030.155 208989.669 -77012.947 209014.124 -76995.946 209038.762 -76979.15 209063.583 -76962.561 209088.942 -76946.017 209115.194 -76929.359 209142.34 -76912.586 209170.378 -76895.699 209199.309 -76878.697 209229.134 -76861.581 209259.851 -76844.351 209291.461 -76827.006 209311.758 -76857.652 209330.059 -76888.04 209346.362 -76918.17 209360.67 -76948.043 209372.981 -76977.659 209383.296 -77007.017 209391.614 -77036.117 209397.936 -77064.959 209403.26 -77103.015 209405.034 -77140.614 209403.798 -77172.032 209400.088 -77204.739 209393.906 -77238.733 209386.865 -77268.046 209378.107 -77298.253 209369.863 -77323.063 209358.246 -77355.131 209345.377 -77388.594 209334.18 -77416.369 209322.182 -77445.037 209309.382 -77474.598 209295.781 -77505.052 209281.378 -77536.399 209273.876 -77552.407 209258.202 -77585.666 209241.59 -77620.963 209228.515 -77648.773 209214.911 -77677.729 209200.78 -77707.832 209186.12 -77739.081 209170.933 -77771.476 209155.217 -77805.018 209138.973 -77839.706 209122.201 -77875.54 209107.117 -77908.788 209092.271 -77941.669 209077.664 -77974.184 209063.297 -78006.332 209049.168 -78038.114 209035.278 -78069.53 209021.628 -78100.58 209008.216 -78131.263 208995.043 -78161.579 208982.11 -78191.53 208969.415 -78221.113 208956.959 -78250.331 208944.743 -78279.182 208932.765 -78307.667 208921.026 -78335.785 208909.527 -78363.538 208898.266 -78390.923 208876.462 -78444.596 208855.613 -78496.803 208835.721 -78547.544 208816.784 -78596.82 208798.804 -78644.631 208781.779 -78690.976 208765.711 -78735.855 208758.035 -78757.745 208743.484 -78800.29 208729.871 -78841.093 208717.197 -78880.157 208705.462 -78917.48 208694.666 -78953.063 208684.808 -78986.906 208675.889 -79019.009 208667.909 -79049.371 208660.868 -79077.994 208652.067 -79117.664 208645.378 -79153.419 208640.801 -79185.258 208637.985 -79221.62 208637.868 -79229.623 208642.504 -79259.942 208648.3 -79289.186 208652.522 -79309.49 208658.232 -79338.296 208663.513 -79370.49 208666.662 -79399.87 208667.177 -79414.27 208663.814 -79445.998 208647.805 -79472.385 208632.739 -79478.018 208603.441 -79476.232 208572.887 -79467.817 208544.425 -79456.551 208536.751 -79453.105 208507.996 -79438.475 208481.084 -79423.988 208448.065 -79404.891 208418.321 -79386.046 208391.851 -79367.453 208368.656 -79349.112 208344.266 -79326.54 208324.993 -79304.361 208306.815 -79276.514 208292.398 -79245.731 208283.256 -79217.835 208276.727 -79187.9 208272.809 -79155.925 208271.503 -79121.912 208272.791 -79082.323 208276.655 -79038.844 208280.662 -79007.698 208285.814 -78974.822 208292.111 -78940.218 208299.553 -78903.885 208308.14 -78865.823 208317.871 -78826.032 208328.748 -78784.513 208340.769 -78741.265 208353.935 -78696.288 208368.246 -78649.582 208383.702 -78601.148 208400.303 -78550.984 208418.049 -78499.092 208432.144 -78459.132 208446.677 -78419.211 208461.648 -78379.328 208477.057 -78339.483 208492.903 -78299.678 208509.188 -78259.911 208525.91 -78220.182 208543.071 -78180.493 208560.669 -78140.842 208578.706 -78101.229 208590.973 -78074.842 208609.707 -78035.23 208622.404 -78008.772 208635.267 -77982.273 208648.295 -77955.735 208661.49 -77929.156 208674.851 -77902.538 208688.378 -77875.879 208702.071 -77849.18 208715.93 -77822.441 208729.955 -77795.662 208744.145 -77768.843 208758.502 -77741.984 208773.025 -77715.085 208787.714 -77688.146 208802.569 -77661.166 208810.059 -77647.662 208825.117 -77620.774 208840.066 -77594.15 208854.907 -77567.789 208869.639 -77541.691 208884.262 -77515.856 208898.776 -77490.285 208920.344 -77452.423 208941.667 -77415.152 208962.745 -77378.474 208983.578 -77342.389 209004.167 -77306.896 209024.511 -77271.995 209037.937 -77249.057 209008.723 -77262.521 208979.331 -77276.535 208949.761 -77291.098 208920.014 -77306.21 208890.089 -77321.872 208859.987 -77338.084 208829.708 -77354.845 208799.251 -77372.156 208768.617 -77390.016 208737.805 -77408.426 208706.816 -77427.385 208675.649 -77446.894 208644.305 -77466.953 208612.783 -77487.561 208581.084 -77508.718 208549.207 -77530.425"/><path d="M 141589.286 -55327.619 141589.286 -54327.619 141922.619 -55041.904 142255.952 -54327.619 142255.952 -55327.619 M 142636.905 -54327.619 143303.571 -55327.619 M 143303.571 -54327.619 142636.905 -55327.619 M 143636.905 -54422.857 143684.524 -54375.238 143779.762 -54327.619 144017.857 -54327.619 144113.095 -54375.238 144160.714 -54422.857 144208.333 -54518.095 144208.333 -54613.333 144160.714 -54756.19 143589.286 -55327.619 144208.333 -55327.619 M 160639.286 -51517.619 160639.286 -50517.619 160972.619 -51231.904 161305.952 -50517.619 161305.952 -51517.619 M 161686.905 -50517.619 162353.571 -51517.619 M 162353.571 -50517.619 161686.905 -51517.619 M 162639.286 -50517.619 163258.333 -50517.619 162925 -50898.571 163067.857 -50898.571 163163.095 -50946.19 163210.714 -50993.809 163258.333 -51089.047 163258.333 -51327.142 163210.714 -51422.38 163163.095 -51470 163067.857 -51517.619 162782.143 -51517.619 162686.905 -51470 162639.286 -51422.38 M 120634.286 -61042.619 120634.286 -60042.619 120967.619 -60756.904 121300.952 -60042.619 121300.952 -61042.619 M 121681.905 -60042.619 122348.571 -61042.619 M 122348.571 -60042.619 121681.905 -61042.619 M 123253.333 -61042.619 122681.905 -61042.619 M 122967.619 -61042.619 122967.619 -60042.619 122872.381 -60185.476 122777.143 -60280.714 122681.905 -60328.333 M 179689.286 -57232.619 179689.286 -56232.619 180022.619 -56946.904 180355.952 -56232.619 180355.952 -57232.619 M 180736.905 -56232.619 181403.571 -57232.619 M 181403.571 -56232.619 180736.905 -57232.619 M 182213.095 -56565.952 182213.095 -57232.619 M 181975 -56185 181736.905 -56899.285 182355.952 -56899.285 M 193078.095 -50402.619 193078.095 -51212.142 193125.714 -51307.38 193173.333 -51355 193268.571 -51402.619 193459.047 -51402.619 193554.285 -51355 193601.904 -51307.38 193649.523 -51212.142 193649.523 -50402.619 M 194649.523 -51402.619 194078.095 -51402.619 M 194363.809 -51402.619 194363.809 -50402.619 194268.571 -50545.476 194173.333 -50640.714 194078.095 -50688.333 M 200644.286 -83902.619 200644.286 -82902.619 200977.619 -83616.904 201310.952 -82902.619 201310.952 -83902.619 M 201691.905 -82902.619 202358.571 -83902.619 M 202358.571 -82902.619 201691.905 -83902.619 M 202882.381 -83331.19 202787.143 -83283.571 202739.524 -83235.952 202691.905 -83140.714 202691.905 -83093.095 202739.524 -82997.857 202787.143 -82950.238 202882.381 -82902.619 203072.857 -82902.619 203168.095 -82950.238 203215.714 -82997.857 203263.333 -83093.095 203263.333 -83140.714 203215.714 -83235.952 203168.095 -83283.571 203072.857 -83331.19 202882.381 -83331.19 202787.143 -83378.809 202739.524 -83426.428 202691.905 -83521.666 202691.905 -83712.142 202739.524 -83807.38 202787.143 -83855 202882.381 -83902.619 203072.857 -83902.619 203168.095 -83855 203215.714 -83807.38 203263.333 -83712.142 203263.333 -83521.666 203215.714 -83426.428 203168.095 -83378.809 203072.857 -83331.19 M 141589.286 -74377.619 141589.286 -73377.619 141922.619 -74091.904 142255.952 -73377.619 142255.952 -74377.619 M 142636.905 -73377.619 143303.571 -74377.619 M 143303.571 -73377.619 142636.905 -74377.619 M 144160.714 -73377.619 143684.524 -73377.619 143636.905 -73853.809 143684.524 -73806.19 143779.762 -73758.571 144017.857 -73758.571 144113.095 -73806.19 144160.714 -73853.809 144208.333 -73949.047 144208.333 -74187.142 144160.714 -74282.38 144113.095 -74330 144017.857 -74377.619 143779.762 -74377.619 143684.524 -74330 143636.905 -74282.38 M 179689.286 -76282.619 179689.286 -75282.619 180022.619 -75996.904 180355.952 -75282.619 180355.952 -76282.619 M 180736.905 -75282.619 181403.571 -76282.619 M 181403.571 -75282.619 180736.905 -76282.619 M 181689.286 -75282.619 182355.952 -75282.619 181927.381 -76282.619 M 160639.286 -70567.619 160639.286 -69567.619 160972.619 -70281.904 161305.952 -69567.619 161305.952 -70567.619 M 161686.905 -69567.619 162353.571 -70567.619 M 162353.571 -69567.619 161686.905 -70567.619 M 163163.095 -69567.619 162972.619 -69567.619 162877.381 -69615.238 162829.762 -69662.857 162734.524 -69805.714 162686.905 -69996.19 162686.905 -70377.142 162734.524 -70472.38 162782.143 -70520 162877.381 -70567.619 163067.857 -70567.619 163163.095 -70520 163210.714 -70472.38 163258.333 -70377.142 163258.333 -70139.047 163210.714 -70043.809 163163.095 -69996.19 163067.857 -69948.571 162877.381 -69948.571 162782.143 -69996.19 162734.524 -70043.809 162686.905 -70139.047" fill="none" stroke-width="150"/><path d="M 135775 -55765 135775 -69965 149975 -69965 M 149975 -55765 135775 -55765 M 149975 -69965 149975 -55765 M 154825 -51955 154825 -66155 169025 -66155 M 169025 -51955 154825 -51955 M 169025 -66155 169025 -51955 M 114820 -61480 114820 -75680 129020 -75680 M 129020 -61480 114820 -61480 M 129020 -75680 129020 -61480 M 173875 -57670 173875 -71870 188075 -71870 M 188075 -57670 173875 -57670 M 188075 -71870 188075 -57670 M 193012.5 -52270 210812.5 -52270 210812.5 -73270 193012.5 -73270 193012.5 -52270 M 194830 -84340 194830 -98540 209030 -98540 M 209030 -84340 194830 -84340 M 209030 -98540 209030 -84340 M 135775 -74815 135775 -89015 149975 -89015 M 149975 -74815 135775 -74815 M 149975 -89015 149975 -74815 M 173875 -76720 173875 -90920 188075 -90920 M 188075 -76720 173875 -76720 M 188075 -90920 188075 -76720 M 154825 -71005 154825 -85205 169025 -85205 M 169025 -71005 154825 -71005 M 169025 -85205 169025 -71005" fill="none" stroke-width="120"/></g></svg>