<svg version="1.1" xmlns="http://www.w3.org/2000/svg" xmlns:xlink="http://www.w3.org/1999/xlink" stroke-linecap="round" stroke-linejoin="round" stroke-width="0" fill-rule="evenodd" width="0" height="0" viewBox="0 0 0 0" id="zj3q184CsEWR_A2WVabM"><defs><circle cx="0" cy="0" r="875" id="zj3q184CsEWR_A2WVabM_pad-10"/><circle cx="0" cy="0" r="775" id="zj3q184CsEWR_A2WVabM_pad-11"/><circle cx="0" cy="0" r="2000" id="zj3q184CsEWR_A2WVabM_pad-12"/><g id="zj3q184CsEWR_A2WVabM_pad-13"><polygon points="NaN,NaN NaN,NaN NaN,NaN NaN,NaN"/><circle cx="0" cy="0" r="500"/><circle cx="0" cy="0" r="500"/><circle cx="0" cy="0" r="500"/><circle cx="0" cy="0" r="500"/><polygon points="NaN,NaN NaN,NaN NaN,NaN NaN,NaN"/><polygon points="NaN,NaN NaN,NaN NaN,NaN NaN,NaN"/><polygon points="NaN,NaN NaN,NaN NaN,NaN NaN,NaN"/><polygon points="NaN,NaN NaN,NaN NaN,NaN NaN,NaN"/></g></defs><g transform="translate(0,0) scale(1,-1)" fill="currentColor" stroke="currentColor"><use xlink:href="#zj3q184CsEWR_A2WVabM_pad-10" x="137795" y="-62865"/><use xlink:href="#zj3q184CsEWR_A2WVabM_pad-11" x="139065" y="-60325"/><use xlink:href="#zj3q184CsEWR_A2WVabM_pad-12" x="142875" y="-62865"/><use xlink:href="#zj3q184CsEWR_A2WVabM_pad-11" x="145415" y="-57785"/><use xlink:href="#zj3q184CsEWR_A2WVabM_pad-10" x="147955" y="-62865"/><use xlink:href="#zj3q184CsEWR_A2WVabM_pad-10" x="156845" y="-59055"/><use xlink:href="#zj3q184CsEWR_A2WVabM_pad-11" x="158115" y="-56515"/><use xlink:href="#zj3q184CsEWR_A2WVabM_pad-12" x="161925" y="-59055"/><use xlink:href="#zj3q184CsEWR_A2WVabM_pad-11" x="164465" y="-53975"/><use xlink:href="#zj3q184CsEWR_A2WVabM_pad-10" x="167005" y="-59055"/><use xlink:href="#zj3q184CsEWR_A2WVabM_pad-10" x="116840" y="-68580"/><use xlink:href="#zj3q184CsEWR_A2WVabM_pad-11" x="118110" y="-66040"/><use xlink:href="#zj3q184CsEWR_A2WVabM_pad-12" x="121920" y="-68580"/><use xlink:href="#zj3q184CsEWR_A2WVabM_pad-11" x="124460" y="-63500"/><use xlink:href="#zj3q184CsEWR_A2WVabM_pad-10" x="127000" y="-68580"/><use xlink:href="#zj3q184CsEWR_A2WVabM_pad-10" x="175895" y="-64770"/><use xlink:href="#zj3q184CsEWR_A2WVabM_pad-11" x="177165" y="-62230"/><use xlink:href="#zj3q184CsEWR_A2WVabM_pad-12" x="180975" y="-64770"/><use xlink:href="#zj3q184CsEWR_A2WVabM_pad-11" x="183515" y="-59690"/><use xlink:href="#zj3q184CsEWR_A2WVabM_pad-10" x="186055" y="-64770"/><use xlink:href="#zj3q184CsEWR_A2WVabM_pad-13" x="193847.5" y="-55150"/><use xlink:href="#zj3q184CsEWR_A2WVabM_pad-13" x="193847.5" y="-57690"/><use xlink:href="#zj3q184CsEWR_A2WVabM_pad-13" x="193847.5" y="-60230"/><use xlink:href="#zj3q184CsEWR_A2WVabM_pad-13" x="193847.5" y="-62770"/><use xlink:href="#zj3q184CsEWR_A2WVabM_pad-13" x="193847.5" y="-65310"/><use xlink:href="#zj3q184CsEWR_A2WVabM_pad-13" x="193847.5" y="-67850"/><use xlink:href="#zj3q184CsEWR_A2WVabM_pad-13" x="193847.5" y="-70390"/><use xlink:href="#zj3q184CsEWR_A2WVabM_pad-13" x="210012.5" y="-70390"/><use xlink:href="#zj3q184CsEWR_A2WVabM_pad-13" x="210012.5" y="-67850"/><use xlink:href="#zj3q184CsEWR_A2WVabM_pad-13" x="210012.5" y="-65310"/><use xlink:href="#zj3q184CsEWR_A2WVabM_pad-13" x="210012.5" y="-62770"/><use xlink:href="#zj3q184CsEWR_A2WVabM_pad-13" x="210012.5" y="-60230"/><use xlink:href="#zj3q184CsEWR_A2WVabM_pad-13" x="210012.5" y="-57690"/><use xlink:href="#zj3q184CsEWR_A2WVabM_pad-13" x="210012.5" y="-55150"/><use xlink:href="#zj3q184CsEWR_A2WVabM_pad-10" x="196850" y="-91440"/><use xlink:href="#zj3q184CsEWR_A2WVabM_pad-11" x="198120" y="-88900"/><use xlink:href="#zj3q184CsEWR_A2WVabM_pad-12" x="201930" y="-91440"/><use xlink:href="#zj3q184CsEWR_A2WVabM_pad-11" x="204470" y="-86360"/><use xlink:href="#zj3q184CsEWR_A2WVabM_pad-10" x="207010" y="-91440"/><use xlink:href="#zj3q184CsEWR_A2WVabM_pad-10" x="137795" y="-81915"/><use xlink:href="#zj3q184CsEWR_A2WVabM_pad-11" x="139065" y="-79375"/><use xlink:href="#zj3q184CsEWR_A2WVabM_pad-12" x="142875" y="-81915"/><use xlink:href="#zj3q184CsEWR_A2WVabM_pad-11" x="145415" y="-76835"/><use xlink:href="#zj3q184CsEWR_A2WVabM_pad-10" x="147955" y="-81915"/><use xlink:href="#zj3q184CsEWR_A2WVabM_pad-10" x="175895" y="-83820"/><use xlink:href="#zj3q184CsEWR_A2WVabM_pad-11" x="177165" y="-81280"/><use xlink:href="#zj3q184CsEWR_A2WVabM_pad-12" x="180975" y="-83820"/><use xlink:href="#zj3q184CsEWR_A2WVabM_pad-11" x="183515" y="-78740"/><use xlink:href="#zj3q184CsEWR_A2WVabM_pad-10" x="186055" y="-83820"/><use xlink:href="#zj3q184CsEWR_A2WVabM_pad-10" x="156845" y="-78105"/><use xlink:href="#zj3q184CsEWR_A2WVabM_pad-11" x="158115" y="-75565"/><use xlink:href="#zj3q184CsEWR_A2WVabM_pad-12" x="161925" y="-78105"/><use xlink:href="#zj3q184CsEWR_A2WVabM_pad-11" x="164465" y="-73025"/><use xlink:href="#zj3q184CsEWR_A2WVabM_pad-10" x="167005" y="-78105"/></g></svg>