<svg version="1.1" xmlns="http://www.w3.org/2000/svg" xmlns:xlink="http://www.w3.org/1999/xlink" stroke-linecap="round" stroke-linejoin="round" stroke-width="0" fill-rule="evenodd" width="0" height="0" viewBox="0 0 0 0" id="LGNB4SEK-WaYe-YiZlKq"><defs><circle cx="0" cy="0" r="1250" id="LGNB4SEK-WaYe-YiZlKq_pad-10"/><g id="LGNB4SEK-WaYe-YiZlKq_pad-11"><polygon points="NaN,NaN NaN,NaN NaN,NaN NaN,NaN"/><circle cx="0" cy="0" r="500"/><circle cx="0" cy="0" r="500"/><circle cx="0" cy="0" r="500"/><circle cx="0" cy="0" r="500"/><polygon points="NaN,NaN NaN,NaN NaN,NaN NaN,NaN"/><polygon points="NaN,NaN NaN,NaN NaN,NaN NaN,NaN"/><polygon points="NaN,NaN NaN,NaN NaN,NaN NaN,NaN"/><polygon points="NaN,NaN NaN,NaN NaN,NaN NaN,NaN"/></g><circle cx="0" cy="0" r="400" id="LGNB4SEK-WaYe-YiZlKq_pad-12"/></defs><g transform="translate(0,0) scale(1,-1)" fill="currentColor" stroke="currentColor"><use xlink:href="#LGNB4SEK-WaYe-YiZlKq_pad-10" x="139065" y="-60325"/><use xlink:href="#LGNB4SEK-WaYe-YiZlKq_pad-10" x="145415" y="-57785"/><use xlink:href="#LGNB4SEK-WaYe-YiZlKq_pad-10" x="158115" y="-56515"/><use xlink:href="#LGNB4SEK-WaYe-YiZlKq_pad-10" x="164465" y="-53975"/><use xlink:href="#LGNB4SEK-WaYe-YiZlKq_pad-10" x="118110" y="-66040"/><use xlink:href="#LGNB4SEK-WaYe-YiZlKq_pad-10" x="124460" y="-63500"/><use xlink:href="#LGNB4SEK-WaYe-YiZlKq_pad-10" x="177165" y="-62230"/><use xlink:href="#LGNB4SEK-WaYe-YiZlKq_pad-10" x="183515" y="-59690"/><use xlink:href="#LGNB4SEK-WaYe-YiZlKq_pad-11" x="193847.5" y="-55150"/><use xlink:href="#LGNB4SEK-WaYe-YiZlKq_pad-11" x="193847.5" y="-57690"/><use xlink:href="#LGNB4SEK-WaYe-YiZlKq_pad-11" x="193847.5" y="-60230"/><use xlink:href="#LGNB4SEK-WaYe-YiZlKq_pad-11" x="193847.5" y="-60230"/><use xlink:href="#LGNB4SEK-WaYe-YiZlKq_pad-11" x="193847.5" y="-62770"/><use xlink:href="#LGNB4SEK-WaYe-YiZlKq_pad-11" x="193847.5" y="-65310"/><use xlink:href="#LGNB4SEK-WaYe-YiZlKq_pad-11" x="193847.5" y="-67850"/><use xlink:href="#LGNB4SEK-WaYe-YiZlKq_pad-11" x="193847.5" y="-70390"/><use xlink:href="#LGNB4SEK-WaYe-YiZlKq_pad-11" x="210012.5" y="-70390"/><use xlink:href="#LGNB4SEK-WaYe-YiZlKq_pad-11" x="210012.5" y="-67850"/><use xlink:href="#LGNB4SEK-WaYe-YiZlKq_pad-11" x="210012.5" y="-65310"/><use xlink:href="#LGNB4SEK-WaYe-YiZlKq_pad-11" x="210012.5" y="-62770"/><use xlink:href="#LGNB4SEK-WaYe-YiZlKq_pad-11" x="210012.5" y="-60230"/><use xlink:href="#LGNB4SEK-WaYe-YiZlKq_pad-11" x="210012.5" y="-57690"/><use xlink:href="#LGNB4SEK-WaYe-YiZlKq_pad-11" x="210012.5" y="-55150"/><use xlink:href="#LGNB4SEK-WaYe-YiZlKq_pad-10" x="198120" y="-88900"/><use xlink:href="#LGNB4SEK-WaYe-YiZlKq_pad-10" x="204470" y="-86360"/><use xlink:href="#LGNB4SEK-WaYe-YiZlKq_pad-10" x="139065" y="-79375"/><use xlink:href="#LGNB4SEK-WaYe-YiZlKq_pad-10" x="145415" y="-76835"/><use xlink:href="#LGNB4SEK-WaYe-YiZlKq_pad-10" x="177165" y="-81280"/><use xlink:href="#LGNB4SEK-WaYe-YiZlKq_pad-10" x="183515" y="-78740"/><use xlink:href="#LGNB4SEK-WaYe-YiZlKq_pad-10" x="158115" y="-75565"/><use xlink:href="#LGNB4SEK-WaYe-YiZlKq_pad-10" x="164465" y="-73025"/><use xlink:href="#LGNB4SEK-WaYe-YiZlKq_pad-12" x="171450" y="-55750.5"/><use xlink:href="#LGNB4SEK-WaYe-YiZlKq_pad-12" x="171450" y="-57350"/><use xlink:href="#LGNB4SEK-WaYe-YiZlKq_pad-12" x="189725" y="-57675"/><use xlink:href="#LGNB4SEK-WaYe-YiZlKq_pad-12" x="170275" y="-60375"/><use xlink:href="#LGNB4SEK-WaYe-YiZlKq_pad-12" x="172275" y="-60375"/><use xlink:href="#LGNB4SEK-WaYe-YiZlKq_pad-12" x="191224.5" y="-57675"/><path d="M 193247 -55750.5 193847.5 -55150 M 171450 -55750.5 193247 -55750.5 M 119325 -66025 168950 -66025 M 119310 -66040 119325 -66025 M 171450 -63525 171450 -57350 M 118110 -66040 119310 -66040 M 168950 -66025 A 2500 2500 0 0 1 171450 -63525 M 139090 -60350 139065 -60325 M 178825 -57675 173275 -57675 M 172275 -60325 172275 -60375 M 170275 -60375 165475 -60375 M 158450 -60350 139090 -60350 M 164475 -61375 164475 -61425 M 193847.5 -57690 192440 -57690 M 172275 -58675 172275 -60325 M 192425 -57675 191224.5 -57675 M 192440 -57690 192425 -57675 M 163475 -62425 160450 -62425 M 189725 -57675 178825 -57675 M 159450 -61425 159450 -61350 M 173275 -57675 A 1000 1000 0 0 1 172275 -58675 M 165475 -60375 A 1000 1000 0 0 1 164475 -61375 M 159450 -61350 A 1000 1000 0 0 1 158450 -60350 M 159450 -61425 A 1000 1000 0 0 1 160450 -62425 M 163475 -62425 A 1000 1000 0 0 1 164475 -61425 M 189500 -56475 158155 -56475 M 193847.5 -60230 192380 -60230 192375 -60225 M 158155 -56475 158115 -56515 M 190500 -59225 190500 -57475 M 192375 -60225 191500 -60225 M 190500 -57475 A 1000 1000 0 0 1 189500 -56475 M 190500 -59225 A 1000 1000 0 0 1 191500 -60225 M 179025 -62235 179020 -62230 M 189500 -67875 189500 -64735 M 179020 -62230 177165 -62230 M 187000 -62235 179025 -62235 M 192475 -70375 192000 -70375 M 192490 -70390 192475 -70375 M 193847.5 -70390 192490 -70390 M 189500 -64735 A 2500 2500 0 0 1 187000 -62235 M 189500 -67875 A 2500 2500 0 0 1 192000 -70375 M 152400 -80375 152400 -82475 M 205700 -73800 205700 -72900 M 153400 -83475 168950 -83475 M 171450 -80975 171450 -78800 M 173950 -76300 203200 -76300 M 210002.5 -70400 210012.5 -70390 M 208200 -70400 210002.5 -70400 M 139065 -79375 151400 -79375 M 168950 -83475 A 2500 2500 0 0 1 171450 -80975 M 152400 -80375 A 1000 1000 0 0 1 151400 -79375 M 203200 -76300 A 2500 2500 0 0 1 205700 -73800 M 208200 -70400 A 2500 2500 0 0 1 205700 -72900 M 152400 -82475 A 1000 1000 0 0 1 153400 -83475 M 173950 -76300 A 2500 2500 0 0 1 171450 -78800 M 202400 -75565 158115 -75565 M 210012.5 -67850 207400 -67850 M 204900 -70350 204900 -73065 M 202400 -75565 A 2500 2500 0 0 1 204900 -73065 M 207400 -67850 A 2500 2500 0 0 1 204900 -70350 M 177165 -81280 177310 -81425 209775 -81425 M 211775 -65300 211450 -65300 M 211440 -65310 210012.5 -65310 M 211450 -65300 211440 -65310 M 177445 -81000 177165 -81280 M 212275 -78925 212275 -65800 A 500 500 0 0 1 211775 -65300 M 209775 -81425 A 2500 2500 0 0 1 212275 -78925 M 210275 -81875 200650 -81875 M 210012.5 -62770 211430 -62770 211450 -62750 211775 -62750 M 198150 -84375 198150 -88870 M 212775 -63750 212775 -79375 M 198150 -88870 198120 -88900 M 210275 -81875 A 2500 2500 0 0 1 212775 -79375 M 212775 -63750 A 1000 1000 0 0 1 211775 -62750 M 200650 -81875 A 2500 2500 0 0 1 198150 -84375" fill="none" stroke-width="250"/><path d="M 169549.418 -49530.316 169807.27 -49548.757 169824.771 -49551.274 170073.039 -49605.281 170089.998 -49610.26 170240.965 -49666.568 170328.059 -49699.053 170344.152 -49706.403 170567.138 -49828.162 170582.021 -49837.727 170785.41 -49989.982 170798.781 -50001.568 170978.431 -50181.218 170990.017 -50194.589 171142.272 -50397.978 171151.837 -50412.861 171273.596 -50635.847 171280.946 -50651.94 171369.736 -50889.993 171374.72 -50906.969 171428.724 -51155.222 171431.242 -51172.734 171449.684 -51430.581 171450 -51439.426 171450 -54850 171355.352 -54850 171170.197 -54889.355 170997.269 -54966.348 170844.129 -55077.61 170717.466 -55218.283 170622.82 -55382.215 170564.326 -55562.242 170564.325 -55562.244 170564.326 -55562.244 170545.805 -55738.463 170519.222 -55803.076 170461.924 -55843.061 170422.485 -55849.5 165147.838 -55849.5 165080.799 -55829.815 165035.044 -55777.011 165025.1 -55707.853 165054.125 -55644.297 165098.939 -55615.063 165097.767 -55612.629 165342.456 -55494.792 165514.167 -55377.72 164790.946 -54654.498 164803.891 -54649.787 164950.373 -54553.445 165070.688 -54425.918 165143.447 -54299.893 165867.124 -55023.571 165914.972 -54963.572 166046.117 -54736.423 166141.94 -54492.27 166200.306 -54236.552 166219.907 -53975 166200.306 -53713.447 166141.94 -53457.729 166046.117 -53213.575 165914.972 -52986.426 165867.125 -52926.427 165867.124 -52926.427 165142.195 -53651.355 165118.941 -53597.447 165014.244 -53456.815 164879.938 -53344.118 164788.333 -53298.112 165514.167 -52572.278 165342.451 -52455.205 165106.139 -52341.403 164855.503 -52264.091 164596.144 -52225 164333.856 -52225 164074.496 -52264.091 163823.86 -52341.403 163587.545 -52455.206 163415.832 -52572.278 164139.055 -53295.501 164126.109 -53300.213 163979.627 -53396.555 163859.312 -53524.082 163786.552 -53650.105 163062.873 -52926.427 163015.028 -52986.424 162883.882 -53213.576 162788.059 -53457.729 162729.693 -53713.447 162710.092 -53974.999 162729.693 -54236.552 162788.059 -54492.27 162883.882 -54736.424 163015.027 -54963.573 163062.873 -55023.571 163062.874 -55023.571 163787.803 -54298.641 163811.059 -54352.553 163915.756 -54493.185 164050.062 -54605.882 164141.665 -54651.886 163415.831 -55377.72 163587.546 -55494.793 163832.233 -55612.629 163831.016 -55615.154 163876.973 -55645.582 163905.129 -55709.528 163894.244 -55778.544 163847.773 -55830.72 163782.162 -55849.5 159818.843 -55849.5 159751.804 -55829.815 159706.049 -55777.011 159703.414 -55770.8 159696.568 -55753.356 159565.386 -55526.143 159539.423 -55493.587 159401.805 -55321.019 159401.801 -55321.015 159209.485 -55142.571 159183.713 -55125 158992.704 -54994.772 158756.323 -54880.937 158505.615 -54803.604 158246.182 -54764.5 157983.818 -54764.5 157724.385 -54803.604 157473.677 -54880.937 157302.084 -54963.572 157237.296 -54994.772 157195.056 -55023.571 157020.514 -55142.571 156828.198 -55321.015 156664.613 -55526.143 156533.431 -55753.358 156437.58 -55997.581 156379.197 -56253.372 156359.591 -56514.999 156379.197 -56776.627 156437.58 -57032.418 156533.431 -57276.641 156664.613 -57503.856 156828.197 -57708.983 156837.569 -57717.679 156873.325 -57777.706 156870.95 -57847.536 156831.2 -57904.996 156766.695 -57931.845 156765.017 -57932.016 156631.031 -57944.811 156424.792 -58005.368 156233.742 -58103.861 156176.263 -58149.063 156077.927 -58226.396 156064.782 -58236.733 155924.022 -58399.177 155816.552 -58585.321 155746.249 -58788.445 155718.647 -58980.432 155715.661 -59001.203 155725.888 -59215.903 155725.888 -59215.904 155776.564 -59424.794 155833.282 -59548.989 155843.226 -59618.147 155814.201 -59681.703 155755.423 -59719.477 155720.488 -59724.5 145887.113 -59724.5 145820.074 -59704.815 145774.319 -59652.011 145764.375 -59582.853 145793.4 -59519.297 145850.563 -59482.009 146056.139 -59418.596 146292.456 -59304.792 146464.167 -59187.72 145740.946 -58464.498 145753.891 -58459.787 145900.373 -58363.445 146020.688 -58235.918 146093.447 -58109.894 146817.124 -58833.571 146864.972 -58773.572 146996.117 -58546.423 147091.94 -58302.27 147150.306 -58046.552 147169.907 -57785 147150.306 -57523.447 147091.94 -57267.729 146996.117 -57023.575 146864.972 -56796.426 146817.125 -56736.427 146092.195 -57461.357 146068.941 -57407.447 145964.244 -57266.815 145829.938 -57154.118 145738.332 -57108.112 146464.167 -56382.278 146292.451 -56265.205 146056.139 -56151.403 145805.503 -56074.091 145546.144 -56035 145283.856 -56035 145024.496 -56074.091 144773.86 -56151.403 144537.545 -56265.206 144365.831 -56382.278 145089.053 -57105.501 145076.109 -57110.213 144929.627 -57206.555 144809.312 -57334.082 144736.552 -57460.105 144012.874 -56736.428 143965.026 -56796.428 143833.882 -57023.576 143738.059 -57267.729 143679.693 -57523.447 143660.092 -57784.999 143679.693 -58046.552 143738.059 -58302.27 143833.882 -58546.424 143965.027 -58773.573 144012.873 -58833.571 144737.803 -58108.641 144761.059 -58162.553 144865.756 -58303.185 145000.062 -58415.882 145091.665 -58461.886 144365.831 -59187.72 144537.546 -59304.793 144773.86 -59418.596 144979.437 -59482.009 145037.696 -59520.579 145065.854 -59584.524 145054.97 -59653.541 145008.502 -59705.718 144942.887 -59724.5 140794.353 -59724.5 140727.314 -59704.815 140681.559 -59652.011 140678.925 -59645.802 140668.92 -59620.31 140646.568 -59563.357 140515.386 -59336.143 140351.805 -59131.019 140351.801 -59131.015 140159.485 -58952.571 140084.004 -58901.109 139942.704 -58804.772 139706.323 -58690.937 139455.615 -58613.604 139196.182 -58574.5 138933.818 -58574.5 138674.385 -58613.604 138423.677 -58690.937 138252.084 -58773.572 138187.296 -58804.772 138157.407 -58825.15 137970.514 -58952.571 137778.198 -59131.015 137614.613 -59336.143 137483.431 -59563.358 137387.58 -59807.581 137329.197 -60063.372 137309.591 -60324.999 137329.197 -60586.627 137387.58 -60842.418 137473.215 -61060.611 137483.432 -61086.643 137504.503 -61123.139 137614.613 -61313.856 137629.45 -61332.461 137763.058 -61500 137778.197 -61518.983 137787.569 -61527.679 137823.325 -61587.706 137820.95 -61657.536 137781.2 -61714.996 137716.695 -61741.845 137715.017 -61742.016 137581.031 -61754.811 137374.792 -61815.368 137183.742 -61913.861 137126.263 -61959.063 137027.927 -62036.396 137014.782 -62046.733 136874.022 -62209.177 136766.552 -62395.321 136696.249 -62598.445 136668.647 -62790.432 136665.661 -62811.203 136675.888 -63025.904 136718.6 -63201.968 136726.564 -63234.794 136815.852 -63430.309 136891.92 -63537.13 136940.534 -63605.399 137096.097 -63753.727 137164.598 -63797.75 137276.917 -63869.934 137295.949 -63877.553 137476.468 -63949.822 137687.528 -63990.5 137845.664 -63990.5 137848.618 -63990.5 137851.569 -63990.218 137851.573 -63990.218 137931.873 -63982.55 138008.971 -63975.188 138215.209 -63914.631 138406.259 -63816.138 138575.217 -63683.268 138715.976 -63520.824 138823.448 -63334.677 138893.75 -63131.554 138924.339 -62918.797 138914.112 -62704.096 138863.437 -62495.21 138863.435 -62495.205 138774.148 -62299.693 138745.664 -62259.693 138722.811 -62193.666 138739.284 -62125.766 138789.85 -62077.55 138858.457 -62064.326 138865.145 -62065.149 138933.818 -62075.5 139196.182 -62075.5 139455.615 -62036.396 139706.323 -61959.063 139942.704 -61845.228 140159.479 -61697.433 140159.482 -61697.429 140159.485 -61697.428 140261.283 -61602.973 140351.805 -61518.981 140515.386 -61313.857 140646.568 -61086.643 140659.301 -61054.198 140702.116 -60998.985 140767.986 -60975.684 140774.73 -60975.5 141287.139 -60975.5 141354.178 -60995.185 141399.933 -61047.989 141409.877 -61117.147 141380.852 -61180.703 141370.316 -61191.465 141256.741 -61294.187 141256.735 -61294.192 141253.667 -61296.968 141250.998 -61300.123 141250.991 -61300.132 141061.81 -61523.896 141061.804 -61523.903 141059.135 -61527.061 141056.912 -61530.542 141056.904 -61530.554 140899.233 -61777.542 140899.229 -61777.549 140897.007 -61781.03 140895.267 -61784.779 140895.264 -61784.785 140771.922 -62050.58 140771.918 -62050.589 140770.177 -62054.342 140768.951 -62058.291 140768.949 -62058.299 140720.431 -62214.707 140680.907 -62342.121 140680.218 -62346.199 140680.218 -62346.204 140637.67 -62598.446 140630.791 -62639.23 140630.653 -62643.353 140630.652 -62643.365 140620.861 -62936.222 140620.861 -62936.231 140620.723 -62940.369 140621.137 -62944.49 140621.138 -62944.501 140650.466 -63236.034 140650.467 -63236.044 140650.882 -63240.162 140651.842 -63244.193 140651.843 -63244.195 140719.729 -63529.059 140720.731 -63533.261 140722.22 -63537.128 140722.221 -63537.13 140741.723 -63587.766 140829.023 -63814.434 140831.007 -63818.055 140831.013 -63818.067 140946.937 -64029.601 140973.825 -64078.665 140976.281 -64081.998 140976.284 -64082.003 141104.921 -64256.59 141152.554 -64321.238 141362.02 -64537.824 141503.529 -64649.572 141595.23 -64721.988 141595.234 -64721.99 141598.485 -64724.558 141602.049 -64726.669 141602.052 -64726.671 141731.465 -64803.322 141857.73 -64878.109 141861.534 -64879.722 141861.538 -64879.724 141966.578 -64924.264 142135.128 -64995.736 142425.729 -65075.34 142724.347 -65115.5 142728.488 -65115.5 142948.162 -65115.5 142950.244 -65115.5 143175.634 -65100.412 143470.903 -65040.396 143755.537 -64941.56 144024.459 -64805.668 144272.869 -64635.144 144496.333 -64433.032 144690.865 -64202.939 144852.993 -63948.97 144979.823 -63675.658 145069.093 -63387.879 145119.209 -63090.77 145128.556 -62811.203 146825.661 -62811.203 146835.888 -63025.904 146878.6 -63201.968 146886.564 -63234.794 146975.852 -63430.309 147051.92 -63537.13 147100.534 -63605.399 147256.097 -63753.727 147324.598 -63797.75 147436.917 -63869.934 147455.949 -63877.553 147636.468 -63949.822 147847.528 -63990.5 148005.664 -63990.5 148008.618 -63990.5 148011.569 -63990.218 148011.573 -63990.218 148091.873 -63982.55 148168.971 -63975.188 148375.209 -63914.631 148566.259 -63816.138 148735.217 -63683.268 148875.976 -63520.824 148983.448 -63334.677 149053.75 -63131.554 149084.339 -62918.797 149074.112 -62704.096 149023.437 -62495.21 149023.435 -62495.205 148934.147 -62299.69 148832.958 -62157.591 148809.466 -62124.601 148653.903 -61976.273 148607.323 -61946.338 148473.082 -61860.065 148313.574 -61796.208 148273.532 -61780.178 148273.531 -61780.177 148273.529 -61780.177 148062.472 -61739.5 147901.382 -61739.5 147898.452 -61739.779 147898.426 -61739.781 147741.031 -61754.811 147534.792 -61815.368 147343.742 -61913.861 147286.263 -61959.063 147187.927 -62036.396 147174.782 -62046.733 147034.022 -62209.177 146926.552 -62395.321 146856.249 -62598.445 146828.647 -62790.432 146825.661 -62811.203 145128.556 -62811.203 145129.277 -62789.631 145099.118 -62489.838 145029.269 -62196.739 144920.977 -61915.566 144776.175 -61651.335 144741.261 -61603.95 144599.906 -61412.101 144597.446 -61408.762 144387.98 -61192.176 144386.501 -61191.008 144350.265 -61131.899 144351.75 -61062.045 144390.765 -61004.083 144454.923 -60976.415 144469.958 -60975.5 158374.051 -60975.5 158441.874 -60975.5 158458.058 -60976.56 158530.744 -60986.13 158562.009 -60994.507 158607.284 -61013.261 158622.166 -61019.425 158650.201 -61035.611 158666.198 -61047.886 158692.552 -61068.109 158701.86 -61075.251 158724.748 -61098.139 158764.388 -61149.798 158780.574 -61177.833 158805.491 -61237.989 158813.869 -61269.254 158823.439 -61341.939 158824.5 -61358.126 158824.5 -61425 158824.5 -61541.258 158832.923 -61599.84 158857.591 -61771.408 158923.097 -61994.504 159017.296 -62200.77 159019.689 -62206.009 159075.496 -62292.848 159141.351 -62395.321 159145.396 -62401.614 159297.662 -62577.338 159473.386 -62729.604 159668.991 -62855.311 159880.495 -62951.902 160103.593 -63017.409 160333.742 -63050.5 160333.743 -63050.5 163591.257 -63050.5 163591.258 -63050.5 163821.407 -63017.409 164044.505 -62951.902 164256.009 -62855.311 164451.614 -62729.604 164627.338 -62577.338 164779.604 -62401.614 164905.311 -62206.009 165001.902 -61994.505 165067.409 -61771.407 165100.5 -61541.258 165100.5 -61425 165100.5 -61383.126 165101.561 -61366.941 165111.13 -61294.253 165119.508 -61262.989 165144.426 -61202.829 165160.609 -61174.801 165200.254 -61123.135 165223.135 -61100.254 165274.801 -61060.609 165302.829 -61044.426 165362.992 -61019.507 165394.253 -61011.13 165466.941 -61001.56 165483.126 -61000.5 165550.949 -61000.5 169571.253 -61000.5 169638.292 -61020.185 169663.4 -61041.526 169669.129 -61047.888 169822.27 -61159.151 169822.271 -61159.151 169822.272 -61159.152 169995.197 -61236.144 170180.352 -61275.5 170180.354 -61275.5 170369.648 -61275.5 170554.8 -61236.145 170554.801 -61236.144 170554.803 -61236.144 170650.066 -61193.729 170719.313 -61184.444 170782.59 -61214.072 170819.804 -61273.207 170824.5 -61307.009 170824.5 -63520.948 170824.234 -63529.059 170808.994 -63761.561 170806.877 -63777.641 170762.213 -64002.182 170758.015 -64017.849 170684.424 -64234.643 170678.217 -64249.629 170576.959 -64454.96 170568.849 -64469.007 170441.656 -64659.365 170431.782 -64672.233 170280.83 -64844.361 170269.361 -64855.83 170097.233 -65006.782 170084.365 -65016.656 169894.007 -65143.849 169879.96 -65151.959 169674.629 -65253.217 169659.643 -65259.424 169442.849 -65333.015 169427.182 -65337.213 169202.641 -65381.877 169186.561 -65383.994 168972.014 -65398.057 168954.057 -65399.234 168945.948 -65399.5 125061.79 -65399.5 124994.751 -65379.815 124948.996 -65327.011 124939.052 -65257.853 124968.077 -65194.297 125025.24 -65157.009 125101.139 -65133.596 125337.456 -65019.792 125509.167 -64902.72 124785.946 -64179.498 124798.891 -64174.787 124945.373 -64078.445 125065.688 -63950.918 125138.447 -63824.894 125862.124 -64548.571 125909.972 -64488.572 126041.117 -64261.423 126136.94 -64017.27 126195.306 -63761.552 126214.907 -63500 126195.306 -63238.447 126136.94 -62982.729 126041.117 -62738.575 125909.972 -62511.426 125862.125 -62451.427 125137.195 -63176.356 125113.941 -63122.447 125009.244 -62981.815 124874.938 -62869.118 124783.333 -62823.112 125509.167 -62097.278 125337.451 -61980.205 125101.139 -61866.403 124850.503 -61789.091 124591.144 -61750 124328.856 -61750 124069.496 -61789.091 123818.86 -61866.403 123582.545 -61980.206 123410.832 -62097.278 124134.055 -62820.501 124121.109 -62825.213 123974.627 -62921.555 123854.312 -63049.082 123781.552 -63175.105 123057.873 -62451.427 123010.028 -62511.424 122878.882 -62738.576 122783.059 -62982.729 122724.693 -63238.447 122705.092 -63500 122724.693 -63761.552 122783.059 -64017.27 122878.882 -64261.424 123010.027 -64488.573 123057.873 -64548.571 123057.874 -64548.571 123782.803 -63823.641 123806.059 -63877.553 123910.756 -64018.185 124045.062 -64130.882 124136.665 -64176.886 123410.831 -64902.72 123582.546 -65019.793 123818.86 -65133.596 123894.76 -65157.009 123953.019 -65195.579 123981.177 -65259.524 123970.293 -65328.541 123923.824 -65380.718 123858.21 -65399.5 119823.654 -65399.5 119756.615 -65379.815 119710.86 -65327.011 119708.243 -65320.845 119691.568 -65278.357 119560.386 -65051.143 119396.805 -64846.019 119396.801 -64846.015 119204.485 -64667.571 119178.085 -64649.572 118987.704 -64519.772 118751.323 -64405.937 118500.615 -64328.604 118241.182 -64289.5 117978.818 -64289.5 117719.385 -64328.604 117468.677 -64405.937 117276.597 -64498.438 117232.296 -64519.772 117205.819 -64537.824 117015.514 -64667.571 116823.198 -64846.015 116659.613 -65051.143 116528.431 -65278.358 116432.58 -65522.581 116374.197 -65778.372 116354.591 -66039.999 116374.197 -66301.627 116432.58 -66557.418 116528.431 -66801.641 116651.689 -67015.132 116659.614 -67028.857 116815.634 -67224.5 116823.197 -67233.983 116832.569 -67242.679 116868.325 -67302.706 116865.95 -67372.536 116826.2 -67429.996 116761.695 -67456.845 116760.017 -67457.016 116626.031 -67469.811 116419.792 -67530.368 116228.742 -67628.861 116171.263 -67674.063 116072.927 -67751.396 116059.782 -67761.733 115919.022 -67924.177 115811.552 -68110.321 115741.249 -68313.445 115713.166 -68508.777 115710.661 -68526.203 115718.076 -68681.877 115720.888 -68740.904 115771.564 -68949.794 115860.852 -69145.309 115936.92 -69252.13 115985.534 -69320.399 116141.097 -69468.727 116180.188 -69493.849 116321.917 -69584.934 116361.962 -69600.965 116521.468 -69664.822 116732.528 -69705.5 116890.664 -69705.5 116893.618 -69705.5 116896.569 -69705.218 116896.573 -69705.218 116955.398 -69699.6 117053.971 -69690.188 117260.209 -69629.631 117451.259 -69531.138 117620.217 -69398.268 117760.976 -69235.824 117868.448 -69049.677 117938.75 -68846.554 117969.339 -68633.797 117959.112 -68419.096 117908.437 -68210.21 117908.435 -68210.205 117819.148 -68014.693 117790.664 -67974.693 117767.811 -67908.666 117784.284 -67840.766 117834.85 -67792.55 117903.457 -67779.326 117910.145 -67780.149 117978.818 -67790.5 118241.182 -67790.5 118500.615 -67751.396 118751.323 -67674.063 118987.704 -67560.228 119204.479 -67412.433 119204.482 -67412.429 119204.485 -67412.428 119322.737 -67302.706 119396.805 -67233.981 119560.386 -67028.857 119691.568 -66801.643 119720.001 -66729.194 119762.815 -66673.984 119828.685 -66650.683 119835.428 -66650.5 120376.365 -66650.5 120443.404 -66670.185 120489.159 -66722.989 120499.103 -66792.147 120470.078 -66855.703 120459.545 -66866.461 120417.371 -66904.606 120301.741 -67009.187 120301.735 -67009.192 120298.667 -67011.968 120295.998 -67015.123 120295.991 -67015.132 120106.81 -67238.896 120106.804 -67238.903 120104.135 -67242.061 120101.912 -67245.542 120101.904 -67245.554 119944.233 -67492.542 119944.229 -67492.549 119942.007 -67496.03 119940.267 -67499.779 119940.264 -67499.785 119816.922 -67765.58 119816.918 -67765.589 119815.177 -67769.342 119813.951 -67773.291 119813.949 -67773.299 119731.59 -68038.801 119725.907 -68057.121 119725.218 -68061.199 119725.218 -68061.204 119682.67 -68313.446 119675.791 -68354.23 119675.653 -68358.353 119675.652 -68358.365 119665.861 -68651.222 119665.861 -68651.231 119665.723 -68655.369 119666.137 -68659.49 119666.138 -68659.501 119695.466 -68951.034 119695.467 -68951.044 119695.882 -68955.162 119696.842 -68959.193 119696.843 -68959.195 119741.196 -69145.31 119765.731 -69248.261 119767.22 -69252.128 119767.221 -69252.13 119809.591 -69362.141 119874.023 -69529.434 119876.007 -69533.055 119876.013 -69533.067 119986.125 -69733.995 120018.825 -69793.665 120021.281 -69796.998 120021.284 -69797.003 120112.722 -69921.103 120197.554 -70036.238 120407.02 -70252.824 120476.008 -70307.303 120640.23 -70436.988 120640.234 -70436.99 120643.485 -70439.558 120902.73 -70593.109 120906.534 -70594.722 120906.538 -70594.724 121011.578 -70639.264 121180.128 -70710.736 121470.729 -70790.34 121769.347 -70830.5 121773.488 -70830.5 121993.162 -70830.5 121995.244 -70830.5 122220.634 -70815.412 122515.903 -70755.396 122800.537 -70656.56 123069.459 -70520.668 123317.869 -70350.144 123541.333 -70148.032 123735.865 -69917.939 123897.993 -69663.97 124024.823 -69390.658 124114.093 -69102.879 124164.209 -68805.77 124173.556 -68526.203 125870.661 -68526.203 125878.076 -68681.877 125880.888 -68740.904 125931.564 -68949.794 126020.852 -69145.309 126096.92 -69252.13 126145.534 -69320.399 126301.097 -69468.727 126340.188 -69493.849 126481.917 -69584.934 126521.962 -69600.965 126681.468 -69664.822 126892.528 -69705.5 127050.664 -69705.5 127053.618 -69705.5 127056.569 -69705.218 127056.573 -69705.218 127115.398 -69699.6 127213.971 -69690.188 127420.209 -69629.631 127611.259 -69531.138 127780.217 -69398.268 127920.976 -69235.824 128028.448 -69049.677 128098.75 -68846.554 128129.339 -68633.797 128119.112 -68419.096 128068.437 -68210.21 128068.435 -68210.205 127979.147 -68014.69 127879.673 -67875 127854.466 -67839.601 127698.903 -67691.273 127666.053 -67670.161 127518.082 -67575.065 127358.574 -67511.208 127318.532 -67495.178 127318.531 -67495.177 127318.529 -67495.177 127107.472 -67454.5 126946.382 -67454.5 126943.452 -67454.779 126943.426 -67454.781 126786.031 -67469.811 126579.792 -67530.368 126388.742 -67628.861 126331.263 -67674.063 126232.927 -67751.396 126219.782 -67761.733 126079.022 -67924.177 125971.552 -68110.321 125901.249 -68313.445 125873.166 -68508.777 125870.661 -68526.203 124173.556 -68526.203 124174.277 -68504.631 124144.118 -68204.838 124074.269 -67911.739 123965.977 -67630.566 123821.175 -67366.335 123642.446 -67123.762 123432.98 -66907.176 123426.21 -66901.83 123388.202 -66871.815 123347.789 -66814.819 123344.606 -66745.022 123379.663 -66684.584 123441.831 -66652.694 123465.051 -66650.5 169110.559 -66650.5 169113.801 -66650.5 169439.607 -66616.256 169760.049 -66548.144 170071.616 -66446.91 170370.894 -66313.662 170654.605 -66149.862 170919.64 -65957.303 171163.095 -65738.095 171382.303 -65494.64 171574.862 -65229.605 171738.662 -64945.894 171871.91 -64646.616 171973.144 -64335.049 172041.256 -64014.607 172075.5 -63688.801 172075.5 -63525 172075.5 -63449.051 172075.5 -61399.5 172095.185 -61332.461 172147.989 -61286.706 172199.5 -61275.5 172369.648 -61275.5 172531.284 -61241.143 172554.803 -61236.144 172727.73 -61159.151 172768.28 -61129.69 172880.87 -61047.889 172886.598 -61041.528 173007.533 -60907.216 173102.179 -60743.284 173160.674 -60563.256 173180.46 -60375 173160.674 -60186.744 173102.179 -60006.716 173102.179 -60006.715 173007.533 -59842.783 172932.35 -59759.284 172902.12 -59696.293 172900.5 -59676.312 172900.5 -58683.126 172901.561 -58666.941 172911.13 -58594.256 172919.508 -58562.989 172919.885 -58562.079 172944.426 -58502.829 172960.609 -58474.801 173000.254 -58423.135 173023.135 -58400.254 173074.801 -58360.609 173102.829 -58344.426 173162.992 -58319.507 173194.253 -58311.13 173266.941 -58301.56 173283.126 -58300.5 173350.949 -58300.5 178745.981 -58300.5 182427.692 -58300.5 182494.731 -58320.185 182515.373 -58336.819 183189.055 -59010.501 183176.109 -59015.213 183029.627 -59111.555 182909.312 -59239.082 182836.552 -59365.106 182112.873 -58641.427 182065.028 -58701.424 181933.882 -58928.576 181838.059 -59172.729 181779.693 -59428.447 181760.092 -59690 181779.693 -59951.552 181838.059 -60207.27 181933.882 -60451.424 182065.027 -60678.573 182112.873 -60738.571 182112.874 -60738.571 182837.803 -60013.641 182861.059 -60067.553 182965.756 -60208.185 183100.062 -60320.882 183191.663 -60366.886 182465.831 -61092.72 182637.546 -61209.793 182873.86 -61323.596 183014.599 -61367.009 183072.858 -61405.579 183101.015 -61469.524 183090.132 -61538.541 183043.664 -61590.717 182978.049 -61609.5 179134.157 -61609.5 179103.319 -61605.604 179099.019 -61604.5 179099.018 -61604.5 179078.984 -61604.5 179059.586 -61602.973 179052.162 -61601.797 179039.805 -61599.84 179039.804 -61599.84 179006.751 -61602.964 178996.325 -61603.95 178984.656 -61604.5 178884.541 -61604.5 178817.502 -61584.815 178771.747 -61532.011 178769.13 -61525.846 178746.568 -61468.357 178615.386 -61241.143 178451.805 -61036.019 178451.801 -61036.015 178259.485 -60857.571 178200.578 -60817.409 178042.704 -60709.772 177806.323 -60595.937 177555.615 -60518.604 177296.182 -60479.5 177033.818 -60479.5 176774.385 -60518.604 176523.677 -60595.937 176400.386 -60655.311 176287.296 -60709.772 176260.819 -60727.824 176070.514 -60857.571 175878.198 -61036.015 175714.613 -61241.143 175583.431 -61468.358 175487.58 -61712.581 175429.197 -61968.372 175409.591 -62230 175429.197 -62491.627 175487.58 -62747.418 175583.431 -62991.641 175583.432 -62991.643 175616.594 -63049.082 175714.613 -63218.856 175731.604 -63240.162 175862.395 -63404.169 175878.197 -63423.983 175887.569 -63432.679 175923.325 -63492.706 175920.95 -63562.536 175881.2 -63619.996 175816.695 -63646.845 175815.017 -63647.016 175681.031 -63659.811 175474.792 -63720.368 175283.742 -63818.861 175226.263 -63864.063 175123.072 -63945.214 175114.782 -63951.733 174974.022 -64114.177 174866.552 -64300.321 174796.249 -64503.445 174768.616 -64695.65 174765.661 -64716.203 174775.888 -64930.904 174826.564 -65139.794 174915.852 -65335.309 174991.92 -65442.13 175040.534 -65510.399 175196.097 -65658.727 175270.083 -65706.275 175376.917 -65774.934 175385.5 -65778.37 175576.468 -65854.822 175787.528 -65895.5 175945.664 -65895.5 175948.618 -65895.5 175951.569 -65895.218 175951.573 -65895.218 176010.398 -65889.6 176108.971 -65880.188 176315.209 -65819.631 176506.259 -65721.138 176675.217 -65588.268 176815.976 -65425.824 176923.448 -65239.677 176993.75 -65036.554 177024.339 -64823.797 177014.112 -64609.096 176963.437 -64400.21 176963.435 -64400.205 176874.148 -64204.693 176845.664 -64164.693 176822.811 -64098.666 176839.284 -64030.766 176889.85 -63982.55 176958.457 -63969.326 176965.145 -63970.149 177033.818 -63980.5 177296.182 -63980.5 177555.615 -63941.396 177806.323 -63864.063 178042.704 -63750.228 178259.479 -63602.433 178259.482 -63602.429 178259.485 -63602.428 178417.195 -63456.094 178451.805 -63423.981 178615.386 -63218.857 178746.568 -62991.643 178769.114 -62934.194 178811.928 -62878.984 178877.798 -62855.683 178884.541 -62855.5 178910.843 -62855.5 178941.68 -62859.395 178945.981 -62860.5 178966.016 -62860.5 178985.413 -62862.026 179005.196 -62865.16 179048.674 -62861.05 179060.344 -62860.5 179409.252 -62860.5 179476.291 -62880.185 179522.046 -62932.989 179531.99 -63002.147 179502.965 -63065.703 179492.431 -63076.462 179472.37 -63094.607 179356.741 -63199.187 179356.735 -63199.192 179353.667 -63201.968 179350.998 -63205.123 179350.991 -63205.132 179161.81 -63428.896 179161.804 -63428.903 179159.135 -63432.061 179156.912 -63435.542 179156.904 -63435.554 178999.233 -63682.542 178999.229 -63682.549 178997.007 -63686.03 178995.267 -63689.779 178995.264 -63689.785 178871.922 -63955.58 178871.918 -63955.589 178870.177 -63959.342 178868.951 -63963.291 178868.949 -63963.299 178806.476 -64164.693 178780.907 -64247.121 178780.218 -64251.199 178780.218 -64251.204 178731.479 -64540.15 178730.791 -64544.23 178730.653 -64548.353 178730.652 -64548.365 178720.861 -64841.222 178720.861 -64841.231 178720.723 -64845.369 178721.137 -64849.49 178721.138 -64849.501 178750.466 -65141.034 178750.467 -65141.044 178750.882 -65145.162 178751.842 -65149.193 178751.843 -65149.195 178807.798 -65383.994 178820.731 -65438.261 178929.023 -65719.434 178931.007 -65723.055 178931.013 -65723.067 179011.954 -65870.765 179073.825 -65983.665 179076.281 -65986.998 179076.284 -65987.003 179167.722 -66111.103 179252.554 -66226.238 179462.02 -66442.824 179536.499 -66501.639 179695.23 -66626.988 179695.234 -66626.99 179698.485 -66629.558 179702.049 -66631.669 179702.052 -66631.671 179733.842 -66650.5 179957.73 -66783.109 179961.534 -66784.722 179961.538 -66784.724 180020.807 -66809.856 180235.128 -66900.736 180525.729 -66980.34 180824.347 -67020.5 180828.488 -67020.5 181048.162 -67020.5 181050.244 -67020.5 181275.634 -67005.412 181570.903 -66945.396 181855.537 -66846.56 182124.459 -66710.668 182372.869 -66540.144 182596.333 -66338.032 182790.865 -66107.939 182952.993 -65853.97 183079.823 -65580.658 183169.093 -65292.879 183219.209 -64995.77 183228.556 -64716.203 184925.661 -64716.203 184935.888 -64930.904 184986.564 -65139.794 185075.852 -65335.309 185151.92 -65442.13 185200.534 -65510.399 185356.097 -65658.727 185430.083 -65706.275 185536.917 -65774.934 185545.5 -65778.37 185736.468 -65854.822 185947.528 -65895.5 186105.664 -65895.5 186108.618 -65895.5 186111.569 -65895.218 186111.573 -65895.218 186170.398 -65889.6 186268.971 -65880.188 186475.209 -65819.631 186666.259 -65721.138 186835.217 -65588.268 186975.976 -65425.824 187083.448 -65239.677 187153.75 -65036.554 187184.339 -64823.797 187174.112 -64609.096 187123.437 -64400.21 187123.435 -64400.205 187034.147 -64204.69 186916.87 -64039.999 186909.466 -64029.601 186753.903 -63881.273 186710.77 -63853.553 186573.082 -63765.065 186390.625 -63692.021 186373.532 -63685.178 186373.531 -63685.177 186373.529 -63685.177 186162.472 -63644.5 186001.382 -63644.5 185998.452 -63644.779 185998.426 -63644.781 185841.031 -63659.811 185634.792 -63720.368 185443.742 -63818.861 185386.263 -63864.063 185283.072 -63945.214 185274.782 -63951.733 185134.022 -64114.177 185026.552 -64300.321 184956.249 -64503.445 184928.616 -64695.65 184925.661 -64716.203 183228.556 -64716.203 183229.277 -64694.631 183199.118 -64394.838 183129.269 -64101.739 183020.977 -63820.566 183018.55 -63816.138 182948.768 -63688.801 182876.175 -63556.335 182697.446 -63313.762 182487.98 -63097.176 182468.527 -63081.814 182428.115 -63024.819 182424.932 -62955.022 182459.989 -62894.584 182522.156 -62862.694 182545.377 -62860.5 186924.051 -62860.5 186995.948 -62860.5 187004.028 -62860.764 187236.58 -62876.006 187252.636 -62878.121 187415.125 -62910.442 187477.182 -62922.786 187492.849 -62926.984 187616.599 -62968.991 187709.645 -63000.576 187724.622 -63006.779 187903.211 -63094.849 187929.96 -63108.04 187944.008 -63116.15 188134.369 -63243.346 188147.23 -63253.214 188235.66 -63330.765 188319.361 -63404.169 188330.83 -63415.638 188366.309 -63456.094 188459.843 -63562.75 188481.782 -63587.766 188491.656 -63600.634 188618.849 -63790.992 188626.959 -63805.039 188728.217 -64010.37 188734.424 -64025.356 188808.015 -64242.15 188812.213 -64257.817 188856.877 -64482.358 188858.994 -64498.438 188874.234 -64730.94 188874.499 -64739.051 188874.5 -67799.05 188874.5 -67799.051 188874.5 -67875 188874.5 -68038.801 188874.837 -68042.012 188874.838 -68042.021 188908.405 -68361.388 188908.406 -68361.4 188908.744 -68364.607 188909.417 -68367.777 188909.418 -68367.778 188976.181 -68681.877 188976.184 -68681.89 188976.856 -68685.049 188977.856 -68688.128 188977.857 -68688.13 189077.087 -68993.532 189077.093 -68993.548 189078.09 -68996.616 189211.338 -69295.894 189212.956 -69298.698 189212.963 -69298.71 189373.512 -69576.79 189373.518 -69576.8 189375.138 -69579.605 189392.293 -69603.217 189565.789 -69842.015 189565.797 -69842.024 189567.697 -69844.64 189786.905 -70088.095 190030.36 -70307.303 190032.977 -70309.204 190032.984 -70309.21 190094.703 -70354.051 190295.395 -70499.862 190298.204 -70501.483 190298.209 -70501.487 190576.289 -70662.036 190576.294 -70662.038 190579.106 -70663.662 190878.384 -70796.91 190881.462 -70797.91 190881.467 -70797.912 190932.785 -70814.586 191189.951 -70898.144 191510.393 -70966.256 191836.199 -71000.5 191869.971 -71000.5 191937.01 -71020.185 191982.765 -71072.989 191989.187 -71090.388 192038.591 -71263.05 192048.161 -71281.37 192132.802 -71443.407 192261.391 -71601.109 192419.093 -71729.698 192599.451 -71823.909 192795.082 -71879.886 192914.463 -71890.5 194780.536 -71890.499 194899.918 -71879.886 195095.549 -71823.909 195275.907 -71729.698 195433.609 -71601.109 195562.198 -71443.407 195656.409 -71263.049 195712.386 -71067.418 195723 -70948.037 195722.999 -69831.964 195712.386 -69712.582 195656.409 -69516.951 195646.7 -69498.365 195562.198 -69336.593 195562.197 -69336.592 195449.483 -69198.359 195422.375 -69133.965 195434.384 -69065.135 195449.481 -69041.642 195562.198 -68903.407 195656.409 -68723.049 195712.386 -68527.418 195723 -68408.037 195722.999 -67291.964 195712.386 -67172.582 195656.409 -66976.951 195562.198 -66796.593 195449.483 -66658.359 195422.375 -66593.965 195434.384 -66525.135 195449.481 -66501.642 195562.198 -66363.407 195656.409 -66183.049 195712.386 -65987.418 195723 -65868.037 195722.999 -64751.964 195712.386 -64632.582 195656.409 -64436.951 195564.721 -64261.424 195562.198 -64256.593 195449.484 -64118.36 195422.375 -64053.964 195434.384 -63985.134 195449.483 -63961.64 195518.048 -63877.553 195562.197 -63823.409 195592.673 -63765.065 195656.409 -63643.049 195712.386 -63447.418 195723 -63328.037 195722.999 -62211.964 195712.386 -62092.582 195656.409 -61896.951 195562.198 -61716.593 195449.483 -61578.359 195422.375 -61513.965 195434.384 -61445.135 195449.481 -61421.642 195562.198 -61283.407 195656.409 -61103.049 195712.386 -60907.418 195723 -60788.037 195722.999 -59671.964 195712.386 -59552.582 195656.409 -59356.951 195562.198 -59176.593 195449.483 -59038.359 195422.375 -58973.965 195434.384 -58905.135 195449.481 -58881.642 195562.198 -58743.407 195656.409 -58563.049 195712.386 -58367.418 195723 -58248.037 195722.999 -57131.964 195712.386 -57012.582 195656.409 -56816.951 195634.234 -56774.5 195562.198 -56636.593 195519.24 -56583.909 195449.483 -56498.359 195422.375 -56433.965 195434.384 -56365.135 195449.481 -56341.642 195562.198 -56203.407 195656.409 -56023.049 195712.386 -55827.418 195723 -55708.037 195723 -55705.314 208137 -55705.314 208137.001 -55708.036 208137.242 -55710.751 208137.243 -55710.765 208143.133 -55777.011 208147.614 -55827.418 208175.602 -55925.233 208203.591 -56023.05 208297.801 -56203.406 208410.838 -56342.035 208437.947 -56406.431 208425.938 -56475.261 208410.838 -56498.757 208298.223 -56636.867 208204.057 -56817.137 208148.109 -57012.67 208137.742 -57129.268 208137.5 -57134.739 208137.5 -57440 211887.5 -57440 211887.5 -57134.739 211887.257 -57129.268 211876.89 -57012.67 211820.942 -56817.137 211726.776 -56636.868 211614.161 -56498.757 211587.052 -56434.361 211599.061 -56365.531 211614.158 -56342.039 211727.198 -56203.407 211821.409 -56023.049 211877.386 -55827.418 211888 -55708.037 211887.999 -54591.964 211877.386 -54472.582 211821.409 -54276.951 211727.198 -54096.593 211598.609 -53938.891 211440.907 -53810.302 211440.906 -53810.301 211260.55 -53716.091 211162.733 -53688.102 211064.918 -53660.114 211045.806 -53658.414 210948.264 -53649.742 210948.253 -53649.741 210945.537 -53649.5 210942.793 -53649.5 209082.207 -53649.5 209082.184 -53649.5 209079.464 -53649.501 209076.749 -53649.742 209076.734 -53649.743 208960.082 -53660.114 208764.449 -53716.091 208584.093 -53810.301 208426.391 -53938.891 208297.801 -54096.593 208203.591 -54276.949 208147.614 -54472.582 208137.242 -54589.235 208137.241 -54589.247 208137 -54591.963 208137 -54594.705 208137 -54594.706 208137 -55705.292 208137 -55705.314 195723 -55705.314 195722.999 -54591.964 195712.386 -54472.582 195656.409 -54276.951 195562.198 -54096.593 195433.609 -53938.891 195275.907 -53810.302 195275.906 -53810.301 195095.55 -53716.091 194997.733 -53688.102 194899.918 -53660.114 194880.806 -53658.414 194783.264 -53649.742 194783.253 -53649.741 194780.537 -53649.5 194777.794 -53649.5 194253.05 -53649.5 194186.011 -53629.815 194140.256 -53577.011 194130.312 -53507.853 194136.548 -53483.034 194158.28 -53423.429 194165.51 -53407.288 194285.824 -53183.129 194295.287 -53168.171 194446.306 -52963.456 194457.812 -52949.99 194532.036 -52874.744 194636.468 -52768.873 194649.767 -52757.193 194852.404 -52603.387 194867.222 -52593.726 195089.72 -52470.356 195105.758 -52462.907 195343.563 -52372.501 195360.521 -52367.408 195608.776 -52311.812 195626.274 -52309.189 195884.335 -52289.193 195893.181 -52288.825 196864.302 -52283.152 211094.436 -52200.032 211100.004 -52200.008 211105.575 -52200 211943.04 -52200 211956.922 -52200.779 212125.254 -52219.746 212152.326 -52225.924 212305.615 -52279.562 212330.632 -52291.61 212468.138 -52378.011 212489.846 -52395.323 212604.676 -52510.153 212621.989 -52531.862 212708.389 -52669.367 212720.437 -52694.384 212774.075 -52847.673 212780.253 -52874.744 212799.22 -53043.076 212800 -53056.96 212800 -58143.038 212799.22 -58156.922 212782.76 -58303.005 212776.582 -58330.075 212730.341 -58462.225 212718.293 -58487.243 212643.806 -58605.788 212626.493 -58627.497 212527.497 -58726.493 212505.788 -58743.806 212387.243 -58818.293 212362.225 -58830.341 212230.075 -58876.582 212203.005 -58882.76 212050 -58900 211762.872 -58900 211745.227 -58889.855 211713.099 -58827.811 211719.614 -58758.245 211724.907 -58746.711 211820.94 -58562.866 211876.89 -58367.329 211887.257 -58250.731 211887.5 -58245.26 211887.5 -57940 208137.5 -57940 208137.5 -58245.26 208137.742 -58250.731 208148.109 -58367.329 208204.057 -58562.862 208298.225 -58743.135 208410.838 -58881.242 208437.948 -58945.638 208425.939 -59014.467 208410.839 -59037.964 208297.801 -59176.593 208203.591 -59356.949 208147.614 -59552.582 208137.242 -59669.235 208137.241 -59669.247 208137 -59671.963 208137 -59674.705 208137 -59674.706 208137 -60785.292 208137 -60785.314 208137.001 -60788.036 208137.242 -60790.751 208137.243 -60790.765 208147.614 -60907.417 208203.591 -61103.05 208297.802 -61283.409 208358.727 -61358.126 208410.515 -61421.639 208437.625 -61486.034 208425.616 -61554.863 208410.516 -61578.36 208297.801 -61716.593 208203.591 -61896.949 208147.614 -62092.582 208137.242 -62209.235 208137.241 -62209.247 208137 -62211.963 208137 -62214.705 208137 -62214.706 208137 -63325.292 208137 -63325.314 208137.001 -63328.036 208137.242 -63330.751 208137.243 -63330.765 208144.789 -63415.638 208147.614 -63447.418 208168.618 -63520.824 208203.591 -63643.05 208297.801 -63823.406 208298.639 -63824.434 208410.515 -63961.639 208437.624 -64026.034 208425.615 -64094.864 208410.515 -64118.359 208297.802 -64256.59 208203.591 -64436.949 208147.614 -64632.582 208137.242 -64749.235 208137.241 -64749.247 208137 -64751.963 208137 -64754.705 208137 -64754.706 208137 -65865.292 208137 -65865.314 208137.001 -65868.036 208137.242 -65870.751 208137.243 -65870.765 208147.614 -65987.417 208203.591 -66183.05 208284.547 -66338.032 208297.802 -66363.407 208410.516 -66501.64 208437.625 -66566.035 208425.616 -66634.865 208410.518 -66658.357 208367.865 -66710.668 208297.801 -66796.593 208203.591 -66976.949 208195.447 -67005.412 208161.584 -67123.762 208158.479 -67134.612 208121.111 -67193.649 208057.758 -67223.113 208039.263 -67224.5 207475.949 -67224.5 207400 -67224.5 207236.199 -67224.5 207232.988 -67224.837 207232.978 -67224.838 206913.611 -67258.405 206913.596 -67258.407 206910.393 -67258.744 206907.225 -67259.417 206907.221 -67259.418 206593.122 -67326.181 206593.104 -67326.185 206589.951 -67326.856 206586.876 -67327.855 206586.869 -67327.857 206281.467 -67427.087 206281.445 -67427.095 206278.384 -67428.09 206275.435 -67429.402 206275.427 -67429.406 205982.07 -67560.018 205982.064 -67560.02 205979.106 -67561.338 205976.309 -67562.952 205976.289 -67562.963 205698.209 -67723.512 205698.19 -67723.524 205695.395 -67725.138 205692.77 -67727.044 205692.764 -67727.049 205432.984 -67915.789 205432.965 -67915.804 205430.36 -67917.697 205427.96 -67919.857 205427.95 -67919.866 205189.314 -68134.735 205189.304 -68134.744 205186.905 -68136.905 205184.744 -68139.304 205184.735 -68139.314 204969.866 -68377.95 204969.857 -68377.96 204967.697 -68380.36 204965.804 -68382.965 204965.789 -68382.984 204777.049 -68642.764 204777.044 -68642.77 204775.138 -68645.395 204773.524 -68648.19 204773.512 -68648.209 204612.963 -68926.289 204612.952 -68926.309 204611.338 -68929.106 204610.02 -68932.064 204610.018 -68932.07 204479.406 -69225.427 204479.402 -69225.435 204478.09 -69228.384 204477.095 -69231.445 204477.087 -69231.467 204377.857 -69536.869 204376.856 -69539.951 204376.185 -69543.104 204376.181 -69543.122 204312.65 -69842.015 204308.744 -69860.393 204308.407 -69863.596 204308.405 -69863.611 204274.838 -70182.978 204274.837 -70182.988 204274.5 -70186.199 204274.499 -70189.421 204274.499 -70189.44 204274.499 -70295.641 204274.5 -70295.646 204274.5 -73060.948 204274.234 -73069.059 204258.994 -73301.561 204256.877 -73317.641 204212.213 -73542.182 204208.015 -73557.849 204134.424 -73774.643 204128.217 -73789.629 204026.959 -73994.96 204018.849 -74009.007 203891.656 -74199.365 203881.782 -74212.233 203730.83 -74384.361 203719.361 -74395.83 203547.233 -74546.782 203534.365 -74556.656 203344.007 -74683.849 203329.96 -74691.959 203124.629 -74793.217 203109.643 -74799.424 202892.849 -74873.015 202877.182 -74877.213 202652.641 -74921.877 202636.561 -74923.994 202422.014 -74938.057 202404.057 -74939.234 202395.948 -74939.5 165018.161 -74939.5 164951.122 -74919.815 164905.367 -74867.011 164895.423 -74797.853 164924.448 -74734.297 164981.611 -74697.009 165106.139 -74658.596 165342.456 -74544.792 165514.167 -74427.72 164790.946 -73704.498 164803.891 -73699.787 164950.373 -73603.445 165070.688 -73475.918 165143.447 -73349.894 165867.124 -74073.571 165914.972 -74013.572 166046.117 -73786.423 166141.94 -73542.27 166200.306 -73286.552 166219.907 -73025 166200.306 -72763.447 166141.94 -72507.729 166046.117 -72263.575 165914.972 -72036.426 165867.125 -71976.427 165142.195 -72701.357 165118.941 -72647.447 165014.244 -72506.815 164879.938 -72394.118 164788.333 -72348.112 165514.167 -71622.278 165342.451 -71505.205 165106.139 -71391.403 164855.503 -71314.091 164596.144 -71275 164333.856 -71275 164074.496 -71314.091 163823.86 -71391.403 163587.545 -71505.206 163415.832 -71622.278 164139.055 -72345.501 164126.109 -72350.213 163979.627 -72446.555 163859.312 -72574.082 163786.552 -72700.105 163062.874 -71976.428 163015.026 -72036.428 162883.882 -72263.576 162788.059 -72507.729 162729.693 -72763.447 162710.092 -73024.999 162729.693 -73286.552 162788.059 -73542.27 162883.882 -73786.424 163015.027 -74013.573 163062.873 -74073.571 163787.803 -73348.641 163811.059 -73402.553 163915.756 -73543.185 164050.062 -73655.882 164141.665 -73701.886 163415.831 -74427.72 163587.546 -74544.793 163823.86 -74658.596 163948.389 -74697.009 164006.648 -74735.579 164034.806 -74799.524 164023.922 -74868.541 163977.454 -74920.718 163911.839 -74939.5 159834.541 -74939.5 159767.502 -74919.815 159721.747 -74867.011 159719.13 -74860.846 159696.568 -74803.357 159565.386 -74576.143 159401.805 -74371.019 159314.064 -74289.607 159209.485 -74192.571 159192.17 -74180.766 158992.704 -74044.772 158756.323 -73930.937 158505.615 -73853.604 158246.182 -73814.5 157983.818 -73814.5 157724.385 -73853.604 157473.677 -73930.937 157302.084 -74013.572 157237.296 -74044.772 157195.056 -74073.571 157020.514 -74192.571 156828.198 -74371.015 156664.613 -74576.143 156533.431 -74803.358 156437.58 -75047.581 156379.197 -75303.372 156359.591 -75564.999 156379.197 -75826.627 156437.58 -76082.418 156533.431 -76326.641 156664.613 -76553.856 156828.197 -76758.983 156837.569 -76767.679 156873.325 -76827.706 156870.95 -76897.536 156831.2 -76954.996 156766.695 -76981.845 156765.017 -76982.016 156631.031 -76994.811 156424.792 -77055.368 156233.742 -77153.861 156176.263 -77199.063 156077.927 -77276.396 156064.782 -77286.733 155924.022 -77449.177 155816.552 -77635.321 155746.249 -77838.445 155718.647 -78030.432 155715.661 -78051.203 155725.888 -78265.904 155776.564 -78474.794 155865.852 -78670.309 155978.6 -78828.641 155990.534 -78845.399 156146.097 -78993.727 156216.671 -79039.082 156326.917 -79109.934 156335.5 -79113.37 156526.468 -79189.822 156737.528 -79230.5 156895.664 -79230.5 156898.618 -79230.5 156901.569 -79230.218 156901.573 -79230.218 156980.7 -79222.662 157058.971 -79215.188 157265.209 -79154.631 157456.259 -79056.138 157625.217 -78923.268 157765.976 -78760.824 157873.448 -78574.677 157943.75 -78371.554 157974.339 -78158.797 157964.112 -77944.096 157913.437 -77735.21 157913.435 -77735.205 157824.148 -77539.693 157795.664 -77499.693 157772.811 -77433.666 157789.284 -77365.766 157839.85 -77317.55 157908.457 -77304.326 157915.145 -77305.149 157983.818 -77315.5 158246.182 -77315.5 158505.615 -77276.396 158756.323 -77199.063 158992.704 -77085.228 159209.479 -76937.433 159209.482 -76937.429 159209.485 -76937.428 159319.877 -76834.999 159401.805 -76758.981 159565.386 -76553.857 159696.568 -76326.643 159719.114 -76269.194 159761.928 -76213.984 159827.798 -76190.683 159834.541 -76190.5 160364.78 -76190.5 160431.819 -76210.185 160477.574 -76262.989 160487.518 -76332.147 160458.493 -76395.703 160447.957 -76406.465 160306.741 -76534.187 160306.735 -76534.192 160303.667 -76536.968 160300.998 -76540.123 160300.991 -76540.132 160111.81 -76763.896 160111.804 -76763.903 160109.135 -76767.061 160106.912 -76770.542 160106.904 -76770.554 159949.233 -77017.542 159949.229 -77017.549 159947.007 -77021.03 159945.267 -77024.779 159945.264 -77024.785 159821.922 -77290.58 159821.918 -77290.589 159820.177 -77294.342 159818.951 -77298.291 159818.949 -77298.299 159762.387 -77480.638 159730.907 -77582.121 159730.218 -77586.199 159730.218 -77586.204 159684.711 -77855.992 159680.791 -77879.23 159680.653 -77883.353 159680.652 -77883.365 159670.861 -78176.222 159670.861 -78176.231 159670.723 -78180.369 159671.137 -78184.49 159671.138 -78184.501 159700.466 -78476.034 159700.467 -78476.044 159700.882 -78480.162 159701.842 -78484.193 159701.843 -78484.195 159762.804 -78740 159770.731 -78773.261 159879.023 -79054.434 159881.007 -79058.055 159881.013 -79058.067 159942.174 -79169.671 160023.825 -79318.665 160026.281 -79321.998 160026.284 -79322.003 160150.065 -79490 160202.554 -79561.238 160412.02 -79777.824 160521.915 -79864.607 160645.23 -79961.988 160645.234 -79961.99 160648.485 -79964.558 160652.049 -79966.669 160652.052 -79966.671 160696.854 -79993.207 160907.73 -80118.109 160911.534 -80119.722 160911.538 -80119.724 160970.807 -80144.856 161185.128 -80235.736 161475.729 -80315.34 161774.347 -80355.5 161778.488 -80355.5 161998.162 -80355.5 162000.244 -80355.5 162225.634 -80340.412 162520.903 -80280.396 162805.537 -80181.56 163074.459 -80045.668 163322.869 -79875.144 163546.333 -79673.032 163740.865 -79442.939 163902.993 -79188.97 164029.823 -78915.658 164119.093 -78627.879 164169.209 -78330.77 164178.556 -78051.203 165875.661 -78051.203 165885.888 -78265.904 165936.564 -78474.794 166025.852 -78670.309 166138.601 -78828.641 166150.534 -78845.399 166306.097 -78993.727 166376.671 -79039.082 166486.917 -79109.934 166495.5 -79113.37 166686.468 -79189.822 166897.528 -79230.5 167055.664 -79230.5 167058.618 -79230.5 167061.569 -79230.218 167061.573 -79230.218 167140.7 -79222.662 167218.971 -79215.188 167425.209 -79154.631 167616.259 -79056.138 167785.217 -78923.268 167925.976 -78760.824 168033.448 -78574.677 168103.75 -78371.554 168134.339 -78158.797 168124.112 -77944.096 168073.437 -77735.21 168073.435 -77735.205 167984.147 -77539.69 167894.248 -77413.445 167859.466 -77364.601 167703.903 -77216.273 167649.251 -77181.15 167523.082 -77100.065 167363.574 -77036.208 167323.532 -77020.178 167323.531 -77020.177 167323.529 -77020.177 167112.472 -76979.5 166951.382 -76979.5 166948.452 -76979.779 166948.426 -76979.781 166791.031 -76994.811 166584.792 -77055.368 166393.742 -77153.861 166336.263 -77199.063 166237.927 -77276.396 166224.782 -77286.733 166084.022 -77449.177 165976.552 -77635.321 165906.249 -77838.445 165878.647 -78030.432 165875.661 -78051.203 164178.556 -78051.203 164179.277 -78029.631 164149.118 -77729.838 164079.269 -77436.739 163970.977 -77155.566 163959.203 -77134.082 163899.307 -77024.785 163826.175 -76891.335 163647.446 -76648.762 163437.98 -76432.176 163412.196 -76411.814 163371.783 -76354.82 163368.6 -76285.023 163403.656 -76224.585 163465.823 -76192.694 163489.045 -76190.5 171854.126 -76190.5 171921.165 -76210.185 171966.92 -76262.989 171976.864 -76332.147 171947.839 -76395.703 171937.098 -76406.65 171739.314 -76584.735 171739.304 -76584.744 171736.905 -76586.905 171734.744 -76589.304 171734.735 -76589.314 171519.866 -76827.95 171519.857 -76827.96 171517.697 -76830.36 171515.804 -76832.965 171515.789 -76832.984 171327.049 -77092.764 171327.044 -77092.77 171325.138 -77095.395 171323.524 -77098.19 171323.512 -77098.209 171162.963 -77376.289 171162.952 -77376.309 171161.338 -77379.106 171160.02 -77382.064 171160.018 -77382.07 171029.406 -77675.427 171029.402 -77675.435 171028.09 -77678.384 171027.095 -77681.445 171027.087 -77681.467 170946.791 -77928.596 170926.856 -77989.951 170926.185 -77993.104 170926.181 -77993.122 170874.191 -78237.72 170858.744 -78310.393 170858.407 -78313.596 170858.405 -78313.611 170824.838 -78632.978 170824.837 -78632.988 170824.5 -78636.199 170824.5 -78639.44 170824.5 -80970.948 170824.234 -80979.059 170808.994 -81211.561 170806.877 -81227.641 170762.213 -81452.182 170758.015 -81467.849 170684.424 -81684.643 170678.217 -81699.629 170576.959 -81904.96 170568.849 -81919.007 170441.656 -82109.365 170431.782 -82122.233 170280.83 -82294.361 170269.361 -82305.83 170097.233 -82456.782 170084.365 -82466.656 169894.007 -82593.849 169879.96 -82601.959 169674.629 -82703.217 169659.643 -82709.424 169442.849 -82783.015 169427.182 -82787.213 169202.641 -82831.877 169186.561 -82833.994 168972.014 -82848.057 168954.057 -82849.234 168945.948 -82849.5 153408.126 -82849.5 153391.943 -82848.439 153364.215 -82844.788 153319.254 -82838.869 153287.989 -82830.491 153227.833 -82805.574 153199.798 -82789.388 153148.139 -82749.748 153125.251 -82726.86 153085.611 -82675.201 153069.425 -82647.166 153044.508 -82587.01 153036.13 -82555.743 153026.561 -82483.058 153025.5 -82466.873 153025.5 -80258.742 153017.391 -80202.342 152992.409 -80028.593 152926.902 -79805.495 152830.311 -79593.991 152704.604 -79398.386 152552.338 -79222.662 152376.614 -79070.396 152376.613 -79070.395 152257.314 -78993.727 152181.009 -78944.689 152181.007 -78944.688 151969.504 -78848.097 151746.408 -78782.591 151631.332 -78766.045 151516.258 -78749.5 151516.257 -78749.5 145968.161 -78749.5 145901.122 -78729.815 145855.367 -78677.011 145845.423 -78607.853 145874.448 -78544.297 145931.611 -78507.009 146056.139 -78468.596 146292.456 -78354.792 146464.167 -78237.72 145740.946 -77514.498 145753.891 -77509.787 145900.373 -77413.445 146020.688 -77285.918 146093.447 -77159.893 146817.124 -77883.571 146864.972 -77823.572 146996.117 -77596.423 147091.94 -77352.27 147150.306 -77096.552 147169.907 -76834.999 147150.306 -76573.447 147091.94 -76317.729 146996.117 -76073.575 146864.972 -75846.426 146817.125 -75786.427 146092.195 -76511.356 146068.941 -76457.447 145964.244 -76316.815 145829.938 -76204.118 145738.333 -76158.112 146464.167 -75432.278 146292.451 -75315.205 146056.139 -75201.403 145805.503 -75124.091 145546.144 -75085 145283.856 -75085 145024.496 -75124.091 144773.86 -75201.403 144537.545 -75315.206 144365.832 -75432.278 145089.055 -76155.501 145076.109 -76160.213 144929.627 -76256.555 144809.312 -76384.082 144736.552 -76510.106 144012.873 -75786.427 143965.028 -75846.424 143833.882 -76073.576 143738.059 -76317.729 143679.693 -76573.447 143660.092 -76835 143679.693 -77096.552 143738.059 -77352.27 143833.882 -77596.424 143965.027 -77823.573 144012.873 -77883.571 144012.874 -77883.571 144737.803 -77158.641 144761.059 -77212.553 144865.756 -77353.185 145000.062 -77465.882 145091.665 -77511.886 144365.831 -78237.72 144537.546 -78354.793 144773.86 -78468.596 144898.389 -78507.009 144956.648 -78545.579 144984.806 -78609.524 144973.922 -78678.541 144927.454 -78730.718 144861.839 -78749.5 140784.541 -78749.5 140717.502 -78729.815 140671.747 -78677.011 140669.13 -78670.846 140646.568 -78613.357 140515.386 -78386.143 140351.805 -78181.019 140351.801 -78181.015 140159.485 -78002.571 140124.291 -77978.576 139942.704 -77854.772 139706.323 -77740.937 139455.615 -77663.604 139196.182 -77624.5 138933.818 -77624.5 138674.385 -77663.604 138423.677 -77740.937 138252.084 -77823.572 138187.296 -77854.772 138157.407 -77875.15 137970.514 -78002.571 137778.198 -78181.015 137614.613 -78386.143 137483.431 -78613.358 137387.58 -78857.581 137329.197 -79113.372 137309.591 -79375 137329.197 -79636.627 137387.58 -79892.418 137483.431 -80136.641 137614.613 -80363.856 137646.674 -80404.059 137761.754 -80548.365 137778.197 -80568.983 137787.569 -80577.679 137823.325 -80637.706 137820.95 -80707.536 137781.2 -80764.996 137716.695 -80791.845 137715.017 -80792.016 137581.031 -80804.811 137374.792 -80865.368 137183.742 -80963.861 137126.263 -81009.063 137027.927 -81086.396 137014.782 -81096.733 136874.022 -81259.177 136766.552 -81445.321 136696.249 -81648.445 136668.166 -81843.777 136665.661 -81861.203 136675.888 -82075.904 136718.6 -82251.968 136726.564 -82284.794 136815.852 -82480.309 136903.218 -82602.996 136940.534 -82655.399 137096.097 -82803.727 137147.465 -82836.739 137276.917 -82919.934 137305.238 -82931.272 137476.468 -82999.822 137687.528 -83040.5 137845.664 -83040.5 137848.618 -83040.5 137851.569 -83040.218 137851.573 -83040.218 137931.873 -83032.55 138008.971 -83025.188 138215.209 -82964.631 138406.259 -82866.138 138575.217 -82733.268 138715.976 -82570.824 138823.448 -82384.677 138893.75 -82181.554 138924.339 -81968.797 138914.112 -81754.096 138863.437 -81545.21 138863.435 -81545.205 138774.148 -81349.693 138745.664 -81309.693 138722.811 -81243.666 138739.284 -81175.766 138789.85 -81127.55 138858.457 -81114.326 138865.145 -81115.149 138933.818 -81125.5 139196.182 -81125.5 139455.615 -81086.396 139706.323 -81009.063 139942.704 -80895.228 140159.479 -80747.433 140159.482 -80747.429 140159.485 -80747.428 140339.332 -80580.554 140351.805 -80568.981 140515.386 -80363.857 140646.568 -80136.643 140669.114 -80079.194 140711.928 -80023.984 140777.798 -80000.683 140784.541 -80000.5 141314.78 -80000.5 141381.819 -80020.185 141427.574 -80072.989 141437.518 -80142.147 141408.493 -80205.703 141397.957 -80216.465 141256.741 -80344.187 141256.735 -80344.192 141253.667 -80346.968 141250.998 -80350.123 141250.991 -80350.132 141061.81 -80573.896 141061.804 -80573.903 141059.135 -80577.061 141056.912 -80580.542 141056.904 -80580.554 140899.233 -80827.542 140899.229 -80827.549 140897.007 -80831.03 140895.267 -80834.779 140895.264 -80834.785 140771.922 -81100.58 140771.918 -81100.589 140770.177 -81104.342 140768.951 -81108.291 140768.949 -81108.299 140715.687 -81280 140680.907 -81392.121 140680.218 -81396.199 140680.218 -81396.204 140637.67 -81648.446 140630.791 -81689.23 140630.653 -81693.353 140630.652 -81693.365 140620.861 -81986.222 140620.861 -81986.231 140620.723 -81990.369 140621.137 -81994.49 140621.138 -81994.501 140650.466 -82286.034 140650.467 -82286.044 140650.882 -82290.162 140651.842 -82294.193 140651.843 -82294.195 140716.229 -82564.372 140720.731 -82583.261 140722.22 -82587.128 140722.221 -82587.13 140745.196 -82646.782 140829.023 -82864.434 140831.007 -82868.055 140831.013 -82868.067 140927.704 -83044.505 140973.825 -83128.665 140976.281 -83131.998 140976.284 -83132.003 141137.142 -83350.321 141152.554 -83371.238 141362.02 -83587.824 141481.737 -83682.363 141595.23 -83771.988 141595.234 -83771.99 141598.485 -83774.558 141857.73 -83928.109 141861.534 -83929.722 141861.538 -83929.724 141966.578 -83974.264 142135.128 -84045.736 142425.729 -84125.34 142724.347 -84165.5 142728.488 -84165.5 142948.162 -84165.5 142950.244 -84165.5 143175.634 -84150.412 143470.903 -84090.396 143755.537 -83991.56 144024.459 -83855.668 144272.869 -83685.144 144496.333 -83483.032 144690.865 -83252.939 144852.993 -82998.97 144979.823 -82725.658 145069.093 -82437.879 145119.209 -82140.77 145128.556 -81861.203 146825.661 -81861.203 146835.888 -82075.904 146878.6 -82251.968 146886.564 -82284.794 146975.852 -82480.309 147063.218 -82602.996 147100.534 -82655.399 147256.097 -82803.727 147307.465 -82836.739 147436.917 -82919.934 147465.238 -82931.272 147636.468 -82999.822 147847.528 -83040.5 148005.664 -83040.5 148008.618 -83040.5 148011.569 -83040.218 148011.573 -83040.218 148091.873 -83032.55 148168.971 -83025.188 148375.209 -82964.631 148566.259 -82866.138 148735.217 -82733.268 148875.976 -82570.824 148983.448 -82384.677 149053.75 -82181.554 149084.339 -81968.797 149074.112 -81754.096 149023.437 -81545.21 149023.435 -81545.205 148934.147 -81349.69 148835.785 -81211.561 148809.466 -81174.601 148653.903 -81026.273 148567.816 -80970.948 148473.082 -80910.065 148313.574 -80846.208 148273.532 -80830.178 148273.531 -80830.177 148273.529 -80830.177 148062.472 -80789.5 147901.382 -80789.5 147898.452 -80789.779 147898.426 -80789.781 147741.031 -80804.811 147534.792 -80865.368 147343.742 -80963.861 147286.263 -81009.063 147187.927 -81086.396 147174.782 -81096.733 147034.022 -81259.177 146926.552 -81445.321 146856.249 -81648.445 146828.166 -81843.777 146825.661 -81861.203 145128.556 -81861.203 145129.277 -81839.631 145099.118 -81539.838 145029.269 -81246.739 144920.977 -80965.566 144884.525 -80899.05 144849.307 -80834.785 144776.175 -80701.335 144597.446 -80458.762 144387.98 -80242.176 144362.196 -80221.814 144321.783 -80164.82 144318.6 -80095.023 144353.656 -80034.585 144415.823 -80002.694 144439.045 -80000.5 151324.051 -80000.5 151391.874 -80000.5 151408.058 -80001.56 151480.744 -80011.13 151512.009 -80019.507 151533.943 -80028.593 151572.166 -80044.425 151600.201 -80060.611 151651.86 -80100.251 151674.748 -80123.139 151714.388 -80174.798 151730.574 -80202.833 151755.491 -80262.989 151763.869 -80294.254 151769.319 -80335.649 151770.809 -80346.968 151773.439 -80366.939 151774.5 -80383.126 151774.5 -82399.05 151774.5 -82399.051 151774.5 -82475 151774.5 -82591.258 151783.295 -82652.428 151807.591 -82821.408 151873.097 -83044.504 151962.667 -83240.634 151969.689 -83256.009 151993.568 -83293.165 152094.493 -83450.21 152095.396 -83451.614 152247.662 -83627.338 152423.386 -83779.604 152618.991 -83905.311 152830.495 -84001.902 153053.593 -84067.409 153283.742 -84100.5 153283.743 -84100.5 169110.559 -84100.5 169113.801 -84100.5 169439.607 -84066.256 169760.049 -83998.144 170071.616 -83896.91 170370.894 -83763.662 170654.605 -83599.862 170919.64 -83407.303 171163.095 -83188.095 171382.303 -82944.64 171574.862 -82679.605 171738.662 -82395.894 171871.91 -82096.616 171973.144 -81785.049 172041.256 -81464.607 172075.5 -81138.801 172075.5 -80975 172075.5 -80899.051 172075.5 -80899.05 172075.5 -78804.049 172075.763 -78795.971 172091.006 -78563.417 172093.12 -78547.365 172137.786 -78322.815 172141.984 -78307.15 172170.951 -78221.815 172215.578 -78090.348 172221.776 -78075.382 172323.043 -77870.033 172331.146 -77855.998 172458.351 -77665.622 172468.208 -77652.776 172619.174 -77480.632 172630.632 -77469.174 172802.776 -77318.208 172815.622 -77308.351 173005.998 -77181.146 173020.033 -77173.043 173225.382 -77071.776 173240.348 -77065.578 173392.874 -77013.802 173457.15 -76991.984 173472.817 -76987.786 173697.365 -76943.12 173713.417 -76941.006 173945.971 -76925.764 173954.052 -76925.5 182706.23 -76925.5 182773.269 -76945.185 182819.024 -76997.989 182828.968 -77067.147 182799.943 -77130.703 182760.032 -77161.22 182637.546 -77220.206 182465.831 -77337.278 183189.054 -78060.501 183176.109 -78065.213 183029.627 -78161.555 182909.312 -78289.082 182836.552 -78415.106 182112.873 -77691.427 182065.028 -77751.424 181933.882 -77978.576 181838.059 -78222.729 181779.693 -78478.447 181760.092 -78739.999 181779.693 -79001.552 181838.059 -79257.27 181933.882 -79501.424 182065.027 -79728.573 182112.873 -79788.571 182112.874 -79788.571 182837.803 -79063.641 182861.059 -79117.553 182965.756 -79258.185 183100.062 -79370.882 183191.663 -79416.886 182465.831 -80142.72 182637.546 -80259.793 182873.86 -80373.596 183124.496 -80450.908 183300 -80477.36 183300 -80799.5 178941.45 -80799.5 178874.411 -80779.815 178828.656 -80727.011 178826.022 -80720.802 178793.409 -80637.706 178746.568 -80518.357 178615.386 -80291.143 178451.805 -80086.019 178437.762 -80072.989 178259.485 -79907.571 178193.011 -79862.25 178042.704 -79759.772 177806.323 -79645.937 177555.615 -79568.604 177296.182 -79529.5 177033.818 -79529.5 176774.385 -79568.604 176523.677 -79645.937 176287.296 -79759.772 176260.819 -79777.824 176070.514 -79907.571 175878.198 -80086.015 175714.613 -80291.143 175583.431 -80518.358 175487.58 -80762.581 175429.197 -81018.372 175409.591 -81280 175429.197 -81541.627 175487.58 -81797.418 175554.842 -81968.797 175583.432 -82041.643 175596.504 -82064.285 175714.613 -82268.856 175739.826 -82300.472 175871.496 -82465.581 175878.197 -82473.983 175887.569 -82482.679 175923.325 -82542.706 175920.95 -82612.536 175881.2 -82669.996 175816.695 -82696.845 175815.017 -82697.016 175681.031 -82709.811 175474.792 -82770.368 175283.742 -82868.861 175226.263 -82914.063 175123.072 -82995.214 175114.782 -83001.733 174974.022 -83164.177 174866.552 -83350.321 174796.249 -83553.445 174765.661 -83766.201 174765.661 -83766.203 174772.287 -83905.311 174775.888 -83980.904 174826.564 -84189.794 174915.852 -84385.309 174991.92 -84492.13 175040.534 -84560.399 175196.097 -84708.727 175270.083 -84756.275 175376.917 -84824.934 175415.063 -84840.205 175576.468 -84904.822 175787.528 -84945.5 175945.664 -84945.5 175948.618 -84945.5 175951.569 -84945.218 175951.573 -84945.218 176010.398 -84939.6 176108.971 -84930.188 176315.209 -84869.631 176506.259 -84771.138 176675.217 -84638.268 176815.976 -84475.824 176923.448 -84289.677 176993.75 -84086.554 177024.339 -83873.797 177014.112 -83659.096 176963.437 -83450.21 176963.435 -83450.205 176874.148 -83254.693 176859.325 -83233.877 176845.663 -83214.692 176822.811 -83148.666 176839.284 -83080.766 176889.85 -83032.55 176958.457 -83019.326 176965.145 -83020.149 177033.818 -83030.5 177296.182 -83030.5 177555.615 -82991.396 177806.323 -82914.063 178042.704 -82800.228 178259.479 -82652.433 178259.482 -82652.429 178259.485 -82652.428 178405.94 -82516.537 178451.805 -82473.981 178615.386 -82268.857 178705.658 -82112.499 178756.225 -82064.285 178813.045 -82050.5 179256.784 -82050.5 179323.823 -82070.185 179369.578 -82122.989 179379.522 -82192.147 179351.477 -82254.558 179161.81 -82478.896 179161.804 -82478.903 179159.135 -82482.061 179156.912 -82485.542 179156.904 -82485.554 178999.233 -82732.542 178999.229 -82732.549 178997.007 -82736.03 178995.267 -82739.779 178995.264 -82739.785 178871.922 -83005.58 178871.918 -83005.589 178870.177 -83009.342 178868.951 -83013.291 178868.949 -83013.299 178793.66 -83256.009 178780.907 -83297.121 178780.218 -83301.199 178780.218 -83301.204 178731.479 -83590.15 178730.791 -83594.23 178730.653 -83598.353 178730.652 -83598.365 178720.861 -83891.222 178720.861 -83891.231 178720.723 -83895.369 178721.137 -83899.49 178721.138 -83899.501 178750.466 -84191.034 178750.467 -84191.044 178750.882 -84195.162 178751.842 -84199.193 178751.843 -84199.195 178796.196 -84385.31 178820.731 -84488.261 178929.023 -84769.434 178931.007 -84773.055 178931.013 -84773.067 178983.932 -84869.631 179073.825 -85033.665 179076.281 -85036.998 179076.284 -85037.003 179167.722 -85161.103 179252.554 -85276.238 179462.02 -85492.824 179581.737 -85587.363 179695.23 -85676.988 179695.234 -85676.99 179698.485 -85679.558 179702.049 -85681.669 179702.052 -85681.671 179782.159 -85729.118 179957.73 -85833.109 179961.534 -85834.722 179961.538 -85834.724 180066.578 -85879.264 180235.128 -85950.736 180525.729 -86030.34 180824.347 -86070.5 180828.488 -86070.5 181048.162 -86070.5 181050.244 -86070.5 181275.634 -86055.412 181570.903 -85995.396 181855.537 -85896.56 182124.459 -85760.668 182372.869 -85590.144 182596.333 -85388.032 182790.865 -85157.939 182952.993 -84903.97 183079.823 -84630.658 183169.093 -84342.879 183219.209 -84045.77 183228.556 -83766.203 184925.661 -83766.203 184932.287 -83905.311 184935.888 -83980.904 184986.564 -84189.794 185075.852 -84385.309 185151.92 -84492.13 185200.534 -84560.399 185356.097 -84708.727 185430.083 -84756.275 185536.917 -84824.934 185575.063 -84840.205 185736.468 -84904.822 185947.528 -84945.5 186105.664 -84945.5 186108.618 -84945.5 186111.569 -84945.218 186111.573 -84945.218 186170.398 -84939.6 186268.971 -84930.188 186475.209 -84869.631 186666.259 -84771.138 186835.217 -84638.268 186975.976 -84475.824 187083.448 -84289.677 187153.75 -84086.554 187184.339 -83873.797 187174.112 -83659.096 187123.437 -83450.21 187123.435 -83450.205 187034.147 -83254.69 186941.814 -83125.028 186909.466 -83079.601 186753.903 -82931.273 186679.323 -82883.343 186573.082 -82815.065 186405.66 -82748.04 186373.532 -82735.178 186373.531 -82735.177 186373.529 -82735.177 186162.472 -82694.5 186001.382 -82694.5 185998.452 -82694.779 185998.426 -82694.781 185841.031 -82709.811 185634.792 -82770.368 185443.742 -82868.861 185386.263 -82914.063 185283.072 -82995.214 185274.782 -83001.733 185134.022 -83164.177 185026.552 -83350.321 184956.249 -83553.445 184925.661 -83766.201 184925.661 -83766.203 183228.556 -83766.203 183229.277 -83744.631 183199.118 -83444.838 183129.269 -83151.739 183020.977 -82870.566 183018.55 -82866.138 182949.307 -82739.785 182876.175 -82606.335 182865.065 -82591.257 182730.029 -82407.984 182697.446 -82363.762 182632.792 -82296.91 182597.776 -82260.704 182565.32 -82198.83 182571.469 -82129.231 182614.269 -82074.005 182680.132 -82050.685 182686.91 -82050.5 198258.706 -82050.5 198325.745 -82070.185 198371.5 -82122.989 198381.444 -82192.147 198352.419 -82255.703 198350.856 -82257.472 198219.866 -82402.95 198219.857 -82402.96 198217.697 -82405.36 198215.804 -82407.965 198215.789 -82407.984 198027.049 -82667.764 198027.044 -82667.77 198025.138 -82670.395 198023.524 -82673.19 198023.512 -82673.209 197862.963 -82951.289 197862.952 -82951.309 197861.338 -82954.106 197860.02 -82957.064 197860.018 -82957.07 197729.406 -83250.427 197729.402 -83250.435 197728.09 -83253.384 197727.095 -83256.445 197727.087 -83256.467 197630.594 -83553.446 197626.856 -83564.951 197626.185 -83568.104 197626.181 -83568.122 197559.433 -83882.15 197558.744 -83885.393 197558.407 -83888.596 197558.405 -83888.611 197524.838 -84207.978 197524.837 -84207.988 197524.5 -84211.199 197524.5 -84214.44 197524.5 -87165.955 197504.815 -87232.994 197454.302 -87277.675 197242.298 -87379.77 197025.514 -87527.571 196833.198 -87706.015 196669.613 -87911.143 196538.431 -88138.358 196442.58 -88382.581 196384.197 -88638.372 196364.591 -88899.999 196384.197 -89161.627 196442.58 -89417.418 196538.431 -89661.641 196661.689 -89875.132 196669.614 -89888.857 196822.05 -90080.006 196833.197 -90093.983 196842.569 -90102.679 196878.325 -90162.706 196875.95 -90232.536 196836.2 -90289.996 196771.695 -90316.845 196770.017 -90317.016 196636.031 -90329.811 196429.792 -90390.368 196238.742 -90488.861 196181.263 -90534.063 196082.927 -90611.396 196069.782 -90621.733 195929.022 -90784.177 195821.552 -90970.321 195751.249 -91173.445 195723.166 -91368.777 195720.661 -91386.203 195729.173 -91564.893 195730.888 -91600.904 195781.564 -91809.794 195870.852 -92005.309 195946.92 -92112.13 195995.534 -92180.399 196151.097 -92328.727 196225.083 -92376.275 196331.917 -92444.934 196371.962 -92460.965 196531.468 -92524.822 196742.528 -92565.5 196900.664 -92565.5 196903.618 -92565.5 196906.569 -92565.218 196906.573 -92565.218 196965.398 -92559.6 197063.971 -92550.188 197270.209 -92489.631 197461.259 -92391.138 197630.217 -92258.268 197770.976 -92095.824 197878.448 -91909.677 197948.75 -91706.554 197976.237 -91515.369 199675.723 -91515.369 199676.137 -91519.49 199676.138 -91519.501 199705.466 -91811.034 199705.467 -91811.044 199705.882 -91815.162 199706.842 -91819.193 199706.843 -91819.195 199751.196 -92005.31 199775.731 -92108.261 199884.023 -92389.434 199886.007 -92393.055 199886.013 -92393.067 199955.692 -92520.214 200028.825 -92653.665 200031.281 -92656.998 200031.284 -92657.003 200122.722 -92781.103 200207.554 -92896.238 200417.02 -93112.824 200536.737 -93207.363 200650.23 -93296.988 200650.234 -93296.99 200653.485 -93299.558 200657.049 -93301.669 200657.052 -93301.671 200730.206 -93345 200912.73 -93453.109 200916.534 -93454.722 200916.538 -93454.724 200952.311 -93469.893 201190.128 -93570.736 201480.729 -93650.34 201779.347 -93690.5 201783.488 -93690.5 202003.162 -93690.5 202005.244 -93690.5 202230.634 -93675.412 202525.903 -93615.396 202810.537 -93516.56 203079.459 -93380.668 203327.869 -93210.144 203551.333 -93008.032 203745.865 -92777.939 203907.993 -92523.97 204034.823 -92250.658 204124.093 -91962.879 204174.209 -91665.77 204183.556 -91386.203 205880.661 -91386.203 205889.173 -91564.893 205890.888 -91600.904 205941.564 -91809.794 206030.852 -92005.309 206106.92 -92112.13 206155.534 -92180.399 206311.097 -92328.727 206385.083 -92376.275 206491.917 -92444.934 206531.962 -92460.965 206691.468 -92524.822 206902.528 -92565.5 207060.664 -92565.5 207063.618 -92565.5 207066.569 -92565.218 207066.573 -92565.218 207125.398 -92559.6 207223.971 -92550.188 207430.209 -92489.631 207621.259 -92391.138 207790.217 -92258.268 207930.976 -92095.824 208038.448 -91909.677 208108.75 -91706.554 208139.339 -91493.797 208129.112 -91279.096 208078.437 -91070.21 208078.435 -91070.205 207989.147 -90874.69 207901.602 -90751.752 207864.466 -90699.601 207708.903 -90551.273 207676.053 -90530.161 207528.082 -90435.065 207368.574 -90371.208 207328.532 -90355.178 207328.531 -90355.177 207328.529 -90355.177 207117.472 -90314.5 206956.382 -90314.5 206953.452 -90314.779 206953.426 -90314.781 206796.031 -90329.811 206589.792 -90390.368 206398.742 -90488.861 206341.263 -90534.063 206242.927 -90611.396 206229.782 -90621.733 206089.022 -90784.177 205981.552 -90970.321 205911.249 -91173.445 205883.166 -91368.777 205880.661 -91386.203 204183.556 -91386.203 204184.277 -91364.631 204154.118 -91064.838 204084.269 -90771.739 203975.977 -90490.566 203831.175 -90226.335 203652.446 -89983.762 203442.98 -89767.176 203316.77 -89667.509 203209.769 -89583.011 203209.762 -89583.006 203206.515 -89580.442 203202.954 -89578.332 203202.947 -89578.328 202950.831 -89429 202950.828 -89428.998 202947.27 -89426.891 202943.471 -89425.28 202943.461 -89425.275 202673.681 -89310.879 202673.678 -89310.878 202669.872 -89309.264 202665.885 -89308.172 202665.877 -89308.169 202383.278 -89230.757 202383.269 -89230.755 202379.271 -89229.66 202375.164 -89229.107 202375.156 -89229.106 202084.754 -89190.051 202084.746 -89190.05 202080.653 -89189.5 201854.756 -89189.5 201852.682 -89189.638 201852.677 -89189.639 201633.498 -89204.311 201633.492 -89204.311 201629.366 -89204.588 201625.309 -89205.412 201625.306 -89205.413 201338.165 -89263.777 201338.162 -89263.777 201334.097 -89264.604 201330.183 -89265.963 201330.176 -89265.965 201053.375 -89362.081 201053.367 -89362.084 201049.463 -89363.44 201045.771 -89365.305 201045.763 -89365.309 200784.242 -89497.461 200784.232 -89497.466 200780.541 -89499.332 200777.13 -89501.672 200777.124 -89501.677 200535.548 -89667.509 200535.534 -89667.519 200532.131 -89669.856 200529.066 -89672.627 200529.056 -89672.636 200311.741 -89869.187 200311.735 -89869.192 200308.667 -89871.968 200305.998 -89875.123 200305.991 -89875.132 200116.81 -90098.896 200116.804 -90098.903 200114.135 -90102.061 200111.912 -90105.542 200111.904 -90105.554 199954.233 -90352.542 199954.229 -90352.549 199952.007 -90356.03 199950.267 -90359.779 199950.264 -90359.785 199826.922 -90625.58 199826.918 -90625.589 199825.177 -90629.342 199823.951 -90633.291 199823.949 -90633.299 199775.718 -90788.781 199735.907 -90917.121 199735.218 -90921.199 199735.218 -90921.204 199692.67 -91173.446 199685.791 -91214.23 199685.653 -91218.353 199685.652 -91218.365 199675.861 -91511.222 199675.861 -91511.231 199675.723 -91515.369 197976.237 -91515.369 197979.339 -91493.797 197969.112 -91279.096 197918.437 -91070.21 197918.435 -91070.205 197829.148 -90874.693 197800.664 -90834.693 197777.811 -90768.666 197794.284 -90700.766 197844.85 -90652.55 197913.457 -90639.326 197920.145 -90640.149 197988.818 -90650.5 198251.182 -90650.5 198510.615 -90611.396 198761.323 -90534.063 198997.704 -90420.228 199214.479 -90272.433 199214.482 -90272.429 199214.485 -90272.428 199394.332 -90105.554 199406.805 -90093.981 199570.386 -89888.857 199701.568 -89661.643 199797.42 -89417.416 199855.802 -89161.63 199875.408 -88900 199855.802 -88638.37 199797.42 -88382.584 199701.568 -88138.357 199570.386 -87911.143 199406.805 -87706.019 199406.801 -87706.015 199214.485 -87527.571 198997.701 -87379.77 198845.698 -87306.569 198793.838 -87259.746 198775.5 -87194.849 198775.5 -86360 202715.092 -86360 202734.693 -86621.552 202793.059 -86877.27 202888.882 -87121.424 203020.027 -87348.573 203067.873 -87408.571 203067.874 -87408.571 203792.803 -86683.641 203816.059 -86737.553 203920.756 -86878.185 204055.062 -86990.882 204146.665 -87036.886 203420.831 -87762.72 203592.546 -87879.793 203828.86 -87993.596 204079.496 -88070.908 204338.856 -88110 204601.144 -88110 204860.503 -88070.908 205111.139 -87993.596 205347.456 -87879.792 205519.167 -87762.72 204795.946 -87039.498 204808.891 -87034.787 204955.373 -86938.445 205075.688 -86810.918 205148.447 -86684.894 205872.124 -87408.571 205919.972 -87348.572 206051.117 -87121.423 206146.94 -86877.27 206205.306 -86621.552 206224.907 -86360 206205.306 -86098.447 206146.94 -85842.729 206051.117 -85598.575 205919.972 -85371.426 205872.125 -85311.427 205147.195 -86036.357 205123.941 -85982.447 205019.244 -85841.815 204884.938 -85729.118 204793.333 -85683.112 205519.167 -84957.278 205347.451 -84840.205 205111.139 -84726.403 204860.503 -84649.091 204601.144 -84610 204338.856 -84610 204079.496 -84649.091 203828.86 -84726.403 203592.545 -84840.206 203420.832 -84957.278 204144.055 -85680.501 204131.109 -85685.213 203984.627 -85781.555 203864.312 -85909.082 203791.552 -86035.105 203067.873 -85311.427 203020.028 -85371.424 202888.882 -85598.576 202793.059 -85842.729 202734.693 -86098.447 202715.092 -86360 198775.5 -86360 198775.5 -85830.999 198775.5 -84379.02 198775.763 -84370.973 198791.005 -84138.43 198793.12 -84122.365 198837.786 -83897.815 198841.984 -83882.15 198863.802 -83817.874 198915.578 -83665.348 198921.776 -83650.382 199023.043 -83445.033 199031.146 -83430.998 199158.351 -83240.622 199168.208 -83227.776 199319.174 -83055.632 199330.632 -83044.174 199502.776 -82893.208 199515.622 -82883.351 199705.998 -82756.146 199720.033 -82748.043 199925.382 -82646.776 199940.348 -82640.578 200142.585 -82571.928 200157.15 -82566.984 200172.817 -82562.786 200208.225 -82555.743 200397.365 -82518.12 200413.417 -82516.006 200645.971 -82500.764 200654.052 -82500.5 210435.559 -82500.5 210438.801 -82500.5 210764.607 -82466.256 211085.049 -82398.144 211145.009 -82378.661 211214.846 -82376.666 211274.679 -82412.746 211305.508 -82475.447 211307.322 -82495.969 211390.369 -98987.515 211390.097 -98996.371 211372.918 -99254.565 211370.484 -99272.107 211317.62 -99520.881 211312.711 -99537.898 211224.946 -99776.602 211217.663 -99792.745 211096.787 -100016.513 211087.278 -100031.454 210935.763 -100235.711 210924.223 -100249.146 210745.147 -100429.743 210731.811 -100441.396 210528.841 -100594.635 210513.981 -100604.269 210291.242 -100727.034 210275.161 -100734.454 210037.204 -100824.236 210020.229 -100829.288 209771.921 -100884.252 209754.4 -100886.835 209496.357 -100906.197 209487.503 -100906.544 194314.426 -100958.465 194305.56 -100958.178 194048.028 -100940.605 194030.47 -100938.136 193782.414 -100884.941 193765.388 -100879.994 193527.469 -100791.972 193511.322 -100784.647 193288.378 -100663.585 193273.441 -100654.031 193070.048 -100502.413 193056.627 -100490.827 192876.938 -100311.751 192865.306 -100298.37 192818.263 -100235.711 192712.99 -100095.492 192703.391 -100080.595 192581.567 -99858.067 192574.186 -99841.946 192485.345 -99604.319 192480.343 -99587.324 192426.299 -99339.443 192423.773 -99321.912 192405.317 -99064.422 192405 -99055.557 192405 -95252.215 192405 -95252.214 192405 -95250 192405 -93345 190500 -93345 190497.785 -93345 173359.428 -93345 173350.582 -93344.684 173092.734 -93326.242 173075.222 -93323.724 172826.969 -93269.72 172809.993 -93264.736 172571.94 -93175.946 172555.847 -93168.596 172332.861 -93046.837 172317.978 -93037.272 172114.589 -92885.017 172101.218 -92873.431 171921.568 -92693.781 171909.982 -92680.41 171757.727 -92477.021 171748.162 -92462.138 171626.403 -92239.152 171619.053 -92223.059 171537.836 -92005.309 171530.26 -91984.998 171525.281 -91968.039 171471.274 -91719.771 171468.757 -91702.265 171450.316 -91444.418 171450 -91435.572 171450 -89537.215 171450 -89537.214 171450 -89535 171450 -89534.999 171450 -87630 169545 -87630 169542.785 -87630 154307.215 -87630 154305 -87630 152400 -87630 152400 -89534.999 152400 -89535 152381.242 -89797.265 152378.724 -89814.777 152324.72 -90063.03 152319.736 -90080.006 152230.946 -90318.059 152223.596 -90334.152 152101.837 -90557.138 152092.272 -90572.021 151940.017 -90775.41 151928.431 -90788.781 151748.781 -90968.431 151735.41 -90980.017 151532.021 -91132.272 151517.138 -91141.837 151294.152 -91263.596 151278.059 -91270.946 151040.006 -91359.736 151023.03 -91364.72 150774.777 -91418.724 150757.265 -91421.242 150499.418 -91439.684 150490.572 -91440 135259.428 -91440 135250.582 -91439.684 134992.734 -91421.242 134975.222 -91418.724 134726.969 -91364.72 134709.993 -91359.736 134471.94 -91270.946 134455.847 -91263.596 134232.861 -91141.837 134217.978 -91132.272 134014.589 -90980.017 134001.218 -90968.431 133821.568 -90788.781 133809.982 -90775.41 133657.727 -90572.021 133648.162 -90557.138 133526.403 -90334.152 133519.053 -90318.059 133435.477 -90093.984 133430.26 -90079.998 133425.281 -90063.039 133371.274 -89814.771 133368.757 -89797.265 133366.421 -89764.607 133350.316 -89539.418 133350 -89530.572 133350 -80012.215 133350 -80012.214 133350 -80010 133350 -80009.999 133350 -78105 131445 -78105 131442.785 -78105 114304.428 -78105 114295.582 -78104.684 114037.734 -78086.242 114020.222 -78083.724 113771.969 -78029.72 113754.993 -78024.736 113516.94 -77935.946 113500.847 -77928.596 113277.861 -77806.837 113262.978 -77797.272 113059.589 -77645.017 113046.218 -77633.431 112866.568 -77453.781 112854.982 -77440.41 112702.727 -77237.021 112693.162 -77222.138 112571.403 -76999.152 112564.053 -76983.059 112528.596 -76887.996 112475.26 -76744.998 112470.281 -76728.039 112416.274 -76479.771 112413.757 -76462.265 112411.421 -76429.609 112395.316 -76204.418 112395 -76195.572 112395 -60964.427 112395.316 -60955.581 112402.326 -60857.571 112413.757 -60697.727 112416.273 -60680.23 112470.282 -60431.956 112475.259 -60415.005 112564.053 -60176.939 112571.403 -60160.847 112585.4 -60135.214 112693.166 -59937.853 112702.722 -59922.984 112854.987 -59719.582 112866.561 -59706.225 113046.225 -59526.561 113059.582 -59514.987 113262.984 -59362.722 113277.853 -59353.166 113500.847 -59231.402 113516.94 -59224.053 113538.788 -59215.904 113755.005 -59135.259 113771.956 -59130.282 114020.23 -59076.273 114037.727 -59073.757 114295.581 -59055.316 114304.428 -59055 131442.785 -59055 131445 -59055 133350 -59055 133350 -55249.426 133350.316 -55240.581 133361.972 -55077.61 133368.757 -54982.727 133371.273 -54965.23 133425.282 -54716.956 133430.259 -54700.005 133519.053 -54461.939 133526.403 -54445.847 133590.45 -54328.553 133648.166 -54222.853 133657.722 -54207.984 133809.987 -54004.582 133821.561 -53991.225 134001.225 -53811.561 134014.582 -53799.987 134217.984 -53647.722 134232.853 -53638.166 134455.847 -53516.402 134471.94 -53509.053 134475.157 -53507.853 134710.005 -53420.259 134726.956 -53415.282 134975.23 -53361.273 134992.727 -53358.757 135250.581 -53340.316 135259.428 -53340 150492.785 -53340 150495 -53340 152400 -53340 152400 -51434.999 152418.757 -51172.727 152421.273 -51155.23 152475.282 -50906.956 152480.259 -50890.005 152569.053 -50651.939 152576.403 -50635.847 152698.166 -50412.853 152707.722 -50397.984 152859.987 -50194.582 152871.561 -50181.225 153051.225 -50001.561 153064.582 -49989.987 153267.984 -49837.722 153282.853 -49828.166 153505.847 -49706.402 153521.94 -49699.053 153760.005 -49610.259 153776.956 -49605.282 154025.23 -49551.273 154042.727 -49548.757 154300.581 -49530.316 154309.428 -49530 169540.572 -49530 169549.418 -49530.316"/></g></svg>