<svg version="1.1" xmlns="http://www.w3.org/2000/svg" xmlns:xlink="http://www.w3.org/1999/xlink" stroke-linecap="round" stroke-linejoin="round" stroke-width="0" fill-rule="evenodd" width="88.86mm" height="37.425mm" viewBox="116860 -90150 88860 37425" id="DFzDxyLG3kzC_Qb93818"><defs><circle cx="0" cy="0" r="1250" id="DFzDxyLG3kzC_Qb93818_pad-10"/><circle cx="0" cy="0" r="400" id="DFzDxyLG3kzC_Qb93818_pad-11"/></defs><g transform="translate(0,-142875) scale(1,-1)" fill="currentColor" stroke="currentColor"><use xlink:href="#DFzDxyLG3kzC_Qb93818_pad-10" x="139065" y="-60325"/><use xlink:href="#DFzDxyLG3kzC_Qb93818_pad-10" x="145415" y="-57785"/><use xlink:href="#DFzDxyLG3kzC_Qb93818_pad-10" x="158115" y="-56515"/><use xlink:href="#DFzDxyLG3kzC_Qb93818_pad-10" x="164465" y="-53975"/><use xlink:href="#DFzDxyLG3kzC_Qb93818_pad-10" x="118110" y="-66040"/><use xlink:href="#DFzDxyLG3kzC_Qb93818_pad-10" x="124460" y="-63500"/><use xlink:href="#DFzDxyLG3kzC_Qb93818_pad-10" x="177165" y="-62230"/><use xlink:href="#DFzDxyLG3kzC_Qb93818_pad-10" x="183515" y="-59690"/><use xlink:href="#DFzDxyLG3kzC_Qb93818_pad-10" x="198120" y="-88900"/><use xlink:href="#DFzDxyLG3kzC_Qb93818_pad-10" x="204470" y="-86360"/><use xlink:href="#DFzDxyLG3kzC_Qb93818_pad-10" x="139065" y="-79375"/><use xlink:href="#DFzDxyLG3kzC_Qb93818_pad-10" x="145415" y="-76835"/><use xlink:href="#DFzDxyLG3kzC_Qb93818_pad-10" x="177165" y="-81280"/><use xlink:href="#DFzDxyLG3kzC_Qb93818_pad-10" x="183515" y="-78740"/><use xlink:href="#DFzDxyLG3kzC_Qb93818_pad-10" x="158115" y="-75565"/><use xlink:href="#DFzDxyLG3kzC_Qb93818_pad-10" x="164465" y="-73025"/><use xlink:href="#DFzDxyLG3kzC_Qb93818_pad-11" x="171450" y="-55750.5"/><use xlink:href="#DFzDxyLG3kzC_Qb93818_pad-11" x="171450" y="-57350"/><use xlink:href="#DFzDxyLG3kzC_Qb93818_pad-11" x="189725" y="-57675"/><use xlink:href="#DFzDxyLG3kzC_Qb93818_pad-11" x="170275" y="-60375"/><use xlink:href="#DFzDxyLG3kzC_Qb93818_pad-11" x="172275" y="-60375"/><use xlink:href="#DFzDxyLG3kzC_Qb93818_pad-11" x="191224.5" y="-57675"/><path d="M 171450 -57350 171450 -55800 171450 -55750.5 M 172275 -60375 170275 -60375 M 191224.5 -57675 189725 -57675" fill="none" stroke-width="250"/></g></svg>