<svg version="1.1" xmlns="http://www.w3.org/2000/svg" xmlns:xlink="http://www.w3.org/1999/xlink" stroke-linecap="round" stroke-linejoin="round" stroke-width="0" fill-rule="evenodd" width="3.6189in" height="1.4325in" viewBox="4565.55 -3678.75 3618.9 1432.5" id="VlQG9yipQ5YRYoYcOixr"><defs><circle cx="0" cy="0" r="34.45" id="VlQG9yipQ5YRYoYcOixr_pad-1"/><circle cx="0" cy="0" r="78.75" id="VlQG9yipQ5YRYoYcOixr_pad-2"/></defs><g transform="translate(0,-5925) scale(1,-1)" fill="currentColor" stroke="currentColor"><use xlink:href="#VlQG9yipQ5YRYoYcOixr_pad-1" x="4600" y="-2700"/><use xlink:href="#VlQG9yipQ5YRYoYcOixr_pad-1" x="5000" y="-2700"/><use xlink:href="#VlQG9yipQ5YRYoYcOixr_pad-1" x="5425" y="-2475"/><use xlink:href="#VlQG9yipQ5YRYoYcOixr_pad-1" x="5425" y="-3225"/><use xlink:href="#VlQG9yipQ5YRYoYcOixr_pad-1" x="5825" y="-2475"/><use xlink:href="#VlQG9yipQ5YRYoYcOixr_pad-1" x="5825" y="-3225"/><use xlink:href="#VlQG9yipQ5YRYoYcOixr_pad-1" x="6175" y="-2325"/><use xlink:href="#VlQG9yipQ5YRYoYcOixr_pad-1" x="6175" y="-3075"/><use xlink:href="#VlQG9yipQ5YRYoYcOixr_pad-1" x="6575" y="-2325"/><use xlink:href="#VlQG9yipQ5YRYoYcOixr_pad-1" x="6575" y="-3075"/><use xlink:href="#VlQG9yipQ5YRYoYcOixr_pad-1" x="6925" y="-2550"/><use xlink:href="#VlQG9yipQ5YRYoYcOixr_pad-1" x="6925" y="-3300"/><use xlink:href="#VlQG9yipQ5YRYoYcOixr_pad-1" x="7325" y="-2550"/><use xlink:href="#VlQG9yipQ5YRYoYcOixr_pad-1" x="7325" y="-3300"/><use xlink:href="#VlQG9yipQ5YRYoYcOixr_pad-1" x="7750" y="-3600"/><use xlink:href="#VlQG9yipQ5YRYoYcOixr_pad-1" x="8150" y="-3600"/><use xlink:href="#VlQG9yipQ5YRYoYcOixr_pad-2" x="4800" y="-2700"/><use xlink:href="#VlQG9yipQ5YRYoYcOixr_pad-2" x="5625" y="-2475"/><use xlink:href="#VlQG9yipQ5YRYoYcOixr_pad-2" x="5625" y="-3225"/><use xlink:href="#VlQG9yipQ5YRYoYcOixr_pad-2" x="6375" y="-2325"/><use xlink:href="#VlQG9yipQ5YRYoYcOixr_pad-2" x="6375" y="-3075"/><use xlink:href="#VlQG9yipQ5YRYoYcOixr_pad-2" x="7125" y="-2550"/><use xlink:href="#VlQG9yipQ5YRYoYcOixr_pad-2" x="7125" y="-3300"/><use xlink:href="#VlQG9yipQ5YRYoYcOixr_pad-2" x="7950" y="-3600"/></g></svg>