%TF.GenerationSoftware,KiCad,Pcbnew,7.0.2*%
%TF.CreationDate,2023-09-16T14:44:34-04:00*%
%TF.ProjectId,j-artsey-v1,6a2d6172-7473-4657-992d-76312e6b6963,rev?*%
%TF.SameCoordinates,Original*%
%TF.FileFunction,Copper,L1,Top*%
%TF.FilePolarity,Positive*%
%FSLAX46Y46*%
G04 Gerber Fmt 4.6, Leading zero omitted, Abs format (unit mm)*
G04 Created by KiCad (PCBNEW 7.0.2) date 2023-09-16 14:44:34*
%MOMM*%
%LPD*%
G01*
G04 APERTURE LIST*
G04 Aperture macros list*
%AMRoundRect*
0 Rectangle with rounded corners*
0 $1 Rounding radius*
0 $2 $3 $4 $5 $6 $7 $8 $9 X,Y pos of 4 corners*
0 Add a 4 corners polygon primitive as box body*
4,1,4,$2,$3,$4,$5,$6,$7,$8,$9,$2,$3,0*
0 Add four circle primitives for the rounded corners*
1,1,$1+$1,$2,$3*
1,1,$1+$1,$4,$5*
1,1,$1+$1,$6,$7*
1,1,$1+$1,$8,$9*
0 Add four rect primitives between the rounded corners*
20,1,$1+$1,$2,$3,$4,$5,0*
20,1,$1+$1,$4,$5,$6,$7,0*
20,1,$1+$1,$6,$7,$8,$9,0*
20,1,$1+$1,$8,$9,$2,$3,0*%
G04 Aperture macros list end*
%TA.AperFunction,ComponentPad*%
%ADD10C,2.500000*%
%TD*%
%TA.AperFunction,SMDPad,CuDef*%
%ADD11RoundRect,0.500000X-0.875000X-0.500000X0.875000X-0.500000X0.875000X0.500000X-0.875000X0.500000X0*%
%TD*%
%TA.AperFunction,ViaPad*%
%ADD12C,0.800000*%
%TD*%
%TA.AperFunction,Conductor*%
%ADD13C,0.250000*%
%TD*%
G04 APERTURE END LIST*
D10*
%TO.P,MX2,1,COL*%
%TO.N,MX2*%
X139065000Y-60325000D03*
%TO.P,MX2,2,ROW*%
%TO.N,GND*%
X145415000Y-57785000D03*
%TD*%
%TO.P,MX3,1,COL*%
%TO.N,MX3*%
X158115000Y-56515000D03*
%TO.P,MX3,2,ROW*%
%TO.N,GND*%
X164465000Y-53975000D03*
%TD*%
%TO.P,MX1,1,COL*%
%TO.N,MX1*%
X118110000Y-66040000D03*
%TO.P,MX1,2,ROW*%
%TO.N,GND*%
X124460000Y-63500000D03*
%TD*%
%TO.P,MX4,1,COL*%
%TO.N,MX4*%
X177165000Y-62230000D03*
%TO.P,MX4,2,ROW*%
%TO.N,GND*%
X183515000Y-59690000D03*
%TD*%
D11*
%TO.P,U1,1,PA02_A0_D0*%
%TO.N,MX1*%
X193847500Y-55150000D03*
%TO.P,U1,2,PA4_A1_D1*%
%TO.N,MX2*%
X193847500Y-57690000D03*
%TO.P,U1,3,PA10_A2_D2*%
%TO.N,MX3*%
X193847500Y-60230000D03*
%TO.P,U1,4,PA11_A3_D3*%
%TO.N,unconnected-(U1-PA11_A3_D3-Pad4)*%
X193847500Y-62770000D03*
%TO.P,U1,5,PA8_A4_D4_SDA*%
%TO.N,unconnected-(U1-PA8_A4_D4_SDA-Pad5)*%
X193847500Y-65310000D03*
%TO.P,U1,6,PA9_A5_D5_SCL*%
%TO.N,unconnected-(U1-PA9_A5_D5_SCL-Pad6)*%
X193847500Y-67850000D03*
%TO.P,U1,7,PB08_A6_D6_TX*%
%TO.N,MX4*%
X193847500Y-70390000D03*
%TO.P,U1,8,PB09_A7_D7_RX*%
%TO.N,MX5*%
X210012500Y-70390000D03*
%TO.P,U1,9,PA7_A8_D8_SCK*%
%TO.N,MX6*%
X210012500Y-67850000D03*
%TO.P,U1,10,PA5_A9_D9_MISO*%
%TO.N,MX7*%
X210012500Y-65310000D03*
%TO.P,U1,11,PA6_A10_D10_MOSI*%
%TO.N,MX8*%
X210012500Y-62770000D03*
%TO.P,U1,12,3V3*%
%TO.N,unconnected-(U1-3V3-Pad12)*%
X210012500Y-60230000D03*
%TO.P,U1,13,GND*%
%TO.N,GND*%
X210012500Y-57690000D03*
%TO.P,U1,14,5V*%
%TO.N,unconnected-(U1-5V-Pad14)*%
X210012500Y-55150000D03*
%TD*%
D10*
%TO.P,MX8,1,COL*%
%TO.N,MX8*%
X198120000Y-88900000D03*
%TO.P,MX8,2,ROW*%
%TO.N,GND*%
X204470000Y-86360000D03*
%TD*%
%TO.P,MX5,1,COL*%
%TO.N,MX5*%
X139065000Y-79375000D03*
%TO.P,MX5,2,ROW*%
%TO.N,GND*%
X145415000Y-76835000D03*
%TD*%
%TO.P,MX7,1,COL*%
%TO.N,MX7*%
X177165000Y-81280000D03*
%TO.P,MX7,2,ROW*%
%TO.N,GND*%
X183515000Y-78740000D03*
%TD*%
%TO.P,MX6,1,COL*%
%TO.N,MX6*%
X158115000Y-75565000D03*
%TO.P,MX6,2,ROW*%
%TO.N,GND*%
X164465000Y-73025000D03*
%TD*%
D12*
%TO.N,MX1*%
X171450000Y-55750500D03*
X171450000Y-57350000D03*
%TO.N,MX2*%
X189725000Y-57675000D03*
X170275000Y-60375000D03*
X172275000Y-60375000D03*
X191224500Y-57675000D03*
%TD*%
D13*
%TO.N,MX1*%
X193247000Y-55750500D02*
X193847500Y-55150000D01*
X171450000Y-55750500D02*
X193247000Y-55750500D01*
X119325000Y-66025000D02*
X168950000Y-66025000D01*
X119310000Y-66040000D02*
X119325000Y-66025000D01*
X171450000Y-63525000D02*
X171450000Y-57350000D01*
X118110000Y-66040000D02*
X119310000Y-66040000D01*
X168950000Y-66025000D02*
G75*
G03*
X171450000Y-63525000I0J2500000D01*
G01*
%TO.N,MX2*%
X139090000Y-60350000D02*
X139065000Y-60325000D01*
X178825000Y-57675000D02*
X173275000Y-57675000D01*
X172275000Y-60325000D02*
X172275000Y-60375000D01*
X170275000Y-60375000D02*
X165475000Y-60375000D01*
X158450000Y-60350000D02*
X139090000Y-60350000D01*
X164475000Y-61375000D02*
X164475000Y-61425000D01*
X193847500Y-57690000D02*
X192440000Y-57690000D01*
X172275000Y-58675000D02*
X172275000Y-60325000D01*
X192425000Y-57675000D02*
X191224500Y-57675000D01*
X192440000Y-57690000D02*
X192425000Y-57675000D01*
X163475000Y-62425000D02*
X160450000Y-62425000D01*
X189725000Y-57675000D02*
X178825000Y-57675000D01*
X159450000Y-61425000D02*
X159450000Y-61350000D01*
X173275000Y-57675000D02*
G75*
G03*
X172275000Y-58675000I0J-1000000D01*
G01*
X165475000Y-60375000D02*
G75*
G03*
X164475000Y-61375000I0J-1000000D01*
G01*
X159450000Y-61350000D02*
G75*
G03*
X158450000Y-60350000I-1000000J0D01*
G01*
X159450000Y-61425000D02*
G75*
G03*
X160450000Y-62425000I1000000J0D01*
G01*
X163475000Y-62425000D02*
G75*
G03*
X164475000Y-61425000I0J1000000D01*
G01*
%TO.N,MX3*%
X189500000Y-56475000D02*
X158155000Y-56475000D01*
X193847500Y-60230000D02*
X192380000Y-60230000D01*
X192380000Y-60230000D02*
X192375000Y-60225000D01*
X158155000Y-56475000D02*
X158115000Y-56515000D01*
X190500000Y-59225000D02*
X190500000Y-57475000D01*
X192375000Y-60225000D02*
X191500000Y-60225000D01*
X190500000Y-57475000D02*
G75*
G03*
X189500000Y-56475000I-1000000J0D01*
G01*
X190500000Y-59225000D02*
G75*
G03*
X191500000Y-60225000I1000000J0D01*
G01*
%TO.N,MX4*%
X179025000Y-62235000D02*
X179020000Y-62230000D01*
X189500000Y-67875000D02*
X189500000Y-64735000D01*
X179020000Y-62230000D02*
X177165000Y-62230000D01*
X187000000Y-62235000D02*
X179025000Y-62235000D01*
X192475000Y-70375000D02*
X192000000Y-70375000D01*
X192490000Y-70390000D02*
X192475000Y-70375000D01*
X193847500Y-70390000D02*
X192490000Y-70390000D01*
X189500000Y-64735000D02*
G75*
G03*
X187000000Y-62235000I-2500000J0D01*
G01*
X189500000Y-67875000D02*
G75*
G03*
X192000000Y-70375000I2500000J0D01*
G01*
%TO.N,MX5*%
X152400000Y-80375000D02*
X152400000Y-82475000D01*
X205700000Y-73800000D02*
X205700000Y-72900000D01*
X153400000Y-83475000D02*
X168950000Y-83475000D01*
X171450000Y-80975000D02*
X171450000Y-78800000D01*
X173950000Y-76300000D02*
X203200000Y-76300000D01*
X210002500Y-70400000D02*
X210012500Y-70390000D01*
X208200000Y-70400000D02*
X210002500Y-70400000D01*
X139065000Y-79375000D02*
X151400000Y-79375000D01*
X168950000Y-83475000D02*
G75*
G03*
X171450000Y-80975000I0J2500000D01*
G01*
X152400000Y-80375000D02*
G75*
G03*
X151400000Y-79375000I-1000000J0D01*
G01*
X203200000Y-76300000D02*
G75*
G03*
X205700000Y-73800000I0J2500000D01*
G01*
X208200000Y-70400000D02*
G75*
G03*
X205700000Y-72900000I0J-2500000D01*
G01*
X152400000Y-82475000D02*
G75*
G03*
X153400000Y-83475000I1000000J0D01*
G01*
X173950000Y-76300000D02*
G75*
G03*
X171450000Y-78800000I0J-2500000D01*
G01*
%TO.N,MX6*%
X202400000Y-75565000D02*
X158115000Y-75565000D01*
X210012500Y-67850000D02*
X207400000Y-67850000D01*
X204900000Y-70350000D02*
X204900000Y-73065000D01*
X202400000Y-75565000D02*
G75*
G03*
X204900000Y-73065000I0J2500000D01*
G01*
X207400000Y-67850000D02*
G75*
G03*
X204900000Y-70350000I0J-2500000D01*
G01*
%TO.N,MX7*%
X177165000Y-81280000D02*
X177310000Y-81425000D01*
X177310000Y-81425000D02*
X209775000Y-81425000D01*
X211775000Y-65300000D02*
X211450000Y-65300000D01*
X211440000Y-65310000D02*
X210012500Y-65310000D01*
X211450000Y-65300000D02*
X211440000Y-65310000D01*
X177445000Y-81000000D02*
X177165000Y-81280000D01*
X212275000Y-78925000D02*
X212275000Y-65800000D01*
X212275000Y-65800000D02*
G75*
G03*
X211775000Y-65300000I-500000J0D01*
G01*
X209775000Y-81425000D02*
G75*
G03*
X212275000Y-78925000I0J2500000D01*
G01*
%TO.N,MX8*%
X210275000Y-81875000D02*
X200650000Y-81875000D01*
X210012500Y-62770000D02*
X211430000Y-62770000D01*
X211430000Y-62770000D02*
X211450000Y-62750000D01*
X211450000Y-62750000D02*
X211775000Y-62750000D01*
X198150000Y-84375000D02*
X198150000Y-88870000D01*
X212775000Y-63750000D02*
X212775000Y-79375000D01*
X198150000Y-88870000D02*
X198120000Y-88900000D01*
X210275000Y-81875000D02*
G75*
G03*
X212775000Y-79375000I0J2500000D01*
G01*
X212775000Y-63750000D02*
G75*
G03*
X211775000Y-62750000I-1000000J0D01*
G01*
X200650000Y-81875000D02*
G75*
G03*
X198150000Y-84375000I0J-2500000D01*
G01*
%TD*%
%TA.AperFunction,Conductor*%
%TO.N,GND*%
G36*
X169549418Y-49530316D02*
G01*
X169807270Y-49548757D01*
X169824771Y-49551274D01*
X170073039Y-49605281D01*
X170089998Y-49610260D01*
X170240965Y-49666568D01*
X170328059Y-49699053D01*
X170344152Y-49706403D01*
X170567138Y-49828162D01*
X170582021Y-49837727D01*
X170785410Y-49989982D01*
X170798781Y-50001568D01*
X170978431Y-50181218D01*
X170990017Y-50194589D01*
X171142272Y-50397978D01*
X171151837Y-50412861D01*
X171273596Y-50635847D01*
X171280946Y-50651940D01*
X171369736Y-50889993D01*
X171374720Y-50906969D01*
X171428724Y-51155222D01*
X171431242Y-51172734D01*
X171449684Y-51430581D01*
X171450000Y-51439426D01*
X171450000Y-54850000D01*
X171355352Y-54850000D01*
X171170197Y-54889355D01*
X170997269Y-54966348D01*
X170844129Y-55077610D01*
X170717466Y-55218283D01*
X170622820Y-55382215D01*
X170564326Y-55562242D01*
X170564325Y-55562244D01*
X170564326Y-55562244D01*
X170545805Y-55738463D01*
X170519222Y-55803076D01*
X170461924Y-55843061D01*
X170422485Y-55849500D01*
X165147838Y-55849500D01*
X165080799Y-55829815D01*
X165035044Y-55777011D01*
X165025100Y-55707853D01*
X165054125Y-55644297D01*
X165098939Y-55615063D01*
X165097767Y-55612629D01*
X165342456Y-55494792D01*
X165514167Y-55377720D01*
X164790946Y-54654498D01*
X164803891Y-54649787D01*
X164950373Y-54553445D01*
X165070688Y-54425918D01*
X165143447Y-54299893D01*
X165867124Y-55023571D01*
X165914972Y-54963572D01*
X166046117Y-54736423D01*
X166141940Y-54492270D01*
X166200306Y-54236552D01*
X166219907Y-53975000D01*
X166200306Y-53713447D01*
X166141940Y-53457729D01*
X166046117Y-53213575D01*
X165914972Y-52986426D01*
X165867125Y-52926427D01*
X165867124Y-52926427D01*
X165142195Y-53651355D01*
X165118941Y-53597447D01*
X165014244Y-53456815D01*
X164879938Y-53344118D01*
X164788333Y-53298112D01*
X165514167Y-52572278D01*
X165342451Y-52455205D01*
X165106139Y-52341403D01*
X164855503Y-52264091D01*
X164596144Y-52225000D01*
X164333856Y-52225000D01*
X164074496Y-52264091D01*
X163823860Y-52341403D01*
X163587545Y-52455206D01*
X163415832Y-52572278D01*
X164139055Y-53295501D01*
X164126109Y-53300213D01*
X163979627Y-53396555D01*
X163859312Y-53524082D01*
X163786552Y-53650105D01*
X163062873Y-52926427D01*
X163015028Y-52986424D01*
X162883882Y-53213576D01*
X162788059Y-53457729D01*
X162729693Y-53713447D01*
X162710092Y-53974999D01*
X162729693Y-54236552D01*
X162788059Y-54492270D01*
X162883882Y-54736424D01*
X163015027Y-54963573D01*
X163062873Y-55023571D01*
X163062874Y-55023571D01*
X163787803Y-54298641D01*
X163811059Y-54352553D01*
X163915756Y-54493185D01*
X164050062Y-54605882D01*
X164141665Y-54651886D01*
X163415831Y-55377720D01*
X163587546Y-55494793D01*
X163832233Y-55612629D01*
X163831016Y-55615154D01*
X163876973Y-55645582D01*
X163905129Y-55709528D01*
X163894244Y-55778544D01*
X163847773Y-55830720D01*
X163782162Y-55849500D01*
X159818843Y-55849500D01*
X159751804Y-55829815D01*
X159706049Y-55777011D01*
X159703414Y-55770800D01*
X159696568Y-55753356D01*
X159565386Y-55526143D01*
X159539423Y-55493587D01*
X159401805Y-55321019D01*
X159401801Y-55321015D01*
X159209485Y-55142571D01*
X159183713Y-55125000D01*
X158992704Y-54994772D01*
X158756323Y-54880937D01*
X158505615Y-54803604D01*
X158246182Y-54764500D01*
X157983818Y-54764500D01*
X157724385Y-54803604D01*
X157473677Y-54880937D01*
X157302084Y-54963572D01*
X157237296Y-54994772D01*
X157195056Y-55023571D01*
X157020514Y-55142571D01*
X156828198Y-55321015D01*
X156664613Y-55526143D01*
X156533431Y-55753358D01*
X156437580Y-55997581D01*
X156379197Y-56253372D01*
X156359591Y-56514999D01*
X156379197Y-56776627D01*
X156437580Y-57032418D01*
X156533431Y-57276641D01*
X156664613Y-57503856D01*
X156828197Y-57708983D01*
X156837569Y-57717679D01*
X156873325Y-57777706D01*
X156870950Y-57847536D01*
X156831200Y-57904996D01*
X156766695Y-57931845D01*
X156765017Y-57932016D01*
X156631031Y-57944811D01*
X156424792Y-58005368D01*
X156233742Y-58103861D01*
X156176263Y-58149063D01*
X156077927Y-58226396D01*
X156064782Y-58236733D01*
X155924022Y-58399177D01*
X155816552Y-58585321D01*
X155746249Y-58788445D01*
X155718647Y-58980432D01*
X155715661Y-59001203D01*
X155725888Y-59215903D01*
X155725888Y-59215904D01*
X155776564Y-59424794D01*
X155833282Y-59548989D01*
X155843226Y-59618147D01*
X155814201Y-59681703D01*
X155755423Y-59719477D01*
X155720488Y-59724500D01*
X145887113Y-59724500D01*
X145820074Y-59704815D01*
X145774319Y-59652011D01*
X145764375Y-59582853D01*
X145793400Y-59519297D01*
X145850563Y-59482009D01*
X146056139Y-59418596D01*
X146292456Y-59304792D01*
X146464167Y-59187720D01*
X145740946Y-58464498D01*
X145753891Y-58459787D01*
X145900373Y-58363445D01*
X146020688Y-58235918D01*
X146093447Y-58109894D01*
X146817124Y-58833571D01*
X146864972Y-58773572D01*
X146996117Y-58546423D01*
X147091940Y-58302270D01*
X147150306Y-58046552D01*
X147169907Y-57785000D01*
X147150306Y-57523447D01*
X147091940Y-57267729D01*
X146996117Y-57023575D01*
X146864972Y-56796426D01*
X146817125Y-56736427D01*
X146092195Y-57461357D01*
X146068941Y-57407447D01*
X145964244Y-57266815D01*
X145829938Y-57154118D01*
X145738332Y-57108112D01*
X146464167Y-56382278D01*
X146292451Y-56265205D01*
X146056139Y-56151403D01*
X145805503Y-56074091D01*
X145546144Y-56035000D01*
X145283856Y-56035000D01*
X145024496Y-56074091D01*
X144773860Y-56151403D01*
X144537545Y-56265206D01*
X144365831Y-56382278D01*
X145089053Y-57105501D01*
X145076109Y-57110213D01*
X144929627Y-57206555D01*
X144809312Y-57334082D01*
X144736552Y-57460105D01*
X144012874Y-56736428D01*
X143965026Y-56796428D01*
X143833882Y-57023576D01*
X143738059Y-57267729D01*
X143679693Y-57523447D01*
X143660092Y-57784999D01*
X143679693Y-58046552D01*
X143738059Y-58302270D01*
X143833882Y-58546424D01*
X143965027Y-58773573D01*
X144012873Y-58833571D01*
X144737803Y-58108641D01*
X144761059Y-58162553D01*
X144865756Y-58303185D01*
X145000062Y-58415882D01*
X145091665Y-58461886D01*
X144365831Y-59187720D01*
X144537546Y-59304793D01*
X144773860Y-59418596D01*
X144979437Y-59482009D01*
X145037696Y-59520579D01*
X145065854Y-59584524D01*
X145054970Y-59653541D01*
X145008502Y-59705718D01*
X144942887Y-59724500D01*
X140794353Y-59724500D01*
X140727314Y-59704815D01*
X140681559Y-59652011D01*
X140678925Y-59645802D01*
X140668920Y-59620310D01*
X140646568Y-59563357D01*
X140515386Y-59336143D01*
X140351805Y-59131019D01*
X140351801Y-59131015D01*
X140159485Y-58952571D01*
X140084004Y-58901109D01*
X139942704Y-58804772D01*
X139706323Y-58690937D01*
X139455615Y-58613604D01*
X139196182Y-58574500D01*
X138933818Y-58574500D01*
X138674385Y-58613604D01*
X138423677Y-58690937D01*
X138252084Y-58773572D01*
X138187296Y-58804772D01*
X138157407Y-58825150D01*
X137970514Y-58952571D01*
X137778198Y-59131015D01*
X137614613Y-59336143D01*
X137483431Y-59563358D01*
X137387580Y-59807581D01*
X137329197Y-60063372D01*
X137309591Y-60324999D01*
X137329197Y-60586627D01*
X137387580Y-60842418D01*
X137473215Y-61060611D01*
X137483432Y-61086643D01*
X137504503Y-61123139D01*
X137614613Y-61313856D01*
X137629450Y-61332461D01*
X137763058Y-61500000D01*
X137778197Y-61518983D01*
X137787569Y-61527679D01*
X137823325Y-61587706D01*
X137820950Y-61657536D01*
X137781200Y-61714996D01*
X137716695Y-61741845D01*
X137715017Y-61742016D01*
X137581031Y-61754811D01*
X137374792Y-61815368D01*
X137183742Y-61913861D01*
X137126263Y-61959063D01*
X137027927Y-62036396D01*
X137014782Y-62046733D01*
X136874022Y-62209177D01*
X136766552Y-62395321D01*
X136696249Y-62598445D01*
X136668647Y-62790432D01*
X136665661Y-62811203D01*
X136675888Y-63025904D01*
X136718600Y-63201968D01*
X136726564Y-63234794D01*
X136815852Y-63430309D01*
X136891920Y-63537130D01*
X136940534Y-63605399D01*
X137096097Y-63753727D01*
X137164598Y-63797750D01*
X137276917Y-63869934D01*
X137295949Y-63877553D01*
X137476468Y-63949822D01*
X137687528Y-63990500D01*
X137845664Y-63990500D01*
X137848618Y-63990500D01*
X137851569Y-63990218D01*
X137851573Y-63990218D01*
X137931873Y-63982550D01*
X138008971Y-63975188D01*
X138215209Y-63914631D01*
X138406259Y-63816138D01*
X138575217Y-63683268D01*
X138715976Y-63520824D01*
X138823448Y-63334677D01*
X138893750Y-63131554D01*
X138924339Y-62918797D01*
X138914112Y-62704096D01*
X138863437Y-62495210D01*
X138863435Y-62495205D01*
X138774148Y-62299693D01*
X138745664Y-62259693D01*
X138722811Y-62193666D01*
X138739284Y-62125766D01*
X138789850Y-62077550D01*
X138858457Y-62064326D01*
X138865145Y-62065149D01*
X138933818Y-62075500D01*
X139196182Y-62075500D01*
X139455615Y-62036396D01*
X139706323Y-61959063D01*
X139942704Y-61845228D01*
X140159479Y-61697433D01*
X140159482Y-61697429D01*
X140159485Y-61697428D01*
X140261283Y-61602973D01*
X140351805Y-61518981D01*
X140515386Y-61313857D01*
X140646568Y-61086643D01*
X140659301Y-61054198D01*
X140702116Y-60998985D01*
X140767986Y-60975684D01*
X140774730Y-60975500D01*
X141287139Y-60975500D01*
X141354178Y-60995185D01*
X141399933Y-61047989D01*
X141409877Y-61117147D01*
X141380852Y-61180703D01*
X141370316Y-61191465D01*
X141256741Y-61294187D01*
X141256735Y-61294192D01*
X141253667Y-61296968D01*
X141250998Y-61300123D01*
X141250991Y-61300132D01*
X141061810Y-61523896D01*
X141061804Y-61523903D01*
X141059135Y-61527061D01*
X141056912Y-61530542D01*
X141056904Y-61530554D01*
X140899233Y-61777542D01*
X140899229Y-61777549D01*
X140897007Y-61781030D01*
X140895267Y-61784779D01*
X140895264Y-61784785D01*
X140771922Y-62050580D01*
X140771918Y-62050589D01*
X140770177Y-62054342D01*
X140768951Y-62058291D01*
X140768949Y-62058299D01*
X140720431Y-62214707D01*
X140680907Y-62342121D01*
X140680218Y-62346199D01*
X140680218Y-62346204D01*
X140637670Y-62598446D01*
X140630791Y-62639230D01*
X140630653Y-62643353D01*
X140630652Y-62643365D01*
X140620861Y-62936222D01*
X140620861Y-62936231D01*
X140620723Y-62940369D01*
X140621137Y-62944490D01*
X140621138Y-62944501D01*
X140650466Y-63236034D01*
X140650467Y-63236044D01*
X140650882Y-63240162D01*
X140651842Y-63244193D01*
X140651843Y-63244195D01*
X140719729Y-63529059D01*
X140720731Y-63533261D01*
X140722220Y-63537128D01*
X140722221Y-63537130D01*
X140741723Y-63587766D01*
X140829023Y-63814434D01*
X140831007Y-63818055D01*
X140831013Y-63818067D01*
X140946937Y-64029601D01*
X140973825Y-64078665D01*
X140976281Y-64081998D01*
X140976284Y-64082003D01*
X141104921Y-64256590D01*
X141152554Y-64321238D01*
X141362020Y-64537824D01*
X141503529Y-64649572D01*
X141595230Y-64721988D01*
X141595234Y-64721990D01*
X141598485Y-64724558D01*
X141602049Y-64726669D01*
X141602052Y-64726671D01*
X141731465Y-64803322D01*
X141857730Y-64878109D01*
X141861534Y-64879722D01*
X141861538Y-64879724D01*
X141966578Y-64924264D01*
X142135128Y-64995736D01*
X142425729Y-65075340D01*
X142724347Y-65115500D01*
X142728488Y-65115500D01*
X142948162Y-65115500D01*
X142950244Y-65115500D01*
X143175634Y-65100412D01*
X143470903Y-65040396D01*
X143755537Y-64941560D01*
X144024459Y-64805668D01*
X144272869Y-64635144D01*
X144496333Y-64433032D01*
X144690865Y-64202939D01*
X144852993Y-63948970D01*
X144979823Y-63675658D01*
X145069093Y-63387879D01*
X145119209Y-63090770D01*
X145128556Y-62811203D01*
X146825661Y-62811203D01*
X146835888Y-63025904D01*
X146878600Y-63201968D01*
X146886564Y-63234794D01*
X146975852Y-63430309D01*
X147051920Y-63537130D01*
X147100534Y-63605399D01*
X147256097Y-63753727D01*
X147324598Y-63797750D01*
X147436917Y-63869934D01*
X147455949Y-63877553D01*
X147636468Y-63949822D01*
X147847528Y-63990500D01*
X148005664Y-63990500D01*
X148008618Y-63990500D01*
X148011569Y-63990218D01*
X148011573Y-63990218D01*
X148091873Y-63982550D01*
X148168971Y-63975188D01*
X148375209Y-63914631D01*
X148566259Y-63816138D01*
X148735217Y-63683268D01*
X148875976Y-63520824D01*
X148983448Y-63334677D01*
X149053750Y-63131554D01*
X149084339Y-62918797D01*
X149074112Y-62704096D01*
X149023437Y-62495210D01*
X149023435Y-62495205D01*
X148934147Y-62299690D01*
X148832958Y-62157591D01*
X148809466Y-62124601D01*
X148653903Y-61976273D01*
X148607323Y-61946338D01*
X148473082Y-61860065D01*
X148313574Y-61796208D01*
X148273532Y-61780178D01*
X148273531Y-61780177D01*
X148273529Y-61780177D01*
X148062472Y-61739500D01*
X147901382Y-61739500D01*
X147898452Y-61739779D01*
X147898426Y-61739781D01*
X147741031Y-61754811D01*
X147534792Y-61815368D01*
X147343742Y-61913861D01*
X147286263Y-61959063D01*
X147187927Y-62036396D01*
X147174782Y-62046733D01*
X147034022Y-62209177D01*
X146926552Y-62395321D01*
X146856249Y-62598445D01*
X146828647Y-62790432D01*
X146825661Y-62811203D01*
X145128556Y-62811203D01*
X145129277Y-62789631D01*
X145099118Y-62489838D01*
X145029269Y-62196739D01*
X144920977Y-61915566D01*
X144776175Y-61651335D01*
X144741261Y-61603950D01*
X144599906Y-61412101D01*
X144597446Y-61408762D01*
X144387980Y-61192176D01*
X144386501Y-61191008D01*
X144350265Y-61131899D01*
X144351750Y-61062045D01*
X144390765Y-61004083D01*
X144454923Y-60976415D01*
X144469958Y-60975500D01*
X158374051Y-60975500D01*
X158441874Y-60975500D01*
X158458058Y-60976560D01*
X158530744Y-60986130D01*
X158562009Y-60994507D01*
X158607284Y-61013261D01*
X158622166Y-61019425D01*
X158650201Y-61035611D01*
X158666198Y-61047886D01*
X158692552Y-61068109D01*
X158701860Y-61075251D01*
X158724748Y-61098139D01*
X158764388Y-61149798D01*
X158780574Y-61177833D01*
X158805491Y-61237989D01*
X158813869Y-61269254D01*
X158823439Y-61341939D01*
X158824500Y-61358126D01*
X158824500Y-61425000D01*
X158824500Y-61541258D01*
X158832923Y-61599840D01*
X158857591Y-61771408D01*
X158923097Y-61994504D01*
X159017296Y-62200770D01*
X159019689Y-62206009D01*
X159075496Y-62292848D01*
X159141351Y-62395321D01*
X159145396Y-62401614D01*
X159297662Y-62577338D01*
X159473386Y-62729604D01*
X159668991Y-62855311D01*
X159880495Y-62951902D01*
X160103593Y-63017409D01*
X160333742Y-63050500D01*
X160333743Y-63050500D01*
X163591257Y-63050500D01*
X163591258Y-63050500D01*
X163821407Y-63017409D01*
X164044505Y-62951902D01*
X164256009Y-62855311D01*
X164451614Y-62729604D01*
X164627338Y-62577338D01*
X164779604Y-62401614D01*
X164905311Y-62206009D01*
X165001902Y-61994505D01*
X165067409Y-61771407D01*
X165100500Y-61541258D01*
X165100500Y-61425000D01*
X165100500Y-61383126D01*
X165101561Y-61366941D01*
X165111130Y-61294253D01*
X165119508Y-61262989D01*
X165144426Y-61202829D01*
X165160609Y-61174801D01*
X165200254Y-61123135D01*
X165223135Y-61100254D01*
X165274801Y-61060609D01*
X165302829Y-61044426D01*
X165362992Y-61019507D01*
X165394253Y-61011130D01*
X165466941Y-61001560D01*
X165483126Y-61000500D01*
X165550949Y-61000500D01*
X169571253Y-61000500D01*
X169638292Y-61020185D01*
X169663400Y-61041526D01*
X169669129Y-61047888D01*
X169822270Y-61159151D01*
X169822271Y-61159151D01*
X169822272Y-61159152D01*
X169995197Y-61236144D01*
X170180352Y-61275500D01*
X170180354Y-61275500D01*
X170369648Y-61275500D01*
X170554800Y-61236145D01*
X170554801Y-61236144D01*
X170554803Y-61236144D01*
X170650066Y-61193729D01*
X170719313Y-61184444D01*
X170782590Y-61214072D01*
X170819804Y-61273207D01*
X170824500Y-61307009D01*
X170824500Y-63520948D01*
X170824234Y-63529059D01*
X170808994Y-63761561D01*
X170806877Y-63777641D01*
X170762213Y-64002182D01*
X170758015Y-64017849D01*
X170684424Y-64234643D01*
X170678217Y-64249629D01*
X170576959Y-64454960D01*
X170568849Y-64469007D01*
X170441656Y-64659365D01*
X170431782Y-64672233D01*
X170280830Y-64844361D01*
X170269361Y-64855830D01*
X170097233Y-65006782D01*
X170084365Y-65016656D01*
X169894007Y-65143849D01*
X169879960Y-65151959D01*
X169674629Y-65253217D01*
X169659643Y-65259424D01*
X169442849Y-65333015D01*
X169427182Y-65337213D01*
X169202641Y-65381877D01*
X169186561Y-65383994D01*
X168972014Y-65398057D01*
X168954057Y-65399234D01*
X168945948Y-65399500D01*
X125061790Y-65399500D01*
X124994751Y-65379815D01*
X124948996Y-65327011D01*
X124939052Y-65257853D01*
X124968077Y-65194297D01*
X125025240Y-65157009D01*
X125101139Y-65133596D01*
X125337456Y-65019792D01*
X125509167Y-64902720D01*
X124785946Y-64179498D01*
X124798891Y-64174787D01*
X124945373Y-64078445D01*
X125065688Y-63950918D01*
X125138447Y-63824894D01*
X125862124Y-64548571D01*
X125909972Y-64488572D01*
X126041117Y-64261423D01*
X126136940Y-64017270D01*
X126195306Y-63761552D01*
X126214907Y-63500000D01*
X126195306Y-63238447D01*
X126136940Y-62982729D01*
X126041117Y-62738575D01*
X125909972Y-62511426D01*
X125862125Y-62451427D01*
X125137195Y-63176356D01*
X125113941Y-63122447D01*
X125009244Y-62981815D01*
X124874938Y-62869118D01*
X124783333Y-62823112D01*
X125509167Y-62097278D01*
X125337451Y-61980205D01*
X125101139Y-61866403D01*
X124850503Y-61789091D01*
X124591144Y-61750000D01*
X124328856Y-61750000D01*
X124069496Y-61789091D01*
X123818860Y-61866403D01*
X123582545Y-61980206D01*
X123410832Y-62097278D01*
X124134055Y-62820501D01*
X124121109Y-62825213D01*
X123974627Y-62921555D01*
X123854312Y-63049082D01*
X123781552Y-63175105D01*
X123057873Y-62451427D01*
X123010028Y-62511424D01*
X122878882Y-62738576D01*
X122783059Y-62982729D01*
X122724693Y-63238447D01*
X122705092Y-63500000D01*
X122724693Y-63761552D01*
X122783059Y-64017270D01*
X122878882Y-64261424D01*
X123010027Y-64488573D01*
X123057873Y-64548571D01*
X123057874Y-64548571D01*
X123782803Y-63823641D01*
X123806059Y-63877553D01*
X123910756Y-64018185D01*
X124045062Y-64130882D01*
X124136665Y-64176886D01*
X123410831Y-64902720D01*
X123582546Y-65019793D01*
X123818860Y-65133596D01*
X123894760Y-65157009D01*
X123953019Y-65195579D01*
X123981177Y-65259524D01*
X123970293Y-65328541D01*
X123923824Y-65380718D01*
X123858210Y-65399500D01*
X119823654Y-65399500D01*
X119756615Y-65379815D01*
X119710860Y-65327011D01*
X119708243Y-65320845D01*
X119691568Y-65278357D01*
X119560386Y-65051143D01*
X119396805Y-64846019D01*
X119396801Y-64846015D01*
X119204485Y-64667571D01*
X119178085Y-64649572D01*
X118987704Y-64519772D01*
X118751323Y-64405937D01*
X118500615Y-64328604D01*
X118241182Y-64289500D01*
X117978818Y-64289500D01*
X117719385Y-64328604D01*
X117468677Y-64405937D01*
X117276597Y-64498438D01*
X117232296Y-64519772D01*
X117205819Y-64537824D01*
X117015514Y-64667571D01*
X116823198Y-64846015D01*
X116659613Y-65051143D01*
X116528431Y-65278358D01*
X116432580Y-65522581D01*
X116374197Y-65778372D01*
X116354591Y-66039999D01*
X116374197Y-66301627D01*
X116432580Y-66557418D01*
X116528431Y-66801641D01*
X116651689Y-67015132D01*
X116659614Y-67028857D01*
X116815634Y-67224500D01*
X116823197Y-67233983D01*
X116832569Y-67242679D01*
X116868325Y-67302706D01*
X116865950Y-67372536D01*
X116826200Y-67429996D01*
X116761695Y-67456845D01*
X116760017Y-67457016D01*
X116626031Y-67469811D01*
X116419792Y-67530368D01*
X116228742Y-67628861D01*
X116171263Y-67674063D01*
X116072927Y-67751396D01*
X116059782Y-67761733D01*
X115919022Y-67924177D01*
X115811552Y-68110321D01*
X115741249Y-68313445D01*
X115713166Y-68508777D01*
X115710661Y-68526203D01*
X115718076Y-68681877D01*
X115720888Y-68740904D01*
X115771564Y-68949794D01*
X115860852Y-69145309D01*
X115936920Y-69252130D01*
X115985534Y-69320399D01*
X116141097Y-69468727D01*
X116180188Y-69493849D01*
X116321917Y-69584934D01*
X116361962Y-69600965D01*
X116521468Y-69664822D01*
X116732528Y-69705500D01*
X116890664Y-69705500D01*
X116893618Y-69705500D01*
X116896569Y-69705218D01*
X116896573Y-69705218D01*
X116955398Y-69699600D01*
X117053971Y-69690188D01*
X117260209Y-69629631D01*
X117451259Y-69531138D01*
X117620217Y-69398268D01*
X117760976Y-69235824D01*
X117868448Y-69049677D01*
X117938750Y-68846554D01*
X117969339Y-68633797D01*
X117959112Y-68419096D01*
X117908437Y-68210210D01*
X117908435Y-68210205D01*
X117819148Y-68014693D01*
X117790664Y-67974693D01*
X117767811Y-67908666D01*
X117784284Y-67840766D01*
X117834850Y-67792550D01*
X117903457Y-67779326D01*
X117910145Y-67780149D01*
X117978818Y-67790500D01*
X118241182Y-67790500D01*
X118500615Y-67751396D01*
X118751323Y-67674063D01*
X118987704Y-67560228D01*
X119204479Y-67412433D01*
X119204482Y-67412429D01*
X119204485Y-67412428D01*
X119322737Y-67302706D01*
X119396805Y-67233981D01*
X119560386Y-67028857D01*
X119691568Y-66801643D01*
X119720001Y-66729194D01*
X119762815Y-66673984D01*
X119828685Y-66650683D01*
X119835428Y-66650500D01*
X120376365Y-66650500D01*
X120443404Y-66670185D01*
X120489159Y-66722989D01*
X120499103Y-66792147D01*
X120470078Y-66855703D01*
X120459545Y-66866461D01*
X120417371Y-66904606D01*
X120301741Y-67009187D01*
X120301735Y-67009192D01*
X120298667Y-67011968D01*
X120295998Y-67015123D01*
X120295991Y-67015132D01*
X120106810Y-67238896D01*
X120106804Y-67238903D01*
X120104135Y-67242061D01*
X120101912Y-67245542D01*
X120101904Y-67245554D01*
X119944233Y-67492542D01*
X119944229Y-67492549D01*
X119942007Y-67496030D01*
X119940267Y-67499779D01*
X119940264Y-67499785D01*
X119816922Y-67765580D01*
X119816918Y-67765589D01*
X119815177Y-67769342D01*
X119813951Y-67773291D01*
X119813949Y-67773299D01*
X119731590Y-68038801D01*
X119725907Y-68057121D01*
X119725218Y-68061199D01*
X119725218Y-68061204D01*
X119682670Y-68313446D01*
X119675791Y-68354230D01*
X119675653Y-68358353D01*
X119675652Y-68358365D01*
X119665861Y-68651222D01*
X119665861Y-68651231D01*
X119665723Y-68655369D01*
X119666137Y-68659490D01*
X119666138Y-68659501D01*
X119695466Y-68951034D01*
X119695467Y-68951044D01*
X119695882Y-68955162D01*
X119696842Y-68959193D01*
X119696843Y-68959195D01*
X119741196Y-69145310D01*
X119765731Y-69248261D01*
X119767220Y-69252128D01*
X119767221Y-69252130D01*
X119809591Y-69362141D01*
X119874023Y-69529434D01*
X119876007Y-69533055D01*
X119876013Y-69533067D01*
X119986125Y-69733995D01*
X120018825Y-69793665D01*
X120021281Y-69796998D01*
X120021284Y-69797003D01*
X120112722Y-69921103D01*
X120197554Y-70036238D01*
X120407020Y-70252824D01*
X120476008Y-70307303D01*
X120640230Y-70436988D01*
X120640234Y-70436990D01*
X120643485Y-70439558D01*
X120902730Y-70593109D01*
X120906534Y-70594722D01*
X120906538Y-70594724D01*
X121011578Y-70639264D01*
X121180128Y-70710736D01*
X121470729Y-70790340D01*
X121769347Y-70830500D01*
X121773488Y-70830500D01*
X121993162Y-70830500D01*
X121995244Y-70830500D01*
X122220634Y-70815412D01*
X122515903Y-70755396D01*
X122800537Y-70656560D01*
X123069459Y-70520668D01*
X123317869Y-70350144D01*
X123541333Y-70148032D01*
X123735865Y-69917939D01*
X123897993Y-69663970D01*
X124024823Y-69390658D01*
X124114093Y-69102879D01*
X124164209Y-68805770D01*
X124173556Y-68526203D01*
X125870661Y-68526203D01*
X125878076Y-68681877D01*
X125880888Y-68740904D01*
X125931564Y-68949794D01*
X126020852Y-69145309D01*
X126096920Y-69252130D01*
X126145534Y-69320399D01*
X126301097Y-69468727D01*
X126340188Y-69493849D01*
X126481917Y-69584934D01*
X126521962Y-69600965D01*
X126681468Y-69664822D01*
X126892528Y-69705500D01*
X127050664Y-69705500D01*
X127053618Y-69705500D01*
X127056569Y-69705218D01*
X127056573Y-69705218D01*
X127115398Y-69699600D01*
X127213971Y-69690188D01*
X127420209Y-69629631D01*
X127611259Y-69531138D01*
X127780217Y-69398268D01*
X127920976Y-69235824D01*
X128028448Y-69049677D01*
X128098750Y-68846554D01*
X128129339Y-68633797D01*
X128119112Y-68419096D01*
X128068437Y-68210210D01*
X128068435Y-68210205D01*
X127979147Y-68014690D01*
X127879673Y-67875000D01*
X127854466Y-67839601D01*
X127698903Y-67691273D01*
X127666053Y-67670161D01*
X127518082Y-67575065D01*
X127358574Y-67511208D01*
X127318532Y-67495178D01*
X127318531Y-67495177D01*
X127318529Y-67495177D01*
X127107472Y-67454500D01*
X126946382Y-67454500D01*
X126943452Y-67454779D01*
X126943426Y-67454781D01*
X126786031Y-67469811D01*
X126579792Y-67530368D01*
X126388742Y-67628861D01*
X126331263Y-67674063D01*
X126232927Y-67751396D01*
X126219782Y-67761733D01*
X126079022Y-67924177D01*
X125971552Y-68110321D01*
X125901249Y-68313445D01*
X125873166Y-68508777D01*
X125870661Y-68526203D01*
X124173556Y-68526203D01*
X124174277Y-68504631D01*
X124144118Y-68204838D01*
X124074269Y-67911739D01*
X123965977Y-67630566D01*
X123821175Y-67366335D01*
X123642446Y-67123762D01*
X123432980Y-66907176D01*
X123426210Y-66901830D01*
X123388202Y-66871815D01*
X123347789Y-66814819D01*
X123344606Y-66745022D01*
X123379663Y-66684584D01*
X123441831Y-66652694D01*
X123465051Y-66650500D01*
X169110559Y-66650500D01*
X169113801Y-66650500D01*
X169439607Y-66616256D01*
X169760049Y-66548144D01*
X170071616Y-66446910D01*
X170370894Y-66313662D01*
X170654605Y-66149862D01*
X170919640Y-65957303D01*
X171163095Y-65738095D01*
X171382303Y-65494640D01*
X171574862Y-65229605D01*
X171738662Y-64945894D01*
X171871910Y-64646616D01*
X171973144Y-64335049D01*
X172041256Y-64014607D01*
X172075500Y-63688801D01*
X172075500Y-63525000D01*
X172075500Y-63449051D01*
X172075500Y-61399500D01*
X172095185Y-61332461D01*
X172147989Y-61286706D01*
X172199500Y-61275500D01*
X172369648Y-61275500D01*
X172531284Y-61241143D01*
X172554803Y-61236144D01*
X172727730Y-61159151D01*
X172768280Y-61129690D01*
X172880870Y-61047889D01*
X172886598Y-61041528D01*
X173007533Y-60907216D01*
X173102179Y-60743284D01*
X173160674Y-60563256D01*
X173180460Y-60375000D01*
X173160674Y-60186744D01*
X173102179Y-60006716D01*
X173102179Y-60006715D01*
X173007533Y-59842783D01*
X172932350Y-59759284D01*
X172902120Y-59696293D01*
X172900500Y-59676312D01*
X172900500Y-58683126D01*
X172901561Y-58666941D01*
X172911130Y-58594256D01*
X172919508Y-58562989D01*
X172919885Y-58562079D01*
X172944426Y-58502829D01*
X172960609Y-58474801D01*
X173000254Y-58423135D01*
X173023135Y-58400254D01*
X173074801Y-58360609D01*
X173102829Y-58344426D01*
X173162992Y-58319507D01*
X173194253Y-58311130D01*
X173266941Y-58301560D01*
X173283126Y-58300500D01*
X173350949Y-58300500D01*
X178745981Y-58300500D01*
X182427692Y-58300500D01*
X182494731Y-58320185D01*
X182515373Y-58336819D01*
X183189055Y-59010501D01*
X183176109Y-59015213D01*
X183029627Y-59111555D01*
X182909312Y-59239082D01*
X182836552Y-59365106D01*
X182112873Y-58641427D01*
X182065028Y-58701424D01*
X181933882Y-58928576D01*
X181838059Y-59172729D01*
X181779693Y-59428447D01*
X181760092Y-59690000D01*
X181779693Y-59951552D01*
X181838059Y-60207270D01*
X181933882Y-60451424D01*
X182065027Y-60678573D01*
X182112873Y-60738571D01*
X182112874Y-60738571D01*
X182837803Y-60013641D01*
X182861059Y-60067553D01*
X182965756Y-60208185D01*
X183100062Y-60320882D01*
X183191663Y-60366886D01*
X182465831Y-61092720D01*
X182637546Y-61209793D01*
X182873860Y-61323596D01*
X183014599Y-61367009D01*
X183072858Y-61405579D01*
X183101015Y-61469524D01*
X183090132Y-61538541D01*
X183043664Y-61590717D01*
X182978049Y-61609500D01*
X179134157Y-61609500D01*
X179103319Y-61605604D01*
X179099019Y-61604500D01*
X179099018Y-61604500D01*
X179078984Y-61604500D01*
X179059586Y-61602973D01*
X179052162Y-61601797D01*
X179039805Y-61599840D01*
X179039804Y-61599840D01*
X179006751Y-61602964D01*
X178996325Y-61603950D01*
X178984656Y-61604500D01*
X178884541Y-61604500D01*
X178817502Y-61584815D01*
X178771747Y-61532011D01*
X178769130Y-61525846D01*
X178746568Y-61468357D01*
X178615386Y-61241143D01*
X178451805Y-61036019D01*
X178451801Y-61036015D01*
X178259485Y-60857571D01*
X178200578Y-60817409D01*
X178042704Y-60709772D01*
X177806323Y-60595937D01*
X177555615Y-60518604D01*
X177296182Y-60479500D01*
X177033818Y-60479500D01*
X176774385Y-60518604D01*
X176523677Y-60595937D01*
X176400386Y-60655311D01*
X176287296Y-60709772D01*
X176260819Y-60727824D01*
X176070514Y-60857571D01*
X175878198Y-61036015D01*
X175714613Y-61241143D01*
X175583431Y-61468358D01*
X175487580Y-61712581D01*
X175429197Y-61968372D01*
X175409591Y-62230000D01*
X175429197Y-62491627D01*
X175487580Y-62747418D01*
X175583431Y-62991641D01*
X175583432Y-62991643D01*
X175616594Y-63049082D01*
X175714613Y-63218856D01*
X175731604Y-63240162D01*
X175862395Y-63404169D01*
X175878197Y-63423983D01*
X175887569Y-63432679D01*
X175923325Y-63492706D01*
X175920950Y-63562536D01*
X175881200Y-63619996D01*
X175816695Y-63646845D01*
X175815017Y-63647016D01*
X175681031Y-63659811D01*
X175474792Y-63720368D01*
X175283742Y-63818861D01*
X175226263Y-63864063D01*
X175123072Y-63945214D01*
X175114782Y-63951733D01*
X174974022Y-64114177D01*
X174866552Y-64300321D01*
X174796249Y-64503445D01*
X174768616Y-64695650D01*
X174765661Y-64716203D01*
X174775888Y-64930904D01*
X174826564Y-65139794D01*
X174915852Y-65335309D01*
X174991920Y-65442130D01*
X175040534Y-65510399D01*
X175196097Y-65658727D01*
X175270083Y-65706275D01*
X175376917Y-65774934D01*
X175385500Y-65778370D01*
X175576468Y-65854822D01*
X175787528Y-65895500D01*
X175945664Y-65895500D01*
X175948618Y-65895500D01*
X175951569Y-65895218D01*
X175951573Y-65895218D01*
X176010398Y-65889600D01*
X176108971Y-65880188D01*
X176315209Y-65819631D01*
X176506259Y-65721138D01*
X176675217Y-65588268D01*
X176815976Y-65425824D01*
X176923448Y-65239677D01*
X176993750Y-65036554D01*
X177024339Y-64823797D01*
X177014112Y-64609096D01*
X176963437Y-64400210D01*
X176963435Y-64400205D01*
X176874148Y-64204693D01*
X176845664Y-64164693D01*
X176822811Y-64098666D01*
X176839284Y-64030766D01*
X176889850Y-63982550D01*
X176958457Y-63969326D01*
X176965145Y-63970149D01*
X177033818Y-63980500D01*
X177296182Y-63980500D01*
X177555615Y-63941396D01*
X177806323Y-63864063D01*
X178042704Y-63750228D01*
X178259479Y-63602433D01*
X178259482Y-63602429D01*
X178259485Y-63602428D01*
X178417195Y-63456094D01*
X178451805Y-63423981D01*
X178615386Y-63218857D01*
X178746568Y-62991643D01*
X178769114Y-62934194D01*
X178811928Y-62878984D01*
X178877798Y-62855683D01*
X178884541Y-62855500D01*
X178910843Y-62855500D01*
X178941680Y-62859395D01*
X178945981Y-62860500D01*
X178966016Y-62860500D01*
X178985413Y-62862026D01*
X179005196Y-62865160D01*
X179048674Y-62861050D01*
X179060344Y-62860500D01*
X179409252Y-62860500D01*
X179476291Y-62880185D01*
X179522046Y-62932989D01*
X179531990Y-63002147D01*
X179502965Y-63065703D01*
X179492431Y-63076462D01*
X179472370Y-63094607D01*
X179356741Y-63199187D01*
X179356735Y-63199192D01*
X179353667Y-63201968D01*
X179350998Y-63205123D01*
X179350991Y-63205132D01*
X179161810Y-63428896D01*
X179161804Y-63428903D01*
X179159135Y-63432061D01*
X179156912Y-63435542D01*
X179156904Y-63435554D01*
X178999233Y-63682542D01*
X178999229Y-63682549D01*
X178997007Y-63686030D01*
X178995267Y-63689779D01*
X178995264Y-63689785D01*
X178871922Y-63955580D01*
X178871918Y-63955589D01*
X178870177Y-63959342D01*
X178868951Y-63963291D01*
X178868949Y-63963299D01*
X178806476Y-64164693D01*
X178780907Y-64247121D01*
X178780218Y-64251199D01*
X178780218Y-64251204D01*
X178731479Y-64540150D01*
X178730791Y-64544230D01*
X178730653Y-64548353D01*
X178730652Y-64548365D01*
X178720861Y-64841222D01*
X178720861Y-64841231D01*
X178720723Y-64845369D01*
X178721137Y-64849490D01*
X178721138Y-64849501D01*
X178750466Y-65141034D01*
X178750467Y-65141044D01*
X178750882Y-65145162D01*
X178751842Y-65149193D01*
X178751843Y-65149195D01*
X178807798Y-65383994D01*
X178820731Y-65438261D01*
X178929023Y-65719434D01*
X178931007Y-65723055D01*
X178931013Y-65723067D01*
X179011954Y-65870765D01*
X179073825Y-65983665D01*
X179076281Y-65986998D01*
X179076284Y-65987003D01*
X179167722Y-66111103D01*
X179252554Y-66226238D01*
X179462020Y-66442824D01*
X179536499Y-66501639D01*
X179695230Y-66626988D01*
X179695234Y-66626990D01*
X179698485Y-66629558D01*
X179702049Y-66631669D01*
X179702052Y-66631671D01*
X179733842Y-66650500D01*
X179957730Y-66783109D01*
X179961534Y-66784722D01*
X179961538Y-66784724D01*
X180020807Y-66809856D01*
X180235128Y-66900736D01*
X180525729Y-66980340D01*
X180824347Y-67020500D01*
X180828488Y-67020500D01*
X181048162Y-67020500D01*
X181050244Y-67020500D01*
X181275634Y-67005412D01*
X181570903Y-66945396D01*
X181855537Y-66846560D01*
X182124459Y-66710668D01*
X182372869Y-66540144D01*
X182596333Y-66338032D01*
X182790865Y-66107939D01*
X182952993Y-65853970D01*
X183079823Y-65580658D01*
X183169093Y-65292879D01*
X183219209Y-64995770D01*
X183228556Y-64716203D01*
X184925661Y-64716203D01*
X184935888Y-64930904D01*
X184986564Y-65139794D01*
X185075852Y-65335309D01*
X185151920Y-65442130D01*
X185200534Y-65510399D01*
X185356097Y-65658727D01*
X185430083Y-65706275D01*
X185536917Y-65774934D01*
X185545500Y-65778370D01*
X185736468Y-65854822D01*
X185947528Y-65895500D01*
X186105664Y-65895500D01*
X186108618Y-65895500D01*
X186111569Y-65895218D01*
X186111573Y-65895218D01*
X186170398Y-65889600D01*
X186268971Y-65880188D01*
X186475209Y-65819631D01*
X186666259Y-65721138D01*
X186835217Y-65588268D01*
X186975976Y-65425824D01*
X187083448Y-65239677D01*
X187153750Y-65036554D01*
X187184339Y-64823797D01*
X187174112Y-64609096D01*
X187123437Y-64400210D01*
X187123435Y-64400205D01*
X187034147Y-64204690D01*
X186916870Y-64039999D01*
X186909466Y-64029601D01*
X186753903Y-63881273D01*
X186710770Y-63853553D01*
X186573082Y-63765065D01*
X186390625Y-63692021D01*
X186373532Y-63685178D01*
X186373531Y-63685177D01*
X186373529Y-63685177D01*
X186162472Y-63644500D01*
X186001382Y-63644500D01*
X185998452Y-63644779D01*
X185998426Y-63644781D01*
X185841031Y-63659811D01*
X185634792Y-63720368D01*
X185443742Y-63818861D01*
X185386263Y-63864063D01*
X185283072Y-63945214D01*
X185274782Y-63951733D01*
X185134022Y-64114177D01*
X185026552Y-64300321D01*
X184956249Y-64503445D01*
X184928616Y-64695650D01*
X184925661Y-64716203D01*
X183228556Y-64716203D01*
X183229277Y-64694631D01*
X183199118Y-64394838D01*
X183129269Y-64101739D01*
X183020977Y-63820566D01*
X183018550Y-63816138D01*
X182948768Y-63688801D01*
X182876175Y-63556335D01*
X182697446Y-63313762D01*
X182487980Y-63097176D01*
X182468527Y-63081814D01*
X182428115Y-63024819D01*
X182424932Y-62955022D01*
X182459989Y-62894584D01*
X182522156Y-62862694D01*
X182545377Y-62860500D01*
X186924051Y-62860500D01*
X186995948Y-62860500D01*
X187004028Y-62860764D01*
X187236580Y-62876006D01*
X187252636Y-62878121D01*
X187415125Y-62910442D01*
X187477182Y-62922786D01*
X187492849Y-62926984D01*
X187616599Y-62968991D01*
X187709645Y-63000576D01*
X187724622Y-63006779D01*
X187903211Y-63094849D01*
X187929960Y-63108040D01*
X187944008Y-63116150D01*
X188134369Y-63243346D01*
X188147230Y-63253214D01*
X188235660Y-63330765D01*
X188319361Y-63404169D01*
X188330830Y-63415638D01*
X188366309Y-63456094D01*
X188459843Y-63562750D01*
X188481782Y-63587766D01*
X188491656Y-63600634D01*
X188618849Y-63790992D01*
X188626959Y-63805039D01*
X188728217Y-64010370D01*
X188734424Y-64025356D01*
X188808015Y-64242150D01*
X188812213Y-64257817D01*
X188856877Y-64482358D01*
X188858994Y-64498438D01*
X188874234Y-64730940D01*
X188874499Y-64739051D01*
X188874500Y-67799050D01*
X188874500Y-67799051D01*
X188874500Y-67875000D01*
X188874500Y-68038801D01*
X188874837Y-68042012D01*
X188874838Y-68042021D01*
X188908405Y-68361388D01*
X188908406Y-68361400D01*
X188908744Y-68364607D01*
X188909417Y-68367777D01*
X188909418Y-68367778D01*
X188976181Y-68681877D01*
X188976184Y-68681890D01*
X188976856Y-68685049D01*
X188977856Y-68688128D01*
X188977857Y-68688130D01*
X189077087Y-68993532D01*
X189077093Y-68993548D01*
X189078090Y-68996616D01*
X189211338Y-69295894D01*
X189212956Y-69298698D01*
X189212963Y-69298710D01*
X189373512Y-69576790D01*
X189373518Y-69576800D01*
X189375138Y-69579605D01*
X189392293Y-69603217D01*
X189565789Y-69842015D01*
X189565797Y-69842024D01*
X189567697Y-69844640D01*
X189786905Y-70088095D01*
X190030360Y-70307303D01*
X190032977Y-70309204D01*
X190032984Y-70309210D01*
X190094703Y-70354051D01*
X190295395Y-70499862D01*
X190298204Y-70501483D01*
X190298209Y-70501487D01*
X190576289Y-70662036D01*
X190576294Y-70662038D01*
X190579106Y-70663662D01*
X190878384Y-70796910D01*
X190881462Y-70797910D01*
X190881467Y-70797912D01*
X190932785Y-70814586D01*
X191189951Y-70898144D01*
X191510393Y-70966256D01*
X191836199Y-71000500D01*
X191869971Y-71000500D01*
X191937010Y-71020185D01*
X191982765Y-71072989D01*
X191989187Y-71090388D01*
X192038591Y-71263050D01*
X192048161Y-71281370D01*
X192132802Y-71443407D01*
X192261391Y-71601109D01*
X192419093Y-71729698D01*
X192599451Y-71823909D01*
X192795082Y-71879886D01*
X192914463Y-71890500D01*
X194780536Y-71890499D01*
X194899918Y-71879886D01*
X195095549Y-71823909D01*
X195275907Y-71729698D01*
X195433609Y-71601109D01*
X195562198Y-71443407D01*
X195656409Y-71263049D01*
X195712386Y-71067418D01*
X195723000Y-70948037D01*
X195722999Y-69831964D01*
X195712386Y-69712582D01*
X195656409Y-69516951D01*
X195646700Y-69498365D01*
X195562198Y-69336593D01*
X195562197Y-69336592D01*
X195449483Y-69198359D01*
X195422375Y-69133965D01*
X195434384Y-69065135D01*
X195449481Y-69041642D01*
X195562198Y-68903407D01*
X195656409Y-68723049D01*
X195712386Y-68527418D01*
X195723000Y-68408037D01*
X195722999Y-67291964D01*
X195712386Y-67172582D01*
X195656409Y-66976951D01*
X195562198Y-66796593D01*
X195449483Y-66658359D01*
X195422375Y-66593965D01*
X195434384Y-66525135D01*
X195449481Y-66501642D01*
X195562198Y-66363407D01*
X195656409Y-66183049D01*
X195712386Y-65987418D01*
X195723000Y-65868037D01*
X195722999Y-64751964D01*
X195712386Y-64632582D01*
X195656409Y-64436951D01*
X195564721Y-64261424D01*
X195562198Y-64256593D01*
X195449484Y-64118360D01*
X195422375Y-64053964D01*
X195434384Y-63985134D01*
X195449483Y-63961640D01*
X195518048Y-63877553D01*
X195562197Y-63823409D01*
X195592673Y-63765065D01*
X195656409Y-63643049D01*
X195712386Y-63447418D01*
X195723000Y-63328037D01*
X195722999Y-62211964D01*
X195712386Y-62092582D01*
X195656409Y-61896951D01*
X195562198Y-61716593D01*
X195449483Y-61578359D01*
X195422375Y-61513965D01*
X195434384Y-61445135D01*
X195449481Y-61421642D01*
X195562198Y-61283407D01*
X195656409Y-61103049D01*
X195712386Y-60907418D01*
X195723000Y-60788037D01*
X195722999Y-59671964D01*
X195712386Y-59552582D01*
X195656409Y-59356951D01*
X195562198Y-59176593D01*
X195449483Y-59038359D01*
X195422375Y-58973965D01*
X195434384Y-58905135D01*
X195449481Y-58881642D01*
X195562198Y-58743407D01*
X195656409Y-58563049D01*
X195712386Y-58367418D01*
X195723000Y-58248037D01*
X195722999Y-57131964D01*
X195712386Y-57012582D01*
X195656409Y-56816951D01*
X195634234Y-56774500D01*
X195562198Y-56636593D01*
X195519240Y-56583909D01*
X195449483Y-56498359D01*
X195422375Y-56433965D01*
X195434384Y-56365135D01*
X195449481Y-56341642D01*
X195562198Y-56203407D01*
X195656409Y-56023049D01*
X195712386Y-55827418D01*
X195723000Y-55708037D01*
X195723000Y-55705314D01*
X208137000Y-55705314D01*
X208137001Y-55708036D01*
X208137242Y-55710751D01*
X208137243Y-55710765D01*
X208143133Y-55777011D01*
X208147614Y-55827418D01*
X208175602Y-55925233D01*
X208203591Y-56023050D01*
X208297801Y-56203406D01*
X208410838Y-56342035D01*
X208437947Y-56406431D01*
X208425938Y-56475261D01*
X208410838Y-56498757D01*
X208298223Y-56636867D01*
X208204057Y-56817137D01*
X208148109Y-57012670D01*
X208137742Y-57129268D01*
X208137500Y-57134739D01*
X208137500Y-57440000D01*
X211887500Y-57440000D01*
X211887500Y-57134739D01*
X211887257Y-57129268D01*
X211876890Y-57012670D01*
X211820942Y-56817137D01*
X211726776Y-56636868D01*
X211614161Y-56498757D01*
X211587052Y-56434361D01*
X211599061Y-56365531D01*
X211614158Y-56342039D01*
X211727198Y-56203407D01*
X211821409Y-56023049D01*
X211877386Y-55827418D01*
X211888000Y-55708037D01*
X211887999Y-54591964D01*
X211877386Y-54472582D01*
X211821409Y-54276951D01*
X211727198Y-54096593D01*
X211598609Y-53938891D01*
X211440907Y-53810302D01*
X211440906Y-53810301D01*
X211260550Y-53716091D01*
X211162733Y-53688102D01*
X211064918Y-53660114D01*
X211045806Y-53658414D01*
X210948264Y-53649742D01*
X210948253Y-53649741D01*
X210945537Y-53649500D01*
X210942793Y-53649500D01*
X209082207Y-53649500D01*
X209082184Y-53649500D01*
X209079464Y-53649501D01*
X209076749Y-53649742D01*
X209076734Y-53649743D01*
X208960082Y-53660114D01*
X208764449Y-53716091D01*
X208584093Y-53810301D01*
X208426391Y-53938891D01*
X208297801Y-54096593D01*
X208203591Y-54276949D01*
X208147614Y-54472582D01*
X208137242Y-54589235D01*
X208137241Y-54589247D01*
X208137000Y-54591963D01*
X208137000Y-54594705D01*
X208137000Y-54594706D01*
X208137000Y-55705292D01*
X208137000Y-55705314D01*
X195723000Y-55705314D01*
X195722999Y-54591964D01*
X195712386Y-54472582D01*
X195656409Y-54276951D01*
X195562198Y-54096593D01*
X195433609Y-53938891D01*
X195275907Y-53810302D01*
X195275906Y-53810301D01*
X195095550Y-53716091D01*
X194997733Y-53688102D01*
X194899918Y-53660114D01*
X194880806Y-53658414D01*
X194783264Y-53649742D01*
X194783253Y-53649741D01*
X194780537Y-53649500D01*
X194777794Y-53649500D01*
X194253050Y-53649500D01*
X194186011Y-53629815D01*
X194140256Y-53577011D01*
X194130312Y-53507853D01*
X194136548Y-53483034D01*
X194158280Y-53423429D01*
X194165510Y-53407288D01*
X194285824Y-53183129D01*
X194295287Y-53168171D01*
X194446306Y-52963456D01*
X194457812Y-52949990D01*
X194532036Y-52874744D01*
X194636468Y-52768873D01*
X194649767Y-52757193D01*
X194852404Y-52603387D01*
X194867222Y-52593726D01*
X195089720Y-52470356D01*
X195105758Y-52462907D01*
X195343563Y-52372501D01*
X195360521Y-52367408D01*
X195608776Y-52311812D01*
X195626274Y-52309189D01*
X195884335Y-52289193D01*
X195893181Y-52288825D01*
X196864302Y-52283152D01*
X211094436Y-52200032D01*
X211100004Y-52200008D01*
X211105575Y-52200000D01*
X211943040Y-52200000D01*
X211956922Y-52200779D01*
X212125254Y-52219746D01*
X212152326Y-52225924D01*
X212305615Y-52279562D01*
X212330632Y-52291610D01*
X212468138Y-52378011D01*
X212489846Y-52395323D01*
X212604676Y-52510153D01*
X212621989Y-52531862D01*
X212708389Y-52669367D01*
X212720437Y-52694384D01*
X212774075Y-52847673D01*
X212780253Y-52874744D01*
X212799220Y-53043076D01*
X212800000Y-53056960D01*
X212800000Y-58143038D01*
X212799220Y-58156922D01*
X212782760Y-58303005D01*
X212776582Y-58330075D01*
X212730341Y-58462225D01*
X212718293Y-58487243D01*
X212643806Y-58605788D01*
X212626493Y-58627497D01*
X212527497Y-58726493D01*
X212505788Y-58743806D01*
X212387243Y-58818293D01*
X212362225Y-58830341D01*
X212230075Y-58876582D01*
X212203005Y-58882760D01*
X212050000Y-58900000D01*
X211762872Y-58900000D01*
X211745227Y-58889855D01*
X211713099Y-58827811D01*
X211719614Y-58758245D01*
X211724907Y-58746711D01*
X211820940Y-58562866D01*
X211876890Y-58367329D01*
X211887257Y-58250731D01*
X211887500Y-58245260D01*
X211887500Y-57940000D01*
X208137500Y-57940000D01*
X208137500Y-58245260D01*
X208137742Y-58250731D01*
X208148109Y-58367329D01*
X208204057Y-58562862D01*
X208298225Y-58743135D01*
X208410838Y-58881242D01*
X208437948Y-58945638D01*
X208425939Y-59014467D01*
X208410839Y-59037964D01*
X208297801Y-59176593D01*
X208203591Y-59356949D01*
X208147614Y-59552582D01*
X208137242Y-59669235D01*
X208137241Y-59669247D01*
X208137000Y-59671963D01*
X208137000Y-59674705D01*
X208137000Y-59674706D01*
X208137000Y-60785292D01*
X208137000Y-60785314D01*
X208137001Y-60788036D01*
X208137242Y-60790751D01*
X208137243Y-60790765D01*
X208147614Y-60907417D01*
X208203591Y-61103050D01*
X208297802Y-61283409D01*
X208358727Y-61358126D01*
X208410515Y-61421639D01*
X208437625Y-61486034D01*
X208425616Y-61554863D01*
X208410516Y-61578360D01*
X208297801Y-61716593D01*
X208203591Y-61896949D01*
X208147614Y-62092582D01*
X208137242Y-62209235D01*
X208137241Y-62209247D01*
X208137000Y-62211963D01*
X208137000Y-62214705D01*
X208137000Y-62214706D01*
X208137000Y-63325292D01*
X208137000Y-63325314D01*
X208137001Y-63328036D01*
X208137242Y-63330751D01*
X208137243Y-63330765D01*
X208144789Y-63415638D01*
X208147614Y-63447418D01*
X208168618Y-63520824D01*
X208203591Y-63643050D01*
X208297801Y-63823406D01*
X208298639Y-63824434D01*
X208410515Y-63961639D01*
X208437624Y-64026034D01*
X208425615Y-64094864D01*
X208410515Y-64118359D01*
X208297802Y-64256590D01*
X208203591Y-64436949D01*
X208147614Y-64632582D01*
X208137242Y-64749235D01*
X208137241Y-64749247D01*
X208137000Y-64751963D01*
X208137000Y-64754705D01*
X208137000Y-64754706D01*
X208137000Y-65865292D01*
X208137000Y-65865314D01*
X208137001Y-65868036D01*
X208137242Y-65870751D01*
X208137243Y-65870765D01*
X208147614Y-65987417D01*
X208203591Y-66183050D01*
X208284547Y-66338032D01*
X208297802Y-66363407D01*
X208410516Y-66501640D01*
X208437625Y-66566035D01*
X208425616Y-66634865D01*
X208410518Y-66658357D01*
X208367865Y-66710668D01*
X208297801Y-66796593D01*
X208203591Y-66976949D01*
X208195447Y-67005412D01*
X208161584Y-67123762D01*
X208158479Y-67134612D01*
X208121111Y-67193649D01*
X208057758Y-67223113D01*
X208039263Y-67224500D01*
X207475949Y-67224500D01*
X207400000Y-67224500D01*
X207236199Y-67224500D01*
X207232988Y-67224837D01*
X207232978Y-67224838D01*
X206913611Y-67258405D01*
X206913596Y-67258407D01*
X206910393Y-67258744D01*
X206907225Y-67259417D01*
X206907221Y-67259418D01*
X206593122Y-67326181D01*
X206593104Y-67326185D01*
X206589951Y-67326856D01*
X206586876Y-67327855D01*
X206586869Y-67327857D01*
X206281467Y-67427087D01*
X206281445Y-67427095D01*
X206278384Y-67428090D01*
X206275435Y-67429402D01*
X206275427Y-67429406D01*
X205982070Y-67560018D01*
X205982064Y-67560020D01*
X205979106Y-67561338D01*
X205976309Y-67562952D01*
X205976289Y-67562963D01*
X205698209Y-67723512D01*
X205698190Y-67723524D01*
X205695395Y-67725138D01*
X205692770Y-67727044D01*
X205692764Y-67727049D01*
X205432984Y-67915789D01*
X205432965Y-67915804D01*
X205430360Y-67917697D01*
X205427960Y-67919857D01*
X205427950Y-67919866D01*
X205189314Y-68134735D01*
X205189304Y-68134744D01*
X205186905Y-68136905D01*
X205184744Y-68139304D01*
X205184735Y-68139314D01*
X204969866Y-68377950D01*
X204969857Y-68377960D01*
X204967697Y-68380360D01*
X204965804Y-68382965D01*
X204965789Y-68382984D01*
X204777049Y-68642764D01*
X204777044Y-68642770D01*
X204775138Y-68645395D01*
X204773524Y-68648190D01*
X204773512Y-68648209D01*
X204612963Y-68926289D01*
X204612952Y-68926309D01*
X204611338Y-68929106D01*
X204610020Y-68932064D01*
X204610018Y-68932070D01*
X204479406Y-69225427D01*
X204479402Y-69225435D01*
X204478090Y-69228384D01*
X204477095Y-69231445D01*
X204477087Y-69231467D01*
X204377857Y-69536869D01*
X204376856Y-69539951D01*
X204376185Y-69543104D01*
X204376181Y-69543122D01*
X204312650Y-69842015D01*
X204308744Y-69860393D01*
X204308407Y-69863596D01*
X204308405Y-69863611D01*
X204274838Y-70182978D01*
X204274837Y-70182988D01*
X204274500Y-70186199D01*
X204274499Y-70189421D01*
X204274499Y-70189440D01*
X204274499Y-70295641D01*
X204274500Y-70295646D01*
X204274500Y-73060948D01*
X204274234Y-73069059D01*
X204258994Y-73301561D01*
X204256877Y-73317641D01*
X204212213Y-73542182D01*
X204208015Y-73557849D01*
X204134424Y-73774643D01*
X204128217Y-73789629D01*
X204026959Y-73994960D01*
X204018849Y-74009007D01*
X203891656Y-74199365D01*
X203881782Y-74212233D01*
X203730830Y-74384361D01*
X203719361Y-74395830D01*
X203547233Y-74546782D01*
X203534365Y-74556656D01*
X203344007Y-74683849D01*
X203329960Y-74691959D01*
X203124629Y-74793217D01*
X203109643Y-74799424D01*
X202892849Y-74873015D01*
X202877182Y-74877213D01*
X202652641Y-74921877D01*
X202636561Y-74923994D01*
X202422014Y-74938057D01*
X202404057Y-74939234D01*
X202395948Y-74939500D01*
X165018161Y-74939500D01*
X164951122Y-74919815D01*
X164905367Y-74867011D01*
X164895423Y-74797853D01*
X164924448Y-74734297D01*
X164981611Y-74697009D01*
X165106139Y-74658596D01*
X165342456Y-74544792D01*
X165514167Y-74427720D01*
X164790946Y-73704498D01*
X164803891Y-73699787D01*
X164950373Y-73603445D01*
X165070688Y-73475918D01*
X165143447Y-73349894D01*
X165867124Y-74073571D01*
X165914972Y-74013572D01*
X166046117Y-73786423D01*
X166141940Y-73542270D01*
X166200306Y-73286552D01*
X166219907Y-73025000D01*
X166200306Y-72763447D01*
X166141940Y-72507729D01*
X166046117Y-72263575D01*
X165914972Y-72036426D01*
X165867125Y-71976427D01*
X165142195Y-72701357D01*
X165118941Y-72647447D01*
X165014244Y-72506815D01*
X164879938Y-72394118D01*
X164788333Y-72348112D01*
X165514167Y-71622278D01*
X165342451Y-71505205D01*
X165106139Y-71391403D01*
X164855503Y-71314091D01*
X164596144Y-71275000D01*
X164333856Y-71275000D01*
X164074496Y-71314091D01*
X163823860Y-71391403D01*
X163587545Y-71505206D01*
X163415832Y-71622278D01*
X164139055Y-72345501D01*
X164126109Y-72350213D01*
X163979627Y-72446555D01*
X163859312Y-72574082D01*
X163786552Y-72700105D01*
X163062874Y-71976428D01*
X163015026Y-72036428D01*
X162883882Y-72263576D01*
X162788059Y-72507729D01*
X162729693Y-72763447D01*
X162710092Y-73024999D01*
X162729693Y-73286552D01*
X162788059Y-73542270D01*
X162883882Y-73786424D01*
X163015027Y-74013573D01*
X163062873Y-74073571D01*
X163787803Y-73348641D01*
X163811059Y-73402553D01*
X163915756Y-73543185D01*
X164050062Y-73655882D01*
X164141665Y-73701886D01*
X163415831Y-74427720D01*
X163587546Y-74544793D01*
X163823860Y-74658596D01*
X163948389Y-74697009D01*
X164006648Y-74735579D01*
X164034806Y-74799524D01*
X164023922Y-74868541D01*
X163977454Y-74920718D01*
X163911839Y-74939500D01*
X159834541Y-74939500D01*
X159767502Y-74919815D01*
X159721747Y-74867011D01*
X159719130Y-74860846D01*
X159696568Y-74803357D01*
X159565386Y-74576143D01*
X159401805Y-74371019D01*
X159314064Y-74289607D01*
X159209485Y-74192571D01*
X159192170Y-74180766D01*
X158992704Y-74044772D01*
X158756323Y-73930937D01*
X158505615Y-73853604D01*
X158246182Y-73814500D01*
X157983818Y-73814500D01*
X157724385Y-73853604D01*
X157473677Y-73930937D01*
X157302084Y-74013572D01*
X157237296Y-74044772D01*
X157195056Y-74073571D01*
X157020514Y-74192571D01*
X156828198Y-74371015D01*
X156664613Y-74576143D01*
X156533431Y-74803358D01*
X156437580Y-75047581D01*
X156379197Y-75303372D01*
X156359591Y-75564999D01*
X156379197Y-75826627D01*
X156437580Y-76082418D01*
X156533431Y-76326641D01*
X156664613Y-76553856D01*
X156828197Y-76758983D01*
X156837569Y-76767679D01*
X156873325Y-76827706D01*
X156870950Y-76897536D01*
X156831200Y-76954996D01*
X156766695Y-76981845D01*
X156765017Y-76982016D01*
X156631031Y-76994811D01*
X156424792Y-77055368D01*
X156233742Y-77153861D01*
X156176263Y-77199063D01*
X156077927Y-77276396D01*
X156064782Y-77286733D01*
X155924022Y-77449177D01*
X155816552Y-77635321D01*
X155746249Y-77838445D01*
X155718647Y-78030432D01*
X155715661Y-78051203D01*
X155725888Y-78265904D01*
X155776564Y-78474794D01*
X155865852Y-78670309D01*
X155978600Y-78828641D01*
X155990534Y-78845399D01*
X156146097Y-78993727D01*
X156216671Y-79039082D01*
X156326917Y-79109934D01*
X156335500Y-79113370D01*
X156526468Y-79189822D01*
X156737528Y-79230500D01*
X156895664Y-79230500D01*
X156898618Y-79230500D01*
X156901569Y-79230218D01*
X156901573Y-79230218D01*
X156980700Y-79222662D01*
X157058971Y-79215188D01*
X157265209Y-79154631D01*
X157456259Y-79056138D01*
X157625217Y-78923268D01*
X157765976Y-78760824D01*
X157873448Y-78574677D01*
X157943750Y-78371554D01*
X157974339Y-78158797D01*
X157964112Y-77944096D01*
X157913437Y-77735210D01*
X157913435Y-77735205D01*
X157824148Y-77539693D01*
X157795664Y-77499693D01*
X157772811Y-77433666D01*
X157789284Y-77365766D01*
X157839850Y-77317550D01*
X157908457Y-77304326D01*
X157915145Y-77305149D01*
X157983818Y-77315500D01*
X158246182Y-77315500D01*
X158505615Y-77276396D01*
X158756323Y-77199063D01*
X158992704Y-77085228D01*
X159209479Y-76937433D01*
X159209482Y-76937429D01*
X159209485Y-76937428D01*
X159319877Y-76834999D01*
X159401805Y-76758981D01*
X159565386Y-76553857D01*
X159696568Y-76326643D01*
X159719114Y-76269194D01*
X159761928Y-76213984D01*
X159827798Y-76190683D01*
X159834541Y-76190500D01*
X160364780Y-76190500D01*
X160431819Y-76210185D01*
X160477574Y-76262989D01*
X160487518Y-76332147D01*
X160458493Y-76395703D01*
X160447957Y-76406465D01*
X160306741Y-76534187D01*
X160306735Y-76534192D01*
X160303667Y-76536968D01*
X160300998Y-76540123D01*
X160300991Y-76540132D01*
X160111810Y-76763896D01*
X160111804Y-76763903D01*
X160109135Y-76767061D01*
X160106912Y-76770542D01*
X160106904Y-76770554D01*
X159949233Y-77017542D01*
X159949229Y-77017549D01*
X159947007Y-77021030D01*
X159945267Y-77024779D01*
X159945264Y-77024785D01*
X159821922Y-77290580D01*
X159821918Y-77290589D01*
X159820177Y-77294342D01*
X159818951Y-77298291D01*
X159818949Y-77298299D01*
X159762387Y-77480638D01*
X159730907Y-77582121D01*
X159730218Y-77586199D01*
X159730218Y-77586204D01*
X159684711Y-77855992D01*
X159680791Y-77879230D01*
X159680653Y-77883353D01*
X159680652Y-77883365D01*
X159670861Y-78176222D01*
X159670861Y-78176231D01*
X159670723Y-78180369D01*
X159671137Y-78184490D01*
X159671138Y-78184501D01*
X159700466Y-78476034D01*
X159700467Y-78476044D01*
X159700882Y-78480162D01*
X159701842Y-78484193D01*
X159701843Y-78484195D01*
X159762804Y-78740000D01*
X159770731Y-78773261D01*
X159879023Y-79054434D01*
X159881007Y-79058055D01*
X159881013Y-79058067D01*
X159942174Y-79169671D01*
X160023825Y-79318665D01*
X160026281Y-79321998D01*
X160026284Y-79322003D01*
X160150065Y-79490000D01*
X160202554Y-79561238D01*
X160412020Y-79777824D01*
X160521915Y-79864607D01*
X160645230Y-79961988D01*
X160645234Y-79961990D01*
X160648485Y-79964558D01*
X160652049Y-79966669D01*
X160652052Y-79966671D01*
X160696854Y-79993207D01*
X160907730Y-80118109D01*
X160911534Y-80119722D01*
X160911538Y-80119724D01*
X160970807Y-80144856D01*
X161185128Y-80235736D01*
X161475729Y-80315340D01*
X161774347Y-80355500D01*
X161778488Y-80355500D01*
X161998162Y-80355500D01*
X162000244Y-80355500D01*
X162225634Y-80340412D01*
X162520903Y-80280396D01*
X162805537Y-80181560D01*
X163074459Y-80045668D01*
X163322869Y-79875144D01*
X163546333Y-79673032D01*
X163740865Y-79442939D01*
X163902993Y-79188970D01*
X164029823Y-78915658D01*
X164119093Y-78627879D01*
X164169209Y-78330770D01*
X164178556Y-78051203D01*
X165875661Y-78051203D01*
X165885888Y-78265904D01*
X165936564Y-78474794D01*
X166025852Y-78670309D01*
X166138601Y-78828641D01*
X166150534Y-78845399D01*
X166306097Y-78993727D01*
X166376671Y-79039082D01*
X166486917Y-79109934D01*
X166495500Y-79113370D01*
X166686468Y-79189822D01*
X166897528Y-79230500D01*
X167055664Y-79230500D01*
X167058618Y-79230500D01*
X167061569Y-79230218D01*
X167061573Y-79230218D01*
X167140700Y-79222662D01*
X167218971Y-79215188D01*
X167425209Y-79154631D01*
X167616259Y-79056138D01*
X167785217Y-78923268D01*
X167925976Y-78760824D01*
X168033448Y-78574677D01*
X168103750Y-78371554D01*
X168134339Y-78158797D01*
X168124112Y-77944096D01*
X168073437Y-77735210D01*
X168073435Y-77735205D01*
X167984147Y-77539690D01*
X167894248Y-77413445D01*
X167859466Y-77364601D01*
X167703903Y-77216273D01*
X167649251Y-77181150D01*
X167523082Y-77100065D01*
X167363574Y-77036208D01*
X167323532Y-77020178D01*
X167323531Y-77020177D01*
X167323529Y-77020177D01*
X167112472Y-76979500D01*
X166951382Y-76979500D01*
X166948452Y-76979779D01*
X166948426Y-76979781D01*
X166791031Y-76994811D01*
X166584792Y-77055368D01*
X166393742Y-77153861D01*
X166336263Y-77199063D01*
X166237927Y-77276396D01*
X166224782Y-77286733D01*
X166084022Y-77449177D01*
X165976552Y-77635321D01*
X165906249Y-77838445D01*
X165878647Y-78030432D01*
X165875661Y-78051203D01*
X164178556Y-78051203D01*
X164179277Y-78029631D01*
X164149118Y-77729838D01*
X164079269Y-77436739D01*
X163970977Y-77155566D01*
X163959203Y-77134082D01*
X163899307Y-77024785D01*
X163826175Y-76891335D01*
X163647446Y-76648762D01*
X163437980Y-76432176D01*
X163412196Y-76411814D01*
X163371783Y-76354820D01*
X163368600Y-76285023D01*
X163403656Y-76224585D01*
X163465823Y-76192694D01*
X163489045Y-76190500D01*
X171854126Y-76190500D01*
X171921165Y-76210185D01*
X171966920Y-76262989D01*
X171976864Y-76332147D01*
X171947839Y-76395703D01*
X171937098Y-76406650D01*
X171739314Y-76584735D01*
X171739304Y-76584744D01*
X171736905Y-76586905D01*
X171734744Y-76589304D01*
X171734735Y-76589314D01*
X171519866Y-76827950D01*
X171519857Y-76827960D01*
X171517697Y-76830360D01*
X171515804Y-76832965D01*
X171515789Y-76832984D01*
X171327049Y-77092764D01*
X171327044Y-77092770D01*
X171325138Y-77095395D01*
X171323524Y-77098190D01*
X171323512Y-77098209D01*
X171162963Y-77376289D01*
X171162952Y-77376309D01*
X171161338Y-77379106D01*
X171160020Y-77382064D01*
X171160018Y-77382070D01*
X171029406Y-77675427D01*
X171029402Y-77675435D01*
X171028090Y-77678384D01*
X171027095Y-77681445D01*
X171027087Y-77681467D01*
X170946791Y-77928596D01*
X170926856Y-77989951D01*
X170926185Y-77993104D01*
X170926181Y-77993122D01*
X170874191Y-78237720D01*
X170858744Y-78310393D01*
X170858407Y-78313596D01*
X170858405Y-78313611D01*
X170824838Y-78632978D01*
X170824837Y-78632988D01*
X170824500Y-78636199D01*
X170824500Y-78639440D01*
X170824500Y-80970948D01*
X170824234Y-80979059D01*
X170808994Y-81211561D01*
X170806877Y-81227641D01*
X170762213Y-81452182D01*
X170758015Y-81467849D01*
X170684424Y-81684643D01*
X170678217Y-81699629D01*
X170576959Y-81904960D01*
X170568849Y-81919007D01*
X170441656Y-82109365D01*
X170431782Y-82122233D01*
X170280830Y-82294361D01*
X170269361Y-82305830D01*
X170097233Y-82456782D01*
X170084365Y-82466656D01*
X169894007Y-82593849D01*
X169879960Y-82601959D01*
X169674629Y-82703217D01*
X169659643Y-82709424D01*
X169442849Y-82783015D01*
X169427182Y-82787213D01*
X169202641Y-82831877D01*
X169186561Y-82833994D01*
X168972014Y-82848057D01*
X168954057Y-82849234D01*
X168945948Y-82849500D01*
X153408126Y-82849500D01*
X153391943Y-82848439D01*
X153364215Y-82844788D01*
X153319254Y-82838869D01*
X153287989Y-82830491D01*
X153227833Y-82805574D01*
X153199798Y-82789388D01*
X153148139Y-82749748D01*
X153125251Y-82726860D01*
X153085611Y-82675201D01*
X153069425Y-82647166D01*
X153044508Y-82587010D01*
X153036130Y-82555743D01*
X153026561Y-82483058D01*
X153025500Y-82466873D01*
X153025500Y-80258742D01*
X153017391Y-80202342D01*
X152992409Y-80028593D01*
X152926902Y-79805495D01*
X152830311Y-79593991D01*
X152704604Y-79398386D01*
X152552338Y-79222662D01*
X152376614Y-79070396D01*
X152376613Y-79070395D01*
X152257314Y-78993727D01*
X152181009Y-78944689D01*
X152181007Y-78944688D01*
X151969504Y-78848097D01*
X151746408Y-78782591D01*
X151631332Y-78766045D01*
X151516258Y-78749500D01*
X151516257Y-78749500D01*
X145968161Y-78749500D01*
X145901122Y-78729815D01*
X145855367Y-78677011D01*
X145845423Y-78607853D01*
X145874448Y-78544297D01*
X145931611Y-78507009D01*
X146056139Y-78468596D01*
X146292456Y-78354792D01*
X146464167Y-78237720D01*
X145740946Y-77514498D01*
X145753891Y-77509787D01*
X145900373Y-77413445D01*
X146020688Y-77285918D01*
X146093447Y-77159893D01*
X146817124Y-77883571D01*
X146864972Y-77823572D01*
X146996117Y-77596423D01*
X147091940Y-77352270D01*
X147150306Y-77096552D01*
X147169907Y-76834999D01*
X147150306Y-76573447D01*
X147091940Y-76317729D01*
X146996117Y-76073575D01*
X146864972Y-75846426D01*
X146817125Y-75786427D01*
X146092195Y-76511356D01*
X146068941Y-76457447D01*
X145964244Y-76316815D01*
X145829938Y-76204118D01*
X145738333Y-76158112D01*
X146464167Y-75432278D01*
X146292451Y-75315205D01*
X146056139Y-75201403D01*
X145805503Y-75124091D01*
X145546144Y-75085000D01*
X145283856Y-75085000D01*
X145024496Y-75124091D01*
X144773860Y-75201403D01*
X144537545Y-75315206D01*
X144365832Y-75432278D01*
X145089055Y-76155501D01*
X145076109Y-76160213D01*
X144929627Y-76256555D01*
X144809312Y-76384082D01*
X144736552Y-76510106D01*
X144012873Y-75786427D01*
X143965028Y-75846424D01*
X143833882Y-76073576D01*
X143738059Y-76317729D01*
X143679693Y-76573447D01*
X143660092Y-76835000D01*
X143679693Y-77096552D01*
X143738059Y-77352270D01*
X143833882Y-77596424D01*
X143965027Y-77823573D01*
X144012873Y-77883571D01*
X144012874Y-77883571D01*
X144737803Y-77158641D01*
X144761059Y-77212553D01*
X144865756Y-77353185D01*
X145000062Y-77465882D01*
X145091665Y-77511886D01*
X144365831Y-78237720D01*
X144537546Y-78354793D01*
X144773860Y-78468596D01*
X144898389Y-78507009D01*
X144956648Y-78545579D01*
X144984806Y-78609524D01*
X144973922Y-78678541D01*
X144927454Y-78730718D01*
X144861839Y-78749500D01*
X140784541Y-78749500D01*
X140717502Y-78729815D01*
X140671747Y-78677011D01*
X140669130Y-78670846D01*
X140646568Y-78613357D01*
X140515386Y-78386143D01*
X140351805Y-78181019D01*
X140351801Y-78181015D01*
X140159485Y-78002571D01*
X140124291Y-77978576D01*
X139942704Y-77854772D01*
X139706323Y-77740937D01*
X139455615Y-77663604D01*
X139196182Y-77624500D01*
X138933818Y-77624500D01*
X138674385Y-77663604D01*
X138423677Y-77740937D01*
X138252084Y-77823572D01*
X138187296Y-77854772D01*
X138157407Y-77875150D01*
X137970514Y-78002571D01*
X137778198Y-78181015D01*
X137614613Y-78386143D01*
X137483431Y-78613358D01*
X137387580Y-78857581D01*
X137329197Y-79113372D01*
X137309591Y-79375000D01*
X137329197Y-79636627D01*
X137387580Y-79892418D01*
X137483431Y-80136641D01*
X137614613Y-80363856D01*
X137646674Y-80404059D01*
X137761754Y-80548365D01*
X137778197Y-80568983D01*
X137787569Y-80577679D01*
X137823325Y-80637706D01*
X137820950Y-80707536D01*
X137781200Y-80764996D01*
X137716695Y-80791845D01*
X137715017Y-80792016D01*
X137581031Y-80804811D01*
X137374792Y-80865368D01*
X137183742Y-80963861D01*
X137126263Y-81009063D01*
X137027927Y-81086396D01*
X137014782Y-81096733D01*
X136874022Y-81259177D01*
X136766552Y-81445321D01*
X136696249Y-81648445D01*
X136668166Y-81843777D01*
X136665661Y-81861203D01*
X136675888Y-82075904D01*
X136718600Y-82251968D01*
X136726564Y-82284794D01*
X136815852Y-82480309D01*
X136903218Y-82602996D01*
X136940534Y-82655399D01*
X137096097Y-82803727D01*
X137147465Y-82836739D01*
X137276917Y-82919934D01*
X137305238Y-82931272D01*
X137476468Y-82999822D01*
X137687528Y-83040500D01*
X137845664Y-83040500D01*
X137848618Y-83040500D01*
X137851569Y-83040218D01*
X137851573Y-83040218D01*
X137931873Y-83032550D01*
X138008971Y-83025188D01*
X138215209Y-82964631D01*
X138406259Y-82866138D01*
X138575217Y-82733268D01*
X138715976Y-82570824D01*
X138823448Y-82384677D01*
X138893750Y-82181554D01*
X138924339Y-81968797D01*
X138914112Y-81754096D01*
X138863437Y-81545210D01*
X138863435Y-81545205D01*
X138774148Y-81349693D01*
X138745664Y-81309693D01*
X138722811Y-81243666D01*
X138739284Y-81175766D01*
X138789850Y-81127550D01*
X138858457Y-81114326D01*
X138865145Y-81115149D01*
X138933818Y-81125500D01*
X139196182Y-81125500D01*
X139455615Y-81086396D01*
X139706323Y-81009063D01*
X139942704Y-80895228D01*
X140159479Y-80747433D01*
X140159482Y-80747429D01*
X140159485Y-80747428D01*
X140339332Y-80580554D01*
X140351805Y-80568981D01*
X140515386Y-80363857D01*
X140646568Y-80136643D01*
X140669114Y-80079194D01*
X140711928Y-80023984D01*
X140777798Y-80000683D01*
X140784541Y-80000500D01*
X141314780Y-80000500D01*
X141381819Y-80020185D01*
X141427574Y-80072989D01*
X141437518Y-80142147D01*
X141408493Y-80205703D01*
X141397957Y-80216465D01*
X141256741Y-80344187D01*
X141256735Y-80344192D01*
X141253667Y-80346968D01*
X141250998Y-80350123D01*
X141250991Y-80350132D01*
X141061810Y-80573896D01*
X141061804Y-80573903D01*
X141059135Y-80577061D01*
X141056912Y-80580542D01*
X141056904Y-80580554D01*
X140899233Y-80827542D01*
X140899229Y-80827549D01*
X140897007Y-80831030D01*
X140895267Y-80834779D01*
X140895264Y-80834785D01*
X140771922Y-81100580D01*
X140771918Y-81100589D01*
X140770177Y-81104342D01*
X140768951Y-81108291D01*
X140768949Y-81108299D01*
X140715687Y-81280000D01*
X140680907Y-81392121D01*
X140680218Y-81396199D01*
X140680218Y-81396204D01*
X140637670Y-81648446D01*
X140630791Y-81689230D01*
X140630653Y-81693353D01*
X140630652Y-81693365D01*
X140620861Y-81986222D01*
X140620861Y-81986231D01*
X140620723Y-81990369D01*
X140621137Y-81994490D01*
X140621138Y-81994501D01*
X140650466Y-82286034D01*
X140650467Y-82286044D01*
X140650882Y-82290162D01*
X140651842Y-82294193D01*
X140651843Y-82294195D01*
X140716229Y-82564372D01*
X140720731Y-82583261D01*
X140722220Y-82587128D01*
X140722221Y-82587130D01*
X140745196Y-82646782D01*
X140829023Y-82864434D01*
X140831007Y-82868055D01*
X140831013Y-82868067D01*
X140927704Y-83044505D01*
X140973825Y-83128665D01*
X140976281Y-83131998D01*
X140976284Y-83132003D01*
X141137142Y-83350321D01*
X141152554Y-83371238D01*
X141362020Y-83587824D01*
X141481737Y-83682363D01*
X141595230Y-83771988D01*
X141595234Y-83771990D01*
X141598485Y-83774558D01*
X141857730Y-83928109D01*
X141861534Y-83929722D01*
X141861538Y-83929724D01*
X141966578Y-83974264D01*
X142135128Y-84045736D01*
X142425729Y-84125340D01*
X142724347Y-84165500D01*
X142728488Y-84165500D01*
X142948162Y-84165500D01*
X142950244Y-84165500D01*
X143175634Y-84150412D01*
X143470903Y-84090396D01*
X143755537Y-83991560D01*
X144024459Y-83855668D01*
X144272869Y-83685144D01*
X144496333Y-83483032D01*
X144690865Y-83252939D01*
X144852993Y-82998970D01*
X144979823Y-82725658D01*
X145069093Y-82437879D01*
X145119209Y-82140770D01*
X145128556Y-81861203D01*
X146825661Y-81861203D01*
X146835888Y-82075904D01*
X146878600Y-82251968D01*
X146886564Y-82284794D01*
X146975852Y-82480309D01*
X147063218Y-82602996D01*
X147100534Y-82655399D01*
X147256097Y-82803727D01*
X147307465Y-82836739D01*
X147436917Y-82919934D01*
X147465238Y-82931272D01*
X147636468Y-82999822D01*
X147847528Y-83040500D01*
X148005664Y-83040500D01*
X148008618Y-83040500D01*
X148011569Y-83040218D01*
X148011573Y-83040218D01*
X148091873Y-83032550D01*
X148168971Y-83025188D01*
X148375209Y-82964631D01*
X148566259Y-82866138D01*
X148735217Y-82733268D01*
X148875976Y-82570824D01*
X148983448Y-82384677D01*
X149053750Y-82181554D01*
X149084339Y-81968797D01*
X149074112Y-81754096D01*
X149023437Y-81545210D01*
X149023435Y-81545205D01*
X148934147Y-81349690D01*
X148835785Y-81211561D01*
X148809466Y-81174601D01*
X148653903Y-81026273D01*
X148567816Y-80970948D01*
X148473082Y-80910065D01*
X148313574Y-80846208D01*
X148273532Y-80830178D01*
X148273531Y-80830177D01*
X148273529Y-80830177D01*
X148062472Y-80789500D01*
X147901382Y-80789500D01*
X147898452Y-80789779D01*
X147898426Y-80789781D01*
X147741031Y-80804811D01*
X147534792Y-80865368D01*
X147343742Y-80963861D01*
X147286263Y-81009063D01*
X147187927Y-81086396D01*
X147174782Y-81096733D01*
X147034022Y-81259177D01*
X146926552Y-81445321D01*
X146856249Y-81648445D01*
X146828166Y-81843777D01*
X146825661Y-81861203D01*
X145128556Y-81861203D01*
X145129277Y-81839631D01*
X145099118Y-81539838D01*
X145029269Y-81246739D01*
X144920977Y-80965566D01*
X144884525Y-80899050D01*
X144849307Y-80834785D01*
X144776175Y-80701335D01*
X144597446Y-80458762D01*
X144387980Y-80242176D01*
X144362196Y-80221814D01*
X144321783Y-80164820D01*
X144318600Y-80095023D01*
X144353656Y-80034585D01*
X144415823Y-80002694D01*
X144439045Y-80000500D01*
X151324051Y-80000500D01*
X151391874Y-80000500D01*
X151408058Y-80001560D01*
X151480744Y-80011130D01*
X151512009Y-80019507D01*
X151533943Y-80028593D01*
X151572166Y-80044425D01*
X151600201Y-80060611D01*
X151651860Y-80100251D01*
X151674748Y-80123139D01*
X151714388Y-80174798D01*
X151730574Y-80202833D01*
X151755491Y-80262989D01*
X151763869Y-80294254D01*
X151769319Y-80335649D01*
X151770809Y-80346968D01*
X151773439Y-80366939D01*
X151774500Y-80383126D01*
X151774500Y-82399050D01*
X151774500Y-82399051D01*
X151774500Y-82475000D01*
X151774500Y-82591258D01*
X151783295Y-82652428D01*
X151807591Y-82821408D01*
X151873097Y-83044504D01*
X151962667Y-83240634D01*
X151969689Y-83256009D01*
X151993568Y-83293165D01*
X152094493Y-83450210D01*
X152095396Y-83451614D01*
X152247662Y-83627338D01*
X152423386Y-83779604D01*
X152618991Y-83905311D01*
X152830495Y-84001902D01*
X153053593Y-84067409D01*
X153283742Y-84100500D01*
X153283743Y-84100500D01*
X169110559Y-84100500D01*
X169113801Y-84100500D01*
X169439607Y-84066256D01*
X169760049Y-83998144D01*
X170071616Y-83896910D01*
X170370894Y-83763662D01*
X170654605Y-83599862D01*
X170919640Y-83407303D01*
X171163095Y-83188095D01*
X171382303Y-82944640D01*
X171574862Y-82679605D01*
X171738662Y-82395894D01*
X171871910Y-82096616D01*
X171973144Y-81785049D01*
X172041256Y-81464607D01*
X172075500Y-81138801D01*
X172075500Y-80975000D01*
X172075500Y-80899051D01*
X172075500Y-80899050D01*
X172075500Y-78804049D01*
X172075763Y-78795971D01*
X172091006Y-78563417D01*
X172093120Y-78547365D01*
X172137786Y-78322815D01*
X172141984Y-78307150D01*
X172170951Y-78221815D01*
X172215578Y-78090348D01*
X172221776Y-78075382D01*
X172323043Y-77870033D01*
X172331146Y-77855998D01*
X172458351Y-77665622D01*
X172468208Y-77652776D01*
X172619174Y-77480632D01*
X172630632Y-77469174D01*
X172802776Y-77318208D01*
X172815622Y-77308351D01*
X173005998Y-77181146D01*
X173020033Y-77173043D01*
X173225382Y-77071776D01*
X173240348Y-77065578D01*
X173392874Y-77013802D01*
X173457150Y-76991984D01*
X173472817Y-76987786D01*
X173697365Y-76943120D01*
X173713417Y-76941006D01*
X173945971Y-76925764D01*
X173954052Y-76925500D01*
X182706230Y-76925500D01*
X182773269Y-76945185D01*
X182819024Y-76997989D01*
X182828968Y-77067147D01*
X182799943Y-77130703D01*
X182760032Y-77161220D01*
X182637546Y-77220206D01*
X182465831Y-77337278D01*
X183189054Y-78060501D01*
X183176109Y-78065213D01*
X183029627Y-78161555D01*
X182909312Y-78289082D01*
X182836552Y-78415106D01*
X182112873Y-77691427D01*
X182065028Y-77751424D01*
X181933882Y-77978576D01*
X181838059Y-78222729D01*
X181779693Y-78478447D01*
X181760092Y-78739999D01*
X181779693Y-79001552D01*
X181838059Y-79257270D01*
X181933882Y-79501424D01*
X182065027Y-79728573D01*
X182112873Y-79788571D01*
X182112874Y-79788571D01*
X182837803Y-79063641D01*
X182861059Y-79117553D01*
X182965756Y-79258185D01*
X183100062Y-79370882D01*
X183191663Y-79416886D01*
X182465831Y-80142720D01*
X182637546Y-80259793D01*
X182873860Y-80373596D01*
X183124496Y-80450908D01*
X183300000Y-80477360D01*
X183300000Y-80799500D01*
X178941450Y-80799500D01*
X178874411Y-80779815D01*
X178828656Y-80727011D01*
X178826022Y-80720802D01*
X178793409Y-80637706D01*
X178746568Y-80518357D01*
X178615386Y-80291143D01*
X178451805Y-80086019D01*
X178437762Y-80072989D01*
X178259485Y-79907571D01*
X178193011Y-79862250D01*
X178042704Y-79759772D01*
X177806323Y-79645937D01*
X177555615Y-79568604D01*
X177296182Y-79529500D01*
X177033818Y-79529500D01*
X176774385Y-79568604D01*
X176523677Y-79645937D01*
X176287296Y-79759772D01*
X176260819Y-79777824D01*
X176070514Y-79907571D01*
X175878198Y-80086015D01*
X175714613Y-80291143D01*
X175583431Y-80518358D01*
X175487580Y-80762581D01*
X175429197Y-81018372D01*
X175409591Y-81280000D01*
X175429197Y-81541627D01*
X175487580Y-81797418D01*
X175554842Y-81968797D01*
X175583432Y-82041643D01*
X175596504Y-82064285D01*
X175714613Y-82268856D01*
X175739826Y-82300472D01*
X175871496Y-82465581D01*
X175878197Y-82473983D01*
X175887569Y-82482679D01*
X175923325Y-82542706D01*
X175920950Y-82612536D01*
X175881200Y-82669996D01*
X175816695Y-82696845D01*
X175815017Y-82697016D01*
X175681031Y-82709811D01*
X175474792Y-82770368D01*
X175283742Y-82868861D01*
X175226263Y-82914063D01*
X175123072Y-82995214D01*
X175114782Y-83001733D01*
X174974022Y-83164177D01*
X174866552Y-83350321D01*
X174796249Y-83553445D01*
X174765661Y-83766201D01*
X174765661Y-83766203D01*
X174772287Y-83905311D01*
X174775888Y-83980904D01*
X174826564Y-84189794D01*
X174915852Y-84385309D01*
X174991920Y-84492130D01*
X175040534Y-84560399D01*
X175196097Y-84708727D01*
X175270083Y-84756275D01*
X175376917Y-84824934D01*
X175415063Y-84840205D01*
X175576468Y-84904822D01*
X175787528Y-84945500D01*
X175945664Y-84945500D01*
X175948618Y-84945500D01*
X175951569Y-84945218D01*
X175951573Y-84945218D01*
X176010398Y-84939600D01*
X176108971Y-84930188D01*
X176315209Y-84869631D01*
X176506259Y-84771138D01*
X176675217Y-84638268D01*
X176815976Y-84475824D01*
X176923448Y-84289677D01*
X176993750Y-84086554D01*
X177024339Y-83873797D01*
X177014112Y-83659096D01*
X176963437Y-83450210D01*
X176963435Y-83450205D01*
X176874148Y-83254693D01*
X176859325Y-83233877D01*
X176845663Y-83214692D01*
X176822811Y-83148666D01*
X176839284Y-83080766D01*
X176889850Y-83032550D01*
X176958457Y-83019326D01*
X176965145Y-83020149D01*
X177033818Y-83030500D01*
X177296182Y-83030500D01*
X177555615Y-82991396D01*
X177806323Y-82914063D01*
X178042704Y-82800228D01*
X178259479Y-82652433D01*
X178259482Y-82652429D01*
X178259485Y-82652428D01*
X178405940Y-82516537D01*
X178451805Y-82473981D01*
X178615386Y-82268857D01*
X178705658Y-82112499D01*
X178756225Y-82064285D01*
X178813045Y-82050500D01*
X179256784Y-82050500D01*
X179323823Y-82070185D01*
X179369578Y-82122989D01*
X179379522Y-82192147D01*
X179351477Y-82254558D01*
X179161810Y-82478896D01*
X179161804Y-82478903D01*
X179159135Y-82482061D01*
X179156912Y-82485542D01*
X179156904Y-82485554D01*
X178999233Y-82732542D01*
X178999229Y-82732549D01*
X178997007Y-82736030D01*
X178995267Y-82739779D01*
X178995264Y-82739785D01*
X178871922Y-83005580D01*
X178871918Y-83005589D01*
X178870177Y-83009342D01*
X178868951Y-83013291D01*
X178868949Y-83013299D01*
X178793660Y-83256009D01*
X178780907Y-83297121D01*
X178780218Y-83301199D01*
X178780218Y-83301204D01*
X178731479Y-83590150D01*
X178730791Y-83594230D01*
X178730653Y-83598353D01*
X178730652Y-83598365D01*
X178720861Y-83891222D01*
X178720861Y-83891231D01*
X178720723Y-83895369D01*
X178721137Y-83899490D01*
X178721138Y-83899501D01*
X178750466Y-84191034D01*
X178750467Y-84191044D01*
X178750882Y-84195162D01*
X178751842Y-84199193D01*
X178751843Y-84199195D01*
X178796196Y-84385310D01*
X178820731Y-84488261D01*
X178929023Y-84769434D01*
X178931007Y-84773055D01*
X178931013Y-84773067D01*
X178983932Y-84869631D01*
X179073825Y-85033665D01*
X179076281Y-85036998D01*
X179076284Y-85037003D01*
X179167722Y-85161103D01*
X179252554Y-85276238D01*
X179462020Y-85492824D01*
X179581737Y-85587363D01*
X179695230Y-85676988D01*
X179695234Y-85676990D01*
X179698485Y-85679558D01*
X179702049Y-85681669D01*
X179702052Y-85681671D01*
X179782159Y-85729118D01*
X179957730Y-85833109D01*
X179961534Y-85834722D01*
X179961538Y-85834724D01*
X180066578Y-85879264D01*
X180235128Y-85950736D01*
X180525729Y-86030340D01*
X180824347Y-86070500D01*
X180828488Y-86070500D01*
X181048162Y-86070500D01*
X181050244Y-86070500D01*
X181275634Y-86055412D01*
X181570903Y-85995396D01*
X181855537Y-85896560D01*
X182124459Y-85760668D01*
X182372869Y-85590144D01*
X182596333Y-85388032D01*
X182790865Y-85157939D01*
X182952993Y-84903970D01*
X183079823Y-84630658D01*
X183169093Y-84342879D01*
X183219209Y-84045770D01*
X183228556Y-83766203D01*
X184925661Y-83766203D01*
X184932287Y-83905311D01*
X184935888Y-83980904D01*
X184986564Y-84189794D01*
X185075852Y-84385309D01*
X185151920Y-84492130D01*
X185200534Y-84560399D01*
X185356097Y-84708727D01*
X185430083Y-84756275D01*
X185536917Y-84824934D01*
X185575063Y-84840205D01*
X185736468Y-84904822D01*
X185947528Y-84945500D01*
X186105664Y-84945500D01*
X186108618Y-84945500D01*
X186111569Y-84945218D01*
X186111573Y-84945218D01*
X186170398Y-84939600D01*
X186268971Y-84930188D01*
X186475209Y-84869631D01*
X186666259Y-84771138D01*
X186835217Y-84638268D01*
X186975976Y-84475824D01*
X187083448Y-84289677D01*
X187153750Y-84086554D01*
X187184339Y-83873797D01*
X187174112Y-83659096D01*
X187123437Y-83450210D01*
X187123435Y-83450205D01*
X187034147Y-83254690D01*
X186941814Y-83125028D01*
X186909466Y-83079601D01*
X186753903Y-82931273D01*
X186679323Y-82883343D01*
X186573082Y-82815065D01*
X186405660Y-82748040D01*
X186373532Y-82735178D01*
X186373531Y-82735177D01*
X186373529Y-82735177D01*
X186162472Y-82694500D01*
X186001382Y-82694500D01*
X185998452Y-82694779D01*
X185998426Y-82694781D01*
X185841031Y-82709811D01*
X185634792Y-82770368D01*
X185443742Y-82868861D01*
X185386263Y-82914063D01*
X185283072Y-82995214D01*
X185274782Y-83001733D01*
X185134022Y-83164177D01*
X185026552Y-83350321D01*
X184956249Y-83553445D01*
X184925661Y-83766201D01*
X184925661Y-83766203D01*
X183228556Y-83766203D01*
X183229277Y-83744631D01*
X183199118Y-83444838D01*
X183129269Y-83151739D01*
X183020977Y-82870566D01*
X183018550Y-82866138D01*
X182949307Y-82739785D01*
X182876175Y-82606335D01*
X182865065Y-82591257D01*
X182730029Y-82407984D01*
X182697446Y-82363762D01*
X182632792Y-82296910D01*
X182597776Y-82260704D01*
X182565320Y-82198830D01*
X182571469Y-82129231D01*
X182614269Y-82074005D01*
X182680132Y-82050685D01*
X182686910Y-82050500D01*
X198258706Y-82050500D01*
X198325745Y-82070185D01*
X198371500Y-82122989D01*
X198381444Y-82192147D01*
X198352419Y-82255703D01*
X198350856Y-82257472D01*
X198219866Y-82402950D01*
X198219857Y-82402960D01*
X198217697Y-82405360D01*
X198215804Y-82407965D01*
X198215789Y-82407984D01*
X198027049Y-82667764D01*
X198027044Y-82667770D01*
X198025138Y-82670395D01*
X198023524Y-82673190D01*
X198023512Y-82673209D01*
X197862963Y-82951289D01*
X197862952Y-82951309D01*
X197861338Y-82954106D01*
X197860020Y-82957064D01*
X197860018Y-82957070D01*
X197729406Y-83250427D01*
X197729402Y-83250435D01*
X197728090Y-83253384D01*
X197727095Y-83256445D01*
X197727087Y-83256467D01*
X197630594Y-83553446D01*
X197626856Y-83564951D01*
X197626185Y-83568104D01*
X197626181Y-83568122D01*
X197559433Y-83882150D01*
X197558744Y-83885393D01*
X197558407Y-83888596D01*
X197558405Y-83888611D01*
X197524838Y-84207978D01*
X197524837Y-84207988D01*
X197524500Y-84211199D01*
X197524500Y-84214440D01*
X197524500Y-87165955D01*
X197504815Y-87232994D01*
X197454302Y-87277675D01*
X197242298Y-87379770D01*
X197025514Y-87527571D01*
X196833198Y-87706015D01*
X196669613Y-87911143D01*
X196538431Y-88138358D01*
X196442580Y-88382581D01*
X196384197Y-88638372D01*
X196364591Y-88899999D01*
X196384197Y-89161627D01*
X196442580Y-89417418D01*
X196538431Y-89661641D01*
X196661689Y-89875132D01*
X196669614Y-89888857D01*
X196822050Y-90080006D01*
X196833197Y-90093983D01*
X196842569Y-90102679D01*
X196878325Y-90162706D01*
X196875950Y-90232536D01*
X196836200Y-90289996D01*
X196771695Y-90316845D01*
X196770017Y-90317016D01*
X196636031Y-90329811D01*
X196429792Y-90390368D01*
X196238742Y-90488861D01*
X196181263Y-90534063D01*
X196082927Y-90611396D01*
X196069782Y-90621733D01*
X195929022Y-90784177D01*
X195821552Y-90970321D01*
X195751249Y-91173445D01*
X195723166Y-91368777D01*
X195720661Y-91386203D01*
X195729173Y-91564893D01*
X195730888Y-91600904D01*
X195781564Y-91809794D01*
X195870852Y-92005309D01*
X195946920Y-92112130D01*
X195995534Y-92180399D01*
X196151097Y-92328727D01*
X196225083Y-92376275D01*
X196331917Y-92444934D01*
X196371962Y-92460965D01*
X196531468Y-92524822D01*
X196742528Y-92565500D01*
X196900664Y-92565500D01*
X196903618Y-92565500D01*
X196906569Y-92565218D01*
X196906573Y-92565218D01*
X196965398Y-92559600D01*
X197063971Y-92550188D01*
X197270209Y-92489631D01*
X197461259Y-92391138D01*
X197630217Y-92258268D01*
X197770976Y-92095824D01*
X197878448Y-91909677D01*
X197948750Y-91706554D01*
X197976237Y-91515369D01*
X199675723Y-91515369D01*
X199676137Y-91519490D01*
X199676138Y-91519501D01*
X199705466Y-91811034D01*
X199705467Y-91811044D01*
X199705882Y-91815162D01*
X199706842Y-91819193D01*
X199706843Y-91819195D01*
X199751196Y-92005310D01*
X199775731Y-92108261D01*
X199884023Y-92389434D01*
X199886007Y-92393055D01*
X199886013Y-92393067D01*
X199955692Y-92520214D01*
X200028825Y-92653665D01*
X200031281Y-92656998D01*
X200031284Y-92657003D01*
X200122722Y-92781103D01*
X200207554Y-92896238D01*
X200417020Y-93112824D01*
X200536737Y-93207363D01*
X200650230Y-93296988D01*
X200650234Y-93296990D01*
X200653485Y-93299558D01*
X200657049Y-93301669D01*
X200657052Y-93301671D01*
X200730206Y-93345000D01*
X200912730Y-93453109D01*
X200916534Y-93454722D01*
X200916538Y-93454724D01*
X200952311Y-93469893D01*
X201190128Y-93570736D01*
X201480729Y-93650340D01*
X201779347Y-93690500D01*
X201783488Y-93690500D01*
X202003162Y-93690500D01*
X202005244Y-93690500D01*
X202230634Y-93675412D01*
X202525903Y-93615396D01*
X202810537Y-93516560D01*
X203079459Y-93380668D01*
X203327869Y-93210144D01*
X203551333Y-93008032D01*
X203745865Y-92777939D01*
X203907993Y-92523970D01*
X204034823Y-92250658D01*
X204124093Y-91962879D01*
X204174209Y-91665770D01*
X204183556Y-91386203D01*
X205880661Y-91386203D01*
X205889173Y-91564893D01*
X205890888Y-91600904D01*
X205941564Y-91809794D01*
X206030852Y-92005309D01*
X206106920Y-92112130D01*
X206155534Y-92180399D01*
X206311097Y-92328727D01*
X206385083Y-92376275D01*
X206491917Y-92444934D01*
X206531962Y-92460965D01*
X206691468Y-92524822D01*
X206902528Y-92565500D01*
X207060664Y-92565500D01*
X207063618Y-92565500D01*
X207066569Y-92565218D01*
X207066573Y-92565218D01*
X207125398Y-92559600D01*
X207223971Y-92550188D01*
X207430209Y-92489631D01*
X207621259Y-92391138D01*
X207790217Y-92258268D01*
X207930976Y-92095824D01*
X208038448Y-91909677D01*
X208108750Y-91706554D01*
X208139339Y-91493797D01*
X208129112Y-91279096D01*
X208078437Y-91070210D01*
X208078435Y-91070205D01*
X207989147Y-90874690D01*
X207901602Y-90751752D01*
X207864466Y-90699601D01*
X207708903Y-90551273D01*
X207676053Y-90530161D01*
X207528082Y-90435065D01*
X207368574Y-90371208D01*
X207328532Y-90355178D01*
X207328531Y-90355177D01*
X207328529Y-90355177D01*
X207117472Y-90314500D01*
X206956382Y-90314500D01*
X206953452Y-90314779D01*
X206953426Y-90314781D01*
X206796031Y-90329811D01*
X206589792Y-90390368D01*
X206398742Y-90488861D01*
X206341263Y-90534063D01*
X206242927Y-90611396D01*
X206229782Y-90621733D01*
X206089022Y-90784177D01*
X205981552Y-90970321D01*
X205911249Y-91173445D01*
X205883166Y-91368777D01*
X205880661Y-91386203D01*
X204183556Y-91386203D01*
X204184277Y-91364631D01*
X204154118Y-91064838D01*
X204084269Y-90771739D01*
X203975977Y-90490566D01*
X203831175Y-90226335D01*
X203652446Y-89983762D01*
X203442980Y-89767176D01*
X203316770Y-89667509D01*
X203209769Y-89583011D01*
X203209762Y-89583006D01*
X203206515Y-89580442D01*
X203202954Y-89578332D01*
X203202947Y-89578328D01*
X202950831Y-89429000D01*
X202950828Y-89428998D01*
X202947270Y-89426891D01*
X202943471Y-89425280D01*
X202943461Y-89425275D01*
X202673681Y-89310879D01*
X202673678Y-89310878D01*
X202669872Y-89309264D01*
X202665885Y-89308172D01*
X202665877Y-89308169D01*
X202383278Y-89230757D01*
X202383269Y-89230755D01*
X202379271Y-89229660D01*
X202375164Y-89229107D01*
X202375156Y-89229106D01*
X202084754Y-89190051D01*
X202084746Y-89190050D01*
X202080653Y-89189500D01*
X201854756Y-89189500D01*
X201852682Y-89189638D01*
X201852677Y-89189639D01*
X201633498Y-89204311D01*
X201633492Y-89204311D01*
X201629366Y-89204588D01*
X201625309Y-89205412D01*
X201625306Y-89205413D01*
X201338165Y-89263777D01*
X201338162Y-89263777D01*
X201334097Y-89264604D01*
X201330183Y-89265963D01*
X201330176Y-89265965D01*
X201053375Y-89362081D01*
X201053367Y-89362084D01*
X201049463Y-89363440D01*
X201045771Y-89365305D01*
X201045763Y-89365309D01*
X200784242Y-89497461D01*
X200784232Y-89497466D01*
X200780541Y-89499332D01*
X200777130Y-89501672D01*
X200777124Y-89501677D01*
X200535548Y-89667509D01*
X200535534Y-89667519D01*
X200532131Y-89669856D01*
X200529066Y-89672627D01*
X200529056Y-89672636D01*
X200311741Y-89869187D01*
X200311735Y-89869192D01*
X200308667Y-89871968D01*
X200305998Y-89875123D01*
X200305991Y-89875132D01*
X200116810Y-90098896D01*
X200116804Y-90098903D01*
X200114135Y-90102061D01*
X200111912Y-90105542D01*
X200111904Y-90105554D01*
X199954233Y-90352542D01*
X199954229Y-90352549D01*
X199952007Y-90356030D01*
X199950267Y-90359779D01*
X199950264Y-90359785D01*
X199826922Y-90625580D01*
X199826918Y-90625589D01*
X199825177Y-90629342D01*
X199823951Y-90633291D01*
X199823949Y-90633299D01*
X199775718Y-90788781D01*
X199735907Y-90917121D01*
X199735218Y-90921199D01*
X199735218Y-90921204D01*
X199692670Y-91173446D01*
X199685791Y-91214230D01*
X199685653Y-91218353D01*
X199685652Y-91218365D01*
X199675861Y-91511222D01*
X199675861Y-91511231D01*
X199675723Y-91515369D01*
X197976237Y-91515369D01*
X197979339Y-91493797D01*
X197969112Y-91279096D01*
X197918437Y-91070210D01*
X197918435Y-91070205D01*
X197829148Y-90874693D01*
X197800664Y-90834693D01*
X197777811Y-90768666D01*
X197794284Y-90700766D01*
X197844850Y-90652550D01*
X197913457Y-90639326D01*
X197920145Y-90640149D01*
X197988818Y-90650500D01*
X198251182Y-90650500D01*
X198510615Y-90611396D01*
X198761323Y-90534063D01*
X198997704Y-90420228D01*
X199214479Y-90272433D01*
X199214482Y-90272429D01*
X199214485Y-90272428D01*
X199394332Y-90105554D01*
X199406805Y-90093981D01*
X199570386Y-89888857D01*
X199701568Y-89661643D01*
X199797420Y-89417416D01*
X199855802Y-89161630D01*
X199875408Y-88900000D01*
X199855802Y-88638370D01*
X199797420Y-88382584D01*
X199701568Y-88138357D01*
X199570386Y-87911143D01*
X199406805Y-87706019D01*
X199406801Y-87706015D01*
X199214485Y-87527571D01*
X198997701Y-87379770D01*
X198845698Y-87306569D01*
X198793838Y-87259746D01*
X198775500Y-87194849D01*
X198775500Y-86360000D01*
X202715092Y-86360000D01*
X202734693Y-86621552D01*
X202793059Y-86877270D01*
X202888882Y-87121424D01*
X203020027Y-87348573D01*
X203067873Y-87408571D01*
X203067874Y-87408571D01*
X203792803Y-86683641D01*
X203816059Y-86737553D01*
X203920756Y-86878185D01*
X204055062Y-86990882D01*
X204146665Y-87036886D01*
X203420831Y-87762720D01*
X203592546Y-87879793D01*
X203828860Y-87993596D01*
X204079496Y-88070908D01*
X204338856Y-88110000D01*
X204601144Y-88110000D01*
X204860503Y-88070908D01*
X205111139Y-87993596D01*
X205347456Y-87879792D01*
X205519167Y-87762720D01*
X204795946Y-87039498D01*
X204808891Y-87034787D01*
X204955373Y-86938445D01*
X205075688Y-86810918D01*
X205148447Y-86684894D01*
X205872124Y-87408571D01*
X205919972Y-87348572D01*
X206051117Y-87121423D01*
X206146940Y-86877270D01*
X206205306Y-86621552D01*
X206224907Y-86360000D01*
X206205306Y-86098447D01*
X206146940Y-85842729D01*
X206051117Y-85598575D01*
X205919972Y-85371426D01*
X205872125Y-85311427D01*
X205147195Y-86036357D01*
X205123941Y-85982447D01*
X205019244Y-85841815D01*
X204884938Y-85729118D01*
X204793333Y-85683112D01*
X205519167Y-84957278D01*
X205347451Y-84840205D01*
X205111139Y-84726403D01*
X204860503Y-84649091D01*
X204601144Y-84610000D01*
X204338856Y-84610000D01*
X204079496Y-84649091D01*
X203828860Y-84726403D01*
X203592545Y-84840206D01*
X203420832Y-84957278D01*
X204144055Y-85680501D01*
X204131109Y-85685213D01*
X203984627Y-85781555D01*
X203864312Y-85909082D01*
X203791552Y-86035105D01*
X203067873Y-85311427D01*
X203020028Y-85371424D01*
X202888882Y-85598576D01*
X202793059Y-85842729D01*
X202734693Y-86098447D01*
X202715092Y-86360000D01*
X198775500Y-86360000D01*
X198775500Y-85830999D01*
X198775500Y-84379020D01*
X198775763Y-84370973D01*
X198791005Y-84138430D01*
X198793120Y-84122365D01*
X198837786Y-83897815D01*
X198841984Y-83882150D01*
X198863802Y-83817874D01*
X198915578Y-83665348D01*
X198921776Y-83650382D01*
X199023043Y-83445033D01*
X199031146Y-83430998D01*
X199158351Y-83240622D01*
X199168208Y-83227776D01*
X199319174Y-83055632D01*
X199330632Y-83044174D01*
X199502776Y-82893208D01*
X199515622Y-82883351D01*
X199705998Y-82756146D01*
X199720033Y-82748043D01*
X199925382Y-82646776D01*
X199940348Y-82640578D01*
X200142585Y-82571928D01*
X200157150Y-82566984D01*
X200172817Y-82562786D01*
X200208225Y-82555743D01*
X200397365Y-82518120D01*
X200413417Y-82516006D01*
X200645971Y-82500764D01*
X200654052Y-82500500D01*
X210435559Y-82500500D01*
X210438801Y-82500500D01*
X210764607Y-82466256D01*
X211085049Y-82398144D01*
X211145009Y-82378661D01*
X211214846Y-82376666D01*
X211274679Y-82412746D01*
X211305508Y-82475447D01*
X211307322Y-82495969D01*
X211390369Y-98987515D01*
X211390097Y-98996371D01*
X211372918Y-99254565D01*
X211370484Y-99272107D01*
X211317620Y-99520881D01*
X211312711Y-99537898D01*
X211224946Y-99776602D01*
X211217663Y-99792745D01*
X211096787Y-100016513D01*
X211087278Y-100031454D01*
X210935763Y-100235711D01*
X210924223Y-100249146D01*
X210745147Y-100429743D01*
X210731811Y-100441396D01*
X210528841Y-100594635D01*
X210513981Y-100604269D01*
X210291242Y-100727034D01*
X210275161Y-100734454D01*
X210037204Y-100824236D01*
X210020229Y-100829288D01*
X209771921Y-100884252D01*
X209754400Y-100886835D01*
X209496357Y-100906197D01*
X209487503Y-100906544D01*
X194314426Y-100958465D01*
X194305560Y-100958178D01*
X194048028Y-100940605D01*
X194030470Y-100938136D01*
X193782414Y-100884941D01*
X193765388Y-100879994D01*
X193527469Y-100791972D01*
X193511322Y-100784647D01*
X193288378Y-100663585D01*
X193273441Y-100654031D01*
X193070048Y-100502413D01*
X193056627Y-100490827D01*
X192876938Y-100311751D01*
X192865306Y-100298370D01*
X192818263Y-100235711D01*
X192712990Y-100095492D01*
X192703391Y-100080595D01*
X192581567Y-99858067D01*
X192574186Y-99841946D01*
X192485345Y-99604319D01*
X192480343Y-99587324D01*
X192426299Y-99339443D01*
X192423773Y-99321912D01*
X192405317Y-99064422D01*
X192405000Y-99055557D01*
X192405000Y-95252215D01*
X192405000Y-95252214D01*
X192405000Y-95250000D01*
X192405000Y-93345000D01*
X190500000Y-93345000D01*
X190497785Y-93345000D01*
X173359428Y-93345000D01*
X173350582Y-93344684D01*
X173092734Y-93326242D01*
X173075222Y-93323724D01*
X172826969Y-93269720D01*
X172809993Y-93264736D01*
X172571940Y-93175946D01*
X172555847Y-93168596D01*
X172332861Y-93046837D01*
X172317978Y-93037272D01*
X172114589Y-92885017D01*
X172101218Y-92873431D01*
X171921568Y-92693781D01*
X171909982Y-92680410D01*
X171757727Y-92477021D01*
X171748162Y-92462138D01*
X171626403Y-92239152D01*
X171619053Y-92223059D01*
X171537836Y-92005309D01*
X171530260Y-91984998D01*
X171525281Y-91968039D01*
X171471274Y-91719771D01*
X171468757Y-91702265D01*
X171450316Y-91444418D01*
X171450000Y-91435572D01*
X171450000Y-89537215D01*
X171450000Y-89537214D01*
X171450000Y-89535000D01*
X171450000Y-89534999D01*
X171450000Y-87630000D01*
X169545000Y-87630000D01*
X169542785Y-87630000D01*
X154307215Y-87630000D01*
X154305000Y-87630000D01*
X152400000Y-87630000D01*
X152400000Y-89534999D01*
X152400000Y-89535000D01*
X152381242Y-89797265D01*
X152378724Y-89814777D01*
X152324720Y-90063030D01*
X152319736Y-90080006D01*
X152230946Y-90318059D01*
X152223596Y-90334152D01*
X152101837Y-90557138D01*
X152092272Y-90572021D01*
X151940017Y-90775410D01*
X151928431Y-90788781D01*
X151748781Y-90968431D01*
X151735410Y-90980017D01*
X151532021Y-91132272D01*
X151517138Y-91141837D01*
X151294152Y-91263596D01*
X151278059Y-91270946D01*
X151040006Y-91359736D01*
X151023030Y-91364720D01*
X150774777Y-91418724D01*
X150757265Y-91421242D01*
X150499418Y-91439684D01*
X150490572Y-91440000D01*
X135259428Y-91440000D01*
X135250582Y-91439684D01*
X134992734Y-91421242D01*
X134975222Y-91418724D01*
X134726969Y-91364720D01*
X134709993Y-91359736D01*
X134471940Y-91270946D01*
X134455847Y-91263596D01*
X134232861Y-91141837D01*
X134217978Y-91132272D01*
X134014589Y-90980017D01*
X134001218Y-90968431D01*
X133821568Y-90788781D01*
X133809982Y-90775410D01*
X133657727Y-90572021D01*
X133648162Y-90557138D01*
X133526403Y-90334152D01*
X133519053Y-90318059D01*
X133435477Y-90093984D01*
X133430260Y-90079998D01*
X133425281Y-90063039D01*
X133371274Y-89814771D01*
X133368757Y-89797265D01*
X133366421Y-89764607D01*
X133350316Y-89539418D01*
X133350000Y-89530572D01*
X133350000Y-80012215D01*
X133350000Y-80012214D01*
X133350000Y-80010000D01*
X133350000Y-80009999D01*
X133350000Y-78105000D01*
X131445000Y-78105000D01*
X131442785Y-78105000D01*
X114304428Y-78105000D01*
X114295582Y-78104684D01*
X114037734Y-78086242D01*
X114020222Y-78083724D01*
X113771969Y-78029720D01*
X113754993Y-78024736D01*
X113516940Y-77935946D01*
X113500847Y-77928596D01*
X113277861Y-77806837D01*
X113262978Y-77797272D01*
X113059589Y-77645017D01*
X113046218Y-77633431D01*
X112866568Y-77453781D01*
X112854982Y-77440410D01*
X112702727Y-77237021D01*
X112693162Y-77222138D01*
X112571403Y-76999152D01*
X112564053Y-76983059D01*
X112528596Y-76887996D01*
X112475260Y-76744998D01*
X112470281Y-76728039D01*
X112416274Y-76479771D01*
X112413757Y-76462265D01*
X112411421Y-76429609D01*
X112395316Y-76204418D01*
X112395000Y-76195572D01*
X112395000Y-60964427D01*
X112395316Y-60955581D01*
X112402326Y-60857571D01*
X112413757Y-60697727D01*
X112416273Y-60680230D01*
X112470282Y-60431956D01*
X112475259Y-60415005D01*
X112564053Y-60176939D01*
X112571403Y-60160847D01*
X112585400Y-60135214D01*
X112693166Y-59937853D01*
X112702722Y-59922984D01*
X112854987Y-59719582D01*
X112866561Y-59706225D01*
X113046225Y-59526561D01*
X113059582Y-59514987D01*
X113262984Y-59362722D01*
X113277853Y-59353166D01*
X113500847Y-59231402D01*
X113516940Y-59224053D01*
X113538788Y-59215904D01*
X113755005Y-59135259D01*
X113771956Y-59130282D01*
X114020230Y-59076273D01*
X114037727Y-59073757D01*
X114295581Y-59055316D01*
X114304428Y-59055000D01*
X131442785Y-59055000D01*
X131445000Y-59055000D01*
X133350000Y-59055000D01*
X133350000Y-55249426D01*
X133350316Y-55240581D01*
X133361972Y-55077610D01*
X133368757Y-54982727D01*
X133371273Y-54965230D01*
X133425282Y-54716956D01*
X133430259Y-54700005D01*
X133519053Y-54461939D01*
X133526403Y-54445847D01*
X133590450Y-54328553D01*
X133648166Y-54222853D01*
X133657722Y-54207984D01*
X133809987Y-54004582D01*
X133821561Y-53991225D01*
X134001225Y-53811561D01*
X134014582Y-53799987D01*
X134217984Y-53647722D01*
X134232853Y-53638166D01*
X134455847Y-53516402D01*
X134471940Y-53509053D01*
X134475157Y-53507853D01*
X134710005Y-53420259D01*
X134726956Y-53415282D01*
X134975230Y-53361273D01*
X134992727Y-53358757D01*
X135250581Y-53340316D01*
X135259428Y-53340000D01*
X150492785Y-53340000D01*
X150495000Y-53340000D01*
X152400000Y-53340000D01*
X152400000Y-51434999D01*
X152418757Y-51172727D01*
X152421273Y-51155230D01*
X152475282Y-50906956D01*
X152480259Y-50890005D01*
X152569053Y-50651939D01*
X152576403Y-50635847D01*
X152698166Y-50412853D01*
X152707722Y-50397984D01*
X152859987Y-50194582D01*
X152871561Y-50181225D01*
X153051225Y-50001561D01*
X153064582Y-49989987D01*
X153267984Y-49837722D01*
X153282853Y-49828166D01*
X153505847Y-49706402D01*
X153521940Y-49699053D01*
X153760005Y-49610259D01*
X153776956Y-49605282D01*
X154025230Y-49551273D01*
X154042727Y-49548757D01*
X154300581Y-49530316D01*
X154309428Y-49530000D01*
X169540572Y-49530000D01*
X169549418Y-49530316D01*
G37*
%TD.AperFunction*%
%TD*%
M02*
