%TF.GenerationSoftware,KiCad,Pcbnew,7.0.2*%
%TF.CreationDate,2023-09-16T14:44:34-04:00*%
%TF.ProjectId,j-artsey-v1,6a2d6172-7473-4657-992d-76312e6b6963,rev?*%
%TF.SameCoordinates,Original*%
%TF.FileFunction,Soldermask,Top*%
%TF.FilePolarity,Negative*%
%FSLAX46Y46*%
G04 Gerber Fmt 4.6, Leading zero omitted, Abs format (unit mm)*
G04 Created by KiCad (PCBNEW 7.0.2) date 2023-09-16 14:44:34*
%MOMM*%
%LPD*%
G01*
G04 APERTURE LIST*
G04 Aperture macros list*
%AMRoundRect*
0 Rectangle with rounded corners*
0 $1 Rounding radius*
0 $2 $3 $4 $5 $6 $7 $8 $9 X,Y pos of 4 corners*
0 Add a 4 corners polygon primitive as box body*
4,1,4,$2,$3,$4,$5,$6,$7,$8,$9,$2,$3,0*
0 Add four circle primitives for the rounded corners*
1,1,$1+$1,$2,$3*
1,1,$1+$1,$4,$5*
1,1,$1+$1,$6,$7*
1,1,$1+$1,$8,$9*
0 Add four rect primitives between the rounded corners*
20,1,$1+$1,$2,$3,$4,$5,0*
20,1,$1+$1,$4,$5,$6,$7,0*
20,1,$1+$1,$6,$7,$8,$9,0*
20,1,$1+$1,$8,$9,$2,$3,0*%
G04 Aperture macros list end*
%ADD10C,1.750000*%
%ADD11C,1.550000*%
%ADD12C,4.000000*%
%ADD13RoundRect,0.500000X-0.875000X-0.500000X0.875000X-0.500000X0.875000X0.500000X-0.875000X0.500000X0*%
G04 APERTURE END LIST*
D10*
%TO.C,MX2*%
X137795000Y-62865000D03*
D11*
X139065000Y-60325000D03*
D12*
X142875000Y-62865000D03*
D11*
X145415000Y-57785000D03*
D10*
X147955000Y-62865000D03*
%TD*%
%TO.C,MX3*%
X156845000Y-59055000D03*
D11*
X158115000Y-56515000D03*
D12*
X161925000Y-59055000D03*
D11*
X164465000Y-53975000D03*
D10*
X167005000Y-59055000D03*
%TD*%
%TO.C,MX1*%
X116840000Y-68580000D03*
D11*
X118110000Y-66040000D03*
D12*
X121920000Y-68580000D03*
D11*
X124460000Y-63500000D03*
D10*
X127000000Y-68580000D03*
%TD*%
%TO.C,MX4*%
X175895000Y-64770000D03*
D11*
X177165000Y-62230000D03*
D12*
X180975000Y-64770000D03*
D11*
X183515000Y-59690000D03*
D10*
X186055000Y-64770000D03*
%TD*%
D13*
%TO.C,U1*%
X193847500Y-55150000D03*
X193847500Y-57690000D03*
X193847500Y-60230000D03*
X193847500Y-62770000D03*
X193847500Y-65310000D03*
X193847500Y-67850000D03*
X193847500Y-70390000D03*
X210012500Y-70390000D03*
X210012500Y-67850000D03*
X210012500Y-65310000D03*
X210012500Y-62770000D03*
X210012500Y-60230000D03*
X210012500Y-57690000D03*
X210012500Y-55150000D03*
%TD*%
D10*
%TO.C,MX8*%
X196850000Y-91440000D03*
D11*
X198120000Y-88900000D03*
D12*
X201930000Y-91440000D03*
D11*
X204470000Y-86360000D03*
D10*
X207010000Y-91440000D03*
%TD*%
%TO.C,MX5*%
X137795000Y-81915000D03*
D11*
X139065000Y-79375000D03*
D12*
X142875000Y-81915000D03*
D11*
X145415000Y-76835000D03*
D10*
X147955000Y-81915000D03*
%TD*%
%TO.C,MX7*%
X175895000Y-83820000D03*
D11*
X177165000Y-81280000D03*
D12*
X180975000Y-83820000D03*
D11*
X183515000Y-78740000D03*
D10*
X186055000Y-83820000D03*
%TD*%
%TO.C,MX6*%
X156845000Y-78105000D03*
D11*
X158115000Y-75565000D03*
D12*
X161925000Y-78105000D03*
D11*
X164465000Y-73025000D03*
D10*
X167005000Y-78105000D03*
%TD*%
M02*
