%TF.GenerationSoftware,KiCad,Pcbnew,7.0.2*%
%TF.CreationDate,2023-09-16T14:45:10-04:00*%
%TF.ProjectId,j-artsey-v1,6a2d6172-7473-4657-992d-76312e6b6963,rev?*%
%TF.SameCoordinates,Original*%
%TF.FileFunction,Drillmap*%
%TF.FilePolarity,Positive*%
%FSLAX45Y45*%
G04 Gerber Fmt 4.5, Leading zero omitted, Abs format (unit mm)*
G04 Created by KiCad (PCBNEW 7.0.2) date 2023-09-16 14:45:10*
%MOMM*%
%LPD*%
G01*
G04 APERTURE LIST*
%ADD10C,0.100000*%
%ADD11C,0.200000*%
%ADD12C,0.175000*%
%ADD13C,0.400000*%
G04 APERTURE END LIST*
D10*
X13144500Y-8191500D02*
X13144500Y-8953500D01*
X16954500Y-9334500D02*
X16954500Y-9144000D01*
X13335000Y-5143500D02*
X13525500Y-5143500D01*
X15240000Y-9334500D02*
G75*
G03*
X15430500Y-9144000I0J190500D01*
G01*
X11430000Y-8001000D02*
X12954000Y-8001000D01*
X17335500Y-4953000D02*
X17335500Y-5143500D01*
X16954500Y-4762500D02*
X17145000Y-4762500D01*
X11239500Y-5715000D02*
G75*
G03*
X11049000Y-5905500I0J-190500D01*
G01*
X21145500Y-10287000D02*
G75*
G03*
X21336000Y-10096500I0J190500D01*
G01*
X12954000Y-5715000D02*
X11430000Y-5715000D01*
X20574000Y-5143500D02*
G75*
G03*
X20764500Y-4953000I0J190500D01*
G01*
X16954500Y-9334500D02*
G75*
G03*
X17145000Y-9525000I190500J0D01*
G01*
X11430000Y-8001000D02*
X11239500Y-8001000D01*
X21336000Y-5143500D02*
G75*
G03*
X21145500Y-4953000I-190500J0D01*
G01*
X11049000Y-7810500D02*
G75*
G03*
X11239500Y-8001000I190500J0D01*
G01*
X18859500Y-5334000D02*
G75*
G03*
X19050000Y-5143500I0J190500D01*
G01*
X19240500Y-10287000D02*
X21145500Y-10287000D01*
X15240000Y-4762500D02*
X15430500Y-4762500D01*
X19050000Y-10096500D02*
X19050000Y-9906000D01*
X11239500Y-5715000D02*
X11430000Y-5715000D01*
X13525500Y-9334500D02*
X13335000Y-9334500D01*
X19621500Y-4953000D02*
G75*
G03*
X19812000Y-5143500I190500J0D01*
G01*
X19050000Y-10096500D02*
G75*
G03*
X19240500Y-10287000I190500J0D01*
G01*
X17526000Y-5334000D02*
X18859500Y-5334000D01*
X13335000Y-5143500D02*
G75*
G03*
X13144500Y-5334000I0J-190500D01*
G01*
X17335500Y-4953000D02*
G75*
G03*
X17145000Y-4762500I-190500J0D01*
G01*
X15240000Y-9334500D02*
X15049500Y-9334500D01*
X17335500Y-9525000D02*
X17145000Y-9525000D01*
X21336000Y-9906000D02*
X21336000Y-10096500D01*
X11049000Y-6096000D02*
X11049000Y-5905500D01*
X11049000Y-6096000D02*
X11049000Y-7620000D01*
X17335500Y-5143500D02*
G75*
G03*
X17526000Y-5334000I190500J0D01*
G01*
X15621000Y-8953500D02*
G75*
G03*
X15430500Y-9144000I0J-190500D01*
G01*
X16954500Y-9144000D02*
G75*
G03*
X16764000Y-8953500I-190500J0D01*
G01*
X12954000Y-5715000D02*
G75*
G03*
X13144500Y-5524500I0J190500D01*
G01*
X17335500Y-9525000D02*
X18859500Y-9525000D01*
X13144500Y-5524500D02*
X13144500Y-5334000D01*
X11049000Y-7810500D02*
X11049000Y-7620000D01*
X19240500Y-4953000D02*
G75*
G03*
X19050000Y-5143500I0J-190500D01*
G01*
X14859000Y-5143500D02*
X13525500Y-5143500D01*
X21145500Y-4953000D02*
X20764500Y-4953000D01*
X19050000Y-9715500D02*
X19050000Y-9906000D01*
X15240000Y-4762500D02*
G75*
G03*
X15049500Y-4953000I0J-190500D01*
G01*
X13144500Y-9144000D02*
X13144500Y-8953500D01*
X13144500Y-9144000D02*
G75*
G03*
X13335000Y-9334500I190500J0D01*
G01*
X20574000Y-5143500D02*
X19812000Y-5143500D01*
X19050000Y-9715500D02*
G75*
G03*
X18859500Y-9525000I-190500J0D01*
G01*
X21336000Y-5143500D02*
X21336000Y-9906000D01*
X13144500Y-8191500D02*
G75*
G03*
X12954000Y-8001000I-190500J0D01*
G01*
X13525500Y-9334500D02*
X15049500Y-9334500D01*
X19240500Y-4953000D02*
X19621500Y-4953000D01*
X15621000Y-8953500D02*
X16764000Y-8953500D01*
X16954500Y-4762500D02*
X15430500Y-4762500D01*
X14859000Y-5143500D02*
G75*
G03*
X15049500Y-4953000I0J190500D01*
G01*
D11*
D12*
X11596500Y-6770500D02*
X11771500Y-6945500D01*
X11771500Y-6770500D02*
X11596500Y-6945500D01*
X12612500Y-6770500D02*
X12787500Y-6945500D01*
X12787500Y-6770500D02*
X12612500Y-6945500D01*
X13692000Y-6199000D02*
X13867000Y-6374000D01*
X13867000Y-6199000D02*
X13692000Y-6374000D01*
X13692000Y-8104000D02*
X13867000Y-8279000D01*
X13867000Y-8104000D02*
X13692000Y-8279000D01*
X14708000Y-6199000D02*
X14883000Y-6374000D01*
X14883000Y-6199000D02*
X14708000Y-6374000D01*
X14708000Y-8104000D02*
X14883000Y-8279000D01*
X14883000Y-8104000D02*
X14708000Y-8279000D01*
X15597000Y-5818000D02*
X15772000Y-5993000D01*
X15772000Y-5818000D02*
X15597000Y-5993000D01*
X15597000Y-7723000D02*
X15772000Y-7898000D01*
X15772000Y-7723000D02*
X15597000Y-7898000D01*
X16613000Y-5818000D02*
X16788000Y-5993000D01*
X16788000Y-5818000D02*
X16613000Y-5993000D01*
X16613000Y-7723000D02*
X16788000Y-7898000D01*
X16788000Y-7723000D02*
X16613000Y-7898000D01*
X17502000Y-6389500D02*
X17677000Y-6564500D01*
X17677000Y-6389500D02*
X17502000Y-6564500D01*
X17502000Y-8294500D02*
X17677000Y-8469500D01*
X17677000Y-8294500D02*
X17502000Y-8469500D01*
X18518000Y-6389500D02*
X18693000Y-6564500D01*
X18693000Y-6389500D02*
X18518000Y-6564500D01*
X18518000Y-8294500D02*
X18693000Y-8469500D01*
X18693000Y-8294500D02*
X18518000Y-8469500D01*
X19597500Y-9056500D02*
X19772500Y-9231500D01*
X19772500Y-9056500D02*
X19597500Y-9231500D01*
X20613500Y-9056500D02*
X20788500Y-9231500D01*
X20788500Y-9056500D02*
X20613500Y-9231500D01*
D13*
X12392000Y-6858000D02*
G75*
G03*
X12392000Y-6858000I-200000J0D01*
G01*
X14487500Y-6286500D02*
G75*
G03*
X14487500Y-6286500I-200000J0D01*
G01*
X14487500Y-8191500D02*
G75*
G03*
X14487500Y-8191500I-200000J0D01*
G01*
X16392500Y-5905500D02*
G75*
G03*
X16392500Y-5905500I-200000J0D01*
G01*
X16392500Y-7810500D02*
G75*
G03*
X16392500Y-7810500I-200000J0D01*
G01*
X18297500Y-6477000D02*
G75*
G03*
X18297500Y-6477000I-200000J0D01*
G01*
X18297500Y-8382000D02*
G75*
G03*
X18297500Y-8382000I-200000J0D01*
G01*
X20393000Y-9144000D02*
G75*
G03*
X20393000Y-9144000I-200000J0D01*
G01*
D11*
X11291619Y-10604524D02*
X11291619Y-10404524D01*
X11291619Y-10404524D02*
X11339238Y-10404524D01*
X11339238Y-10404524D02*
X11367809Y-10414048D01*
X11367809Y-10414048D02*
X11386857Y-10433095D01*
X11386857Y-10433095D02*
X11396381Y-10452143D01*
X11396381Y-10452143D02*
X11405905Y-10490238D01*
X11405905Y-10490238D02*
X11405905Y-10518810D01*
X11405905Y-10518810D02*
X11396381Y-10556905D01*
X11396381Y-10556905D02*
X11386857Y-10575952D01*
X11386857Y-10575952D02*
X11367809Y-10595000D01*
X11367809Y-10595000D02*
X11339238Y-10604524D01*
X11339238Y-10604524D02*
X11291619Y-10604524D01*
X11491619Y-10604524D02*
X11491619Y-10471190D01*
X11491619Y-10509286D02*
X11501143Y-10490238D01*
X11501143Y-10490238D02*
X11510667Y-10480714D01*
X11510667Y-10480714D02*
X11529714Y-10471190D01*
X11529714Y-10471190D02*
X11548762Y-10471190D01*
X11615428Y-10604524D02*
X11615428Y-10471190D01*
X11615428Y-10404524D02*
X11605905Y-10414048D01*
X11605905Y-10414048D02*
X11615428Y-10423571D01*
X11615428Y-10423571D02*
X11624952Y-10414048D01*
X11624952Y-10414048D02*
X11615428Y-10404524D01*
X11615428Y-10404524D02*
X11615428Y-10423571D01*
X11739238Y-10604524D02*
X11720190Y-10595000D01*
X11720190Y-10595000D02*
X11710667Y-10575952D01*
X11710667Y-10575952D02*
X11710667Y-10404524D01*
X11844000Y-10604524D02*
X11824952Y-10595000D01*
X11824952Y-10595000D02*
X11815428Y-10575952D01*
X11815428Y-10575952D02*
X11815428Y-10404524D01*
X12072571Y-10604524D02*
X12072571Y-10404524D01*
X12072571Y-10404524D02*
X12139238Y-10547381D01*
X12139238Y-10547381D02*
X12205905Y-10404524D01*
X12205905Y-10404524D02*
X12205905Y-10604524D01*
X12386857Y-10604524D02*
X12386857Y-10499762D01*
X12386857Y-10499762D02*
X12377333Y-10480714D01*
X12377333Y-10480714D02*
X12358286Y-10471190D01*
X12358286Y-10471190D02*
X12320190Y-10471190D01*
X12320190Y-10471190D02*
X12301143Y-10480714D01*
X12386857Y-10595000D02*
X12367809Y-10604524D01*
X12367809Y-10604524D02*
X12320190Y-10604524D01*
X12320190Y-10604524D02*
X12301143Y-10595000D01*
X12301143Y-10595000D02*
X12291619Y-10575952D01*
X12291619Y-10575952D02*
X12291619Y-10556905D01*
X12291619Y-10556905D02*
X12301143Y-10537857D01*
X12301143Y-10537857D02*
X12320190Y-10528333D01*
X12320190Y-10528333D02*
X12367809Y-10528333D01*
X12367809Y-10528333D02*
X12386857Y-10518810D01*
X12482095Y-10471190D02*
X12482095Y-10671190D01*
X12482095Y-10480714D02*
X12501143Y-10471190D01*
X12501143Y-10471190D02*
X12539238Y-10471190D01*
X12539238Y-10471190D02*
X12558286Y-10480714D01*
X12558286Y-10480714D02*
X12567809Y-10490238D01*
X12567809Y-10490238D02*
X12577333Y-10509286D01*
X12577333Y-10509286D02*
X12577333Y-10566429D01*
X12577333Y-10566429D02*
X12567809Y-10585476D01*
X12567809Y-10585476D02*
X12558286Y-10595000D01*
X12558286Y-10595000D02*
X12539238Y-10604524D01*
X12539238Y-10604524D02*
X12501143Y-10604524D01*
X12501143Y-10604524D02*
X12482095Y-10595000D01*
X12663048Y-10585476D02*
X12672571Y-10595000D01*
X12672571Y-10595000D02*
X12663048Y-10604524D01*
X12663048Y-10604524D02*
X12653524Y-10595000D01*
X12653524Y-10595000D02*
X12663048Y-10585476D01*
X12663048Y-10585476D02*
X12663048Y-10604524D01*
X12663048Y-10480714D02*
X12672571Y-10490238D01*
X12672571Y-10490238D02*
X12663048Y-10499762D01*
X12663048Y-10499762D02*
X12653524Y-10490238D01*
X12653524Y-10490238D02*
X12663048Y-10480714D01*
X12663048Y-10480714D02*
X12663048Y-10499762D01*
D12*
X10869000Y-10844500D02*
X11044000Y-11019500D01*
X11044000Y-10844500D02*
X10869000Y-11019500D01*
D11*
X11396381Y-11024524D02*
X11282095Y-11024524D01*
X11339238Y-11024524D02*
X11339238Y-10824524D01*
X11339238Y-10824524D02*
X11320190Y-10853095D01*
X11320190Y-10853095D02*
X11301143Y-10872143D01*
X11301143Y-10872143D02*
X11282095Y-10881667D01*
X11482095Y-11005476D02*
X11491619Y-11015000D01*
X11491619Y-11015000D02*
X11482095Y-11024524D01*
X11482095Y-11024524D02*
X11472571Y-11015000D01*
X11472571Y-11015000D02*
X11482095Y-11005476D01*
X11482095Y-11005476D02*
X11482095Y-11024524D01*
X11558286Y-10824524D02*
X11691619Y-10824524D01*
X11691619Y-10824524D02*
X11605905Y-11024524D01*
X11863048Y-10824524D02*
X11767809Y-10824524D01*
X11767809Y-10824524D02*
X11758286Y-10919762D01*
X11758286Y-10919762D02*
X11767809Y-10910238D01*
X11767809Y-10910238D02*
X11786857Y-10900714D01*
X11786857Y-10900714D02*
X11834476Y-10900714D01*
X11834476Y-10900714D02*
X11853524Y-10910238D01*
X11853524Y-10910238D02*
X11863048Y-10919762D01*
X11863048Y-10919762D02*
X11872571Y-10938810D01*
X11872571Y-10938810D02*
X11872571Y-10986429D01*
X11872571Y-10986429D02*
X11863048Y-11005476D01*
X11863048Y-11005476D02*
X11853524Y-11015000D01*
X11853524Y-11015000D02*
X11834476Y-11024524D01*
X11834476Y-11024524D02*
X11786857Y-11024524D01*
X11786857Y-11024524D02*
X11767809Y-11015000D01*
X11767809Y-11015000D02*
X11758286Y-11005476D01*
X11996381Y-10824524D02*
X12015429Y-10824524D01*
X12015429Y-10824524D02*
X12034476Y-10834048D01*
X12034476Y-10834048D02*
X12044000Y-10843571D01*
X12044000Y-10843571D02*
X12053524Y-10862619D01*
X12053524Y-10862619D02*
X12063048Y-10900714D01*
X12063048Y-10900714D02*
X12063048Y-10948333D01*
X12063048Y-10948333D02*
X12053524Y-10986429D01*
X12053524Y-10986429D02*
X12044000Y-11005476D01*
X12044000Y-11005476D02*
X12034476Y-11015000D01*
X12034476Y-11015000D02*
X12015429Y-11024524D01*
X12015429Y-11024524D02*
X11996381Y-11024524D01*
X11996381Y-11024524D02*
X11977333Y-11015000D01*
X11977333Y-11015000D02*
X11967809Y-11005476D01*
X11967809Y-11005476D02*
X11958286Y-10986429D01*
X11958286Y-10986429D02*
X11948762Y-10948333D01*
X11948762Y-10948333D02*
X11948762Y-10900714D01*
X11948762Y-10900714D02*
X11958286Y-10862619D01*
X11958286Y-10862619D02*
X11967809Y-10843571D01*
X11967809Y-10843571D02*
X11977333Y-10834048D01*
X11977333Y-10834048D02*
X11996381Y-10824524D01*
X12148762Y-11024524D02*
X12148762Y-10891190D01*
X12148762Y-10910238D02*
X12158286Y-10900714D01*
X12158286Y-10900714D02*
X12177333Y-10891190D01*
X12177333Y-10891190D02*
X12205905Y-10891190D01*
X12205905Y-10891190D02*
X12224952Y-10900714D01*
X12224952Y-10900714D02*
X12234476Y-10919762D01*
X12234476Y-10919762D02*
X12234476Y-11024524D01*
X12234476Y-10919762D02*
X12244000Y-10900714D01*
X12244000Y-10900714D02*
X12263048Y-10891190D01*
X12263048Y-10891190D02*
X12291619Y-10891190D01*
X12291619Y-10891190D02*
X12310667Y-10900714D01*
X12310667Y-10900714D02*
X12320190Y-10919762D01*
X12320190Y-10919762D02*
X12320190Y-11024524D01*
X12415429Y-11024524D02*
X12415429Y-10891190D01*
X12415429Y-10910238D02*
X12424952Y-10900714D01*
X12424952Y-10900714D02*
X12444000Y-10891190D01*
X12444000Y-10891190D02*
X12472571Y-10891190D01*
X12472571Y-10891190D02*
X12491619Y-10900714D01*
X12491619Y-10900714D02*
X12501143Y-10919762D01*
X12501143Y-10919762D02*
X12501143Y-11024524D01*
X12501143Y-10919762D02*
X12510667Y-10900714D01*
X12510667Y-10900714D02*
X12529714Y-10891190D01*
X12529714Y-10891190D02*
X12558286Y-10891190D01*
X12558286Y-10891190D02*
X12577333Y-10900714D01*
X12577333Y-10900714D02*
X12586857Y-10919762D01*
X12586857Y-10919762D02*
X12586857Y-11024524D01*
X12977333Y-10815000D02*
X12805905Y-11072143D01*
X13234476Y-10824524D02*
X13253524Y-10824524D01*
X13253524Y-10824524D02*
X13272572Y-10834048D01*
X13272572Y-10834048D02*
X13282095Y-10843571D01*
X13282095Y-10843571D02*
X13291619Y-10862619D01*
X13291619Y-10862619D02*
X13301143Y-10900714D01*
X13301143Y-10900714D02*
X13301143Y-10948333D01*
X13301143Y-10948333D02*
X13291619Y-10986429D01*
X13291619Y-10986429D02*
X13282095Y-11005476D01*
X13282095Y-11005476D02*
X13272572Y-11015000D01*
X13272572Y-11015000D02*
X13253524Y-11024524D01*
X13253524Y-11024524D02*
X13234476Y-11024524D01*
X13234476Y-11024524D02*
X13215429Y-11015000D01*
X13215429Y-11015000D02*
X13205905Y-11005476D01*
X13205905Y-11005476D02*
X13196381Y-10986429D01*
X13196381Y-10986429D02*
X13186857Y-10948333D01*
X13186857Y-10948333D02*
X13186857Y-10900714D01*
X13186857Y-10900714D02*
X13196381Y-10862619D01*
X13196381Y-10862619D02*
X13205905Y-10843571D01*
X13205905Y-10843571D02*
X13215429Y-10834048D01*
X13215429Y-10834048D02*
X13234476Y-10824524D01*
X13386857Y-11005476D02*
X13396381Y-11015000D01*
X13396381Y-11015000D02*
X13386857Y-11024524D01*
X13386857Y-11024524D02*
X13377333Y-11015000D01*
X13377333Y-11015000D02*
X13386857Y-11005476D01*
X13386857Y-11005476D02*
X13386857Y-11024524D01*
X13520191Y-10824524D02*
X13539238Y-10824524D01*
X13539238Y-10824524D02*
X13558286Y-10834048D01*
X13558286Y-10834048D02*
X13567810Y-10843571D01*
X13567810Y-10843571D02*
X13577333Y-10862619D01*
X13577333Y-10862619D02*
X13586857Y-10900714D01*
X13586857Y-10900714D02*
X13586857Y-10948333D01*
X13586857Y-10948333D02*
X13577333Y-10986429D01*
X13577333Y-10986429D02*
X13567810Y-11005476D01*
X13567810Y-11005476D02*
X13558286Y-11015000D01*
X13558286Y-11015000D02*
X13539238Y-11024524D01*
X13539238Y-11024524D02*
X13520191Y-11024524D01*
X13520191Y-11024524D02*
X13501143Y-11015000D01*
X13501143Y-11015000D02*
X13491619Y-11005476D01*
X13491619Y-11005476D02*
X13482095Y-10986429D01*
X13482095Y-10986429D02*
X13472572Y-10948333D01*
X13472572Y-10948333D02*
X13472572Y-10900714D01*
X13472572Y-10900714D02*
X13482095Y-10862619D01*
X13482095Y-10862619D02*
X13491619Y-10843571D01*
X13491619Y-10843571D02*
X13501143Y-10834048D01*
X13501143Y-10834048D02*
X13520191Y-10824524D01*
X13758286Y-10824524D02*
X13720191Y-10824524D01*
X13720191Y-10824524D02*
X13701143Y-10834048D01*
X13701143Y-10834048D02*
X13691619Y-10843571D01*
X13691619Y-10843571D02*
X13672572Y-10872143D01*
X13672572Y-10872143D02*
X13663048Y-10910238D01*
X13663048Y-10910238D02*
X13663048Y-10986429D01*
X13663048Y-10986429D02*
X13672572Y-11005476D01*
X13672572Y-11005476D02*
X13682095Y-11015000D01*
X13682095Y-11015000D02*
X13701143Y-11024524D01*
X13701143Y-11024524D02*
X13739238Y-11024524D01*
X13739238Y-11024524D02*
X13758286Y-11015000D01*
X13758286Y-11015000D02*
X13767810Y-11005476D01*
X13767810Y-11005476D02*
X13777333Y-10986429D01*
X13777333Y-10986429D02*
X13777333Y-10938810D01*
X13777333Y-10938810D02*
X13767810Y-10919762D01*
X13767810Y-10919762D02*
X13758286Y-10910238D01*
X13758286Y-10910238D02*
X13739238Y-10900714D01*
X13739238Y-10900714D02*
X13701143Y-10900714D01*
X13701143Y-10900714D02*
X13682095Y-10910238D01*
X13682095Y-10910238D02*
X13672572Y-10919762D01*
X13672572Y-10919762D02*
X13663048Y-10938810D01*
X13891619Y-10910238D02*
X13872572Y-10900714D01*
X13872572Y-10900714D02*
X13863048Y-10891190D01*
X13863048Y-10891190D02*
X13853524Y-10872143D01*
X13853524Y-10872143D02*
X13853524Y-10862619D01*
X13853524Y-10862619D02*
X13863048Y-10843571D01*
X13863048Y-10843571D02*
X13872572Y-10834048D01*
X13872572Y-10834048D02*
X13891619Y-10824524D01*
X13891619Y-10824524D02*
X13929714Y-10824524D01*
X13929714Y-10824524D02*
X13948762Y-10834048D01*
X13948762Y-10834048D02*
X13958286Y-10843571D01*
X13958286Y-10843571D02*
X13967810Y-10862619D01*
X13967810Y-10862619D02*
X13967810Y-10872143D01*
X13967810Y-10872143D02*
X13958286Y-10891190D01*
X13958286Y-10891190D02*
X13948762Y-10900714D01*
X13948762Y-10900714D02*
X13929714Y-10910238D01*
X13929714Y-10910238D02*
X13891619Y-10910238D01*
X13891619Y-10910238D02*
X13872572Y-10919762D01*
X13872572Y-10919762D02*
X13863048Y-10929286D01*
X13863048Y-10929286D02*
X13853524Y-10948333D01*
X13853524Y-10948333D02*
X13853524Y-10986429D01*
X13853524Y-10986429D02*
X13863048Y-11005476D01*
X13863048Y-11005476D02*
X13872572Y-11015000D01*
X13872572Y-11015000D02*
X13891619Y-11024524D01*
X13891619Y-11024524D02*
X13929714Y-11024524D01*
X13929714Y-11024524D02*
X13948762Y-11015000D01*
X13948762Y-11015000D02*
X13958286Y-11005476D01*
X13958286Y-11005476D02*
X13967810Y-10986429D01*
X13967810Y-10986429D02*
X13967810Y-10948333D01*
X13967810Y-10948333D02*
X13958286Y-10929286D01*
X13958286Y-10929286D02*
X13948762Y-10919762D01*
X13948762Y-10919762D02*
X13929714Y-10910238D01*
X14063048Y-11024524D02*
X14101143Y-11024524D01*
X14101143Y-11024524D02*
X14120191Y-11015000D01*
X14120191Y-11015000D02*
X14129714Y-11005476D01*
X14129714Y-11005476D02*
X14148762Y-10976905D01*
X14148762Y-10976905D02*
X14158286Y-10938810D01*
X14158286Y-10938810D02*
X14158286Y-10862619D01*
X14158286Y-10862619D02*
X14148762Y-10843571D01*
X14148762Y-10843571D02*
X14139238Y-10834048D01*
X14139238Y-10834048D02*
X14120191Y-10824524D01*
X14120191Y-10824524D02*
X14082095Y-10824524D01*
X14082095Y-10824524D02*
X14063048Y-10834048D01*
X14063048Y-10834048D02*
X14053524Y-10843571D01*
X14053524Y-10843571D02*
X14044000Y-10862619D01*
X14044000Y-10862619D02*
X14044000Y-10910238D01*
X14044000Y-10910238D02*
X14053524Y-10929286D01*
X14053524Y-10929286D02*
X14063048Y-10938810D01*
X14063048Y-10938810D02*
X14082095Y-10948333D01*
X14082095Y-10948333D02*
X14120191Y-10948333D01*
X14120191Y-10948333D02*
X14139238Y-10938810D01*
X14139238Y-10938810D02*
X14148762Y-10929286D01*
X14148762Y-10929286D02*
X14158286Y-10910238D01*
X14234476Y-10824524D02*
X14234476Y-10862619D01*
X14310667Y-10824524D02*
X14310667Y-10862619D01*
X14605905Y-11100714D02*
X14596381Y-11091190D01*
X14596381Y-11091190D02*
X14577334Y-11062619D01*
X14577334Y-11062619D02*
X14567810Y-11043571D01*
X14567810Y-11043571D02*
X14558286Y-11015000D01*
X14558286Y-11015000D02*
X14548762Y-10967381D01*
X14548762Y-10967381D02*
X14548762Y-10929286D01*
X14548762Y-10929286D02*
X14558286Y-10881667D01*
X14558286Y-10881667D02*
X14567810Y-10853095D01*
X14567810Y-10853095D02*
X14577334Y-10834048D01*
X14577334Y-10834048D02*
X14596381Y-10805476D01*
X14596381Y-10805476D02*
X14605905Y-10795952D01*
X14786857Y-11024524D02*
X14672572Y-11024524D01*
X14729714Y-11024524D02*
X14729714Y-10824524D01*
X14729714Y-10824524D02*
X14710667Y-10853095D01*
X14710667Y-10853095D02*
X14691619Y-10872143D01*
X14691619Y-10872143D02*
X14672572Y-10881667D01*
X14958286Y-10824524D02*
X14920191Y-10824524D01*
X14920191Y-10824524D02*
X14901143Y-10834048D01*
X14901143Y-10834048D02*
X14891619Y-10843571D01*
X14891619Y-10843571D02*
X14872572Y-10872143D01*
X14872572Y-10872143D02*
X14863048Y-10910238D01*
X14863048Y-10910238D02*
X14863048Y-10986429D01*
X14863048Y-10986429D02*
X14872572Y-11005476D01*
X14872572Y-11005476D02*
X14882095Y-11015000D01*
X14882095Y-11015000D02*
X14901143Y-11024524D01*
X14901143Y-11024524D02*
X14939238Y-11024524D01*
X14939238Y-11024524D02*
X14958286Y-11015000D01*
X14958286Y-11015000D02*
X14967810Y-11005476D01*
X14967810Y-11005476D02*
X14977334Y-10986429D01*
X14977334Y-10986429D02*
X14977334Y-10938810D01*
X14977334Y-10938810D02*
X14967810Y-10919762D01*
X14967810Y-10919762D02*
X14958286Y-10910238D01*
X14958286Y-10910238D02*
X14939238Y-10900714D01*
X14939238Y-10900714D02*
X14901143Y-10900714D01*
X14901143Y-10900714D02*
X14882095Y-10910238D01*
X14882095Y-10910238D02*
X14872572Y-10919762D01*
X14872572Y-10919762D02*
X14863048Y-10938810D01*
X15215429Y-11024524D02*
X15215429Y-10824524D01*
X15301143Y-11024524D02*
X15301143Y-10919762D01*
X15301143Y-10919762D02*
X15291619Y-10900714D01*
X15291619Y-10900714D02*
X15272572Y-10891190D01*
X15272572Y-10891190D02*
X15244000Y-10891190D01*
X15244000Y-10891190D02*
X15224953Y-10900714D01*
X15224953Y-10900714D02*
X15215429Y-10910238D01*
X15424953Y-11024524D02*
X15405905Y-11015000D01*
X15405905Y-11015000D02*
X15396381Y-11005476D01*
X15396381Y-11005476D02*
X15386857Y-10986429D01*
X15386857Y-10986429D02*
X15386857Y-10929286D01*
X15386857Y-10929286D02*
X15396381Y-10910238D01*
X15396381Y-10910238D02*
X15405905Y-10900714D01*
X15405905Y-10900714D02*
X15424953Y-10891190D01*
X15424953Y-10891190D02*
X15453524Y-10891190D01*
X15453524Y-10891190D02*
X15472572Y-10900714D01*
X15472572Y-10900714D02*
X15482096Y-10910238D01*
X15482096Y-10910238D02*
X15491619Y-10929286D01*
X15491619Y-10929286D02*
X15491619Y-10986429D01*
X15491619Y-10986429D02*
X15482096Y-11005476D01*
X15482096Y-11005476D02*
X15472572Y-11015000D01*
X15472572Y-11015000D02*
X15453524Y-11024524D01*
X15453524Y-11024524D02*
X15424953Y-11024524D01*
X15605905Y-11024524D02*
X15586857Y-11015000D01*
X15586857Y-11015000D02*
X15577334Y-10995952D01*
X15577334Y-10995952D02*
X15577334Y-10824524D01*
X15758286Y-11015000D02*
X15739238Y-11024524D01*
X15739238Y-11024524D02*
X15701143Y-11024524D01*
X15701143Y-11024524D02*
X15682096Y-11015000D01*
X15682096Y-11015000D02*
X15672572Y-10995952D01*
X15672572Y-10995952D02*
X15672572Y-10919762D01*
X15672572Y-10919762D02*
X15682096Y-10900714D01*
X15682096Y-10900714D02*
X15701143Y-10891190D01*
X15701143Y-10891190D02*
X15739238Y-10891190D01*
X15739238Y-10891190D02*
X15758286Y-10900714D01*
X15758286Y-10900714D02*
X15767810Y-10919762D01*
X15767810Y-10919762D02*
X15767810Y-10938810D01*
X15767810Y-10938810D02*
X15672572Y-10957857D01*
X15844000Y-11015000D02*
X15863048Y-11024524D01*
X15863048Y-11024524D02*
X15901143Y-11024524D01*
X15901143Y-11024524D02*
X15920191Y-11015000D01*
X15920191Y-11015000D02*
X15929715Y-10995952D01*
X15929715Y-10995952D02*
X15929715Y-10986429D01*
X15929715Y-10986429D02*
X15920191Y-10967381D01*
X15920191Y-10967381D02*
X15901143Y-10957857D01*
X15901143Y-10957857D02*
X15872572Y-10957857D01*
X15872572Y-10957857D02*
X15853524Y-10948333D01*
X15853524Y-10948333D02*
X15844000Y-10929286D01*
X15844000Y-10929286D02*
X15844000Y-10919762D01*
X15844000Y-10919762D02*
X15853524Y-10900714D01*
X15853524Y-10900714D02*
X15872572Y-10891190D01*
X15872572Y-10891190D02*
X15901143Y-10891190D01*
X15901143Y-10891190D02*
X15920191Y-10900714D01*
X15996381Y-11100714D02*
X16005905Y-11091190D01*
X16005905Y-11091190D02*
X16024953Y-11062619D01*
X16024953Y-11062619D02*
X16034477Y-11043571D01*
X16034477Y-11043571D02*
X16044000Y-11015000D01*
X16044000Y-11015000D02*
X16053524Y-10967381D01*
X16053524Y-10967381D02*
X16053524Y-10929286D01*
X16053524Y-10929286D02*
X16044000Y-10881667D01*
X16044000Y-10881667D02*
X16034477Y-10853095D01*
X16034477Y-10853095D02*
X16024953Y-10834048D01*
X16024953Y-10834048D02*
X16005905Y-10805476D01*
X16005905Y-10805476D02*
X15996381Y-10795952D01*
X16358286Y-11100714D02*
X16348762Y-11091190D01*
X16348762Y-11091190D02*
X16329715Y-11062619D01*
X16329715Y-11062619D02*
X16320191Y-11043571D01*
X16320191Y-11043571D02*
X16310667Y-11015000D01*
X16310667Y-11015000D02*
X16301143Y-10967381D01*
X16301143Y-10967381D02*
X16301143Y-10929286D01*
X16301143Y-10929286D02*
X16310667Y-10881667D01*
X16310667Y-10881667D02*
X16320191Y-10853095D01*
X16320191Y-10853095D02*
X16329715Y-10834048D01*
X16329715Y-10834048D02*
X16348762Y-10805476D01*
X16348762Y-10805476D02*
X16358286Y-10795952D01*
X16434477Y-10891190D02*
X16434477Y-11024524D01*
X16434477Y-10910238D02*
X16444000Y-10900714D01*
X16444000Y-10900714D02*
X16463048Y-10891190D01*
X16463048Y-10891190D02*
X16491619Y-10891190D01*
X16491619Y-10891190D02*
X16510667Y-10900714D01*
X16510667Y-10900714D02*
X16520191Y-10919762D01*
X16520191Y-10919762D02*
X16520191Y-11024524D01*
X16644000Y-11024524D02*
X16624953Y-11015000D01*
X16624953Y-11015000D02*
X16615429Y-11005476D01*
X16615429Y-11005476D02*
X16605905Y-10986429D01*
X16605905Y-10986429D02*
X16605905Y-10929286D01*
X16605905Y-10929286D02*
X16615429Y-10910238D01*
X16615429Y-10910238D02*
X16624953Y-10900714D01*
X16624953Y-10900714D02*
X16644000Y-10891190D01*
X16644000Y-10891190D02*
X16672572Y-10891190D01*
X16672572Y-10891190D02*
X16691619Y-10900714D01*
X16691619Y-10900714D02*
X16701143Y-10910238D01*
X16701143Y-10910238D02*
X16710667Y-10929286D01*
X16710667Y-10929286D02*
X16710667Y-10986429D01*
X16710667Y-10986429D02*
X16701143Y-11005476D01*
X16701143Y-11005476D02*
X16691619Y-11015000D01*
X16691619Y-11015000D02*
X16672572Y-11024524D01*
X16672572Y-11024524D02*
X16644000Y-11024524D01*
X16767810Y-10891190D02*
X16844000Y-10891190D01*
X16796381Y-10824524D02*
X16796381Y-10995952D01*
X16796381Y-10995952D02*
X16805905Y-11015000D01*
X16805905Y-11015000D02*
X16824953Y-11024524D01*
X16824953Y-11024524D02*
X16844000Y-11024524D01*
X17063048Y-10891190D02*
X17063048Y-11091190D01*
X17063048Y-10900714D02*
X17082096Y-10891190D01*
X17082096Y-10891190D02*
X17120191Y-10891190D01*
X17120191Y-10891190D02*
X17139239Y-10900714D01*
X17139239Y-10900714D02*
X17148762Y-10910238D01*
X17148762Y-10910238D02*
X17158286Y-10929286D01*
X17158286Y-10929286D02*
X17158286Y-10986429D01*
X17158286Y-10986429D02*
X17148762Y-11005476D01*
X17148762Y-11005476D02*
X17139239Y-11015000D01*
X17139239Y-11015000D02*
X17120191Y-11024524D01*
X17120191Y-11024524D02*
X17082096Y-11024524D01*
X17082096Y-11024524D02*
X17063048Y-11015000D01*
X17272572Y-11024524D02*
X17253524Y-11015000D01*
X17253524Y-11015000D02*
X17244001Y-10995952D01*
X17244001Y-10995952D02*
X17244001Y-10824524D01*
X17434477Y-11024524D02*
X17434477Y-10919762D01*
X17434477Y-10919762D02*
X17424953Y-10900714D01*
X17424953Y-10900714D02*
X17405905Y-10891190D01*
X17405905Y-10891190D02*
X17367810Y-10891190D01*
X17367810Y-10891190D02*
X17348762Y-10900714D01*
X17434477Y-11015000D02*
X17415429Y-11024524D01*
X17415429Y-11024524D02*
X17367810Y-11024524D01*
X17367810Y-11024524D02*
X17348762Y-11015000D01*
X17348762Y-11015000D02*
X17339239Y-10995952D01*
X17339239Y-10995952D02*
X17339239Y-10976905D01*
X17339239Y-10976905D02*
X17348762Y-10957857D01*
X17348762Y-10957857D02*
X17367810Y-10948333D01*
X17367810Y-10948333D02*
X17415429Y-10948333D01*
X17415429Y-10948333D02*
X17434477Y-10938810D01*
X17501143Y-10891190D02*
X17577334Y-10891190D01*
X17529715Y-10824524D02*
X17529715Y-10995952D01*
X17529715Y-10995952D02*
X17539239Y-11015000D01*
X17539239Y-11015000D02*
X17558286Y-11024524D01*
X17558286Y-11024524D02*
X17577334Y-11024524D01*
X17720191Y-11015000D02*
X17701143Y-11024524D01*
X17701143Y-11024524D02*
X17663048Y-11024524D01*
X17663048Y-11024524D02*
X17644001Y-11015000D01*
X17644001Y-11015000D02*
X17634477Y-10995952D01*
X17634477Y-10995952D02*
X17634477Y-10919762D01*
X17634477Y-10919762D02*
X17644001Y-10900714D01*
X17644001Y-10900714D02*
X17663048Y-10891190D01*
X17663048Y-10891190D02*
X17701143Y-10891190D01*
X17701143Y-10891190D02*
X17720191Y-10900714D01*
X17720191Y-10900714D02*
X17729715Y-10919762D01*
X17729715Y-10919762D02*
X17729715Y-10938810D01*
X17729715Y-10938810D02*
X17634477Y-10957857D01*
X17901143Y-11024524D02*
X17901143Y-10824524D01*
X17901143Y-11015000D02*
X17882096Y-11024524D01*
X17882096Y-11024524D02*
X17844001Y-11024524D01*
X17844001Y-11024524D02*
X17824953Y-11015000D01*
X17824953Y-11015000D02*
X17815429Y-11005476D01*
X17815429Y-11005476D02*
X17805905Y-10986429D01*
X17805905Y-10986429D02*
X17805905Y-10929286D01*
X17805905Y-10929286D02*
X17815429Y-10910238D01*
X17815429Y-10910238D02*
X17824953Y-10900714D01*
X17824953Y-10900714D02*
X17844001Y-10891190D01*
X17844001Y-10891190D02*
X17882096Y-10891190D01*
X17882096Y-10891190D02*
X17901143Y-10900714D01*
X17977334Y-11100714D02*
X17986858Y-11091190D01*
X17986858Y-11091190D02*
X18005905Y-11062619D01*
X18005905Y-11062619D02*
X18015429Y-11043571D01*
X18015429Y-11043571D02*
X18024953Y-11015000D01*
X18024953Y-11015000D02*
X18034477Y-10967381D01*
X18034477Y-10967381D02*
X18034477Y-10929286D01*
X18034477Y-10929286D02*
X18024953Y-10881667D01*
X18024953Y-10881667D02*
X18015429Y-10853095D01*
X18015429Y-10853095D02*
X18005905Y-10834048D01*
X18005905Y-10834048D02*
X17986858Y-10805476D01*
X17986858Y-10805476D02*
X17977334Y-10795952D01*
X11044000Y-11227000D02*
G75*
G03*
X11044000Y-11227000I-100000J0D01*
G01*
X11377333Y-11186190D02*
X11377333Y-11319524D01*
X11329714Y-11110000D02*
X11282095Y-11252857D01*
X11282095Y-11252857D02*
X11405905Y-11252857D01*
X11482095Y-11300476D02*
X11491619Y-11310000D01*
X11491619Y-11310000D02*
X11482095Y-11319524D01*
X11482095Y-11319524D02*
X11472571Y-11310000D01*
X11472571Y-11310000D02*
X11482095Y-11300476D01*
X11482095Y-11300476D02*
X11482095Y-11319524D01*
X11615428Y-11119524D02*
X11634476Y-11119524D01*
X11634476Y-11119524D02*
X11653524Y-11129048D01*
X11653524Y-11129048D02*
X11663048Y-11138571D01*
X11663048Y-11138571D02*
X11672571Y-11157619D01*
X11672571Y-11157619D02*
X11682095Y-11195714D01*
X11682095Y-11195714D02*
X11682095Y-11243333D01*
X11682095Y-11243333D02*
X11672571Y-11281428D01*
X11672571Y-11281428D02*
X11663048Y-11300476D01*
X11663048Y-11300476D02*
X11653524Y-11310000D01*
X11653524Y-11310000D02*
X11634476Y-11319524D01*
X11634476Y-11319524D02*
X11615428Y-11319524D01*
X11615428Y-11319524D02*
X11596381Y-11310000D01*
X11596381Y-11310000D02*
X11586857Y-11300476D01*
X11586857Y-11300476D02*
X11577333Y-11281428D01*
X11577333Y-11281428D02*
X11567809Y-11243333D01*
X11567809Y-11243333D02*
X11567809Y-11195714D01*
X11567809Y-11195714D02*
X11577333Y-11157619D01*
X11577333Y-11157619D02*
X11586857Y-11138571D01*
X11586857Y-11138571D02*
X11596381Y-11129048D01*
X11596381Y-11129048D02*
X11615428Y-11119524D01*
X11805905Y-11119524D02*
X11824952Y-11119524D01*
X11824952Y-11119524D02*
X11844000Y-11129048D01*
X11844000Y-11129048D02*
X11853524Y-11138571D01*
X11853524Y-11138571D02*
X11863048Y-11157619D01*
X11863048Y-11157619D02*
X11872571Y-11195714D01*
X11872571Y-11195714D02*
X11872571Y-11243333D01*
X11872571Y-11243333D02*
X11863048Y-11281428D01*
X11863048Y-11281428D02*
X11853524Y-11300476D01*
X11853524Y-11300476D02*
X11844000Y-11310000D01*
X11844000Y-11310000D02*
X11824952Y-11319524D01*
X11824952Y-11319524D02*
X11805905Y-11319524D01*
X11805905Y-11319524D02*
X11786857Y-11310000D01*
X11786857Y-11310000D02*
X11777333Y-11300476D01*
X11777333Y-11300476D02*
X11767809Y-11281428D01*
X11767809Y-11281428D02*
X11758286Y-11243333D01*
X11758286Y-11243333D02*
X11758286Y-11195714D01*
X11758286Y-11195714D02*
X11767809Y-11157619D01*
X11767809Y-11157619D02*
X11777333Y-11138571D01*
X11777333Y-11138571D02*
X11786857Y-11129048D01*
X11786857Y-11129048D02*
X11805905Y-11119524D01*
X11996381Y-11119524D02*
X12015429Y-11119524D01*
X12015429Y-11119524D02*
X12034476Y-11129048D01*
X12034476Y-11129048D02*
X12044000Y-11138571D01*
X12044000Y-11138571D02*
X12053524Y-11157619D01*
X12053524Y-11157619D02*
X12063048Y-11195714D01*
X12063048Y-11195714D02*
X12063048Y-11243333D01*
X12063048Y-11243333D02*
X12053524Y-11281428D01*
X12053524Y-11281428D02*
X12044000Y-11300476D01*
X12044000Y-11300476D02*
X12034476Y-11310000D01*
X12034476Y-11310000D02*
X12015429Y-11319524D01*
X12015429Y-11319524D02*
X11996381Y-11319524D01*
X11996381Y-11319524D02*
X11977333Y-11310000D01*
X11977333Y-11310000D02*
X11967809Y-11300476D01*
X11967809Y-11300476D02*
X11958286Y-11281428D01*
X11958286Y-11281428D02*
X11948762Y-11243333D01*
X11948762Y-11243333D02*
X11948762Y-11195714D01*
X11948762Y-11195714D02*
X11958286Y-11157619D01*
X11958286Y-11157619D02*
X11967809Y-11138571D01*
X11967809Y-11138571D02*
X11977333Y-11129048D01*
X11977333Y-11129048D02*
X11996381Y-11119524D01*
X12148762Y-11319524D02*
X12148762Y-11186190D01*
X12148762Y-11205238D02*
X12158286Y-11195714D01*
X12158286Y-11195714D02*
X12177333Y-11186190D01*
X12177333Y-11186190D02*
X12205905Y-11186190D01*
X12205905Y-11186190D02*
X12224952Y-11195714D01*
X12224952Y-11195714D02*
X12234476Y-11214762D01*
X12234476Y-11214762D02*
X12234476Y-11319524D01*
X12234476Y-11214762D02*
X12244000Y-11195714D01*
X12244000Y-11195714D02*
X12263048Y-11186190D01*
X12263048Y-11186190D02*
X12291619Y-11186190D01*
X12291619Y-11186190D02*
X12310667Y-11195714D01*
X12310667Y-11195714D02*
X12320190Y-11214762D01*
X12320190Y-11214762D02*
X12320190Y-11319524D01*
X12415429Y-11319524D02*
X12415429Y-11186190D01*
X12415429Y-11205238D02*
X12424952Y-11195714D01*
X12424952Y-11195714D02*
X12444000Y-11186190D01*
X12444000Y-11186190D02*
X12472571Y-11186190D01*
X12472571Y-11186190D02*
X12491619Y-11195714D01*
X12491619Y-11195714D02*
X12501143Y-11214762D01*
X12501143Y-11214762D02*
X12501143Y-11319524D01*
X12501143Y-11214762D02*
X12510667Y-11195714D01*
X12510667Y-11195714D02*
X12529714Y-11186190D01*
X12529714Y-11186190D02*
X12558286Y-11186190D01*
X12558286Y-11186190D02*
X12577333Y-11195714D01*
X12577333Y-11195714D02*
X12586857Y-11214762D01*
X12586857Y-11214762D02*
X12586857Y-11319524D01*
X12977333Y-11110000D02*
X12805905Y-11367143D01*
X13234476Y-11119524D02*
X13253524Y-11119524D01*
X13253524Y-11119524D02*
X13272572Y-11129048D01*
X13272572Y-11129048D02*
X13282095Y-11138571D01*
X13282095Y-11138571D02*
X13291619Y-11157619D01*
X13291619Y-11157619D02*
X13301143Y-11195714D01*
X13301143Y-11195714D02*
X13301143Y-11243333D01*
X13301143Y-11243333D02*
X13291619Y-11281428D01*
X13291619Y-11281428D02*
X13282095Y-11300476D01*
X13282095Y-11300476D02*
X13272572Y-11310000D01*
X13272572Y-11310000D02*
X13253524Y-11319524D01*
X13253524Y-11319524D02*
X13234476Y-11319524D01*
X13234476Y-11319524D02*
X13215429Y-11310000D01*
X13215429Y-11310000D02*
X13205905Y-11300476D01*
X13205905Y-11300476D02*
X13196381Y-11281428D01*
X13196381Y-11281428D02*
X13186857Y-11243333D01*
X13186857Y-11243333D02*
X13186857Y-11195714D01*
X13186857Y-11195714D02*
X13196381Y-11157619D01*
X13196381Y-11157619D02*
X13205905Y-11138571D01*
X13205905Y-11138571D02*
X13215429Y-11129048D01*
X13215429Y-11129048D02*
X13234476Y-11119524D01*
X13386857Y-11300476D02*
X13396381Y-11310000D01*
X13396381Y-11310000D02*
X13386857Y-11319524D01*
X13386857Y-11319524D02*
X13377333Y-11310000D01*
X13377333Y-11310000D02*
X13386857Y-11300476D01*
X13386857Y-11300476D02*
X13386857Y-11319524D01*
X13586857Y-11319524D02*
X13472572Y-11319524D01*
X13529714Y-11319524D02*
X13529714Y-11119524D01*
X13529714Y-11119524D02*
X13510667Y-11148095D01*
X13510667Y-11148095D02*
X13491619Y-11167143D01*
X13491619Y-11167143D02*
X13472572Y-11176667D01*
X13767810Y-11119524D02*
X13672572Y-11119524D01*
X13672572Y-11119524D02*
X13663048Y-11214762D01*
X13663048Y-11214762D02*
X13672572Y-11205238D01*
X13672572Y-11205238D02*
X13691619Y-11195714D01*
X13691619Y-11195714D02*
X13739238Y-11195714D01*
X13739238Y-11195714D02*
X13758286Y-11205238D01*
X13758286Y-11205238D02*
X13767810Y-11214762D01*
X13767810Y-11214762D02*
X13777333Y-11233809D01*
X13777333Y-11233809D02*
X13777333Y-11281428D01*
X13777333Y-11281428D02*
X13767810Y-11300476D01*
X13767810Y-11300476D02*
X13758286Y-11310000D01*
X13758286Y-11310000D02*
X13739238Y-11319524D01*
X13739238Y-11319524D02*
X13691619Y-11319524D01*
X13691619Y-11319524D02*
X13672572Y-11310000D01*
X13672572Y-11310000D02*
X13663048Y-11300476D01*
X13844000Y-11119524D02*
X13977333Y-11119524D01*
X13977333Y-11119524D02*
X13891619Y-11319524D01*
X14148762Y-11119524D02*
X14053524Y-11119524D01*
X14053524Y-11119524D02*
X14044000Y-11214762D01*
X14044000Y-11214762D02*
X14053524Y-11205238D01*
X14053524Y-11205238D02*
X14072572Y-11195714D01*
X14072572Y-11195714D02*
X14120191Y-11195714D01*
X14120191Y-11195714D02*
X14139238Y-11205238D01*
X14139238Y-11205238D02*
X14148762Y-11214762D01*
X14148762Y-11214762D02*
X14158286Y-11233809D01*
X14158286Y-11233809D02*
X14158286Y-11281428D01*
X14158286Y-11281428D02*
X14148762Y-11300476D01*
X14148762Y-11300476D02*
X14139238Y-11310000D01*
X14139238Y-11310000D02*
X14120191Y-11319524D01*
X14120191Y-11319524D02*
X14072572Y-11319524D01*
X14072572Y-11319524D02*
X14053524Y-11310000D01*
X14053524Y-11310000D02*
X14044000Y-11300476D01*
X14234476Y-11119524D02*
X14234476Y-11157619D01*
X14310667Y-11119524D02*
X14310667Y-11157619D01*
X14605905Y-11395714D02*
X14596381Y-11386190D01*
X14596381Y-11386190D02*
X14577334Y-11357619D01*
X14577334Y-11357619D02*
X14567810Y-11338571D01*
X14567810Y-11338571D02*
X14558286Y-11310000D01*
X14558286Y-11310000D02*
X14548762Y-11262381D01*
X14548762Y-11262381D02*
X14548762Y-11224286D01*
X14548762Y-11224286D02*
X14558286Y-11176667D01*
X14558286Y-11176667D02*
X14567810Y-11148095D01*
X14567810Y-11148095D02*
X14577334Y-11129048D01*
X14577334Y-11129048D02*
X14596381Y-11100476D01*
X14596381Y-11100476D02*
X14605905Y-11090952D01*
X14710667Y-11205238D02*
X14691619Y-11195714D01*
X14691619Y-11195714D02*
X14682095Y-11186190D01*
X14682095Y-11186190D02*
X14672572Y-11167143D01*
X14672572Y-11167143D02*
X14672572Y-11157619D01*
X14672572Y-11157619D02*
X14682095Y-11138571D01*
X14682095Y-11138571D02*
X14691619Y-11129048D01*
X14691619Y-11129048D02*
X14710667Y-11119524D01*
X14710667Y-11119524D02*
X14748762Y-11119524D01*
X14748762Y-11119524D02*
X14767810Y-11129048D01*
X14767810Y-11129048D02*
X14777334Y-11138571D01*
X14777334Y-11138571D02*
X14786857Y-11157619D01*
X14786857Y-11157619D02*
X14786857Y-11167143D01*
X14786857Y-11167143D02*
X14777334Y-11186190D01*
X14777334Y-11186190D02*
X14767810Y-11195714D01*
X14767810Y-11195714D02*
X14748762Y-11205238D01*
X14748762Y-11205238D02*
X14710667Y-11205238D01*
X14710667Y-11205238D02*
X14691619Y-11214762D01*
X14691619Y-11214762D02*
X14682095Y-11224286D01*
X14682095Y-11224286D02*
X14672572Y-11243333D01*
X14672572Y-11243333D02*
X14672572Y-11281428D01*
X14672572Y-11281428D02*
X14682095Y-11300476D01*
X14682095Y-11300476D02*
X14691619Y-11310000D01*
X14691619Y-11310000D02*
X14710667Y-11319524D01*
X14710667Y-11319524D02*
X14748762Y-11319524D01*
X14748762Y-11319524D02*
X14767810Y-11310000D01*
X14767810Y-11310000D02*
X14777334Y-11300476D01*
X14777334Y-11300476D02*
X14786857Y-11281428D01*
X14786857Y-11281428D02*
X14786857Y-11243333D01*
X14786857Y-11243333D02*
X14777334Y-11224286D01*
X14777334Y-11224286D02*
X14767810Y-11214762D01*
X14767810Y-11214762D02*
X14748762Y-11205238D01*
X15024953Y-11319524D02*
X15024953Y-11119524D01*
X15110667Y-11319524D02*
X15110667Y-11214762D01*
X15110667Y-11214762D02*
X15101143Y-11195714D01*
X15101143Y-11195714D02*
X15082096Y-11186190D01*
X15082096Y-11186190D02*
X15053524Y-11186190D01*
X15053524Y-11186190D02*
X15034476Y-11195714D01*
X15034476Y-11195714D02*
X15024953Y-11205238D01*
X15234476Y-11319524D02*
X15215429Y-11310000D01*
X15215429Y-11310000D02*
X15205905Y-11300476D01*
X15205905Y-11300476D02*
X15196381Y-11281428D01*
X15196381Y-11281428D02*
X15196381Y-11224286D01*
X15196381Y-11224286D02*
X15205905Y-11205238D01*
X15205905Y-11205238D02*
X15215429Y-11195714D01*
X15215429Y-11195714D02*
X15234476Y-11186190D01*
X15234476Y-11186190D02*
X15263048Y-11186190D01*
X15263048Y-11186190D02*
X15282096Y-11195714D01*
X15282096Y-11195714D02*
X15291619Y-11205238D01*
X15291619Y-11205238D02*
X15301143Y-11224286D01*
X15301143Y-11224286D02*
X15301143Y-11281428D01*
X15301143Y-11281428D02*
X15291619Y-11300476D01*
X15291619Y-11300476D02*
X15282096Y-11310000D01*
X15282096Y-11310000D02*
X15263048Y-11319524D01*
X15263048Y-11319524D02*
X15234476Y-11319524D01*
X15415429Y-11319524D02*
X15396381Y-11310000D01*
X15396381Y-11310000D02*
X15386857Y-11290952D01*
X15386857Y-11290952D02*
X15386857Y-11119524D01*
X15567810Y-11310000D02*
X15548762Y-11319524D01*
X15548762Y-11319524D02*
X15510667Y-11319524D01*
X15510667Y-11319524D02*
X15491619Y-11310000D01*
X15491619Y-11310000D02*
X15482096Y-11290952D01*
X15482096Y-11290952D02*
X15482096Y-11214762D01*
X15482096Y-11214762D02*
X15491619Y-11195714D01*
X15491619Y-11195714D02*
X15510667Y-11186190D01*
X15510667Y-11186190D02*
X15548762Y-11186190D01*
X15548762Y-11186190D02*
X15567810Y-11195714D01*
X15567810Y-11195714D02*
X15577334Y-11214762D01*
X15577334Y-11214762D02*
X15577334Y-11233809D01*
X15577334Y-11233809D02*
X15482096Y-11252857D01*
X15653524Y-11310000D02*
X15672572Y-11319524D01*
X15672572Y-11319524D02*
X15710667Y-11319524D01*
X15710667Y-11319524D02*
X15729715Y-11310000D01*
X15729715Y-11310000D02*
X15739238Y-11290952D01*
X15739238Y-11290952D02*
X15739238Y-11281428D01*
X15739238Y-11281428D02*
X15729715Y-11262381D01*
X15729715Y-11262381D02*
X15710667Y-11252857D01*
X15710667Y-11252857D02*
X15682096Y-11252857D01*
X15682096Y-11252857D02*
X15663048Y-11243333D01*
X15663048Y-11243333D02*
X15653524Y-11224286D01*
X15653524Y-11224286D02*
X15653524Y-11214762D01*
X15653524Y-11214762D02*
X15663048Y-11195714D01*
X15663048Y-11195714D02*
X15682096Y-11186190D01*
X15682096Y-11186190D02*
X15710667Y-11186190D01*
X15710667Y-11186190D02*
X15729715Y-11195714D01*
X15805905Y-11395714D02*
X15815429Y-11386190D01*
X15815429Y-11386190D02*
X15834477Y-11357619D01*
X15834477Y-11357619D02*
X15844000Y-11338571D01*
X15844000Y-11338571D02*
X15853524Y-11310000D01*
X15853524Y-11310000D02*
X15863048Y-11262381D01*
X15863048Y-11262381D02*
X15863048Y-11224286D01*
X15863048Y-11224286D02*
X15853524Y-11176667D01*
X15853524Y-11176667D02*
X15844000Y-11148095D01*
X15844000Y-11148095D02*
X15834477Y-11129048D01*
X15834477Y-11129048D02*
X15815429Y-11100476D01*
X15815429Y-11100476D02*
X15805905Y-11090952D01*
X16167810Y-11395714D02*
X16158286Y-11386190D01*
X16158286Y-11386190D02*
X16139238Y-11357619D01*
X16139238Y-11357619D02*
X16129715Y-11338571D01*
X16129715Y-11338571D02*
X16120191Y-11310000D01*
X16120191Y-11310000D02*
X16110667Y-11262381D01*
X16110667Y-11262381D02*
X16110667Y-11224286D01*
X16110667Y-11224286D02*
X16120191Y-11176667D01*
X16120191Y-11176667D02*
X16129715Y-11148095D01*
X16129715Y-11148095D02*
X16139238Y-11129048D01*
X16139238Y-11129048D02*
X16158286Y-11100476D01*
X16158286Y-11100476D02*
X16167810Y-11090952D01*
X16244000Y-11186190D02*
X16244000Y-11319524D01*
X16244000Y-11205238D02*
X16253524Y-11195714D01*
X16253524Y-11195714D02*
X16272572Y-11186190D01*
X16272572Y-11186190D02*
X16301143Y-11186190D01*
X16301143Y-11186190D02*
X16320191Y-11195714D01*
X16320191Y-11195714D02*
X16329715Y-11214762D01*
X16329715Y-11214762D02*
X16329715Y-11319524D01*
X16453524Y-11319524D02*
X16434477Y-11310000D01*
X16434477Y-11310000D02*
X16424953Y-11300476D01*
X16424953Y-11300476D02*
X16415429Y-11281428D01*
X16415429Y-11281428D02*
X16415429Y-11224286D01*
X16415429Y-11224286D02*
X16424953Y-11205238D01*
X16424953Y-11205238D02*
X16434477Y-11195714D01*
X16434477Y-11195714D02*
X16453524Y-11186190D01*
X16453524Y-11186190D02*
X16482096Y-11186190D01*
X16482096Y-11186190D02*
X16501143Y-11195714D01*
X16501143Y-11195714D02*
X16510667Y-11205238D01*
X16510667Y-11205238D02*
X16520191Y-11224286D01*
X16520191Y-11224286D02*
X16520191Y-11281428D01*
X16520191Y-11281428D02*
X16510667Y-11300476D01*
X16510667Y-11300476D02*
X16501143Y-11310000D01*
X16501143Y-11310000D02*
X16482096Y-11319524D01*
X16482096Y-11319524D02*
X16453524Y-11319524D01*
X16577334Y-11186190D02*
X16653524Y-11186190D01*
X16605905Y-11119524D02*
X16605905Y-11290952D01*
X16605905Y-11290952D02*
X16615429Y-11310000D01*
X16615429Y-11310000D02*
X16634477Y-11319524D01*
X16634477Y-11319524D02*
X16653524Y-11319524D01*
X16872572Y-11186190D02*
X16872572Y-11386190D01*
X16872572Y-11195714D02*
X16891620Y-11186190D01*
X16891620Y-11186190D02*
X16929715Y-11186190D01*
X16929715Y-11186190D02*
X16948762Y-11195714D01*
X16948762Y-11195714D02*
X16958286Y-11205238D01*
X16958286Y-11205238D02*
X16967810Y-11224286D01*
X16967810Y-11224286D02*
X16967810Y-11281428D01*
X16967810Y-11281428D02*
X16958286Y-11300476D01*
X16958286Y-11300476D02*
X16948762Y-11310000D01*
X16948762Y-11310000D02*
X16929715Y-11319524D01*
X16929715Y-11319524D02*
X16891620Y-11319524D01*
X16891620Y-11319524D02*
X16872572Y-11310000D01*
X17082096Y-11319524D02*
X17063048Y-11310000D01*
X17063048Y-11310000D02*
X17053524Y-11290952D01*
X17053524Y-11290952D02*
X17053524Y-11119524D01*
X17244001Y-11319524D02*
X17244001Y-11214762D01*
X17244001Y-11214762D02*
X17234477Y-11195714D01*
X17234477Y-11195714D02*
X17215429Y-11186190D01*
X17215429Y-11186190D02*
X17177334Y-11186190D01*
X17177334Y-11186190D02*
X17158286Y-11195714D01*
X17244001Y-11310000D02*
X17224953Y-11319524D01*
X17224953Y-11319524D02*
X17177334Y-11319524D01*
X17177334Y-11319524D02*
X17158286Y-11310000D01*
X17158286Y-11310000D02*
X17148762Y-11290952D01*
X17148762Y-11290952D02*
X17148762Y-11271905D01*
X17148762Y-11271905D02*
X17158286Y-11252857D01*
X17158286Y-11252857D02*
X17177334Y-11243333D01*
X17177334Y-11243333D02*
X17224953Y-11243333D01*
X17224953Y-11243333D02*
X17244001Y-11233809D01*
X17310667Y-11186190D02*
X17386858Y-11186190D01*
X17339239Y-11119524D02*
X17339239Y-11290952D01*
X17339239Y-11290952D02*
X17348762Y-11310000D01*
X17348762Y-11310000D02*
X17367810Y-11319524D01*
X17367810Y-11319524D02*
X17386858Y-11319524D01*
X17529715Y-11310000D02*
X17510667Y-11319524D01*
X17510667Y-11319524D02*
X17472572Y-11319524D01*
X17472572Y-11319524D02*
X17453524Y-11310000D01*
X17453524Y-11310000D02*
X17444001Y-11290952D01*
X17444001Y-11290952D02*
X17444001Y-11214762D01*
X17444001Y-11214762D02*
X17453524Y-11195714D01*
X17453524Y-11195714D02*
X17472572Y-11186190D01*
X17472572Y-11186190D02*
X17510667Y-11186190D01*
X17510667Y-11186190D02*
X17529715Y-11195714D01*
X17529715Y-11195714D02*
X17539239Y-11214762D01*
X17539239Y-11214762D02*
X17539239Y-11233809D01*
X17539239Y-11233809D02*
X17444001Y-11252857D01*
X17710667Y-11319524D02*
X17710667Y-11119524D01*
X17710667Y-11310000D02*
X17691620Y-11319524D01*
X17691620Y-11319524D02*
X17653524Y-11319524D01*
X17653524Y-11319524D02*
X17634477Y-11310000D01*
X17634477Y-11310000D02*
X17624953Y-11300476D01*
X17624953Y-11300476D02*
X17615429Y-11281428D01*
X17615429Y-11281428D02*
X17615429Y-11224286D01*
X17615429Y-11224286D02*
X17624953Y-11205238D01*
X17624953Y-11205238D02*
X17634477Y-11195714D01*
X17634477Y-11195714D02*
X17653524Y-11186190D01*
X17653524Y-11186190D02*
X17691620Y-11186190D01*
X17691620Y-11186190D02*
X17710667Y-11195714D01*
X17786858Y-11395714D02*
X17796382Y-11386190D01*
X17796382Y-11386190D02*
X17815429Y-11357619D01*
X17815429Y-11357619D02*
X17824953Y-11338571D01*
X17824953Y-11338571D02*
X17834477Y-11310000D01*
X17834477Y-11310000D02*
X17844001Y-11262381D01*
X17844001Y-11262381D02*
X17844001Y-11224286D01*
X17844001Y-11224286D02*
X17834477Y-11176667D01*
X17834477Y-11176667D02*
X17824953Y-11148095D01*
X17824953Y-11148095D02*
X17815429Y-11129048D01*
X17815429Y-11129048D02*
X17796382Y-11100476D01*
X17796382Y-11100476D02*
X17786858Y-11090952D01*
M02*
