%TF.GenerationSoftware,KiCad,Pcbnew,7.0.2*%
%TF.CreationDate,2023-09-16T14:44:34-04:00*%
%TF.ProjectId,j-artsey-v1,6a2d6172-7473-4657-992d-76312e6b6963,rev?*%
%TF.SameCoordinates,Original*%
%TF.FileFunction,Legend,Top*%
%TF.FilePolarity,Positive*%
%FSLAX46Y46*%
G04 Gerber Fmt 4.6, Leading zero omitted, Abs format (unit mm)*
G04 Created by KiCad (PCBNEW 7.0.2) date 2023-09-16 14:44:34*
%MOMM*%
%LPD*%
G01*
G04 APERTURE LIST*
%ADD10C,0.150000*%
%ADD11C,0.120000*%
G04 APERTURE END LIST*
D10*
G36*
X194016270Y-79019330D02*
G01*
X193468189Y-79327076D01*
X193445471Y-79365226D01*
X193422748Y-79403108D01*
X193400019Y-79440720D01*
X193377284Y-79478063D01*
X193354544Y-79515138D01*
X193331798Y-79551943D01*
X193309046Y-79588479D01*
X193286289Y-79624747D01*
X193263526Y-79660745D01*
X193240757Y-79696474D01*
X193217982Y-79731934D01*
X193195201Y-79767125D01*
X193172415Y-79802047D01*
X193149623Y-79836700D01*
X193126826Y-79871084D01*
X193104023Y-79905198D01*
X193081465Y-79938809D01*
X193059223Y-79971682D01*
X193037296Y-80003816D01*
X193015683Y-80035212D01*
X192994385Y-80065869D01*
X192973402Y-80095788D01*
X192952734Y-80124968D01*
X192932381Y-80153410D01*
X192912342Y-80181114D01*
X192892619Y-80208079D01*
X192873210Y-80234305D01*
X192854116Y-80259793D01*
X192835337Y-80284543D01*
X192816873Y-80308554D01*
X192798724Y-80331827D01*
X192780889Y-80354361D01*
X192754709Y-80386999D01*
X192729198Y-80418143D01*
X192704356Y-80447792D01*
X192680185Y-80475948D01*
X192656683Y-80502610D01*
X192633851Y-80527777D01*
X192611689Y-80551451D01*
X192590197Y-80573630D01*
X192569374Y-80594315D01*
X192542652Y-80619572D01*
X192536158Y-80625471D01*
X192511348Y-80647452D01*
X192488210Y-80666503D01*
X192461638Y-80686195D01*
X192433199Y-80703781D01*
X192404773Y-80715963D01*
X192384483Y-80719260D01*
X192353067Y-80716512D01*
X192324766Y-80708269D01*
X192296649Y-80692426D01*
X192277505Y-80675296D01*
X192259232Y-80652307D01*
X192244916Y-80624035D01*
X192237208Y-80593213D01*
X192235739Y-80571249D01*
X192237942Y-80528773D01*
X192241857Y-80499360D01*
X192247730Y-80469072D01*
X192255562Y-80437908D01*
X192265350Y-80405869D01*
X192277097Y-80372953D01*
X192290801Y-80339162D01*
X192306463Y-80304495D01*
X192324083Y-80268952D01*
X192343661Y-80232533D01*
X192365196Y-80195238D01*
X192388689Y-80157067D01*
X192414140Y-80118021D01*
X192441549Y-80078099D01*
X192470915Y-80037301D01*
X192486332Y-80016573D01*
X192518796Y-79974733D01*
X192553537Y-79932561D01*
X192590557Y-79890057D01*
X192629856Y-79847221D01*
X192650359Y-79825679D01*
X192671432Y-79804053D01*
X192693075Y-79782345D01*
X192715287Y-79760553D01*
X192738069Y-79738679D01*
X192761420Y-79716721D01*
X192785341Y-79694681D01*
X192809832Y-79672557D01*
X192834892Y-79650351D01*
X192860522Y-79628061D01*
X192886721Y-79605688D01*
X192913490Y-79583233D01*
X192940829Y-79560694D01*
X192968737Y-79538073D01*
X192997214Y-79515368D01*
X193026262Y-79492581D01*
X193055879Y-79469710D01*
X193086065Y-79446756D01*
X193116821Y-79423720D01*
X193148147Y-79400600D01*
X193180042Y-79377398D01*
X193212506Y-79354112D01*
X193245541Y-79330744D01*
X193279145Y-79307292D01*
X193293719Y-79279299D01*
X193308133Y-79251467D01*
X193322387Y-79223795D01*
X193336481Y-79196284D01*
X193350414Y-79168932D01*
X193364187Y-79141741D01*
X193377800Y-79114710D01*
X193391252Y-79087840D01*
X193404544Y-79061129D01*
X193417676Y-79034579D01*
X193430648Y-79008190D01*
X193456110Y-78955891D01*
X193480931Y-78904234D01*
X193505111Y-78853218D01*
X193528650Y-78802843D01*
X193551548Y-78753109D01*
X193573805Y-78704016D01*
X193595420Y-78655564D01*
X193616394Y-78607754D01*
X193636728Y-78560584D01*
X193656420Y-78514056D01*
X193666025Y-78491032D01*
X193684882Y-78445560D01*
X193703165Y-78400918D01*
X193720877Y-78357106D01*
X193738016Y-78314124D01*
X193754582Y-78271972D01*
X193770577Y-78230650D01*
X193785998Y-78190159D01*
X193800847Y-78150497D01*
X193815124Y-78111665D01*
X193828828Y-78073663D01*
X193841960Y-78036492D01*
X193854520Y-78000150D01*
X193866507Y-77964638D01*
X193877921Y-77929957D01*
X193888763Y-77896105D01*
X193899033Y-77863084D01*
X193908916Y-77830881D01*
X193918416Y-77799485D01*
X193927532Y-77768897D01*
X193936265Y-77739115D01*
X193944614Y-77710141D01*
X193956418Y-77668193D01*
X193967360Y-77628061D01*
X193977439Y-77589745D01*
X193986654Y-77553246D01*
X193995007Y-77518562D01*
X194002497Y-77485694D01*
X194009123Y-77454643D01*
X194011140Y-77444696D01*
X194018697Y-77406926D01*
X194025245Y-77372751D01*
X194030787Y-77342171D01*
X194036297Y-77309002D01*
X194040830Y-77276613D01*
X194043349Y-77246010D01*
X194043381Y-77243196D01*
X194040985Y-77213314D01*
X194030337Y-77183089D01*
X194008177Y-77162223D01*
X193979429Y-77155354D01*
X193975237Y-77155268D01*
X193944096Y-77159252D01*
X193911438Y-77169275D01*
X193879427Y-77182722D01*
X193849917Y-77197351D01*
X193817832Y-77215094D01*
X193811106Y-77219016D01*
X193783892Y-77235937D01*
X193756105Y-77254828D01*
X193727746Y-77275688D01*
X193698815Y-77298517D01*
X193669311Y-77323315D01*
X193646808Y-77343206D01*
X193623982Y-77364205D01*
X193600835Y-77386311D01*
X193577365Y-77409525D01*
X193554014Y-77433510D01*
X193530946Y-77458203D01*
X193508161Y-77483604D01*
X193485660Y-77509714D01*
X193463442Y-77536532D01*
X193441507Y-77564059D01*
X193419856Y-77592294D01*
X193398488Y-77621238D01*
X193377403Y-77650890D01*
X193356602Y-77681250D01*
X193342892Y-77701884D01*
X193322589Y-77733143D01*
X193302621Y-77765099D01*
X193282987Y-77797749D01*
X193263689Y-77831096D01*
X193244725Y-77865138D01*
X193226096Y-77899875D01*
X193207802Y-77935308D01*
X193189843Y-77971436D01*
X193172219Y-78008260D01*
X193154930Y-78045779D01*
X193143590Y-78071179D01*
X193127189Y-78109233D01*
X193111510Y-78146733D01*
X193096552Y-78183679D01*
X193082315Y-78220072D01*
X193068800Y-78255910D01*
X193056006Y-78291195D01*
X193043933Y-78325926D01*
X193032581Y-78360103D01*
X193021951Y-78393726D01*
X193012042Y-78426795D01*
X193005837Y-78448534D01*
X192997194Y-78480358D01*
X192989402Y-78510985D01*
X192982460Y-78540413D01*
X192974526Y-78577788D01*
X192968103Y-78613034D01*
X192963191Y-78646150D01*
X192959791Y-78677136D01*
X192957666Y-78712874D01*
X192957477Y-78726238D01*
X192958807Y-78758666D01*
X192960948Y-78788959D01*
X192963648Y-78821928D01*
X192965537Y-78843475D01*
X192981872Y-78818201D01*
X192997960Y-78793603D01*
X193010966Y-78773866D01*
X193029270Y-78747619D01*
X193048068Y-78723752D01*
X193069069Y-78699654D01*
X193079110Y-78688869D01*
X193099901Y-78668169D01*
X193123948Y-78647072D01*
X193148690Y-78628293D01*
X193165572Y-78617062D01*
X193191117Y-78600011D01*
X193218103Y-78586942D01*
X193229319Y-78582623D01*
X193258477Y-78576517D01*
X193266688Y-78585554D01*
X193250099Y-78612929D01*
X193229362Y-78640140D01*
X193210929Y-78663289D01*
X193188810Y-78690446D01*
X193169801Y-78713443D01*
X193148719Y-78738695D01*
X193127008Y-78764834D01*
X193105837Y-78790498D01*
X193085208Y-78815685D01*
X193065119Y-78840395D01*
X193045572Y-78864629D01*
X193026565Y-78888386D01*
X193008099Y-78911666D01*
X192984320Y-78941966D01*
X192961503Y-78971418D01*
X192945020Y-78992951D01*
X192925177Y-79017123D01*
X192903014Y-79040728D01*
X192878534Y-79063766D01*
X192851735Y-79086237D01*
X192827631Y-79104530D01*
X192812397Y-79115317D01*
X192787502Y-79131571D01*
X192759613Y-79147439D01*
X192729810Y-79160938D01*
X192699356Y-79169754D01*
X192679040Y-79171737D01*
X192647368Y-79167216D01*
X192620062Y-79151589D01*
X192602584Y-79127979D01*
X192596974Y-79114584D01*
X192588640Y-79081749D01*
X192583951Y-79051532D01*
X192580602Y-79016525D01*
X192578835Y-78983691D01*
X192577998Y-78947531D01*
X192577923Y-78932135D01*
X192578330Y-78894319D01*
X192579549Y-78855977D01*
X192581581Y-78817108D01*
X192584426Y-78777712D01*
X192588084Y-78737790D01*
X192592555Y-78697341D01*
X192597839Y-78656366D01*
X192603935Y-78614863D01*
X192610845Y-78572835D01*
X192618567Y-78530279D01*
X192627102Y-78487197D01*
X192636450Y-78443588D01*
X192646611Y-78399453D01*
X192657585Y-78354791D01*
X192669371Y-78309602D01*
X192681971Y-78263886D01*
X192695254Y-78218257D01*
X192709093Y-78173326D01*
X192723487Y-78129093D01*
X192738437Y-78085559D01*
X192753941Y-78042723D01*
X192770001Y-78000585D01*
X192786617Y-77959146D01*
X192803787Y-77918405D01*
X192821513Y-77878362D01*
X192839794Y-77839018D01*
X192858630Y-77800373D01*
X192878022Y-77762425D01*
X192897968Y-77725176D01*
X192918470Y-77688626D01*
X192939528Y-77652774D01*
X192961140Y-77617620D01*
X192979158Y-77589762D01*
X192997674Y-77562242D01*
X193016688Y-77535059D01*
X193036199Y-77508214D01*
X193056209Y-77481707D01*
X193076717Y-77455538D01*
X193097723Y-77429706D01*
X193119227Y-77404213D01*
X193141229Y-77379057D01*
X193163728Y-77354238D01*
X193186726Y-77329758D01*
X193210222Y-77305615D01*
X193234216Y-77281810D01*
X193258708Y-77258342D01*
X193283698Y-77235213D01*
X193309187Y-77212421D01*
X193334969Y-77190018D01*
X193360661Y-77168240D01*
X193386260Y-77147085D01*
X193411769Y-77126554D01*
X193437185Y-77106648D01*
X193462510Y-77087365D01*
X193487743Y-77068706D01*
X193512885Y-77050671D01*
X193537935Y-77033260D01*
X193562894Y-77016473D01*
X193587761Y-77000310D01*
X193624889Y-76977236D01*
X193661812Y-76955565D01*
X193698529Y-76935299D01*
X193710722Y-76928855D01*
X193746532Y-76910653D01*
X193780875Y-76894242D01*
X193813749Y-76879621D01*
X193845155Y-76866791D01*
X193875092Y-76855750D01*
X193903561Y-76846500D01*
X193939236Y-76836952D01*
X193972300Y-76830586D01*
X194002754Y-76827404D01*
X194017002Y-76827006D01*
X194049929Y-76828368D01*
X194080933Y-76832455D01*
X194110013Y-76839268D01*
X194143658Y-76851614D01*
X194174299Y-76868219D01*
X194201933Y-76889081D01*
X194226563Y-76914200D01*
X194248094Y-76943077D01*
X194262691Y-76968522D01*
X194274953Y-76996051D01*
X194284879Y-77025663D01*
X194292470Y-77057359D01*
X194297725Y-77091139D01*
X194300644Y-77127003D01*
X194301301Y-77155268D01*
X194300459Y-77188522D01*
X194298399Y-77218421D01*
X194295101Y-77249608D01*
X194290568Y-77282082D01*
X194284797Y-77315845D01*
X194283715Y-77321598D01*
X194276786Y-77356047D01*
X194270500Y-77384913D01*
X194263749Y-77413921D01*
X194256532Y-77443073D01*
X194248851Y-77472368D01*
X194240704Y-77501806D01*
X194239019Y-77507711D01*
X194229810Y-77539846D01*
X194221051Y-77569625D01*
X194211057Y-77603021D01*
X194199825Y-77640035D01*
X194190590Y-77670170D01*
X194180660Y-77702340D01*
X194170034Y-77736545D01*
X194158712Y-77772785D01*
X194146695Y-77811060D01*
X194134730Y-77848972D01*
X194123563Y-77884399D01*
X194113194Y-77917339D01*
X194103625Y-77947794D01*
X194094853Y-77975763D01*
X194084400Y-78009188D01*
X194075367Y-78038194D01*
X194066072Y-78068236D01*
X194060233Y-78087299D01*
X194047926Y-78126969D01*
X194034911Y-78166846D01*
X194021188Y-78206928D01*
X194006756Y-78247217D01*
X193991615Y-78287712D01*
X193975766Y-78328412D01*
X193964807Y-78355661D01*
X193953533Y-78383001D01*
X193941943Y-78410432D01*
X193930039Y-78437955D01*
X193917821Y-78465570D01*
X193905287Y-78493276D01*
X193892438Y-78521074D01*
X193879089Y-78549390D01*
X193865053Y-78578834D01*
X193850329Y-78609405D01*
X193834919Y-78641104D01*
X193818822Y-78673931D01*
X193802038Y-78707886D01*
X193784567Y-78742968D01*
X193766409Y-78779178D01*
X193747564Y-78816515D01*
X193728032Y-78854981D01*
X193707814Y-78894574D01*
X193686908Y-78935295D01*
X193665315Y-78977143D01*
X193643036Y-79020120D01*
X193620070Y-79064224D01*
X193596416Y-79109455D01*
X194016270Y-78889637D01*
X194016270Y-79019330D01*
G37*
G36*
X195396730Y-78300523D02*
G01*
X195428375Y-78293425D01*
X195458013Y-78287256D01*
X195480994Y-78283670D01*
X195512282Y-78287008D01*
X195543319Y-78292080D01*
X195573150Y-78297387D01*
X195590170Y-78300523D01*
X195620212Y-78304370D01*
X195644392Y-78308583D01*
X195673720Y-78315363D01*
X195683960Y-78318841D01*
X195701545Y-78333496D01*
X195683164Y-78359635D01*
X195658039Y-78383527D01*
X195633567Y-78404801D01*
X195610074Y-78424344D01*
X195590170Y-78440474D01*
X195562499Y-78461677D01*
X195534804Y-78480957D01*
X195507086Y-78498314D01*
X195479345Y-78513747D01*
X195451582Y-78527257D01*
X195423795Y-78538843D01*
X195395986Y-78548506D01*
X195368154Y-78556245D01*
X195337860Y-78564033D01*
X195306633Y-78570248D01*
X195269968Y-78576212D01*
X195236721Y-78580803D01*
X195199993Y-78585234D01*
X195170162Y-78588452D01*
X195138375Y-78591579D01*
X195116095Y-78593614D01*
X195081794Y-78596364D01*
X195046758Y-78598844D01*
X195010988Y-78601052D01*
X194974484Y-78602991D01*
X194937246Y-78604659D01*
X194899273Y-78606056D01*
X194860567Y-78607183D01*
X194821126Y-78608040D01*
X194780951Y-78608626D01*
X194740042Y-78608941D01*
X194712362Y-78609002D01*
X194677156Y-78608787D01*
X194644813Y-78608143D01*
X194615332Y-78607070D01*
X194583733Y-78605215D01*
X194552077Y-78602270D01*
X194536507Y-78600209D01*
X194505595Y-78592495D01*
X194481552Y-78574243D01*
X194477889Y-78559909D01*
X194488221Y-78532337D01*
X194505394Y-78505341D01*
X194507198Y-78502756D01*
X194525661Y-78478503D01*
X194547254Y-78453554D01*
X194569076Y-78430794D01*
X194587065Y-78413363D01*
X194614929Y-78389662D01*
X194646863Y-78368292D01*
X194682866Y-78349253D01*
X194722940Y-78332545D01*
X194751918Y-78322702D01*
X194782704Y-78313895D01*
X194815299Y-78306124D01*
X194849702Y-78299389D01*
X194885915Y-78293691D01*
X194923937Y-78289028D01*
X194963768Y-78285402D01*
X195005407Y-78282811D01*
X195048856Y-78281257D01*
X195094113Y-78280739D01*
X195123505Y-78281435D01*
X195157641Y-78283077D01*
X195191261Y-78285086D01*
X195230490Y-78287714D01*
X195263594Y-78290090D01*
X195299853Y-78292814D01*
X195339268Y-78295886D01*
X195381839Y-78299306D01*
X195396730Y-78300523D01*
G37*
G36*
X199146682Y-76808261D02*
G01*
X199162986Y-76836840D01*
X199175963Y-76865849D01*
X199185612Y-76895287D01*
X199191934Y-76925154D01*
X199194929Y-76955451D01*
X199195195Y-76967690D01*
X199193340Y-76999091D01*
X199187776Y-77032296D01*
X199180306Y-77061344D01*
X199170259Y-77091644D01*
X199157637Y-77123196D01*
X199142438Y-77156001D01*
X199127589Y-77185482D01*
X199109053Y-77220802D01*
X199092732Y-77251123D01*
X199074338Y-77284729D01*
X199053869Y-77321620D01*
X199039071Y-77348038D01*
X199023352Y-77375916D01*
X199006711Y-77405254D01*
X198989149Y-77436051D01*
X198970664Y-77468309D01*
X198951259Y-77502026D01*
X198930931Y-77537202D01*
X198920422Y-77555338D01*
X198899153Y-77592029D01*
X198877843Y-77629012D01*
X198856494Y-77666286D01*
X198835105Y-77703853D01*
X198813675Y-77741711D01*
X198792206Y-77779862D01*
X198770696Y-77818304D01*
X198749146Y-77857039D01*
X198727557Y-77896065D01*
X198705927Y-77935384D01*
X198684257Y-77974994D01*
X198662547Y-78014896D01*
X198640797Y-78055090D01*
X198619007Y-78095576D01*
X198597177Y-78136354D01*
X198575307Y-78177424D01*
X198605948Y-78177540D01*
X198636459Y-78177941D01*
X198668161Y-78178800D01*
X198670561Y-78178890D01*
X198702366Y-78179727D01*
X198733226Y-78180929D01*
X198751894Y-78181821D01*
X198786506Y-78181928D01*
X198816609Y-78182250D01*
X198846782Y-78182920D01*
X198876916Y-78184294D01*
X198895509Y-78186217D01*
X198918124Y-78205857D01*
X198921154Y-78227983D01*
X198909789Y-78256683D01*
X198892818Y-78282036D01*
X198888914Y-78287334D01*
X198870092Y-78312155D01*
X198851949Y-78335459D01*
X198830353Y-78362782D01*
X198809720Y-78388621D01*
X198786690Y-78417250D01*
X198776807Y-78429483D01*
X198756726Y-78454258D01*
X198736782Y-78479125D01*
X198716975Y-78504084D01*
X198697306Y-78529134D01*
X198677774Y-78554276D01*
X198658380Y-78579509D01*
X198639123Y-78604834D01*
X198620003Y-78630251D01*
X198317386Y-78655896D01*
X198302555Y-78684490D01*
X198288194Y-78712293D01*
X198274305Y-78739307D01*
X198260886Y-78765531D01*
X198235461Y-78815608D01*
X198211919Y-78862526D01*
X198190261Y-78906283D01*
X198170485Y-78946881D01*
X198152594Y-78984319D01*
X198136585Y-79018597D01*
X198122460Y-79049715D01*
X198110219Y-79077673D01*
X198095387Y-79113686D01*
X198084793Y-79142588D01*
X198076554Y-79174960D01*
X198076318Y-79179064D01*
X198079435Y-79208448D01*
X198093289Y-79238169D01*
X198118224Y-79257083D01*
X198149134Y-79264766D01*
X198164979Y-79265526D01*
X198196900Y-79256656D01*
X198226822Y-79243621D01*
X198254838Y-79230043D01*
X198287633Y-79213207D01*
X198325206Y-79193112D01*
X198352909Y-79177905D01*
X198382736Y-79161250D01*
X198414687Y-79143146D01*
X198448762Y-79123595D01*
X198484961Y-79102594D01*
X198523283Y-79080146D01*
X198507163Y-79191521D01*
X198476090Y-79214138D01*
X198446343Y-79235828D01*
X198417924Y-79256591D01*
X198390831Y-79276426D01*
X198365064Y-79295334D01*
X198340624Y-79313314D01*
X198310102Y-79335845D01*
X198281937Y-79356728D01*
X198256132Y-79375962D01*
X198244113Y-79384961D01*
X198215412Y-79406353D01*
X198187928Y-79426563D01*
X198161660Y-79445594D01*
X198136608Y-79463443D01*
X198108152Y-79483304D01*
X198081448Y-79501465D01*
X198056031Y-79518200D01*
X198027420Y-79535576D01*
X197999931Y-79550638D01*
X197969890Y-79565018D01*
X197955418Y-79571074D01*
X197927117Y-79581012D01*
X197898632Y-79588110D01*
X197866367Y-79592702D01*
X197841113Y-79593789D01*
X197811405Y-79590773D01*
X197781908Y-79581727D01*
X197752621Y-79566651D01*
X197727685Y-79548928D01*
X197707023Y-79530774D01*
X197684612Y-79505564D01*
X197666838Y-79476644D01*
X197653700Y-79444014D01*
X197646294Y-79413990D01*
X197642108Y-79381389D01*
X197641078Y-79353454D01*
X197643860Y-79323888D01*
X197651004Y-79292255D01*
X197660861Y-79260443D01*
X197671990Y-79230106D01*
X197676249Y-79219364D01*
X197689618Y-79186924D01*
X197703348Y-79154999D01*
X197717439Y-79123589D01*
X197731890Y-79092694D01*
X197746702Y-79062314D01*
X197751720Y-79052302D01*
X197767301Y-79021677D01*
X197784068Y-78989345D01*
X197799152Y-78960528D01*
X197816388Y-78927796D01*
X197835775Y-78891148D01*
X197849894Y-78864541D01*
X197864969Y-78836193D01*
X197881000Y-78806106D01*
X197897988Y-78774278D01*
X197915931Y-78740710D01*
X197934830Y-78705401D01*
X197954685Y-78668353D01*
X197924246Y-78669329D01*
X197894842Y-78670242D01*
X197852679Y-78671493D01*
X197812848Y-78672603D01*
X197775348Y-78673571D01*
X197740179Y-78674398D01*
X197707342Y-78675082D01*
X197676835Y-78675626D01*
X197639787Y-78676129D01*
X197606883Y-78676381D01*
X197591985Y-78676413D01*
X197557546Y-78676342D01*
X197520724Y-78676129D01*
X197481520Y-78675775D01*
X197439932Y-78675279D01*
X197395962Y-78674642D01*
X197365325Y-78674138D01*
X197333629Y-78673571D01*
X197300873Y-78672941D01*
X197267059Y-78672249D01*
X197232186Y-78671493D01*
X197196253Y-78670675D01*
X197159262Y-78669793D01*
X197121212Y-78668848D01*
X197101789Y-78668353D01*
X197080466Y-78692123D01*
X197057711Y-78717182D01*
X197033525Y-78743529D01*
X197013146Y-78765534D01*
X196991852Y-78788363D01*
X196969641Y-78812016D01*
X196946514Y-78836494D01*
X196940589Y-78842742D01*
X196917108Y-78867437D01*
X196893924Y-78891697D01*
X196871037Y-78915523D01*
X196848449Y-78938913D01*
X196826158Y-78961868D01*
X196804164Y-78984388D01*
X196782469Y-79006472D01*
X196761071Y-79028122D01*
X196740371Y-79048982D01*
X196715527Y-79073962D01*
X196691828Y-79097726D01*
X196669274Y-79120273D01*
X196647864Y-79141604D01*
X196623684Y-79165595D01*
X196615990Y-79173203D01*
X196593957Y-79195038D01*
X196570205Y-79218756D01*
X196548557Y-79240579D01*
X196526391Y-79263202D01*
X196516339Y-79273586D01*
X196488384Y-79299750D01*
X196461671Y-79324751D01*
X196436200Y-79348591D01*
X196411971Y-79371268D01*
X196388985Y-79392784D01*
X196367241Y-79413137D01*
X196336953Y-79441488D01*
X196309461Y-79467224D01*
X196284763Y-79490346D01*
X196262861Y-79510853D01*
X196238006Y-79534129D01*
X196218119Y-79552756D01*
X196196416Y-79573024D01*
X196174355Y-79592612D01*
X196151937Y-79611521D01*
X196124563Y-79633314D01*
X196096673Y-79654128D01*
X196073039Y-79670725D01*
X196044900Y-79688654D01*
X196017637Y-79702874D01*
X195986938Y-79714775D01*
X195957431Y-79721627D01*
X195933087Y-79723482D01*
X195901351Y-79719452D01*
X195874432Y-79703080D01*
X195861681Y-79674114D01*
X195860547Y-79659002D01*
X195864179Y-79629670D01*
X195872755Y-79601133D01*
X195886376Y-79568876D01*
X195900905Y-79540391D01*
X195918662Y-79509525D01*
X195939648Y-79476277D01*
X195957506Y-79449779D01*
X195963862Y-79440648D01*
X195983465Y-79413336D01*
X196003532Y-79386630D01*
X196024063Y-79360528D01*
X196045058Y-79335033D01*
X196066516Y-79310142D01*
X196088437Y-79285857D01*
X196110823Y-79262177D01*
X196133672Y-79239102D01*
X196156985Y-79216633D01*
X196180761Y-79194769D01*
X196196870Y-79180530D01*
X196220775Y-79160233D01*
X196243856Y-79141933D01*
X196273348Y-79120638D01*
X196301375Y-79102892D01*
X196327937Y-79088695D01*
X196359077Y-79075941D01*
X196387929Y-79068732D01*
X196409361Y-79066957D01*
X196438665Y-79074195D01*
X196465576Y-79088019D01*
X196473108Y-79092602D01*
X196864385Y-78660293D01*
X196835036Y-78656454D01*
X196802493Y-78653183D01*
X196772933Y-78650889D01*
X196741155Y-78648990D01*
X196707159Y-78647483D01*
X196670945Y-78646371D01*
X196635518Y-78645169D01*
X196603883Y-78643394D01*
X196570928Y-78640509D01*
X196539382Y-78636101D01*
X196509745Y-78628785D01*
X196484740Y-78611372D01*
X196471277Y-78582211D01*
X196468712Y-78556245D01*
X196473345Y-78525065D01*
X196483724Y-78496437D01*
X196500033Y-78464535D01*
X196516156Y-78438459D01*
X196535616Y-78410542D01*
X196558411Y-78380782D01*
X196584542Y-78349181D01*
X196603817Y-78327091D01*
X196624574Y-78304182D01*
X196646813Y-78280454D01*
X196658489Y-78268283D01*
X196684111Y-78242935D01*
X196709322Y-78220014D01*
X196734120Y-78199521D01*
X196758506Y-78181454D01*
X196788409Y-78162285D01*
X196817668Y-78146907D01*
X196846283Y-78135323D01*
X196851929Y-78133461D01*
X196884347Y-78124964D01*
X196916078Y-78119119D01*
X196952960Y-78114121D01*
X196984003Y-78110929D01*
X197017944Y-78108214D01*
X197054783Y-78105975D01*
X197094520Y-78104212D01*
X197137155Y-78102927D01*
X197167188Y-78102334D01*
X197198510Y-78101953D01*
X197162148Y-78107197D01*
X197128534Y-78112670D01*
X197097668Y-78118371D01*
X197062949Y-78125820D01*
X197032524Y-78133627D01*
X197001680Y-78143467D01*
X196984553Y-78150314D01*
X196956892Y-78165976D01*
X196934095Y-78187756D01*
X196920107Y-78213941D01*
X196915676Y-78233845D01*
X196945123Y-78233845D01*
X196976827Y-78233845D01*
X197007024Y-78233845D01*
X197026318Y-78233845D01*
X197057192Y-78233787D01*
X197088722Y-78233638D01*
X197119467Y-78233432D01*
X197153156Y-78233157D01*
X197158210Y-78233112D01*
X197191759Y-78232436D01*
X197221241Y-78231689D01*
X197253171Y-78230627D01*
X197278377Y-78229448D01*
X197299473Y-78208832D01*
X197322695Y-78186217D01*
X197564874Y-78186217D01*
X198233122Y-78173761D01*
X198254718Y-78137061D01*
X198275540Y-78101702D01*
X198295590Y-78067681D01*
X198314867Y-78035000D01*
X198333372Y-78003659D01*
X198351103Y-77973657D01*
X198368062Y-77944995D01*
X198384248Y-77917672D01*
X198399661Y-77891689D01*
X198419009Y-77859128D01*
X198423632Y-77851360D01*
X198442167Y-77820070D01*
X198461138Y-77788117D01*
X198480544Y-77755499D01*
X198500385Y-77722217D01*
X198515551Y-77696820D01*
X198530962Y-77671049D01*
X198546618Y-77644905D01*
X198562518Y-77618387D01*
X198578663Y-77591496D01*
X198584099Y-77582449D01*
X198600360Y-77555639D01*
X198616170Y-77529615D01*
X198631530Y-77504377D01*
X198651308Y-77471948D01*
X198670284Y-77440916D01*
X198688459Y-77411280D01*
X198705833Y-77383042D01*
X198722405Y-77356200D01*
X198734309Y-77336985D01*
X198750268Y-77311294D01*
X198766640Y-77284778D01*
X198783424Y-77257438D01*
X198800621Y-77229274D01*
X198818229Y-77200285D01*
X198836250Y-77170472D01*
X198854682Y-77139835D01*
X198873527Y-77108374D01*
X198845586Y-77125871D01*
X198817542Y-77143742D01*
X198789395Y-77161987D01*
X198761145Y-77180605D01*
X198732792Y-77199596D01*
X198704335Y-77218961D01*
X198675776Y-77238700D01*
X198647114Y-77258812D01*
X198618349Y-77279297D01*
X198589480Y-77300157D01*
X198570177Y-77314270D01*
X198540972Y-77335840D01*
X198511058Y-77358234D01*
X198480436Y-77381452D01*
X198449106Y-77405495D01*
X198417067Y-77430362D01*
X198384319Y-77456053D01*
X198350863Y-77482569D01*
X198316699Y-77509909D01*
X198293529Y-77528593D01*
X198270045Y-77547644D01*
X198246246Y-77567062D01*
X198222131Y-77586845D01*
X198198117Y-77606635D01*
X198174435Y-77626252D01*
X198151085Y-77645698D01*
X198128067Y-77664972D01*
X198105381Y-77684075D01*
X198071975Y-77712407D01*
X198039316Y-77740352D01*
X198007403Y-77767911D01*
X197976238Y-77795083D01*
X197945820Y-77821869D01*
X197916149Y-77848269D01*
X197887224Y-77874282D01*
X197877749Y-77882868D01*
X197849475Y-77908817D01*
X197820983Y-77935281D01*
X197792271Y-77962260D01*
X197763340Y-77989754D01*
X197734191Y-78017764D01*
X197704822Y-78046289D01*
X197675235Y-78075329D01*
X197645428Y-78104884D01*
X197615403Y-78134955D01*
X197585158Y-78165541D01*
X197564874Y-78186217D01*
X197322695Y-78186217D01*
X197341296Y-78168103D01*
X197382626Y-78128043D01*
X197423464Y-78088653D01*
X197463810Y-78049933D01*
X197503664Y-78011883D01*
X197543025Y-77974502D01*
X197581894Y-77937791D01*
X197620271Y-77901750D01*
X197658155Y-77866379D01*
X197695547Y-77831678D01*
X197732447Y-77797646D01*
X197768854Y-77764284D01*
X197804770Y-77731591D01*
X197840192Y-77699569D01*
X197875123Y-77668216D01*
X197892404Y-77652791D01*
X197927051Y-77622116D01*
X197961933Y-77591642D01*
X197997049Y-77561369D01*
X198032400Y-77531295D01*
X198067986Y-77501422D01*
X198103807Y-77471750D01*
X198139863Y-77442277D01*
X198176153Y-77413005D01*
X198212677Y-77383934D01*
X198249437Y-77355063D01*
X198286431Y-77326392D01*
X198323660Y-77297921D01*
X198361124Y-77269651D01*
X198398822Y-77241581D01*
X198436755Y-77213712D01*
X198474923Y-77186043D01*
X198513362Y-77158525D01*
X198552111Y-77131294D01*
X198591169Y-77104349D01*
X198630536Y-77077691D01*
X198670212Y-77051318D01*
X198710197Y-77025232D01*
X198750492Y-76999432D01*
X198791095Y-76973918D01*
X198832008Y-76948690D01*
X198873229Y-76923749D01*
X198914760Y-76899094D01*
X198956600Y-76874725D01*
X198998749Y-76850642D01*
X199041207Y-76826845D01*
X199083975Y-76803335D01*
X199127051Y-76780111D01*
X199146682Y-76808261D01*
G37*
G36*
X198795125Y-79031786D02*
G01*
X198795125Y-78895498D01*
X198815538Y-78870842D01*
X198835010Y-78846881D01*
X198853542Y-78823615D01*
X198876789Y-78793676D01*
X198898365Y-78764974D01*
X198918269Y-78737508D01*
X198936501Y-78711279D01*
X198953062Y-78686286D01*
X198964385Y-78668353D01*
X198933657Y-78656400D01*
X198907416Y-78643257D01*
X198880926Y-78625153D01*
X198868398Y-78613398D01*
X198851294Y-78586920D01*
X198841906Y-78556237D01*
X198838473Y-78523238D01*
X198838356Y-78515212D01*
X198841301Y-78481012D01*
X198848514Y-78448795D01*
X198857831Y-78419900D01*
X198870153Y-78389146D01*
X198885480Y-78356531D01*
X198899905Y-78329099D01*
X198915911Y-78301130D01*
X198932786Y-78273641D01*
X198950532Y-78246633D01*
X198969148Y-78220106D01*
X198988634Y-78194060D01*
X199008990Y-78168494D01*
X199030216Y-78143410D01*
X199052313Y-78118806D01*
X199074764Y-78095347D01*
X199096689Y-78074064D01*
X199123354Y-78050519D01*
X199149196Y-78030372D01*
X199174216Y-78013625D01*
X199203153Y-77998014D01*
X199217177Y-77992044D01*
X199245753Y-77981053D01*
X199272864Y-77977390D01*
X199301415Y-77984823D01*
X199314466Y-78011522D01*
X199314630Y-78016224D01*
X199308333Y-78045219D01*
X199296432Y-78073859D01*
X199281319Y-78103878D01*
X199265262Y-78132751D01*
X199250150Y-78158374D01*
X199302044Y-78150477D01*
X199351484Y-78143089D01*
X199398467Y-78136211D01*
X199442995Y-78129843D01*
X199485066Y-78123984D01*
X199524682Y-78118634D01*
X199561843Y-78113794D01*
X199596547Y-78109464D01*
X199628796Y-78105643D01*
X199658588Y-78102331D01*
X199698673Y-78098319D01*
X199733232Y-78095453D01*
X199770716Y-78093415D01*
X199785774Y-78093161D01*
X199816546Y-78094491D01*
X199845858Y-78101221D01*
X199870484Y-78121863D01*
X199886655Y-78146406D01*
X199899375Y-78174742D01*
X199903743Y-78186950D01*
X199912594Y-78216122D01*
X199919271Y-78245293D01*
X199923774Y-78274465D01*
X199926258Y-78307804D01*
X199926458Y-78320307D01*
X199921956Y-78350390D01*
X199910049Y-78379241D01*
X199892970Y-78406431D01*
X199888356Y-78412630D01*
X199869057Y-78436603D01*
X199848329Y-78460611D01*
X199828103Y-78483058D01*
X199805195Y-78507723D01*
X199784936Y-78529053D01*
X199762960Y-78551802D01*
X199757198Y-78557711D01*
X199737036Y-78580154D01*
X199717493Y-78602971D01*
X199698568Y-78626161D01*
X199680261Y-78649725D01*
X199662573Y-78673663D01*
X199645502Y-78697974D01*
X199629050Y-78722658D01*
X199613217Y-78747716D01*
X199598001Y-78773148D01*
X199583404Y-78798953D01*
X199574016Y-78816364D01*
X199556670Y-78850264D01*
X199541638Y-78881989D01*
X199528918Y-78911538D01*
X199516271Y-78945416D01*
X199507237Y-78975895D01*
X199501166Y-79007984D01*
X199500010Y-79026657D01*
X199504209Y-79060025D01*
X199519721Y-79090228D01*
X199546664Y-79111035D01*
X199578856Y-79121391D01*
X199612097Y-79124747D01*
X199619445Y-79124842D01*
X199653837Y-79120801D01*
X199683418Y-79112466D01*
X199716245Y-79099583D01*
X199752318Y-79082155D01*
X199778169Y-79068010D01*
X199805463Y-79051844D01*
X199834200Y-79033657D01*
X199864379Y-79013450D01*
X199896001Y-78991222D01*
X199929065Y-78966973D01*
X199963572Y-78940704D01*
X199999522Y-78912413D01*
X200036914Y-78882103D01*
X200056151Y-78866189D01*
X200056151Y-79006140D01*
X200035042Y-79027650D01*
X200014397Y-79048581D01*
X199984298Y-79078895D01*
X199955243Y-79107907D01*
X199927231Y-79135618D01*
X199900263Y-79162028D01*
X199874338Y-79187138D01*
X199849456Y-79210947D01*
X199825617Y-79233454D01*
X199802821Y-79254661D01*
X199781069Y-79274567D01*
X199774050Y-79280914D01*
X199746459Y-79305368D01*
X199719371Y-79328541D01*
X199692786Y-79350431D01*
X199666706Y-79371039D01*
X199641129Y-79390365D01*
X199616056Y-79408408D01*
X199591487Y-79425170D01*
X199567421Y-79440648D01*
X199538384Y-79457747D01*
X199510348Y-79471947D01*
X199478028Y-79485162D01*
X199447150Y-79494204D01*
X199417715Y-79499072D01*
X199398893Y-79500000D01*
X199367475Y-79497243D01*
X199338066Y-79488974D01*
X199310665Y-79475193D01*
X199285275Y-79455898D01*
X199261893Y-79431092D01*
X199254546Y-79421598D01*
X199237870Y-79395169D01*
X199224020Y-79365341D01*
X199212997Y-79332114D01*
X199206214Y-79303085D01*
X199201239Y-79271881D01*
X199198074Y-79238502D01*
X199196717Y-79202947D01*
X199196660Y-79193719D01*
X199198257Y-79159896D01*
X199202028Y-79130412D01*
X199208018Y-79099747D01*
X199216225Y-79067901D01*
X199226651Y-79034874D01*
X199239295Y-79000667D01*
X199242090Y-78993684D01*
X199254099Y-78965176D01*
X199267414Y-78936073D01*
X199282035Y-78906375D01*
X199297960Y-78876081D01*
X199315191Y-78845192D01*
X199333726Y-78813708D01*
X199353567Y-78781628D01*
X199374713Y-78748953D01*
X199391387Y-78724236D01*
X199408433Y-78699545D01*
X199425853Y-78674880D01*
X199443647Y-78650240D01*
X199461814Y-78625627D01*
X199480355Y-78601039D01*
X199499269Y-78576477D01*
X199518557Y-78551940D01*
X199538218Y-78527430D01*
X199558253Y-78502945D01*
X199571817Y-78486636D01*
X199541959Y-78492910D01*
X199510268Y-78499275D01*
X199481036Y-78504921D01*
X199450402Y-78510636D01*
X199441392Y-78512281D01*
X199409555Y-78518122D01*
X199376877Y-78524102D01*
X199343358Y-78530223D01*
X199313957Y-78535581D01*
X199288984Y-78540125D01*
X199255795Y-78545935D01*
X199226113Y-78551185D01*
X199196483Y-78556497D01*
X199165886Y-78562107D01*
X199149497Y-78594253D01*
X199132203Y-78626026D01*
X199114005Y-78657428D01*
X199094903Y-78688457D01*
X199074896Y-78719114D01*
X199053984Y-78749399D01*
X199032169Y-78779312D01*
X199009448Y-78808853D01*
X198985823Y-78838022D01*
X198961294Y-78866819D01*
X198935861Y-78895244D01*
X198909522Y-78923296D01*
X198882280Y-78950977D01*
X198854133Y-78978285D01*
X198825081Y-79005222D01*
X198795125Y-79031786D01*
G37*
G36*
X200763967Y-77764898D02*
G01*
X200852627Y-77764898D01*
X200872917Y-77729221D01*
X200892847Y-77695552D01*
X200912416Y-77663893D01*
X200931624Y-77634244D01*
X200950472Y-77606603D01*
X200968959Y-77580972D01*
X200987085Y-77557350D01*
X201010693Y-77528980D01*
X201033659Y-77504181D01*
X201050464Y-77487927D01*
X201073018Y-77468865D01*
X201102306Y-77448611D01*
X201132810Y-77432328D01*
X201164530Y-77420017D01*
X201197467Y-77411677D01*
X201231621Y-77407309D01*
X201252697Y-77406594D01*
X201285204Y-77407846D01*
X201316941Y-77412655D01*
X201346914Y-77424676D01*
X201364545Y-77448719D01*
X201365537Y-77457885D01*
X201353069Y-77488419D01*
X201334281Y-77517175D01*
X201315665Y-77542653D01*
X201297656Y-77565997D01*
X201276877Y-77591974D01*
X201255559Y-77618719D01*
X201235569Y-77644364D01*
X201216907Y-77668911D01*
X201195448Y-77698048D01*
X201176064Y-77725468D01*
X201158754Y-77751171D01*
X201143520Y-77775157D01*
X201173238Y-77778898D01*
X201205398Y-77782917D01*
X201235634Y-77786660D01*
X201267351Y-77790544D01*
X201299408Y-77794064D01*
X201329381Y-77797606D01*
X201353813Y-77800802D01*
X201338835Y-77828505D01*
X201323393Y-77856295D01*
X201307488Y-77884170D01*
X201291119Y-77912131D01*
X201274286Y-77940178D01*
X201256990Y-77968311D01*
X201239230Y-77996529D01*
X201221006Y-78024834D01*
X201202319Y-78053224D01*
X201183168Y-78081700D01*
X201163553Y-78110262D01*
X201143474Y-78138910D01*
X201122932Y-78167644D01*
X201101926Y-78196464D01*
X201080457Y-78225370D01*
X201058524Y-78254361D01*
X201027766Y-78252004D01*
X200996854Y-78249657D01*
X200966818Y-78247406D01*
X200961803Y-78247034D01*
X200932471Y-78244836D01*
X200902727Y-78242637D01*
X200882669Y-78241172D01*
X200852884Y-78238984D01*
X200822201Y-78236694D01*
X200791650Y-78234388D01*
X200784483Y-78233845D01*
X200763916Y-78266901D01*
X200743980Y-78299301D01*
X200724675Y-78331043D01*
X200706001Y-78362129D01*
X200687958Y-78392558D01*
X200670547Y-78422330D01*
X200653766Y-78451446D01*
X200637617Y-78479904D01*
X200622099Y-78507705D01*
X200607211Y-78534850D01*
X200597637Y-78552581D01*
X200583927Y-78578623D01*
X200566587Y-78612723D01*
X200550324Y-78646114D01*
X200535137Y-78678795D01*
X200521026Y-78710766D01*
X200507992Y-78742027D01*
X200496033Y-78772578D01*
X200485151Y-78802420D01*
X200482599Y-78809769D01*
X200473154Y-78838701D01*
X200464968Y-78867243D01*
X200456506Y-78902373D01*
X200450013Y-78936895D01*
X200445487Y-78970808D01*
X200442929Y-79004114D01*
X200442299Y-79030321D01*
X200444073Y-79063465D01*
X200451283Y-79098681D01*
X200464037Y-79126992D01*
X200486663Y-79151850D01*
X200517275Y-79166765D01*
X200548884Y-79171599D01*
X200555872Y-79171737D01*
X200586973Y-79168800D01*
X200615488Y-79161867D01*
X200646364Y-79150854D01*
X200679601Y-79135763D01*
X200707892Y-79120754D01*
X200737693Y-79103134D01*
X200761036Y-79088206D01*
X200785557Y-79071758D01*
X200811585Y-79053739D01*
X200839121Y-79034149D01*
X200868163Y-79012987D01*
X200898712Y-78990254D01*
X200930768Y-78965949D01*
X200964331Y-78940073D01*
X200987544Y-78921950D01*
X201011426Y-78903128D01*
X201035979Y-78883607D01*
X201061200Y-78863389D01*
X201087092Y-78842472D01*
X201100289Y-78831751D01*
X201100289Y-78970969D01*
X201065769Y-79009287D01*
X201031816Y-79046389D01*
X200998432Y-79082274D01*
X200965616Y-79116943D01*
X200933368Y-79150395D01*
X200901688Y-79182631D01*
X200870577Y-79213650D01*
X200840033Y-79243453D01*
X200810058Y-79272039D01*
X200780651Y-79299409D01*
X200751812Y-79325563D01*
X200723541Y-79350500D01*
X200695838Y-79374221D01*
X200668703Y-79396725D01*
X200642137Y-79418013D01*
X200616139Y-79438084D01*
X200590709Y-79456939D01*
X200565847Y-79474577D01*
X200541553Y-79490999D01*
X200494670Y-79520194D01*
X200450059Y-79544523D01*
X200407721Y-79563986D01*
X200367656Y-79578583D01*
X200329863Y-79588315D01*
X200294343Y-79593181D01*
X200277435Y-79593789D01*
X200244050Y-79591187D01*
X200213138Y-79583382D01*
X200184699Y-79570373D01*
X200158733Y-79552161D01*
X200135240Y-79528745D01*
X200127958Y-79519783D01*
X200108784Y-79490537D01*
X200095836Y-79463883D01*
X200085643Y-79435153D01*
X200078205Y-79404348D01*
X200073522Y-79371469D01*
X200071593Y-79336514D01*
X200071538Y-79329274D01*
X200072646Y-79298843D01*
X200075969Y-79266351D01*
X200081507Y-79231798D01*
X200087815Y-79201430D01*
X200095661Y-79169631D01*
X200103046Y-79143161D01*
X200111896Y-79114344D01*
X200122325Y-79082115D01*
X200134335Y-79046475D01*
X200144380Y-79017506D01*
X200155313Y-78986617D01*
X200167134Y-78953810D01*
X200179845Y-78919083D01*
X200193444Y-78882437D01*
X200207932Y-78843873D01*
X200218084Y-78817096D01*
X200195228Y-78837096D01*
X200173098Y-78856612D01*
X200163129Y-78865457D01*
X200141391Y-78885272D01*
X200119656Y-78904946D01*
X200115502Y-78908688D01*
X200093337Y-78929021D01*
X200070894Y-78949081D01*
X200069340Y-78950453D01*
X200046510Y-78970696D01*
X200023358Y-78991583D01*
X200020247Y-78994417D01*
X200020247Y-78854466D01*
X200047622Y-78830870D01*
X200075706Y-78805144D01*
X200104500Y-78777289D01*
X200134003Y-78747304D01*
X200164217Y-78715190D01*
X200195140Y-78680946D01*
X200226774Y-78644573D01*
X200259117Y-78606071D01*
X200292170Y-78565439D01*
X200325932Y-78522677D01*
X200360405Y-78477786D01*
X200395587Y-78430765D01*
X200413445Y-78406457D01*
X200431480Y-78381615D01*
X200449692Y-78356242D01*
X200468082Y-78330336D01*
X200486649Y-78303897D01*
X200505394Y-78276927D01*
X200524316Y-78249424D01*
X200543415Y-78221388D01*
X200513557Y-78219556D01*
X200485530Y-78218457D01*
X200454401Y-78217314D01*
X200424107Y-78216993D01*
X200421782Y-78216992D01*
X200392347Y-78217255D01*
X200358291Y-78218325D01*
X200327275Y-78220218D01*
X200294070Y-78223575D01*
X200260866Y-78228990D01*
X200240799Y-78233845D01*
X200212248Y-78241322D01*
X200193904Y-78247034D01*
X200165111Y-78253622D01*
X200164595Y-78253628D01*
X200156535Y-78241905D01*
X200160567Y-78210253D01*
X200170442Y-78178156D01*
X200183196Y-78147906D01*
X200196363Y-78121414D01*
X200212162Y-78092883D01*
X200230595Y-78062315D01*
X200240799Y-78046266D01*
X200257709Y-78016671D01*
X200274367Y-77989067D01*
X200290773Y-77963456D01*
X200310927Y-77934244D01*
X200330687Y-77908144D01*
X200350053Y-77885157D01*
X200369026Y-77865282D01*
X200392785Y-77844640D01*
X200418451Y-77826676D01*
X200446023Y-77811392D01*
X200475501Y-77798787D01*
X200506885Y-77788861D01*
X200517770Y-77786147D01*
X200546965Y-77780026D01*
X200579594Y-77774942D01*
X200615658Y-77770895D01*
X200646982Y-77768405D01*
X200680504Y-77766579D01*
X200716225Y-77765417D01*
X200754144Y-77764919D01*
X200763967Y-77764898D01*
G37*
G36*
X202062088Y-77814737D02*
G01*
X202091168Y-77822522D01*
X202118441Y-77833689D01*
X202124644Y-77836706D01*
X202137100Y-77875540D01*
X202131055Y-77905033D01*
X202129111Y-77936818D01*
X202129040Y-77945150D01*
X202131902Y-77975933D01*
X202137312Y-78005230D01*
X202144181Y-78035420D01*
X202151480Y-78064161D01*
X202158349Y-78089497D01*
X202167397Y-78121647D01*
X202175766Y-78152151D01*
X202183454Y-78181009D01*
X202191783Y-78213467D01*
X202199134Y-78243555D01*
X202204511Y-78266817D01*
X202211078Y-78299145D01*
X202215423Y-78328305D01*
X202218582Y-78358805D01*
X202220557Y-78390644D01*
X202221347Y-78423823D01*
X202221364Y-78429483D01*
X202220391Y-78463028D01*
X202217471Y-78496253D01*
X202212605Y-78529157D01*
X202205793Y-78561741D01*
X202197035Y-78594004D01*
X202186330Y-78625946D01*
X202173679Y-78657568D01*
X202159082Y-78688869D01*
X202142824Y-78719678D01*
X202124827Y-78750189D01*
X202105089Y-78780403D01*
X202083611Y-78810319D01*
X202060392Y-78839937D01*
X202035434Y-78869258D01*
X202015573Y-78891053D01*
X201994733Y-78912680D01*
X201980296Y-78927006D01*
X201957715Y-78948346D01*
X201933937Y-78969776D01*
X201908960Y-78991296D01*
X201882786Y-79012907D01*
X201855414Y-79034607D01*
X201826844Y-79056398D01*
X201797076Y-79078279D01*
X201766110Y-79100250D01*
X201733947Y-79122312D01*
X201700586Y-79144463D01*
X201677679Y-79159281D01*
X201708584Y-79164134D01*
X201740297Y-79168222D01*
X201771377Y-79170959D01*
X201794916Y-79171737D01*
X201826978Y-79170269D01*
X201859968Y-79165864D01*
X201893886Y-79158522D01*
X201922858Y-79150161D01*
X201952475Y-79139760D01*
X201976632Y-79129972D01*
X202007405Y-79115993D01*
X202038356Y-79100620D01*
X202069486Y-79083850D01*
X202100796Y-79065686D01*
X202125972Y-79050150D01*
X202151262Y-79033721D01*
X202176667Y-79016399D01*
X202202828Y-78997966D01*
X202230019Y-78978205D01*
X202258241Y-78957116D01*
X202287493Y-78934699D01*
X202317775Y-78910954D01*
X202341163Y-78892274D01*
X202365130Y-78872847D01*
X202389677Y-78852672D01*
X202414804Y-78831751D01*
X202414804Y-78970969D01*
X202382135Y-79002995D01*
X202349889Y-79034041D01*
X202318067Y-79064109D01*
X202286668Y-79093198D01*
X202255693Y-79121308D01*
X202225142Y-79148439D01*
X202195014Y-79174591D01*
X202165310Y-79199764D01*
X202136030Y-79223958D01*
X202107173Y-79247174D01*
X202078739Y-79269410D01*
X202050730Y-79290668D01*
X202023144Y-79310947D01*
X201995981Y-79330247D01*
X201969242Y-79348568D01*
X201942927Y-79365910D01*
X201917141Y-79382148D01*
X201891808Y-79397337D01*
X201854655Y-79418158D01*
X201818520Y-79436621D01*
X201783403Y-79452728D01*
X201749303Y-79466477D01*
X201716221Y-79477870D01*
X201684156Y-79486905D01*
X201653109Y-79493583D01*
X201623079Y-79497904D01*
X201584623Y-79500000D01*
X201548604Y-79498518D01*
X201513087Y-79494075D01*
X201478073Y-79486669D01*
X201443561Y-79476300D01*
X201409551Y-79462970D01*
X201376044Y-79446676D01*
X201343039Y-79427421D01*
X201310536Y-79405203D01*
X201278536Y-79380022D01*
X201247038Y-79351880D01*
X201226318Y-79331472D01*
X201203112Y-79306880D01*
X201182217Y-79282562D01*
X201163636Y-79258520D01*
X201143661Y-79228853D01*
X201127300Y-79199615D01*
X201114552Y-79170807D01*
X201105418Y-79142428D01*
X201098663Y-79112496D01*
X201093053Y-79079488D01*
X201088588Y-79043402D01*
X201085841Y-79012319D01*
X201083826Y-78979266D01*
X201082543Y-78944244D01*
X201081994Y-78907252D01*
X201081971Y-78897697D01*
X201081971Y-78847871D01*
X201096586Y-78832484D01*
X201267351Y-78832484D01*
X201297073Y-78839376D01*
X201330747Y-78848829D01*
X201360557Y-78859211D01*
X201391228Y-78872898D01*
X201419979Y-78890560D01*
X201435879Y-78904291D01*
X201457542Y-78928164D01*
X201478957Y-78954988D01*
X201498810Y-78981829D01*
X201516007Y-79006238D01*
X201534371Y-79033257D01*
X201553902Y-79062887D01*
X201564106Y-79078681D01*
X201598075Y-79063728D01*
X201630006Y-79047448D01*
X201659899Y-79029840D01*
X201687754Y-79010903D01*
X201713571Y-78990639D01*
X201737351Y-78969046D01*
X201759092Y-78946125D01*
X201778796Y-78921877D01*
X201796484Y-78895830D01*
X201811814Y-78867517D01*
X201824786Y-78836937D01*
X201835399Y-78804091D01*
X201843654Y-78768977D01*
X201849550Y-78731596D01*
X201852424Y-78702073D01*
X201853972Y-78671275D01*
X201854267Y-78650034D01*
X201853820Y-78620661D01*
X201853534Y-78613398D01*
X201851002Y-78583454D01*
X201850603Y-78580425D01*
X201813234Y-78280739D01*
X201786772Y-78309992D01*
X201766290Y-78332077D01*
X201743535Y-78356228D01*
X201718508Y-78382446D01*
X201691208Y-78410731D01*
X201661636Y-78441082D01*
X201629791Y-78473499D01*
X201595673Y-78507983D01*
X201559283Y-78544534D01*
X201520620Y-78583151D01*
X201479684Y-78623834D01*
X201458364Y-78644951D01*
X201436476Y-78666584D01*
X201414020Y-78688734D01*
X201390996Y-78711401D01*
X201367403Y-78734584D01*
X201343242Y-78758284D01*
X201318513Y-78782501D01*
X201293216Y-78807234D01*
X201267351Y-78832484D01*
X201096586Y-78832484D01*
X201114849Y-78813256D01*
X201147081Y-78779295D01*
X201178665Y-78745988D01*
X201209603Y-78713335D01*
X201239894Y-78681336D01*
X201269538Y-78649991D01*
X201298535Y-78619301D01*
X201326885Y-78589264D01*
X201354589Y-78559881D01*
X201381645Y-78531152D01*
X201408055Y-78503077D01*
X201433818Y-78475656D01*
X201458934Y-78448890D01*
X201483403Y-78422777D01*
X201507225Y-78397318D01*
X201530401Y-78372513D01*
X201552929Y-78348363D01*
X201574811Y-78324866D01*
X201596046Y-78302023D01*
X201616634Y-78279835D01*
X201636575Y-78258300D01*
X201674516Y-78217193D01*
X201709871Y-78178702D01*
X201742637Y-78142827D01*
X201772817Y-78109568D01*
X201800408Y-78078925D01*
X201813234Y-78064584D01*
X201819411Y-78033973D01*
X201826583Y-78005336D01*
X201839210Y-77966085D01*
X201854078Y-77931276D01*
X201871187Y-77900912D01*
X201890537Y-77874991D01*
X201912128Y-77853513D01*
X201944402Y-77831789D01*
X201980661Y-77817965D01*
X202010470Y-77812780D01*
X202031587Y-77811793D01*
X202062088Y-77814737D01*
G37*
G36*
X203436643Y-78000917D02*
G01*
X203468662Y-78005554D01*
X203497848Y-78013282D01*
X203528318Y-78026205D01*
X203554930Y-78043335D01*
X203577199Y-78064352D01*
X203593999Y-78089577D01*
X203605329Y-78119009D01*
X203611190Y-78152649D01*
X203612083Y-78173761D01*
X203610571Y-78205623D01*
X203606038Y-78237462D01*
X203598481Y-78269279D01*
X203587903Y-78301072D01*
X203574301Y-78332843D01*
X203557677Y-78364591D01*
X203538031Y-78396316D01*
X203515362Y-78428018D01*
X203496326Y-78451766D01*
X203475486Y-78475476D01*
X203452843Y-78499147D01*
X203428397Y-78522780D01*
X203402147Y-78546374D01*
X203374095Y-78569929D01*
X203344239Y-78593446D01*
X203312580Y-78616924D01*
X203279118Y-78640364D01*
X203243852Y-78663764D01*
X203219340Y-78679344D01*
X203194158Y-78694880D01*
X203168255Y-78710347D01*
X203141631Y-78725746D01*
X203114285Y-78741076D01*
X203086218Y-78756337D01*
X203057430Y-78771530D01*
X203027920Y-78786654D01*
X202997690Y-78801709D01*
X202966738Y-78816696D01*
X202935064Y-78831614D01*
X202902670Y-78846463D01*
X202869554Y-78861243D01*
X202835717Y-78875955D01*
X202801158Y-78890598D01*
X202765878Y-78905173D01*
X202729877Y-78919678D01*
X202729877Y-78969504D01*
X202731326Y-79004888D01*
X202735673Y-79037768D01*
X202742918Y-79068143D01*
X202753061Y-79096014D01*
X202769058Y-79126153D01*
X202789228Y-79152686D01*
X202813048Y-79175097D01*
X202839443Y-79192872D01*
X202868415Y-79206009D01*
X202899962Y-79214510D01*
X202934085Y-79218374D01*
X202946032Y-79218632D01*
X202977810Y-79217487D01*
X203009946Y-79214052D01*
X203042439Y-79208328D01*
X203075290Y-79200314D01*
X203108499Y-79190010D01*
X203142066Y-79177416D01*
X203155593Y-79171737D01*
X203182681Y-79159349D01*
X203209723Y-79146000D01*
X203236719Y-79131689D01*
X203263670Y-79116416D01*
X203290575Y-79100182D01*
X203317434Y-79082985D01*
X203344247Y-79064827D01*
X203371015Y-79045708D01*
X203398504Y-79025272D01*
X203427481Y-79003164D01*
X203457946Y-78979384D01*
X203481772Y-78960453D01*
X203506435Y-78940581D01*
X203531935Y-78919769D01*
X203558273Y-78898017D01*
X203585447Y-78875325D01*
X203613459Y-78851692D01*
X203632599Y-78835415D01*
X203632599Y-78969504D01*
X203603587Y-79003894D01*
X203574805Y-79037270D01*
X203546251Y-79069633D01*
X203517927Y-79100983D01*
X203489831Y-79131320D01*
X203461965Y-79160643D01*
X203434327Y-79188953D01*
X203406919Y-79216250D01*
X203379739Y-79242534D01*
X203352788Y-79267805D01*
X203326067Y-79292062D01*
X203299574Y-79315306D01*
X203273310Y-79337537D01*
X203247275Y-79358755D01*
X203221470Y-79378959D01*
X203195893Y-79398150D01*
X203170405Y-79416162D01*
X203144865Y-79433012D01*
X203119274Y-79448700D01*
X203093631Y-79463226D01*
X203055071Y-79482835D01*
X203016394Y-79499831D01*
X202977602Y-79514211D01*
X202938694Y-79525977D01*
X202899669Y-79535128D01*
X202860529Y-79541665D01*
X202821273Y-79545587D01*
X202781901Y-79546894D01*
X202748093Y-79545664D01*
X202715638Y-79541974D01*
X202684535Y-79535824D01*
X202654784Y-79527213D01*
X202626386Y-79516143D01*
X202599340Y-79502613D01*
X202573647Y-79486622D01*
X202549306Y-79468172D01*
X202526317Y-79447261D01*
X202504681Y-79423890D01*
X202491008Y-79406943D01*
X202471890Y-79379650D01*
X202454652Y-79350529D01*
X202439295Y-79319578D01*
X202425818Y-79286798D01*
X202414222Y-79252190D01*
X202404506Y-79215752D01*
X202396671Y-79177486D01*
X202390716Y-79137390D01*
X202386641Y-79095466D01*
X202384447Y-79051713D01*
X202384030Y-79021528D01*
X202384918Y-78981765D01*
X202387584Y-78942711D01*
X202392028Y-78904365D01*
X202398249Y-78866727D01*
X202406247Y-78829798D01*
X202416023Y-78793578D01*
X202417192Y-78789986D01*
X202750394Y-78789986D01*
X202784682Y-78776638D01*
X202818031Y-78762697D01*
X202850439Y-78748164D01*
X202881907Y-78733039D01*
X202912435Y-78717321D01*
X202942022Y-78701011D01*
X202970670Y-78684108D01*
X202998377Y-78666612D01*
X203025143Y-78648525D01*
X203050970Y-78629844D01*
X203067665Y-78617062D01*
X203091789Y-78597636D01*
X203114703Y-78578379D01*
X203143371Y-78552962D01*
X203169887Y-78527843D01*
X203194250Y-78503022D01*
X203216461Y-78478499D01*
X203236519Y-78454273D01*
X203254425Y-78430345D01*
X203262571Y-78418492D01*
X203280725Y-78389995D01*
X203295801Y-78364038D01*
X203309832Y-78336243D01*
X203320601Y-78308439D01*
X203325586Y-78280006D01*
X203318451Y-78250118D01*
X203292487Y-78234566D01*
X203282355Y-78233845D01*
X203251209Y-78239299D01*
X203221705Y-78250118D01*
X203191156Y-78264319D01*
X203161454Y-78280006D01*
X203135297Y-78294901D01*
X203109033Y-78311190D01*
X203082661Y-78328875D01*
X203056182Y-78347956D01*
X203029596Y-78368431D01*
X203002902Y-78390302D01*
X202992194Y-78399441D01*
X202966044Y-78422983D01*
X202940717Y-78447813D01*
X202916213Y-78473931D01*
X202892532Y-78501336D01*
X202874179Y-78524188D01*
X202856353Y-78547865D01*
X202839054Y-78572365D01*
X202822762Y-78597564D01*
X202807959Y-78623336D01*
X202794644Y-78649679D01*
X202782817Y-78676596D01*
X202772479Y-78704085D01*
X202763629Y-78732146D01*
X202756267Y-78760779D01*
X202750394Y-78789986D01*
X202417192Y-78789986D01*
X202427577Y-78758065D01*
X202440908Y-78723261D01*
X202456016Y-78689166D01*
X202472901Y-78655779D01*
X202485146Y-78633914D01*
X202505226Y-78601049D01*
X202527547Y-78567849D01*
X202552109Y-78534313D01*
X202578912Y-78500443D01*
X202598026Y-78477677D01*
X202618136Y-78454762D01*
X202639242Y-78431698D01*
X202661344Y-78408486D01*
X202684442Y-78385124D01*
X202708537Y-78361614D01*
X202733627Y-78337955D01*
X202759713Y-78314147D01*
X202786796Y-78290190D01*
X202814874Y-78266085D01*
X202844124Y-78241797D01*
X202873349Y-78218669D01*
X202902548Y-78196700D01*
X202931721Y-78175890D01*
X202960869Y-78156240D01*
X202989990Y-78137748D01*
X203019086Y-78120416D01*
X203048156Y-78104243D01*
X203077201Y-78089229D01*
X203106219Y-78075375D01*
X203125551Y-78066782D01*
X203154250Y-78054735D01*
X203182369Y-78043873D01*
X203218959Y-78031234D01*
X203254520Y-78020701D01*
X203289049Y-78012274D01*
X203322549Y-78005955D01*
X203355018Y-78001741D01*
X203386457Y-77999635D01*
X203401789Y-77999371D01*
X203436643Y-78000917D01*
G37*
G36*
X204575621Y-78940195D02*
G01*
X204208524Y-79259665D01*
X204176501Y-79288768D01*
X204145829Y-79315993D01*
X204116509Y-79341341D01*
X204088539Y-79364811D01*
X204061921Y-79386404D01*
X204036653Y-79406119D01*
X204012736Y-79423956D01*
X203979394Y-79447192D01*
X203949092Y-79466202D01*
X203921829Y-79480989D01*
X203890207Y-79494132D01*
X203858279Y-79500000D01*
X203827771Y-79493379D01*
X203801914Y-79477748D01*
X203775664Y-79452922D01*
X203754381Y-79426440D01*
X203732845Y-79394074D01*
X203716529Y-79365938D01*
X203700070Y-79334492D01*
X203689019Y-79311688D01*
X203673175Y-79276792D01*
X203658888Y-79242720D01*
X203646161Y-79209473D01*
X203634992Y-79177049D01*
X203625381Y-79145450D01*
X203617329Y-79114676D01*
X203610835Y-79084726D01*
X203605900Y-79055600D01*
X203601744Y-79018047D01*
X203600359Y-78981960D01*
X203601235Y-78945532D01*
X203603865Y-78910891D01*
X203608248Y-78878040D01*
X203614384Y-78846978D01*
X203622273Y-78817705D01*
X203634054Y-78784938D01*
X203636263Y-78779727D01*
X203648982Y-78752425D01*
X203664241Y-78722726D01*
X203682040Y-78690630D01*
X203698109Y-78663227D01*
X203715803Y-78634290D01*
X203735123Y-78603819D01*
X203756069Y-78571813D01*
X203761559Y-78563572D01*
X203784962Y-78530533D01*
X203808185Y-78498460D01*
X203831227Y-78467352D01*
X203854089Y-78437211D01*
X203876771Y-78408036D01*
X203899272Y-78379826D01*
X203921593Y-78352583D01*
X203943734Y-78326306D01*
X203965694Y-78300994D01*
X203987474Y-78276649D01*
X204001894Y-78260956D01*
X204023363Y-78238096D01*
X204044355Y-78216228D01*
X204071604Y-78188613D01*
X204098005Y-78162761D01*
X204123559Y-78138673D01*
X204148265Y-78116348D01*
X204172125Y-78095785D01*
X204195137Y-78076986D01*
X204206325Y-78068248D01*
X204232726Y-78048406D01*
X204260959Y-78029034D01*
X204289144Y-78012555D01*
X204317860Y-78001053D01*
X204330157Y-77999371D01*
X204361191Y-78004008D01*
X204388290Y-78015915D01*
X204414932Y-78035149D01*
X204437868Y-78057990D01*
X204458424Y-78083525D01*
X204473932Y-78109481D01*
X204485472Y-78139660D01*
X204490418Y-78170389D01*
X204490624Y-78178157D01*
X204485114Y-78207609D01*
X204472772Y-78237972D01*
X204458888Y-78264711D01*
X204441036Y-78294850D01*
X204434204Y-78305652D01*
X204414945Y-78334063D01*
X204397193Y-78358466D01*
X204377358Y-78384358D01*
X204355439Y-78411738D01*
X204331437Y-78440606D01*
X204312067Y-78463234D01*
X204291526Y-78486700D01*
X204269812Y-78511002D01*
X204254685Y-78527669D01*
X204230898Y-78553274D01*
X204205424Y-78579807D01*
X204178262Y-78607267D01*
X204149413Y-78635655D01*
X204118877Y-78664969D01*
X204086653Y-78695212D01*
X204064233Y-78715888D01*
X204041064Y-78736977D01*
X204017144Y-78758478D01*
X203992475Y-78780391D01*
X203967055Y-78802717D01*
X203940886Y-78825454D01*
X203913967Y-78848604D01*
X203874399Y-78963642D01*
X203863380Y-78990951D01*
X203858295Y-79019963D01*
X203858279Y-79021528D01*
X203863718Y-79051281D01*
X203884600Y-79072438D01*
X203913967Y-79077948D01*
X203946725Y-79070935D01*
X203979225Y-79057340D01*
X204010687Y-79041311D01*
X204037469Y-79026285D01*
X204066981Y-79008682D01*
X204099224Y-78988503D01*
X204134197Y-78965749D01*
X204159030Y-78949148D01*
X204185076Y-78931402D01*
X204211870Y-78912689D01*
X204238943Y-78893186D01*
X204266298Y-78872893D01*
X204293932Y-78851810D01*
X204321847Y-78829936D01*
X204350043Y-78807273D01*
X204378519Y-78783820D01*
X204407276Y-78759577D01*
X204436313Y-78734544D01*
X204465631Y-78708721D01*
X204495229Y-78682108D01*
X204525108Y-78654706D01*
X204555267Y-78626513D01*
X204585707Y-78597530D01*
X204616427Y-78567757D01*
X204647428Y-78537194D01*
X204671093Y-78513197D01*
X204693727Y-78489933D01*
X204715331Y-78467402D01*
X204735905Y-78445603D01*
X204760173Y-78419385D01*
X204782831Y-78394312D01*
X204803879Y-78370384D01*
X204807896Y-78365736D01*
X204827724Y-78342630D01*
X204846908Y-78320026D01*
X204869078Y-78293562D01*
X204890322Y-78267819D01*
X204910638Y-78242798D01*
X204923667Y-78226517D01*
X204942283Y-78203196D01*
X204962438Y-78178853D01*
X204983413Y-78154810D01*
X205004381Y-78132579D01*
X205008663Y-78128332D01*
X205031474Y-78109299D01*
X205058001Y-78095595D01*
X205070212Y-78093161D01*
X205100051Y-78094620D01*
X205127749Y-78109119D01*
X205148272Y-78134020D01*
X205150080Y-78137124D01*
X205162903Y-78165060D01*
X205171117Y-78194462D01*
X205176527Y-78228492D01*
X205178931Y-78261345D01*
X205179389Y-78285136D01*
X205176275Y-78315452D01*
X205168441Y-78344834D01*
X205155839Y-78376881D01*
X205141241Y-78406471D01*
X205129563Y-78427285D01*
X205112093Y-78456533D01*
X205095051Y-78484131D01*
X205075285Y-78515461D01*
X205058672Y-78541407D01*
X205040526Y-78569454D01*
X205020848Y-78599599D01*
X204999636Y-78631844D01*
X204976892Y-78666189D01*
X204952616Y-78702633D01*
X204944183Y-78715247D01*
X204927153Y-78740767D01*
X204910134Y-78766401D01*
X204893127Y-78792149D01*
X204876131Y-78818012D01*
X204859146Y-78843990D01*
X204842173Y-78870082D01*
X204825212Y-78896288D01*
X204808262Y-78922609D01*
X204791323Y-78949045D01*
X204774396Y-78975595D01*
X204757480Y-79002259D01*
X204740576Y-79029038D01*
X204723683Y-79055932D01*
X204706802Y-79082940D01*
X204689932Y-79110062D01*
X204673073Y-79137299D01*
X204656201Y-79164811D01*
X204639288Y-79192757D01*
X204622335Y-79221139D01*
X204605342Y-79249956D01*
X204588309Y-79279208D01*
X204571236Y-79308895D01*
X204554122Y-79339017D01*
X204536969Y-79369574D01*
X204519776Y-79400566D01*
X204502542Y-79431993D01*
X204485269Y-79463855D01*
X204467955Y-79496153D01*
X204450602Y-79528885D01*
X204433208Y-79562052D01*
X204415774Y-79595655D01*
X204398300Y-79629692D01*
X204418771Y-79608672D01*
X204441062Y-79586107D01*
X204465777Y-79561162D01*
X204489568Y-79537188D01*
X204516931Y-79509642D01*
X204524330Y-79502198D01*
X204547114Y-79479570D01*
X204570131Y-79456748D01*
X204593379Y-79433734D01*
X204616859Y-79410526D01*
X204640572Y-79387126D01*
X204664515Y-79363532D01*
X204688691Y-79339744D01*
X204713099Y-79315764D01*
X204737738Y-79291590D01*
X204762609Y-79267224D01*
X204779319Y-79250872D01*
X204804042Y-79226737D01*
X204827928Y-79203516D01*
X204850977Y-79181210D01*
X204873189Y-79159819D01*
X204894563Y-79139342D01*
X204921760Y-79113462D01*
X204947468Y-79089207D01*
X204971688Y-79066578D01*
X204994420Y-79045575D01*
X204999870Y-79040579D01*
X205022161Y-79020211D01*
X205045803Y-78999042D01*
X205070796Y-78977072D01*
X205097140Y-78954300D01*
X205124835Y-78930727D01*
X205153881Y-78906352D01*
X205176552Y-78887545D01*
X205199983Y-78868287D01*
X205216025Y-78855198D01*
X205216025Y-78992951D01*
X205181516Y-79030106D01*
X205147412Y-79067014D01*
X205113715Y-79103676D01*
X205080425Y-79140092D01*
X205047541Y-79176262D01*
X205015063Y-79212186D01*
X204982992Y-79247864D01*
X204951327Y-79283295D01*
X204920069Y-79318480D01*
X204889217Y-79353419D01*
X204858771Y-79388112D01*
X204828732Y-79422559D01*
X204799100Y-79456760D01*
X204769874Y-79490714D01*
X204741054Y-79524423D01*
X204712641Y-79557885D01*
X204684831Y-79590898D01*
X204657824Y-79623075D01*
X204631617Y-79654416D01*
X204606212Y-79684922D01*
X204581608Y-79714592D01*
X204557806Y-79743426D01*
X204534805Y-79771424D01*
X204512606Y-79798586D01*
X204491208Y-79824913D01*
X204470611Y-79850404D01*
X204450816Y-79875059D01*
X204431823Y-79898879D01*
X204413630Y-79921862D01*
X204387845Y-79954771D01*
X204363862Y-79985799D01*
X204341814Y-80014708D01*
X204321556Y-80041260D01*
X204303088Y-80065455D01*
X204281249Y-80094048D01*
X204262593Y-80118452D01*
X204243749Y-80143063D01*
X204225722Y-80166520D01*
X204220980Y-80172644D01*
X204200484Y-80199237D01*
X204180760Y-80225160D01*
X204161809Y-80250414D01*
X204143631Y-80274997D01*
X204126226Y-80298911D01*
X204120596Y-80306734D01*
X204102028Y-80332900D01*
X204082439Y-80359370D01*
X204062482Y-80384769D01*
X204046591Y-80403454D01*
X204025708Y-80424440D01*
X203999387Y-80437858D01*
X203998230Y-80437892D01*
X203969548Y-80427762D01*
X203947626Y-80404404D01*
X203931538Y-80376860D01*
X203920561Y-80352163D01*
X203909107Y-80320985D01*
X203900022Y-80291197D01*
X203892418Y-80258204D01*
X203888041Y-80227104D01*
X203886856Y-80201953D01*
X203888653Y-80169373D01*
X203894043Y-80139228D01*
X203904247Y-80108588D01*
X203909570Y-80097173D01*
X203929603Y-80053584D01*
X203952515Y-80006166D01*
X203978307Y-79954918D01*
X203992282Y-79927858D01*
X204006977Y-79899840D01*
X204022393Y-79870865D01*
X204038528Y-79840933D01*
X204055383Y-79810043D01*
X204072957Y-79778196D01*
X204091252Y-79745391D01*
X204110266Y-79711629D01*
X204130001Y-79676910D01*
X204150455Y-79641233D01*
X204171629Y-79604599D01*
X204193523Y-79567007D01*
X204216136Y-79528458D01*
X204239470Y-79488951D01*
X204263523Y-79448487D01*
X204288297Y-79407066D01*
X204313790Y-79364687D01*
X204340003Y-79321351D01*
X204366935Y-79277058D01*
X204394588Y-79231807D01*
X204422960Y-79185598D01*
X204452053Y-79138432D01*
X204481865Y-79090309D01*
X204512397Y-79041228D01*
X204543649Y-78991190D01*
X204575621Y-78940195D01*
G37*
G36*
X207834064Y-77172121D02*
G01*
X207823599Y-77202013D01*
X207809460Y-77228357D01*
X207792204Y-77257344D01*
X207786437Y-77266643D01*
X207770655Y-77291963D01*
X207752620Y-77320753D01*
X207736569Y-77346284D01*
X207719075Y-77374036D01*
X207700138Y-77404009D01*
X207679759Y-77436204D01*
X207663528Y-77461807D01*
X207646486Y-77488660D01*
X207628827Y-77516845D01*
X207610473Y-77546448D01*
X207591424Y-77577467D01*
X207571679Y-77609903D01*
X207551238Y-77643756D01*
X207530102Y-77679026D01*
X207508271Y-77715712D01*
X207493330Y-77740957D01*
X207478080Y-77766832D01*
X207462521Y-77793336D01*
X207446653Y-77820470D01*
X207430476Y-77848233D01*
X207422271Y-77862351D01*
X207405750Y-77890933D01*
X207389161Y-77919893D01*
X207372503Y-77949231D01*
X207355776Y-77978947D01*
X207338980Y-78009040D01*
X207322116Y-78039511D01*
X207305183Y-78070360D01*
X207288182Y-78101587D01*
X207271111Y-78133192D01*
X207253972Y-78165174D01*
X207236765Y-78197534D01*
X207219488Y-78230273D01*
X207202143Y-78263388D01*
X207184730Y-78296882D01*
X207167247Y-78330754D01*
X207149696Y-78365003D01*
X207129987Y-78404221D01*
X207110976Y-78442375D01*
X207092663Y-78479463D01*
X207075049Y-78515487D01*
X207058133Y-78550446D01*
X207041916Y-78584341D01*
X207026397Y-78617170D01*
X207011577Y-78648935D01*
X206997454Y-78679635D01*
X206984031Y-78709271D01*
X206971305Y-78737842D01*
X206959278Y-78765348D01*
X206942547Y-78804610D01*
X206927387Y-78841477D01*
X206918154Y-78864724D01*
X206905452Y-78898220D01*
X206893999Y-78930841D01*
X206883796Y-78962586D01*
X206874843Y-78993455D01*
X206867138Y-79023448D01*
X206860683Y-79052566D01*
X206854020Y-79090026D01*
X206849578Y-79125930D01*
X206847357Y-79160277D01*
X206847079Y-79176866D01*
X206849744Y-79208562D01*
X206857741Y-79239077D01*
X206871068Y-79268411D01*
X206889726Y-79296564D01*
X206913715Y-79323537D01*
X206936745Y-79344265D01*
X206956256Y-79359316D01*
X206980947Y-79339465D01*
X207005560Y-79318933D01*
X207030097Y-79297717D01*
X207054556Y-79275819D01*
X207078938Y-79253238D01*
X207103242Y-79229975D01*
X207127469Y-79206029D01*
X207151619Y-79181400D01*
X207175692Y-79156089D01*
X207199687Y-79130095D01*
X207215642Y-79112386D01*
X207239652Y-79085175D01*
X207263598Y-79057397D01*
X207287480Y-79029053D01*
X207311297Y-79000141D01*
X207335050Y-78970663D01*
X207358738Y-78940619D01*
X207382362Y-78910007D01*
X207405922Y-78878829D01*
X207429417Y-78847084D01*
X207452848Y-78814772D01*
X207468433Y-78792916D01*
X207492136Y-78758988D01*
X207516535Y-78723425D01*
X207533188Y-78698807D01*
X207550149Y-78673462D01*
X207567420Y-78647390D01*
X207585000Y-78620591D01*
X207602889Y-78593065D01*
X207621087Y-78564812D01*
X207639594Y-78535832D01*
X207658410Y-78506125D01*
X207677535Y-78475691D01*
X207696970Y-78444530D01*
X207716713Y-78412642D01*
X207736766Y-78380027D01*
X207757128Y-78346685D01*
X207777501Y-78313059D01*
X207797588Y-78279778D01*
X207817389Y-78246839D01*
X207836904Y-78214244D01*
X207856132Y-78181993D01*
X207875074Y-78150085D01*
X207893730Y-78118520D01*
X207912100Y-78087299D01*
X207930183Y-78056421D01*
X207947981Y-78025887D01*
X207965492Y-77995696D01*
X207982717Y-77965849D01*
X207999655Y-77936345D01*
X208016308Y-77907185D01*
X208032674Y-77878368D01*
X208048754Y-77849895D01*
X208038700Y-77821273D01*
X208035565Y-77813258D01*
X208028302Y-77784145D01*
X208028237Y-77781751D01*
X208029186Y-77751601D01*
X208032030Y-77722059D01*
X208036770Y-77693126D01*
X208044962Y-77659209D01*
X208055884Y-77626167D01*
X208067072Y-77599302D01*
X208079902Y-77572848D01*
X208093662Y-77546608D01*
X208108352Y-77520583D01*
X208123973Y-77494773D01*
X208140524Y-77469178D01*
X208158005Y-77443797D01*
X208165258Y-77433705D01*
X208185025Y-77406696D01*
X208202925Y-77382797D01*
X208222680Y-77356859D01*
X208244290Y-77328884D01*
X208267755Y-77298871D01*
X208286570Y-77275023D01*
X208306429Y-77250030D01*
X208327331Y-77223890D01*
X208341845Y-77205826D01*
X208362511Y-77184961D01*
X208388548Y-77170935D01*
X208418049Y-77166259D01*
X208450426Y-77172213D01*
X208475794Y-77193143D01*
X208488513Y-77224398D01*
X208491982Y-77255653D01*
X208492055Y-77261514D01*
X208490158Y-77293717D01*
X208485911Y-77323318D01*
X208479236Y-77356331D01*
X208470134Y-77392756D01*
X208461715Y-77422313D01*
X208451931Y-77453790D01*
X208440781Y-77487186D01*
X208428266Y-77522500D01*
X208414385Y-77559734D01*
X208399309Y-77598422D01*
X208382932Y-77638371D01*
X208371292Y-77665705D01*
X208359073Y-77693600D01*
X208346276Y-77722057D01*
X208332901Y-77751074D01*
X208318948Y-77780652D01*
X208304416Y-77810791D01*
X208289306Y-77841491D01*
X208273619Y-77872753D01*
X208257353Y-77904575D01*
X208240508Y-77936958D01*
X208223086Y-77969902D01*
X208205086Y-78003407D01*
X208186507Y-78037473D01*
X208167444Y-78072075D01*
X208147810Y-78107186D01*
X208127602Y-78142806D01*
X208106823Y-78178936D01*
X208085470Y-78215575D01*
X208063546Y-78252724D01*
X208041049Y-78290382D01*
X208017979Y-78328550D01*
X207994337Y-78367227D01*
X207970123Y-78406414D01*
X207945336Y-78446110D01*
X207919977Y-78486315D01*
X207894045Y-78527030D01*
X207867541Y-78568255D01*
X207840464Y-78609989D01*
X207812815Y-78652233D01*
X207784651Y-78694757D01*
X207756029Y-78737515D01*
X207726949Y-78780509D01*
X207697411Y-78823737D01*
X207667414Y-78867200D01*
X207636960Y-78910897D01*
X207606048Y-78954829D01*
X207574678Y-78998996D01*
X207542851Y-79043398D01*
X207510565Y-79088034D01*
X207477821Y-79132905D01*
X207444619Y-79178011D01*
X207410959Y-79223352D01*
X207376842Y-79268927D01*
X207342266Y-79314737D01*
X207307233Y-79360781D01*
X207272056Y-79406033D01*
X207238150Y-79448365D01*
X207205515Y-79487778D01*
X207174151Y-79524271D01*
X207144057Y-79557845D01*
X207115235Y-79588499D01*
X207087683Y-79616234D01*
X207061402Y-79641050D01*
X207036392Y-79662946D01*
X207012653Y-79681922D01*
X206979427Y-79704913D01*
X206949060Y-79721335D01*
X206913019Y-79733013D01*
X206896905Y-79734473D01*
X206865253Y-79730756D01*
X206836729Y-79721654D01*
X206806916Y-79707091D01*
X206781088Y-79690784D01*
X206754365Y-79670684D01*
X206737903Y-79656803D01*
X206716127Y-79636688D01*
X206695129Y-79614809D01*
X206674911Y-79591167D01*
X206655471Y-79565762D01*
X206636809Y-79538594D01*
X206618926Y-79509662D01*
X206601821Y-79478968D01*
X206585495Y-79446510D01*
X206570554Y-79412702D01*
X206557605Y-79378321D01*
X206546649Y-79343367D01*
X206537684Y-79307841D01*
X206530712Y-79271743D01*
X206525732Y-79235072D01*
X206522744Y-79197829D01*
X206521748Y-79160013D01*
X206522678Y-79130386D01*
X206525468Y-79098290D01*
X206530120Y-79063725D01*
X206535180Y-79034295D01*
X206541431Y-79003286D01*
X206548873Y-78970697D01*
X206557505Y-78936528D01*
X206559849Y-78927739D01*
X206570050Y-78891320D01*
X206578588Y-78862848D01*
X206587885Y-78833385D01*
X206597942Y-78802931D01*
X206608759Y-78771484D01*
X206620336Y-78739046D01*
X206632673Y-78705616D01*
X206645770Y-78671194D01*
X206659626Y-78635781D01*
X206674243Y-78599375D01*
X206679284Y-78587020D01*
X206694727Y-78549702D01*
X206710557Y-78512488D01*
X206726773Y-78475376D01*
X206743375Y-78438367D01*
X206760364Y-78401462D01*
X206777739Y-78364660D01*
X206795500Y-78327960D01*
X206813648Y-78291364D01*
X206832183Y-78254870D01*
X206851103Y-78218480D01*
X206863932Y-78194277D01*
X206883765Y-78156296D01*
X206903147Y-78119565D01*
X206922079Y-78084082D01*
X206940559Y-78049850D01*
X206958589Y-78016866D01*
X206976168Y-77985132D01*
X206993296Y-77954647D01*
X207009974Y-77925412D01*
X207026200Y-77897426D01*
X207041976Y-77870689D01*
X207052243Y-77853558D01*
X207067680Y-77828015D01*
X207083490Y-77801944D01*
X207099674Y-77775345D01*
X207116231Y-77748217D01*
X207133162Y-77720562D01*
X207150466Y-77692378D01*
X207168144Y-77663667D01*
X207186195Y-77634427D01*
X207204620Y-77604659D01*
X207223418Y-77574363D01*
X207236158Y-77553872D01*
X207254621Y-77524156D01*
X207271269Y-77497106D01*
X207290640Y-77465187D01*
X207306783Y-77438007D01*
X207322422Y-77410698D01*
X207336950Y-77382408D01*
X207339473Y-77374354D01*
X207325007Y-77348047D01*
X207298440Y-77342847D01*
X207267333Y-77344804D01*
X207233731Y-77350678D01*
X207197632Y-77360467D01*
X207168921Y-77370378D01*
X207138805Y-77382491D01*
X207107286Y-77396807D01*
X207074362Y-77413326D01*
X207040035Y-77432047D01*
X207004304Y-77452971D01*
X206979703Y-77468143D01*
X206954409Y-77484220D01*
X206928171Y-77501311D01*
X206900989Y-77519414D01*
X206872862Y-77538531D01*
X206843790Y-77558661D01*
X206813774Y-77579804D01*
X206782814Y-77601961D01*
X206750908Y-77625130D01*
X206718059Y-77649313D01*
X206684264Y-77674509D01*
X206649526Y-77700719D01*
X206613842Y-77727941D01*
X206577215Y-77756177D01*
X206539642Y-77785426D01*
X206501125Y-77815688D01*
X206461664Y-77846964D01*
X206432664Y-77870251D01*
X206406480Y-77891386D01*
X206383113Y-77910368D01*
X206357865Y-77931069D01*
X206333376Y-77951471D01*
X206310581Y-77971140D01*
X206308524Y-77972993D01*
X206287649Y-77994639D01*
X206276284Y-78020621D01*
X206294639Y-78043762D01*
X206315118Y-78046266D01*
X206344731Y-78041778D01*
X206375002Y-78035184D01*
X206404076Y-78028314D01*
X206426493Y-78022819D01*
X206455276Y-78016064D01*
X206487218Y-78009469D01*
X206516327Y-78004523D01*
X206546706Y-78000837D01*
X206576702Y-77999371D01*
X206608327Y-78000608D01*
X206640315Y-78006103D01*
X206666487Y-78022590D01*
X206669759Y-78034542D01*
X206659005Y-78062946D01*
X206634001Y-78081059D01*
X206631657Y-78082170D01*
X206601999Y-78094260D01*
X206572581Y-78104152D01*
X206542539Y-78112944D01*
X206526144Y-78117341D01*
X206494658Y-78125380D01*
X206463987Y-78133331D01*
X206429915Y-78142261D01*
X206398924Y-78150451D01*
X206365572Y-78159320D01*
X206344427Y-78164968D01*
X206313241Y-78173681D01*
X206281596Y-78183332D01*
X206249493Y-78193922D01*
X206216933Y-78205451D01*
X206183914Y-78217919D01*
X206150437Y-78231326D01*
X206116503Y-78245671D01*
X206082110Y-78260956D01*
X206049161Y-78275553D01*
X206019920Y-78288204D01*
X205988586Y-78301281D01*
X205958636Y-78312959D01*
X205929359Y-78322264D01*
X205922376Y-78323237D01*
X205892043Y-78316958D01*
X205874016Y-78294661D01*
X205867848Y-78264801D01*
X205865244Y-78233603D01*
X205864499Y-78203492D01*
X205864490Y-78199406D01*
X205864868Y-78163113D01*
X205866001Y-78127874D01*
X205867890Y-78093687D01*
X205870535Y-78060554D01*
X205873935Y-78028475D01*
X205878091Y-77997448D01*
X205883003Y-77967475D01*
X205888670Y-77938555D01*
X205898588Y-77897150D01*
X205910205Y-77858115D01*
X205923523Y-77821450D01*
X205938541Y-77787155D01*
X205955260Y-77755230D01*
X205961210Y-77745115D01*
X205980691Y-77714905D01*
X206002864Y-77684450D01*
X206027729Y-77653750D01*
X206055286Y-77622806D01*
X206085534Y-77591617D01*
X206107196Y-77570689D01*
X206130053Y-77549651D01*
X206154107Y-77528505D01*
X206179358Y-77507250D01*
X206205805Y-77485887D01*
X206233448Y-77464414D01*
X206262288Y-77442833D01*
X206292324Y-77421143D01*
X206307791Y-77410258D01*
X206343231Y-77385700D01*
X206378476Y-77361669D01*
X206413527Y-77338164D01*
X206448383Y-77315186D01*
X206483045Y-77292735D01*
X206517511Y-77270810D01*
X206551784Y-77249412D01*
X206585861Y-77228541D01*
X206619744Y-77208196D01*
X206653433Y-77188378D01*
X206686926Y-77169087D01*
X206720225Y-77150322D01*
X206753330Y-77132084D01*
X206786240Y-77114373D01*
X206818955Y-77097188D01*
X206851475Y-77080530D01*
X206883621Y-77064410D01*
X206915211Y-77048839D01*
X206946246Y-77033818D01*
X206976726Y-77019347D01*
X207006651Y-77005425D01*
X207036020Y-76992053D01*
X207064834Y-76979230D01*
X207093093Y-76966957D01*
X207120796Y-76955233D01*
X207147944Y-76944059D01*
X207187625Y-76928328D01*
X207226057Y-76913834D01*
X207263240Y-76900576D01*
X207299173Y-76888555D01*
X207333736Y-76877555D01*
X207366535Y-76867638D01*
X207397569Y-76858802D01*
X207426839Y-76851048D01*
X207463121Y-76842393D01*
X207496265Y-76835661D01*
X207526273Y-76830853D01*
X207559371Y-76827547D01*
X207576877Y-76827006D01*
X207609248Y-76830921D01*
X207641517Y-76842668D01*
X207668329Y-76858439D01*
X207695069Y-76879648D01*
X207716410Y-76900531D01*
X207737705Y-76924894D01*
X207748335Y-76938381D01*
X207768428Y-76966236D01*
X207785842Y-76994480D01*
X207800576Y-77023114D01*
X207812632Y-77052137D01*
X207822009Y-77081549D01*
X207828706Y-77111350D01*
X207832725Y-77141541D01*
X207834064Y-77172121D01*
G37*
G36*
X208549207Y-77530425D02*
G01*
X208549207Y-77361898D01*
X208572388Y-77341397D01*
X208595676Y-77321111D01*
X208619071Y-77301040D01*
X208642573Y-77281183D01*
X208666183Y-77261541D01*
X208689900Y-77242114D01*
X208699417Y-77234403D01*
X208723871Y-77214918D01*
X208749148Y-77194933D01*
X208775248Y-77174446D01*
X208802171Y-77153459D01*
X208829916Y-77131971D01*
X208858485Y-77109982D01*
X208870143Y-77101046D01*
X208893681Y-77083014D01*
X208917404Y-77065188D01*
X208941309Y-77047569D01*
X208965397Y-77030155D01*
X208989669Y-77012947D01*
X209014124Y-76995946D01*
X209038762Y-76979150D01*
X209063583Y-76962561D01*
X209088942Y-76946017D01*
X209115194Y-76929359D01*
X209142340Y-76912586D01*
X209170378Y-76895699D01*
X209199309Y-76878697D01*
X209229134Y-76861581D01*
X209259851Y-76844351D01*
X209291461Y-76827006D01*
X209311758Y-76857652D01*
X209330059Y-76888040D01*
X209346362Y-76918170D01*
X209360670Y-76948043D01*
X209372981Y-76977659D01*
X209383296Y-77007017D01*
X209391614Y-77036117D01*
X209397936Y-77064959D01*
X209403260Y-77103015D01*
X209405034Y-77140614D01*
X209403798Y-77172032D01*
X209400088Y-77204739D01*
X209393906Y-77238733D01*
X209386865Y-77268046D01*
X209378107Y-77298253D01*
X209369863Y-77323063D01*
X209358246Y-77355131D01*
X209345377Y-77388594D01*
X209334180Y-77416369D01*
X209322182Y-77445037D01*
X209309382Y-77474598D01*
X209295781Y-77505052D01*
X209281378Y-77536399D01*
X209273876Y-77552407D01*
X209258202Y-77585666D01*
X209241590Y-77620963D01*
X209228515Y-77648773D01*
X209214911Y-77677729D01*
X209200780Y-77707832D01*
X209186120Y-77739081D01*
X209170933Y-77771476D01*
X209155217Y-77805018D01*
X209138973Y-77839706D01*
X209122201Y-77875540D01*
X209107117Y-77908788D01*
X209092271Y-77941669D01*
X209077664Y-77974184D01*
X209063297Y-78006332D01*
X209049168Y-78038114D01*
X209035278Y-78069530D01*
X209021628Y-78100580D01*
X209008216Y-78131263D01*
X208995043Y-78161579D01*
X208982110Y-78191530D01*
X208969415Y-78221113D01*
X208956959Y-78250331D01*
X208944743Y-78279182D01*
X208932765Y-78307667D01*
X208921026Y-78335785D01*
X208909527Y-78363538D01*
X208898266Y-78390923D01*
X208876462Y-78444596D01*
X208855613Y-78496803D01*
X208835721Y-78547544D01*
X208816784Y-78596820D01*
X208798804Y-78644631D01*
X208781779Y-78690976D01*
X208765711Y-78735855D01*
X208758035Y-78757745D01*
X208743484Y-78800290D01*
X208729871Y-78841093D01*
X208717197Y-78880157D01*
X208705462Y-78917480D01*
X208694666Y-78953063D01*
X208684808Y-78986906D01*
X208675889Y-79019009D01*
X208667909Y-79049371D01*
X208660868Y-79077994D01*
X208652067Y-79117664D01*
X208645378Y-79153419D01*
X208640801Y-79185258D01*
X208637985Y-79221620D01*
X208637868Y-79229623D01*
X208642504Y-79259942D01*
X208648300Y-79289186D01*
X208652522Y-79309490D01*
X208658232Y-79338296D01*
X208663513Y-79370490D01*
X208666662Y-79399870D01*
X208667177Y-79414270D01*
X208663814Y-79445998D01*
X208647805Y-79472385D01*
X208632739Y-79478018D01*
X208603441Y-79476232D01*
X208572887Y-79467817D01*
X208544425Y-79456551D01*
X208536751Y-79453105D01*
X208507996Y-79438475D01*
X208481084Y-79423988D01*
X208448065Y-79404891D01*
X208418321Y-79386046D01*
X208391851Y-79367453D01*
X208368656Y-79349112D01*
X208344266Y-79326540D01*
X208324993Y-79304361D01*
X208306815Y-79276514D01*
X208292398Y-79245731D01*
X208283256Y-79217835D01*
X208276727Y-79187900D01*
X208272809Y-79155925D01*
X208271503Y-79121912D01*
X208272791Y-79082323D01*
X208276655Y-79038844D01*
X208280662Y-79007698D01*
X208285814Y-78974822D01*
X208292111Y-78940218D01*
X208299553Y-78903885D01*
X208308140Y-78865823D01*
X208317871Y-78826032D01*
X208328748Y-78784513D01*
X208340769Y-78741265D01*
X208353935Y-78696288D01*
X208368246Y-78649582D01*
X208383702Y-78601148D01*
X208400303Y-78550984D01*
X208418049Y-78499092D01*
X208432144Y-78459132D01*
X208446677Y-78419211D01*
X208461648Y-78379328D01*
X208477057Y-78339483D01*
X208492903Y-78299678D01*
X208509188Y-78259911D01*
X208525910Y-78220182D01*
X208543071Y-78180493D01*
X208560669Y-78140842D01*
X208578706Y-78101229D01*
X208590973Y-78074842D01*
X208609707Y-78035230D01*
X208622404Y-78008772D01*
X208635267Y-77982273D01*
X208648295Y-77955735D01*
X208661490Y-77929156D01*
X208674851Y-77902538D01*
X208688378Y-77875879D01*
X208702071Y-77849180D01*
X208715930Y-77822441D01*
X208729955Y-77795662D01*
X208744145Y-77768843D01*
X208758502Y-77741984D01*
X208773025Y-77715085D01*
X208787714Y-77688146D01*
X208802569Y-77661166D01*
X208810059Y-77647662D01*
X208825117Y-77620774D01*
X208840066Y-77594150D01*
X208854907Y-77567789D01*
X208869639Y-77541691D01*
X208884262Y-77515856D01*
X208898776Y-77490285D01*
X208920344Y-77452423D01*
X208941667Y-77415152D01*
X208962745Y-77378474D01*
X208983578Y-77342389D01*
X209004167Y-77306896D01*
X209024511Y-77271995D01*
X209037937Y-77249057D01*
X209008723Y-77262521D01*
X208979331Y-77276535D01*
X208949761Y-77291098D01*
X208920014Y-77306210D01*
X208890089Y-77321872D01*
X208859987Y-77338084D01*
X208829708Y-77354845D01*
X208799251Y-77372156D01*
X208768617Y-77390016D01*
X208737805Y-77408426D01*
X208706816Y-77427385D01*
X208675649Y-77446894D01*
X208644305Y-77466953D01*
X208612783Y-77487561D01*
X208581084Y-77508718D01*
X208549207Y-77530425D01*
G37*
%TO.C,MX2*%
X141589286Y-55327619D02*
X141589286Y-54327619D01*
X141589286Y-54327619D02*
X141922619Y-55041904D01*
X141922619Y-55041904D02*
X142255952Y-54327619D01*
X142255952Y-54327619D02*
X142255952Y-55327619D01*
X142636905Y-54327619D02*
X143303571Y-55327619D01*
X143303571Y-54327619D02*
X142636905Y-55327619D01*
X143636905Y-54422857D02*
X143684524Y-54375238D01*
X143684524Y-54375238D02*
X143779762Y-54327619D01*
X143779762Y-54327619D02*
X144017857Y-54327619D01*
X144017857Y-54327619D02*
X144113095Y-54375238D01*
X144113095Y-54375238D02*
X144160714Y-54422857D01*
X144160714Y-54422857D02*
X144208333Y-54518095D01*
X144208333Y-54518095D02*
X144208333Y-54613333D01*
X144208333Y-54613333D02*
X144160714Y-54756190D01*
X144160714Y-54756190D02*
X143589286Y-55327619D01*
X143589286Y-55327619D02*
X144208333Y-55327619D01*
%TO.C,MX3*%
X160639286Y-51517619D02*
X160639286Y-50517619D01*
X160639286Y-50517619D02*
X160972619Y-51231904D01*
X160972619Y-51231904D02*
X161305952Y-50517619D01*
X161305952Y-50517619D02*
X161305952Y-51517619D01*
X161686905Y-50517619D02*
X162353571Y-51517619D01*
X162353571Y-50517619D02*
X161686905Y-51517619D01*
X162639286Y-50517619D02*
X163258333Y-50517619D01*
X163258333Y-50517619D02*
X162925000Y-50898571D01*
X162925000Y-50898571D02*
X163067857Y-50898571D01*
X163067857Y-50898571D02*
X163163095Y-50946190D01*
X163163095Y-50946190D02*
X163210714Y-50993809D01*
X163210714Y-50993809D02*
X163258333Y-51089047D01*
X163258333Y-51089047D02*
X163258333Y-51327142D01*
X163258333Y-51327142D02*
X163210714Y-51422380D01*
X163210714Y-51422380D02*
X163163095Y-51470000D01*
X163163095Y-51470000D02*
X163067857Y-51517619D01*
X163067857Y-51517619D02*
X162782143Y-51517619D01*
X162782143Y-51517619D02*
X162686905Y-51470000D01*
X162686905Y-51470000D02*
X162639286Y-51422380D01*
%TO.C,MX1*%
X120634286Y-61042619D02*
X120634286Y-60042619D01*
X120634286Y-60042619D02*
X120967619Y-60756904D01*
X120967619Y-60756904D02*
X121300952Y-60042619D01*
X121300952Y-60042619D02*
X121300952Y-61042619D01*
X121681905Y-60042619D02*
X122348571Y-61042619D01*
X122348571Y-60042619D02*
X121681905Y-61042619D01*
X123253333Y-61042619D02*
X122681905Y-61042619D01*
X122967619Y-61042619D02*
X122967619Y-60042619D01*
X122967619Y-60042619D02*
X122872381Y-60185476D01*
X122872381Y-60185476D02*
X122777143Y-60280714D01*
X122777143Y-60280714D02*
X122681905Y-60328333D01*
%TO.C,MX4*%
X179689286Y-57232619D02*
X179689286Y-56232619D01*
X179689286Y-56232619D02*
X180022619Y-56946904D01*
X180022619Y-56946904D02*
X180355952Y-56232619D01*
X180355952Y-56232619D02*
X180355952Y-57232619D01*
X180736905Y-56232619D02*
X181403571Y-57232619D01*
X181403571Y-56232619D02*
X180736905Y-57232619D01*
X182213095Y-56565952D02*
X182213095Y-57232619D01*
X181975000Y-56185000D02*
X181736905Y-56899285D01*
X181736905Y-56899285D02*
X182355952Y-56899285D01*
%TO.C,U1*%
X193078095Y-50402619D02*
X193078095Y-51212142D01*
X193078095Y-51212142D02*
X193125714Y-51307380D01*
X193125714Y-51307380D02*
X193173333Y-51355000D01*
X193173333Y-51355000D02*
X193268571Y-51402619D01*
X193268571Y-51402619D02*
X193459047Y-51402619D01*
X193459047Y-51402619D02*
X193554285Y-51355000D01*
X193554285Y-51355000D02*
X193601904Y-51307380D01*
X193601904Y-51307380D02*
X193649523Y-51212142D01*
X193649523Y-51212142D02*
X193649523Y-50402619D01*
X194649523Y-51402619D02*
X194078095Y-51402619D01*
X194363809Y-51402619D02*
X194363809Y-50402619D01*
X194363809Y-50402619D02*
X194268571Y-50545476D01*
X194268571Y-50545476D02*
X194173333Y-50640714D01*
X194173333Y-50640714D02*
X194078095Y-50688333D01*
%TO.C,MX8*%
X200644286Y-83902619D02*
X200644286Y-82902619D01*
X200644286Y-82902619D02*
X200977619Y-83616904D01*
X200977619Y-83616904D02*
X201310952Y-82902619D01*
X201310952Y-82902619D02*
X201310952Y-83902619D01*
X201691905Y-82902619D02*
X202358571Y-83902619D01*
X202358571Y-82902619D02*
X201691905Y-83902619D01*
X202882381Y-83331190D02*
X202787143Y-83283571D01*
X202787143Y-83283571D02*
X202739524Y-83235952D01*
X202739524Y-83235952D02*
X202691905Y-83140714D01*
X202691905Y-83140714D02*
X202691905Y-83093095D01*
X202691905Y-83093095D02*
X202739524Y-82997857D01*
X202739524Y-82997857D02*
X202787143Y-82950238D01*
X202787143Y-82950238D02*
X202882381Y-82902619D01*
X202882381Y-82902619D02*
X203072857Y-82902619D01*
X203072857Y-82902619D02*
X203168095Y-82950238D01*
X203168095Y-82950238D02*
X203215714Y-82997857D01*
X203215714Y-82997857D02*
X203263333Y-83093095D01*
X203263333Y-83093095D02*
X203263333Y-83140714D01*
X203263333Y-83140714D02*
X203215714Y-83235952D01*
X203215714Y-83235952D02*
X203168095Y-83283571D01*
X203168095Y-83283571D02*
X203072857Y-83331190D01*
X203072857Y-83331190D02*
X202882381Y-83331190D01*
X202882381Y-83331190D02*
X202787143Y-83378809D01*
X202787143Y-83378809D02*
X202739524Y-83426428D01*
X202739524Y-83426428D02*
X202691905Y-83521666D01*
X202691905Y-83521666D02*
X202691905Y-83712142D01*
X202691905Y-83712142D02*
X202739524Y-83807380D01*
X202739524Y-83807380D02*
X202787143Y-83855000D01*
X202787143Y-83855000D02*
X202882381Y-83902619D01*
X202882381Y-83902619D02*
X203072857Y-83902619D01*
X203072857Y-83902619D02*
X203168095Y-83855000D01*
X203168095Y-83855000D02*
X203215714Y-83807380D01*
X203215714Y-83807380D02*
X203263333Y-83712142D01*
X203263333Y-83712142D02*
X203263333Y-83521666D01*
X203263333Y-83521666D02*
X203215714Y-83426428D01*
X203215714Y-83426428D02*
X203168095Y-83378809D01*
X203168095Y-83378809D02*
X203072857Y-83331190D01*
%TO.C,MX5*%
X141589286Y-74377619D02*
X141589286Y-73377619D01*
X141589286Y-73377619D02*
X141922619Y-74091904D01*
X141922619Y-74091904D02*
X142255952Y-73377619D01*
X142255952Y-73377619D02*
X142255952Y-74377619D01*
X142636905Y-73377619D02*
X143303571Y-74377619D01*
X143303571Y-73377619D02*
X142636905Y-74377619D01*
X144160714Y-73377619D02*
X143684524Y-73377619D01*
X143684524Y-73377619D02*
X143636905Y-73853809D01*
X143636905Y-73853809D02*
X143684524Y-73806190D01*
X143684524Y-73806190D02*
X143779762Y-73758571D01*
X143779762Y-73758571D02*
X144017857Y-73758571D01*
X144017857Y-73758571D02*
X144113095Y-73806190D01*
X144113095Y-73806190D02*
X144160714Y-73853809D01*
X144160714Y-73853809D02*
X144208333Y-73949047D01*
X144208333Y-73949047D02*
X144208333Y-74187142D01*
X144208333Y-74187142D02*
X144160714Y-74282380D01*
X144160714Y-74282380D02*
X144113095Y-74330000D01*
X144113095Y-74330000D02*
X144017857Y-74377619D01*
X144017857Y-74377619D02*
X143779762Y-74377619D01*
X143779762Y-74377619D02*
X143684524Y-74330000D01*
X143684524Y-74330000D02*
X143636905Y-74282380D01*
%TO.C,MX7*%
X179689286Y-76282619D02*
X179689286Y-75282619D01*
X179689286Y-75282619D02*
X180022619Y-75996904D01*
X180022619Y-75996904D02*
X180355952Y-75282619D01*
X180355952Y-75282619D02*
X180355952Y-76282619D01*
X180736905Y-75282619D02*
X181403571Y-76282619D01*
X181403571Y-75282619D02*
X180736905Y-76282619D01*
X181689286Y-75282619D02*
X182355952Y-75282619D01*
X182355952Y-75282619D02*
X181927381Y-76282619D01*
%TO.C,MX6*%
X160639286Y-70567619D02*
X160639286Y-69567619D01*
X160639286Y-69567619D02*
X160972619Y-70281904D01*
X160972619Y-70281904D02*
X161305952Y-69567619D01*
X161305952Y-69567619D02*
X161305952Y-70567619D01*
X161686905Y-69567619D02*
X162353571Y-70567619D01*
X162353571Y-69567619D02*
X161686905Y-70567619D01*
X163163095Y-69567619D02*
X162972619Y-69567619D01*
X162972619Y-69567619D02*
X162877381Y-69615238D01*
X162877381Y-69615238D02*
X162829762Y-69662857D01*
X162829762Y-69662857D02*
X162734524Y-69805714D01*
X162734524Y-69805714D02*
X162686905Y-69996190D01*
X162686905Y-69996190D02*
X162686905Y-70377142D01*
X162686905Y-70377142D02*
X162734524Y-70472380D01*
X162734524Y-70472380D02*
X162782143Y-70520000D01*
X162782143Y-70520000D02*
X162877381Y-70567619D01*
X162877381Y-70567619D02*
X163067857Y-70567619D01*
X163067857Y-70567619D02*
X163163095Y-70520000D01*
X163163095Y-70520000D02*
X163210714Y-70472380D01*
X163210714Y-70472380D02*
X163258333Y-70377142D01*
X163258333Y-70377142D02*
X163258333Y-70139047D01*
X163258333Y-70139047D02*
X163210714Y-70043809D01*
X163210714Y-70043809D02*
X163163095Y-69996190D01*
X163163095Y-69996190D02*
X163067857Y-69948571D01*
X163067857Y-69948571D02*
X162877381Y-69948571D01*
X162877381Y-69948571D02*
X162782143Y-69996190D01*
X162782143Y-69996190D02*
X162734524Y-70043809D01*
X162734524Y-70043809D02*
X162686905Y-70139047D01*
D11*
%TO.C,MX2*%
X135775000Y-55765000D02*
X135775000Y-69965000D01*
X135775000Y-69965000D02*
X149975000Y-69965000D01*
X149975000Y-55765000D02*
X135775000Y-55765000D01*
X149975000Y-69965000D02*
X149975000Y-55765000D01*
%TO.C,MX3*%
X154825000Y-51955000D02*
X154825000Y-66155000D01*
X154825000Y-66155000D02*
X169025000Y-66155000D01*
X169025000Y-51955000D02*
X154825000Y-51955000D01*
X169025000Y-66155000D02*
X169025000Y-51955000D01*
%TO.C,MX1*%
X114820000Y-61480000D02*
X114820000Y-75680000D01*
X114820000Y-75680000D02*
X129020000Y-75680000D01*
X129020000Y-61480000D02*
X114820000Y-61480000D01*
X129020000Y-75680000D02*
X129020000Y-61480000D01*
%TO.C,MX4*%
X173875000Y-57670000D02*
X173875000Y-71870000D01*
X173875000Y-71870000D02*
X188075000Y-71870000D01*
X188075000Y-57670000D02*
X173875000Y-57670000D01*
X188075000Y-71870000D02*
X188075000Y-57670000D01*
%TO.C,U1*%
X193012500Y-52270000D02*
X210812500Y-52270000D01*
X210812500Y-52270000D02*
X210812500Y-73270000D01*
X210812500Y-73270000D02*
X193012500Y-73270000D01*
X193012500Y-73270000D02*
X193012500Y-52270000D01*
%TO.C,MX8*%
X194830000Y-84340000D02*
X194830000Y-98540000D01*
X194830000Y-98540000D02*
X209030000Y-98540000D01*
X209030000Y-84340000D02*
X194830000Y-84340000D01*
X209030000Y-98540000D02*
X209030000Y-84340000D01*
%TO.C,MX5*%
X135775000Y-74815000D02*
X135775000Y-89015000D01*
X135775000Y-89015000D02*
X149975000Y-89015000D01*
X149975000Y-74815000D02*
X135775000Y-74815000D01*
X149975000Y-89015000D02*
X149975000Y-74815000D01*
%TO.C,MX7*%
X173875000Y-76720000D02*
X173875000Y-90920000D01*
X173875000Y-90920000D02*
X188075000Y-90920000D01*
X188075000Y-76720000D02*
X173875000Y-76720000D01*
X188075000Y-90920000D02*
X188075000Y-76720000D01*
%TO.C,MX6*%
X154825000Y-71005000D02*
X154825000Y-85205000D01*
X154825000Y-85205000D02*
X169025000Y-85205000D01*
X169025000Y-71005000D02*
X154825000Y-71005000D01*
X169025000Y-85205000D02*
X169025000Y-71005000D01*
%TD*%
M02*
