%TF.GenerationSoftware,KiCad,Pcbnew,7.0.2*%
%TF.CreationDate,2023-09-16T14:44:34-04:00*%
%TF.ProjectId,j-artsey-v1,6a2d6172-7473-4657-992d-76312e6b6963,rev?*%
%TF.SameCoordinates,Original*%
%TF.FileFunction,Profile,NP*%
%FSLAX46Y46*%
G04 Gerber Fmt 4.6, Leading zero omitted, Abs format (unit mm)*
G04 Created by KiCad (PCBNEW 7.0.2) date 2023-09-16 14:44:34*
%MOMM*%
%LPD*%
G01*
G04 APERTURE LIST*
%TA.AperFunction,Profile*%
%ADD10C,0.100000*%
%TD*%
G04 APERTURE END LIST*
D10*
X131445000Y-81915000D02*
X131445000Y-89535000D01*
X169545000Y-93345000D02*
X169545000Y-91440000D01*
X133350000Y-51435000D02*
X135255000Y-51435000D01*
X152400000Y-93345000D02*
G75*
G03*
X154305000Y-91440000I0J1905000D01*
G01*
X114300000Y-80010000D02*
X129540000Y-80010000D01*
X173355000Y-49530000D02*
X173355000Y-51435000D01*
X169545000Y-47625000D02*
X171450000Y-47625000D01*
X112395000Y-57150000D02*
G75*
G03*
X110490000Y-59055000I0J-1905000D01*
G01*
X211455000Y-102870000D02*
G75*
G03*
X213360000Y-100965000I0J1905000D01*
G01*
X129540000Y-57150000D02*
X114300000Y-57150000D01*
X205740000Y-51435000D02*
G75*
G03*
X207645000Y-49530000I0J1905000D01*
G01*
X169545000Y-93345000D02*
G75*
G03*
X171450000Y-95250000I1905000J0D01*
G01*
X114300000Y-80010000D02*
X112395000Y-80010000D01*
X213360000Y-51435000D02*
G75*
G03*
X211455000Y-49530000I-1905000J0D01*
G01*
X110490000Y-78105000D02*
G75*
G03*
X112395000Y-80010000I1905000J0D01*
G01*
X188595000Y-53340000D02*
G75*
G03*
X190500000Y-51435000I0J1905000D01*
G01*
X192405000Y-102870000D02*
X211455000Y-102870000D01*
X152400000Y-47625000D02*
X154305000Y-47625000D01*
X190500000Y-100965000D02*
X190500000Y-99060000D01*
X112395000Y-57150000D02*
X114300000Y-57150000D01*
X135255000Y-93345000D02*
X133350000Y-93345000D01*
X196215000Y-49530000D02*
G75*
G03*
X198120000Y-51435000I1905000J0D01*
G01*
X190500000Y-100965000D02*
G75*
G03*
X192405000Y-102870000I1905000J0D01*
G01*
X175260000Y-53340000D02*
X188595000Y-53340000D01*
X133350000Y-51435000D02*
G75*
G03*
X131445000Y-53340000I0J-1905000D01*
G01*
X173355000Y-49530000D02*
G75*
G03*
X171450000Y-47625000I-1905000J0D01*
G01*
X152400000Y-93345000D02*
X150495000Y-93345000D01*
X173355000Y-95250000D02*
X171450000Y-95250000D01*
X213360000Y-99060000D02*
X213360000Y-100965000D01*
X110490000Y-60960000D02*
X110490000Y-59055000D01*
X110490000Y-60960000D02*
X110490000Y-76200000D01*
X173355000Y-51435000D02*
G75*
G03*
X175260000Y-53340000I1905000J0D01*
G01*
X156210000Y-89535000D02*
G75*
G03*
X154305000Y-91440000I0J-1905000D01*
G01*
X169545000Y-91440000D02*
G75*
G03*
X167640000Y-89535000I-1905000J0D01*
G01*
X129540000Y-57150000D02*
G75*
G03*
X131445000Y-55245000I0J1905000D01*
G01*
X173355000Y-95250000D02*
X188595000Y-95250000D01*
X131445000Y-55245000D02*
X131445000Y-53340000D01*
X110490000Y-78105000D02*
X110490000Y-76200000D01*
X192405000Y-49530000D02*
G75*
G03*
X190500000Y-51435000I0J-1905000D01*
G01*
X148590000Y-51435000D02*
X135255000Y-51435000D01*
X211455000Y-49530000D02*
X207645000Y-49530000D01*
X190500000Y-97155000D02*
X190500000Y-99060000D01*
X152400000Y-47625000D02*
G75*
G03*
X150495000Y-49530000I0J-1905000D01*
G01*
X131445000Y-91440000D02*
X131445000Y-89535000D01*
X131445000Y-91440000D02*
G75*
G03*
X133350000Y-93345000I1905000J0D01*
G01*
X205740000Y-51435000D02*
X198120000Y-51435000D01*
X190500000Y-97155000D02*
G75*
G03*
X188595000Y-95250000I-1905000J0D01*
G01*
X213360000Y-51435000D02*
X213360000Y-99060000D01*
X131445000Y-81915000D02*
G75*
G03*
X129540000Y-80010000I-1905000J0D01*
G01*
X135255000Y-93345000D02*
X150495000Y-93345000D01*
X192405000Y-49530000D02*
X196215000Y-49530000D01*
X156210000Y-89535000D02*
X167640000Y-89535000D01*
X169545000Y-47625000D02*
X154305000Y-47625000D01*
X148590000Y-51435000D02*
G75*
G03*
X150495000Y-49530000I0J1905000D01*
G01*
M02*
